<?xml version="1.0" encoding="UTF-8"?><svg id="_レイヤー_1" xmlns="http://www.w3.org/2000/svg" viewBox="0 0 92 92"><defs><style>.cls-1{fill:#48453a;}.cls-1,.cls-2{stroke-width:0px;}.cls-2{fill:#bab6b0;}</style></defs><g id="_パス_41"><path class="cls-1" d="m35.02,77.96c-3.54,0-5.81-.66-6.8-1.97-.64-.84-.59-1.74-.34-2.3,1.1-2.44,3.52-2.74,6.09-3.06.38-.05.76-.09,1.16-.15,2.56-.36,5.24-1.4,7.54-6.48,2.15-4.76-2.17-25.37-3.49-27.27-4.07-3.21-6.04-19.7-6.25-21.58-.06-.55.33-1.04.88-1.11.54-.06,1.04.33,1.11.88.77,6.8,2.95,18.31,5.53,20.25,2.11,1.58,6.4,24.44,4.04,29.65-2.71,5.98-6.11,7.22-9.09,7.63-.41.06-.81.11-1.19.16-2.54.32-3.9.55-4.51,1.9h0s-.01.14.17.34c.43.47,2.55,1.9,11.85.53,4.97-.73,7.72-.32,9.72-.03,1.42.21,2.45.37,3.76.05.66-.16,1.09-.46,1.36-.95.95-1.7-.08-5.55-1.08-8.71-1.19-3.75.04-7.21,1.34-10.88.88-2.49,1.79-5.06,2.17-8.09.64-5.16-.38-13.1-2.92-16.69-1.7-2.39.79-12.32,1.6-15.31.14-.53.69-.85,1.23-.71.53.14.85.69.71,1.23-1.54,5.71-2.66,12.55-1.9,13.63,2.91,4.1,3.96,12.58,3.28,18.09-.4,3.24-1.39,6.04-2.27,8.51-1.23,3.49-2.3,6.5-1.32,9.61,1.25,3.96,2.23,7.94.92,10.29-.55.97-1.43,1.61-2.62,1.91-1.69.42-3.01.22-4.53,0-1.98-.3-4.45-.66-9.13.03-2.71.4-5.04.6-6.99.6Zm4.23-41.19h.01-.01Z"/></g><g id="_パス_42"><path class="cls-2" d="m50.76,70.16s-.08,0-.11,0c-.55-.06-.94-.56-.88-1.11.03-.23,2.5-22.74-1.06-32.67-2.69-7.49-2.46-20.79-2.45-21.36.01-.55.46-.97,1.02-.98.55.01.99.47.98,1.02,0,.13-.23,13.5,2.33,20.64,3.72,10.36,1.27,32.62,1.16,33.57-.06.51-.49.89-.99.89Z"/></g><g id="_パス_43"><path class="cls-2" d="m47.77,62.38s-.05,0-.07,0c-.55-.04-.97-.52-.93-1.07.52-7.51-.32-14.98-2.48-22.19-4.75-15.96-4.02-23.86-3.98-24.19.06-.55.55-.95,1.09-.89.55.05.95.54.9,1.09,0,.08-.71,7.9,3.91,23.42,2.24,7.44,3.1,15.14,2.56,22.9-.04.53-.48.93-1,.93Z"/></g><g id="_パス_44"><path class="cls-2" d="m54.63,55.79c-.06,0-.11,0-.17-.01-.54-.1-.91-.61-.81-1.16.14-.81.28-1.72.42-2.68.2-1.33.42-2.83.7-4.3,1.5-7.67-1.3-15.55-7.29-20.56-.42-.35-.48-.98-.13-1.41.35-.42.99-.48,1.41-.12,6.55,5.48,9.6,14.09,7.97,22.47-.27,1.43-.48,2.85-.69,4.22-.15.98-.28,1.9-.43,2.72-.08.49-.51.83-.98.83Z"/></g><g id="_パス_45"><path class="cls-2" d="m42.79,29.23c-.09,0-.18-.01-.27-.04-.53-.15-.84-.7-.7-1.23.88-3.18,2.39-6.07,4.5-8.61.35-.42.98-.48,1.41-.13.43.35.48.98.13,1.41-1.92,2.32-3.3,4.96-4.11,7.87-.12.44-.52.73-.96.73Z"/></g><g id="_パス_46"><path class="cls-2" d="m56.03,47.02c-.39,0-.76-.23-.92-.61-.82-1.93-2.44-3.36-4.45-3.94-.53-.15-.84-.71-.68-1.24.15-.53.71-.83,1.24-.68,2.59.75,4.68,2.6,5.74,5.08.22.51-.02,1.1-.53,1.31-.13.05-.26.08-.39.08Z"/></g></svg>