<?xml version="1.0" encoding="UTF-8"?><svg id="_レイヤー_1" xmlns="http://www.w3.org/2000/svg" viewBox="0 0 92 92"><defs><style>.cls-1{fill:#48453a;}.cls-1,.cls-2{stroke-width:0px;}.cls-2{fill:#ae9373;}</style></defs><path class="cls-1" d="m27.54,22.96s-.07,0-.11,0c-.69-.06-1.2-.67-1.14-1.36.95-10.87,9.89-19.06,20.79-19.06,0,0,0,0,.02,0,10.52,0,19.42,7.88,20.71,18.32.09.69-.4,1.32-1.09,1.4-.69.08-1.32-.4-1.4-1.09-1.13-9.19-8.96-16.11-18.21-16.11h-.01c-9.59,0-17.45,7.2-18.28,16.76-.06.65-.61,1.15-1.25,1.15Z"/><path class="cls-1" d="m47.08,81.96c-.69,0-1.26-.56-1.26-1.26s.56-1.26,1.26-1.26c10.26,0,16.65-4.88,17.55-13.39.07-.69.68-1.19,1.38-1.12.69.07,1.19.69,1.12,1.38-1.03,9.79-8.52,15.64-20.05,15.64Z"/><path class="cls-1" d="m43.47,60.03c-.15,0-.31-.03-.46-.09-6.79-2.71-24.63-2.59-30.06-.91-.66.21-1.37-.16-1.57-.83-.21-.66.17-1.37.83-1.57,5.9-1.83,24.15-2.04,31.73.98.64.26.96.99.7,1.63-.2.49-.67.79-1.17.79Z"/><path class="cls-1" d="m21.81,51.92c-.69,0-1.26-.56-1.26-1.26v-22.69c0-.66.51-1.21,1.17-1.25,3.66-.26,16.1-.84,22.34,2.47.61.32.85,1.09.52,1.7-.32.61-1.08.85-1.7.52-4.25-2.25-12.8-2.65-19.81-2.25v21.51c0,.69-.56,1.26-1.26,1.26Z"/><path class="cls-2" d="m66.5,63.79c-3.89,0-7.54-1.51-10.29-4.26-2.75-2.75-4.26-6.4-4.26-10.29v-20.81c0-1.81,1.48-3.29,3.29-3.29h22.52c1.81,0,3.29,1.48,3.29,3.29v20.82c0,8.02-6.54,14.54-14.55,14.55h0Zm-11.26-36.14c-.43,0-.78.35-.78.78v20.81c0,3.22,1.25,6.25,3.53,8.52,2.27,2.27,5.29,3.53,8.51,3.53,0,0,0,0,0,0,6.63,0,12.03-5.4,12.04-12.03v-20.82c0-.43-.35-.78-.78-.78h-22.52Z"/><path class="cls-1" d="m72.93,45.59h-12.86c-.69,0-1.26-.56-1.26-1.26v-11.33c0-.69.56-1.26,1.26-1.26h12.86c.69,0,1.26.56,1.26,1.26v11.33c0,.69-.56,1.26-1.26,1.26Zm-11.61-2.52h10.35v-8.81h-10.35v8.81Z"/><path class="cls-1" d="m66.5,56.13c-2.03,0-3.68-1.65-3.68-3.68s1.65-3.68,3.68-3.68,3.68,1.65,3.68,3.68-1.65,3.68-3.68,3.68Zm0-4.85c-.64,0-1.17.52-1.17,1.17s.52,1.17,1.17,1.17,1.17-.52,1.17-1.17-.52-1.17-1.17-1.17Z"/><path class="cls-1" d="m42.52,84.73c-.69,0-1.26-.56-1.26-1.26v-5.45c0-.69.56-1.26,1.26-1.26s1.26.56,1.26,1.26v5.45c0,.69-.56,1.26-1.26,1.26Z"/><path class="cls-1" d="m27.97,62.58c-6.61,0-13.2-.89-16.23-2.67-.45-.2-.79-.64-.79-1.14v-29.42c0-.55.36-1.04.89-1.2,1.36-.41,2.77-.66,4.2-.73.68-.03,1.28.5,1.32,1.19.03.69-.5,1.28-1.19,1.32-.91.05-1.81.17-2.7.38v27.66c5.26,2.51,22.98,2.91,28.97.04v-27.4c0-.69.56-1.26,1.26-1.26s1.26.56,1.26,1.26v28.15c0,.44-.23.85-.6,1.07-3,1.83-9.69,2.74-16.38,2.74Z"/><path class="cls-2" d="m26.19,89.47c-3.76,0-7.53-1.17-10.68-3.52-.67-.43-1.29-1.05-1.77-1.8-1.87-2.89-1.05-6.77,1.84-8.65,6.21-4.64,14.97-4.64,21.25.05.97.62,1.77,1.57,2.26,2.71.07.16.1.33.1.5v3.99c0,.17-.04.34-.1.5-.49,1.13-1.3,2.09-2.33,2.76-3.09,2.31-6.82,3.47-10.56,3.47Zm-.04-14.92c-3.23,0-6.45,1.01-9.13,3.01-1.8,1.17-2.29,3.49-1.17,5.22.29.44.66.81,1.1,1.1,5.46,4.07,12.98,4.08,18.37.05.61-.4,1.06-.89,1.36-1.47v-3.43c-.29-.58-.74-1.07-1.28-1.42-2.74-2.04-6-3.06-9.24-3.06Z"/></svg>