<?xml version="1.0" encoding="UTF-8"?>
<svg id="_レイヤー_1" data-name=" レイヤー 1" xmlns="http://www.w3.org/2000/svg" version="1.1" viewBox="0 0 92 92">
  <defs>
    <style>
      .cls-1 {
        fill: #8b8780;
      }

      .cls-1, .cls-2 {
        stroke-width: 0px;
      }

      .cls-2 {
        fill: #48453a;
      }
    </style>
  </defs>
  <path class="cls-2" d="M17.4,88.6h-5.2c-.7,0-1.3-.6-1.3-1.3v-12.2c0-.7.6-1.3,1.3-1.3s1.3.6,1.3,1.3v11h2.6v-11c0-.7.6-1.3,1.3-1.3s1.3.6,1.3,1.3v12.2c0,.7-.6,1.3-1.3,1.3h0Z"/>
  <path class="cls-2" d="M77.6,88.6h-5.2c-.7,0-1.3-.6-1.3-1.3v-12.2c0-.7.6-1.3,1.3-1.3s1.3.6,1.3,1.3v11h2.7v-11c0-.7.6-1.3,1.3-1.3s1.3.6,1.3,1.3v12.2c0,.7-.6,1.3-1.3,1.3h0Z"/>
  <path class="cls-2" d="M67.8,26.2c-.7,0-1.3-.6-1.3-1.3V8.8c0-1.6-1.3-2.9-2.9-2.9H28.3c-1.6,0-2.9,1.3-2.9,2.9v16.2c0,.7-.6,1.3-1.3,1.3s-1.3-.6-1.3-1.3V8.8c0-3,2.5-5.4,5.4-5.4h35.3c3,0,5.4,2.4,5.4,5.4v16.2c0,.7-.6,1.3-1.3,1.3h0Z"/>
  <path class="cls-1" d="M58,24.3h-24c-.7,0-1.3-.6-1.3-1.3v-5.1c0-3.8,3.1-6.8,6.8-6.8h12.9c3.8,0,6.8,3.1,6.8,6.8v5.1c0,.7-.6,1.3-1.3,1.3ZM35.3,21.8h21.5v-3.8c0-2.4-1.9-4.3-4.3-4.3h-12.9c-2.4,0-4.3,1.9-4.3,4.3v3.8h0Z"/>
  <path class="cls-2" d="M79.5,72.2H12.5c-3.7,0-6.8-3-6.8-6.8v-12.7c0-.7.6-1.3,1.3-1.3s1.3.6,1.3,1.3v12.7c0,2.3,1.9,4.2,4.2,4.2h66.9c2.3,0,4.2-1.9,4.2-4.2v-12.7c0-.7.6-1.3,1.3-1.3s1.3.6,1.3,1.3v12.7c0,3.7-3,6.8-6.8,6.8h0Z"/>
  <path class="cls-2" d="M76.1,54H15.5c-.7,0-1.3-.6-1.3-1.3s.6-1.3,1.3-1.3h60.6c.7,0,1.3.6,1.3,1.3s-.6,1.3-1.3,1.3Z"/>
  <path class="cls-2" d="M85,54c-.4,0-.8-.2-1.1-.6l-13.8-23s0,0,0-.1c-1.8-3.7-5.6-6-9.7-6h-28.7c-4.1,0-7.9,2.4-9.7,6,0,0,0,0,0,.1l-13.8,23c-.4.6-1.1.8-1.7.4s-.8-1.1-.4-1.7l13.8-22.9c2.2-4.5,6.9-7.4,11.9-7.4h28.7c5,0,9.7,2.9,11.9,7.4l13.8,22.9c.4.6.2,1.4-.4,1.7-.2.1-.4.2-.7.2h0Z"/>
</svg>