<?xml version="1.0" encoding="UTF-8"?><svg id="_レイヤー_1" xmlns="http://www.w3.org/2000/svg" viewBox="0 0 92 92"><defs><style>.cls-1{fill:#48453a;}.cls-1,.cls-2{stroke-width:0px;}.cls-2{fill:#ae9373;}</style></defs><path class="cls-1" d="m85.07,64.72H6.93c-2.81,0-5.09-2.29-5.09-5.09V9.39c0-2.81,2.28-5.09,5.09-5.09h78.13c2.81,0,5.09,2.29,5.09,5.09v50.23c0,2.81-2.28,5.09-5.09,5.09ZM6.93,6.81c-1.42,0-2.58,1.16-2.58,2.58v50.23c0,1.42,1.16,2.58,2.58,2.58h78.13c1.42,0,2.58-1.16,2.58-2.58V9.39c0-1.42-1.16-2.58-2.58-2.58H6.93Z"/><path class="cls-1" d="m70.11,87.7H21.89c-.69,0-1.26-.56-1.26-1.26s.56-1.26,1.26-1.26h48.22c.69,0,1.26.56,1.26,1.26s-.56,1.26-1.26,1.26Z"/><path class="cls-1" d="m38.75,87.7c-.69,0-1.26-.56-1.26-1.26v-17.86c0-.69.56-1.26,1.26-1.26s1.26.56,1.26,1.26v17.86c0,.69-.56,1.26-1.26,1.26Z"/><path class="cls-1" d="m53.25,87.7c-.69,0-1.26-.56-1.26-1.26v-17.86c0-.69.56-1.26,1.26-1.26s1.26.56,1.26,1.26v17.86c0,.69-.56,1.26-1.26,1.26Z"/><path class="cls-2" d="m51.72,51.07c-.32,0-.64-.12-.89-.37-.49-.49-.49-1.29,0-1.78l22.38-22.4c.49-.49,1.29-.49,1.78,0s.49,1.29,0,1.78l-22.38,22.4c-.25.25-.57.37-.89.37Z"/><path class="cls-2" d="m64.1,49.02c-.32,0-.64-.12-.89-.37-.49-.49-.49-1.29,0-1.78l9.14-9.15c.49-.49,1.29-.49,1.78,0s.49,1.29,0,1.78l-9.14,9.15c-.25.25-.57.37-.89.37Z"/><path class="cls-1" d="m81.57,57.72H15.26c-.69,0-1.26-.56-1.26-1.26s.56-1.26,1.26-1.26h65.05V17.01c0-.69.56-1.26,1.26-1.26s1.26.56,1.26,1.26v39.45c0,.69-.56,1.26-1.26,1.26Z"/><path class="cls-1" d="m10.43,52.25c-.69,0-1.26-.56-1.26-1.26V12.56c0-.69.56-1.26,1.26-1.26h66.38c.69,0,1.26.56,1.26,1.26s-.56,1.26-1.26,1.26H11.69v37.18c0,.69-.56,1.26-1.26,1.26Z"/></svg>