<?xml version="1.0" encoding="UTF-8"?>
<svg id="_レイヤー_1" data-name=" レイヤー 1" xmlns="http://www.w3.org/2000/svg" version="1.1" viewBox="0 0 92 92">
  <defs>
    <style>
      .cls-1 {
        fill: #8b8780;
      }

      .cls-1, .cls-2 {
        stroke-width: 0px;
      }

      .cls-2 {
        fill: #48453a;
      }
    </style>
  </defs>
  <path class="cls-2" d="M27.5,23h-.1c-.7,0-1.2-.7-1.1-1.4,1-10.9,9.9-19.1,20.8-19.1h0c10.5,0,19.4,7.9,20.7,18.3,0,.7-.4,1.3-1.1,1.4-.7,0-1.3-.4-1.4-1.1-1.1-9.2-9-16.1-18.2-16.1h0c-9.6,0-17.5,7.2-18.3,16.8,0,.6-.6,1.1-1.2,1.1h0Z"/>
  <path class="cls-2" d="M47.1,82c-.7,0-1.3-.6-1.3-1.3s.6-1.3,1.3-1.3c10.3,0,16.7-4.9,17.6-13.4,0-.7.7-1.2,1.4-1.1.7,0,1.2.7,1.1,1.4-1,9.8-8.5,15.6-20,15.6h0Z"/>
  <path class="cls-2" d="M43.5,60c-.2,0-.3,0-.5,0-6.8-2.7-24.6-2.6-30.1-.9-.7.2-1.4-.2-1.6-.8-.2-.7.2-1.4.8-1.6,5.9-1.8,24.1-2,31.7,1,.6.3,1,1,.7,1.6-.2.5-.7.8-1.2.8Z"/>
  <path class="cls-2" d="M21.8,51.9c-.7,0-1.3-.6-1.3-1.3v-22.7c0-.7.5-1.2,1.2-1.2,3.7-.3,16.1-.8,22.3,2.5.6.3.8,1.1.5,1.7-.3.6-1.1.9-1.7.5-4.2-2.2-12.8-2.6-19.8-2.2v21.5c0,.7-.6,1.3-1.3,1.3h0Z"/>
  <path class="cls-1" d="M66.5,63.8c-3.9,0-7.5-1.5-10.3-4.3-2.8-2.8-4.3-6.4-4.3-10.3v-20.8c0-1.8,1.5-3.3,3.3-3.3h22.5c1.8,0,3.3,1.5,3.3,3.3v20.8c0,8-6.5,14.5-14.6,14.5h0ZM55.2,27.7c-.4,0-.8.4-.8.8v20.8c0,3.2,1.2,6.2,3.5,8.5,2.3,2.3,5.3,3.5,8.5,3.5h0c6.6,0,12-5.4,12-12v-20.8c0-.4-.3-.8-.8-.8h-22.5Z"/>
  <path class="cls-2" d="M72.9,45.6h-12.9c-.7,0-1.3-.6-1.3-1.3v-11.3c0-.7.6-1.3,1.3-1.3h12.9c.7,0,1.3.6,1.3,1.3v11.3c0,.7-.6,1.3-1.3,1.3ZM61.3,43.1h10.3v-8.8h-10.3v8.8Z"/>
  <path class="cls-2" d="M66.5,56.1c-2,0-3.7-1.7-3.7-3.7s1.7-3.7,3.7-3.7,3.7,1.7,3.7,3.7-1.7,3.7-3.7,3.7ZM66.5,51.3c-.6,0-1.2.5-1.2,1.2s.5,1.2,1.2,1.2,1.2-.5,1.2-1.2-.5-1.2-1.2-1.2Z"/>
  <path class="cls-2" d="M42.5,84.7c-.7,0-1.3-.6-1.3-1.3v-5.4c0-.7.6-1.3,1.3-1.3s1.3.6,1.3,1.3v5.4c0,.7-.6,1.3-1.3,1.3Z"/>
  <path class="cls-2" d="M28,62.6c-6.6,0-13.2-.9-16.2-2.7-.4-.2-.8-.6-.8-1.1v-29.4c0-.5.4-1,.9-1.2,1.4-.4,2.8-.7,4.2-.7.7,0,1.3.5,1.3,1.2,0,.7-.5,1.3-1.2,1.3-.9,0-1.8.2-2.7.4v27.7c5.3,2.5,23,2.9,29,0v-27.4c0-.7.6-1.3,1.3-1.3s1.3.6,1.3,1.3v28.1c0,.4-.2.8-.6,1.1-3,1.8-9.7,2.7-16.4,2.7h0Z"/>
  <path class="cls-1" d="M26.2,89.5c-3.8,0-7.5-1.2-10.7-3.5-.7-.4-1.3-1.1-1.8-1.8-1.9-2.9-1.1-6.8,1.8-8.7,6.2-4.6,15-4.6,21.3,0,1,.6,1.8,1.6,2.3,2.7,0,.2,0,.3,0,.5v4c0,.2,0,.3,0,.5-.5,1.1-1.3,2.1-2.3,2.8-3.1,2.3-6.8,3.5-10.6,3.5h0ZM26.1,74.6c-3.2,0-6.4,1-9.1,3-1.8,1.2-2.3,3.5-1.2,5.2.3.4.7.8,1.1,1.1,5.5,4.1,13,4.1,18.4,0,.6-.4,1.1-.9,1.4-1.5v-3.4c-.3-.6-.7-1.1-1.3-1.4-2.7-2-6-3.1-9.2-3.1h0Z"/>
</svg>