<?xml version="1.0" encoding="UTF-8"?><svg id="_レイヤー_1" xmlns="http://www.w3.org/2000/svg" viewBox="0 0 92 92"><defs><style>.cls-1{fill:#48453a;}.cls-1,.cls-2{stroke-width:0px;}.cls-2{fill:#ae9373;}</style></defs><path class="cls-1" d="m46,29.18c-7.33,0-13.29-5.97-13.29-13.3s5.96-13.3,13.29-13.3,13.29,5.97,13.29,13.3-5.96,13.3-13.29,13.3Zm0-24.08c-5.94,0-10.78,4.84-10.78,10.78s4.83,10.78,10.78,10.78,10.78-4.84,10.78-10.78-4.83-10.78-10.78-10.78Z"/><path class="cls-1" d="m56.68,89.41c-1.47,0-2.95-.43-4.25-1.33-2.68-1.85-3.39-5.45-1.63-8.19l3.91-6.06c.38-.58,1.15-.75,1.74-.38s.75,1.15.38,1.74l-3.9,6.06c-1.02,1.59-.61,3.68.95,4.76,2.19,1.51,5.16,1.04,6.77-1.09l9.3-12.29c1.66-2.19,2.71-4.78,3.04-7.5l.85-6.97c.62-4.89-.64-9.76-3.56-13.72-.3-.4-.59-.76-.86-1.07l-1.5-1.5c-4.4-4.4-9.85-7.03-12.59-7.03h-18.62c-2.74,0-8.2,2.63-12.59,7.03l-1.55,1.55c-.22.25-.51.61-.81,1.02-2.92,3.96-4.18,8.83-3.56,13.71l.86,6.98c.33,2.72,1.39,5.31,3.04,7.5l9.3,12.29c1.61,2.12,4.58,2.6,6.77,1.09,1.55-1.08,1.97-3.16.95-4.76l-3.68-5.71c-.38-.58-.21-1.36.38-1.74.58-.38,1.36-.21,1.74.38l3.68,5.71c1.76,2.74,1.05,6.33-1.63,8.19-3.3,2.28-7.78,1.56-10.2-1.64l-9.3-12.29c-1.92-2.54-3.14-5.55-3.53-8.71l-.85-6.97c-.7-5.52.73-11.04,4.03-15.52.34-.46.68-.88,1-1.24l1.6-1.61c4.5-4.5,10.54-7.76,14.37-7.76h18.62c3.83,0,9.88,3.26,14.37,7.76l1.55,1.56c.36.41.7.82,1.05,1.29,3.31,4.49,4.74,10,4.04,15.53l-.85,6.97c-.39,3.16-1.61,6.17-3.53,8.71l-9.3,12.29c-1.47,1.94-3.69,2.97-5.95,2.97Z"/><path class="cls-2" d="m46.02,76.04c-.53,0-1.07-.16-1.53-.47-3.78-2.42-7.29-5.27-10.45-8.46-.02-.02-.05-.05-.07-.07-5.01-5.95-4.07-11.18-2.39-14.53,1.51-3.04,4.87-4.89,8.54-4.72,2.43.12,4.52,1.09,5.87,2.64,1.35-1.55,3.44-2.52,5.86-2.64,3.67-.18,7.04,1.67,8.56,4.72,1.67,3.34,2.61,8.58-2.39,14.53-.02.03-.04.05-.07.07-3.16,3.2-6.68,6.05-10.47,8.48-.43.31-.95.46-1.48.46Zm-10.15-10.67c3.02,3.06,6.38,5.78,10,8.09.02.01.03.02.05.03.05.04.12.04.17,0,3.67-2.35,7.03-5.07,10.05-8.12,3.29-3.92,3.97-7.88,2.04-11.75-1.31-2.62-4.15-3.42-6.18-3.33-1.81.09-4.03.92-4.81,2.98-.19.49-.65.81-1.18.81s-.99-.32-1.18-.81c-.78-2.06-3-2.89-4.82-2.98-2.03-.11-4.87.71-6.17,3.33-1.94,3.88-1.25,7.83,2.03,11.75Z"/></svg>