<?xml version="1.0" encoding="UTF-8"?><svg id="_レイヤー_1" xmlns="http://www.w3.org/2000/svg" viewBox="0 0 92 92"><defs><style>.cls-1,.cls-2,.cls-3,.cls-4{fill:none;}.cls-1,.cls-3{stroke:#48453a;}.cls-1,.cls-3,.cls-4{stroke-linecap:round;stroke-linejoin:round;}.cls-1,.cls-4{stroke-width:2.59px;}.cls-2{stroke-width:0px;}.cls-3{stroke-width:2.59px;}.cls-4{stroke:#ae9373;}</style></defs><path class="cls-2" d="m75.47,13.17l3.37,3.37c1.14,1.14,1.14,3,0,4.14h0l-3.6,3.6h0l-7.51-7.51h0l3.6-3.6c1.14-1.14,3-1.14,4.14,0h0Z"/><path class="cls-3" d="m74.55,14.09l3.37,3.37c.64.64.64,1.67,0,2.31l-2.68,2.68h0l-5.68-5.68h0l2.68-2.68c.64-.64,1.67-.64,2.31,0Z"/><line class="cls-4" x1="79.52" y1="12.49" x2="92"/><path class="cls-1" d="m17.19,43.97l6.29,6.3L58.83,14.9c.77-.77,1.89-1.05,2.93-.75l7.22,2.12,6.79,6.79,2.12,7.23c.31,1.04.02,2.17-.75,2.94l-35.35,35.38,6.2,6.21"/><path class="cls-1" d="m34.93,69.24l-15.87,15.71,1.47,1.47c1.13,1.08,1.35,2.81.52,4.14-.98,1.48-2.97,1.88-4.45.91-.18-.12-.34-.25-.49-.4l-15.09-15.1c-1.13-1.08-1.35-2.81-.52-4.14.98-1.48,2.97-1.88,4.45-.91.18.12.34.25.49.4l1.57,1.58,15.87-15.71"/><line class="cls-4" x1="34.09" y1="46.12" x2="40.23" y2="52.52"/><line class="cls-4" x1="38.86" y1="41.55" x2="43.45" y2="46.34"/><line class="cls-4" x1="43.62" y1="36.97" x2="48.22" y2="41.76"/><line class="cls-4" x1="48.39" y1="32.39" x2="54.53" y2="38.79"/><line class="cls-4" x1="53.16" y1="27.82" x2="57.75" y2="32.61"/><line class="cls-4" x1="57.92" y1="23.24" x2="62.52" y2="28.03"/><line class="cls-1" x1="7.01" y1="72.9" x2="13.8" y2="79.7"/><line class="cls-1" x1="23.48" y1="50.27" x2="41.8" y2="68.61"/></svg>