<?xml version="1.0" encoding="UTF-8"?><svg id="_レイヤー_1" xmlns="http://www.w3.org/2000/svg" viewBox="0 0 92 92"><defs><style>.cls-1{stroke:#48453a;}.cls-1,.cls-2{fill:none;stroke-linecap:round;stroke-linejoin:round;stroke-width:2.59px;}.cls-2{stroke:#ae9373;}</style></defs><path class="cls-1" d="m27.02,21.01c.91-10.42,9.64-18.42,20.09-18.41h0c10.18,0,18.77,7.59,20.02,17.7"/><path class="cls-1" d="m66.44,66.75c-1.07,10.14-8.91,14.92-19.32,14.92h0"/><path class="cls-1" d="m43.4,59.12c-7.5-2.98-26.13-2.72-31.76-.97"/><path class="cls-1" d="m21.13,50.78v-23.33h0c7.72-.54,17.44-.17,22.27,2.39"/><path class="cls-2" d="m67.08,62.99h0c-7.55,0-13.67-6.12-13.67-13.67h0v-21.4c0-1.15.94-2.09,2.09-2.09h23.15c1.15,0,2.09.94,2.09,2.09v21.41c0,7.55-6.12,13.66-13.67,13.66Z"/><rect class="cls-1" x="60.46" y="32.63" width="13.22" height="11.65"/><circle class="cls-1" cx="67.07" cy="52.62" r="2.49"/><line class="cls-1" x1="42.42" y1="78.92" x2="42.42" y2="84.52"/><path class="cls-1" d="m15.26,28.18c-1.36.07-2.7.3-4,.69v30.24h.08c5.39,3.32,26.41,3.59,32.29,0v-28.94"/><path class="cls-2" d="m37.7,79.66c-.4-.93-1.07-1.71-1.91-2.26-6.04-4.51-14.33-4.51-20.37,0-2.38,1.54-3.06,4.72-1.51,7.1.39.61.91,1.12,1.51,1.51,6.04,4.51,14.33,4.51,20.37,0,.85-.55,1.51-1.33,1.91-2.26v-4.1Z"/></svg>