<?xml version="1.0" encoding="UTF-8"?><svg id="_レイヤー_1" xmlns="http://www.w3.org/2000/svg" viewBox="0 0 92 92"><defs><style>.cls-1,.cls-2,.cls-3,.cls-4{fill:none;}.cls-1,.cls-3{stroke:#48453a;}.cls-1,.cls-3,.cls-4{stroke-linecap:round;stroke-linejoin:round;}.cls-1,.cls-4{stroke-width:2.59px;}.cls-2,.cls-5{stroke-width:0px;}.cls-5{fill:#ae9373;}.cls-3{stroke-width:2.59px;}.cls-4{stroke:#ae9373;}</style></defs><path class="cls-2" d="m21.54,22.89h68.72c1.62,0,2.94,1.32,2.94,2.94v54.32c0,1.62-1.32,2.94-2.94,2.94H21.54c-1.62,0-2.94-1.32-2.94-2.94V25.83c0-1.62,1.32-2.94,2.94-2.94Z" transform="translate(2.82 108.79) rotate(-89.89)"/><path class="cls-3" d="m21.54,24.18h68.72c.91,0,1.65.74,1.65,1.65v54.32c0,.91-.74,1.65-1.65,1.65H21.54c-.91,0-1.64-.74-1.64-1.64V25.82c0-.91.74-1.64,1.64-1.64Z" transform="translate(2.82 108.79) rotate(-89.89)"/><path class="cls-1" d="m25.75,83.74l-4.5.78c-1.65.29-3.21-.82-3.5-2.46L5.98,14.52c-.29-1.65.82-3.21,2.46-3.5L61.78,1.71c1.65-.29,3.21.82,3.5,2.46l1.87,10.74"/><path class="cls-4" d="m72.04,40.25c-9.12-8.42-23.16-8.44-32.31-.06"/><path class="cls-4" d="m72.02,48.84c-9.12-8.42-23.16-8.45-32.31-.06"/><path class="cls-4" d="m72.01,57.44c-9.12-8.42-23.16-8.44-32.31-.06"/><line class="cls-4" x1="55.9" y1="27.79" x2="55.84" y2="67.71"/><path class="cls-2" d="m71.04,69.37c0,5.51-6.83,9.96-15.23,9.94-8.4-.02-15.2-4.49-15.19-10s6.83-7.4,15.23-7.38,15.21,1.93,15.2,7.44Z"/><path class="cls-5" d="m55.74,64.51c-4.13,0-7.47.49-9.68,1.43-2.53,1.07-2.86,2.37-2.86,3.37,0,2.38,2.05,4.09,3.28,4.9,2.42,1.59,5.82,2.51,9.34,2.51h.04c3.51,0,6.9-.91,9.32-2.49,1.22-.8,3.28-2.5,3.28-4.87,0-1.01-.32-2.31-2.87-3.39-2.22-.94-5.59-1.45-9.75-1.46h-.1m0-2.59s.07,0,.11,0c8.4.02,15.21,1.93,15.2,7.44-.01,5.5-6.8,9.94-15.18,9.94h-.05c-8.4-.02-15.2-4.49-15.19-10,.01-5.48,6.77-7.38,15.12-7.38Z"/></svg>