<?xml version="1.0" encoding="UTF-8"?>
<svg id="_レイヤー_1" data-name=" レイヤー 1" xmlns="http://www.w3.org/2000/svg" version="1.1" viewBox="0 0 92 92">
  <defs>
    <style>
      .cls-1 {
        stroke: #48453a;
      }

      .cls-1, .cls-2 {
        fill: none;
        stroke-linecap: round;
        stroke-linejoin: round;
        stroke-width: 2.6px;
      }

      .cls-2 {
        stroke: #8b8780;
      }
    </style>
  </defs>
  <path class="cls-1" d="M27,21c.9-10.4,9.6-18.4,20.1-18.4h0c10.2,0,18.8,7.6,20,17.7"/>
  <path class="cls-1" d="M66.4,66.8c-1.1,10.1-8.9,14.9-19.3,14.9h0"/>
  <path class="cls-1" d="M43.4,59.1c-7.5-3-26.1-2.7-31.8-1"/>
  <path class="cls-1" d="M21.1,50.8v-23.3h0c7.7-.5,17.4-.2,22.3,2.4"/>
  <path class="cls-2" d="M67.1,63h0c-7.5,0-13.7-6.1-13.7-13.7h0v-21.4c0-1.1.9-2.1,2.1-2.1h23.1c1.2,0,2.1.9,2.1,2.1v21.4c0,7.5-6.1,13.7-13.7,13.7h0Z"/>
  <rect class="cls-1" x="60.5" y="32.6" width="13.2" height="11.6"/>
  <circle class="cls-1" cx="67.1" cy="52.6" r="2.5"/>
  <line class="cls-1" x1="42.4" y1="78.9" x2="42.4" y2="84.5"/>
  <path class="cls-1" d="M15.3,28.2c-1.4,0-2.7.3-4,.7v30.2h0c5.4,3.3,26.4,3.6,32.3,0v-28.9"/>
  <path class="cls-2" d="M37.7,79.7c-.4-.9-1.1-1.7-1.9-2.3-6-4.5-14.3-4.5-20.4,0-2.4,1.5-3.1,4.7-1.5,7.1.4.6.9,1.1,1.5,1.5,6,4.5,14.3,4.5,20.4,0,.8-.6,1.5-1.3,1.9-2.3v-4.1h0Z"/>
</svg>