<?xml version="1.0" encoding="UTF-8"?>
<svg id="_レイヤー_1" data-name=" レイヤー 1" xmlns="http://www.w3.org/2000/svg" version="1.1" viewBox="0 0 92 92">
  <defs>
    <style>
      .cls-1 {
        fill: #8b8780;
      }

      .cls-1, .cls-2 {
        stroke-width: 0px;
      }

      .cls-2 {
        fill: #48453a;
      }
    </style>
  </defs>
  <path class="cls-2" d="M33.7,22c-1.4,0-3-.2-4.6-.7-.7-.2-1.1-.9-.9-1.6s.9-1.1,1.6-.9c3.2.9,6,.8,8.1-.5,3.4-2,4.4-6,4.4-6,.1-.6.6-1,1.2-1,.6,0,1.1.3,1.3.8.1.3,2.9,6.8,9.9,6.7h0c.7,0,1.3.6,1.3,1.3,0,.7-.6,1.3-1.3,1.3-5.7,0-9.2-3.3-10.9-5.8-.8,1.6-2.3,3.6-4.6,5-1.7,1-3.6,1.5-5.6,1.5Z"/>
  <path class="cls-2" d="M42.2,37.4h0c-7.3,0-13.3-6-13.3-13.3,0-.7.6-1.3,1.3-1.3h0c.7,0,1.3.6,1.3,1.3,0,5.9,4.8,10.7,10.6,10.7h0c2.8,0,5.5-1.1,7.5-3.1,2-2,3.1-4.7,3.1-7.5,0-.7.6-1.3,1.3-1.3h0c.7,0,1.3.6,1.3,1.3,0,3.5-1.4,6.9-3.9,9.4-2.5,2.5-5.8,3.9-9.4,3.9h0Z"/>
  <path class="cls-2" d="M58.3,43.2c-.7,0-1.3-.6-1.3-1.3v-20.5c0-8.2-6.5-14.9-14.7-15h-.2c-8.1,0-14.8,6.6-14.8,14.7v20.8c0,.7-.6,1.3-1.3,1.3s-1.3-.6-1.3-1.3v-20.8c.1-9.6,8-17.4,17.7-17.3,9.6,0,17.4,8,17.3,17.7v20.5c0,.7-.6,1.3-1.3,1.3h0Z"/>
  <path class="cls-2" d="M30.2,67.3c-3.2,0-5.2-1-6.8-3.2,0,0,0,0,0-.1-1-1.9-1-4.2,0-6.1.4-1,6.5-15,7.5-17.5.9-2.1,3.1-3.3,5.3-2.8.7.1,1.2.8,1,1.5-.1.7-.8,1.2-1.5,1-1-.2-2,.3-2.4,1.3-1.1,2.6-7.5,17.4-7.6,17.6,0,0,0,0,0,0-.6,1.1-.6,2.5,0,3.6,1,1.4,2.4,2.2,6,1.9,3.5-.3,19.6-1.7,21.7-1.9,1.4-.7,2.3-2.1,2.3-3.7-.1-1.3-1.1-2.8-7.3-2.3-4.1.3-11,1.2-11.1,1.2-.5,0-1-.2-1.2-.5s-.3-.9-.1-1.3l4.5-9.6c.3-.7,1.1-1,1.8-.6.7.3,1,1.1.6,1.8l-3.5,7.4c2.4-.3,6.2-.7,8.8-.9,2.6-.2,9.7-.8,10.2,4.8,0,2.8-1.5,5.3-4,6.4-.1,0-.3,0-.4,0,0,0-18.1,1.6-21.9,1.9-.6,0-1.1,0-1.7,0h0Z"/>
  <path class="cls-2" d="M51.6,55.7c-.3,0-.6-.1-.9-.3-.5-.5-.6-1.3-.1-1.9,1.8-2,2.5-4,2.2-6-.7-4.1-5.7-7-5.7-7-.6-.4-.9-1.2-.5-1.8s1.2-.9,1.8-.5c.2.1,6.1,3.5,7,8.9.5,2.8-.5,5.6-2.8,8.2-.3.3-.6.5-1,.5h0Z"/>
  <path class="cls-2" d="M30.3,86.9c-.7,0-1.3-.6-1.3-1.3v-15.1c0-.7.6-1.3,1.3-1.3s1.3.6,1.3,1.3v15.1c0,.7-.6,1.3-1.3,1.3Z"/>
  <path class="cls-2" d="M54.4,88.2h-.4c-.7,0-1.3-.7-1.2-1.4,0-.7.7-1.3,1.4-1.2.4,0,10.2.5,12.2-9.6,1.8-9-3.9-14-9.9-15.7-.7-.2-1.1-.9-.9-1.6s.9-1.1,1.6-.9c6.7,1.9,13.9,8,11.7,18.8-2.2,11.2-12.5,11.7-14.6,11.7h0Z"/>
  <path class="cls-1" d="M52.8,81.6c-.4,0-.8-.1-1.1-.3-1.7-1.1-3.3-2.4-4.7-3.8-1.9-1.9-2.4-4.8-1.2-7.3.8-1.6,2.6-2.6,4.5-2.5,1,0,1.9.4,2.5.9.7-.5,1.6-.8,2.5-.9,1.9,0,3.7.9,4.5,2.5,1.2,2.5.7,5.4-1.2,7.3-1.4,1.4-3,2.7-4.7,3.8-.3.2-.7.3-1.1.3h0ZM53.2,79.1h0ZM52.4,79.1s0,0,0,0c0,0,0,0,0,0ZM50,70.2c-.7,0-1.5.3-1.9,1.1-.7,1.4-.4,3.2.7,4.3,1.2,1.2,2.5,2.3,4,3.3,1.4-1,2.8-2.1,3.9-3.2,1.2-1.1,1.5-2.8.7-4.3-.4-.8-1.3-1.1-2-1-.5,0-1.2.3-1.4.8-.2.5-.7.8-1.2.8h0c-.5,0-1-.3-1.2-.8-.2-.6-.9-.8-1.4-.8h-.1Z"/>
</svg>