<?xml version="1.0" encoding="UTF-8"?><svg id="_レイヤー_1" xmlns="http://www.w3.org/2000/svg" viewBox="0 0 92 92"><defs><style>.cls-1{fill:#48453a;}.cls-1,.cls-2{stroke-width:0px;}.cls-2{fill:#ae9373;}</style></defs><path class="cls-2" d="m41.79,65.29c-.27,0-.54-.08-.78-.25-9.51-6.95-10.79-13.52-10.79-19.04,0-6.6,1.78-13.78,14.67-21.6,12.92-7.83,14.24-19.36,14.25-19.47.07-.72.72-1.25,1.45-1.18.73.07,1.25.72,1.18,1.44-.05.52-1.41,12.92-15.51,21.47-11.77,7.14-13.39,13.52-13.39,19.34,0,5.1,1.18,10.67,9.71,16.9.59.43.72,1.26.29,1.85-.26.35-.66.54-1.07.54Z"/><path class="cls-2" d="m60.46,88.27c-.67,0-1.25-.51-1.31-1.19-.01-.12-1.07-9.33-10.48-16.85-.57-.46-.66-1.29-.21-1.86.46-.57,1.29-.66,1.86-.21,10.33,8.26,11.42,18.23,11.46,18.65.07.73-.46,1.37-1.19,1.44-.04,0-.09,0-.13,0Z"/><path class="cls-1" d="m41.91,23.63c-.29,0-.57-.09-.82-.28-5.72-4.49-9.57-10.9-10.85-18.06-.13-.72.35-1.4,1.07-1.53.72-.13,1.4.35,1.53,1.07,1.16,6.52,4.67,12.36,9.88,16.44.57.45.67,1.28.22,1.86-.26.33-.65.51-1.04.51Z"/><path class="cls-1" d="m31.54,88.27s-.09,0-.13,0c-.72-.07-1.25-.72-1.18-1.44.05-.52,1.41-12.91,15.51-21.47,11.77-7.14,13.4-13.52,13.4-19.34,0-5.07-1.16-10.62-9.61-16.82-.59-.43-.71-1.26-.28-1.85.43-.59,1.26-.71,1.85-.28,9.42,6.92,10.69,13.46,10.69,18.95,0,6.6-1.78,13.79-14.67,21.6-12.92,7.84-14.24,19.36-14.25,19.47-.07.68-.64,1.19-1.31,1.19Z"/><path class="cls-1" d="m54.52,10.15h-18.56c-.73,0-1.32-.59-1.32-1.32s.59-1.32,1.32-1.32h18.56c.73,0,1.32.59,1.32,1.32s-.59,1.32-1.32,1.32Z"/><path class="cls-1" d="m54.52,47.32h-18.56c-.73,0-1.32-.59-1.32-1.32s.59-1.32,1.32-1.32h18.56c.73,0,1.32.59,1.32,1.32s-.59,1.32-1.32,1.32Z"/><path class="cls-1" d="m49.49,18.13h-8.13c-.73,0-1.32-.59-1.32-1.32s.59-1.32,1.32-1.32h8.13c.73,0,1.32.59,1.32,1.32s-.59,1.32-1.32,1.32Z"/><path class="cls-1" d="m49.49,35.4h-8.13c-.73,0-1.32-.59-1.32-1.32s.59-1.32,1.32-1.32h8.13c.73,0,1.32.59,1.32,1.32s-.59,1.32-1.32,1.32Z"/><path class="cls-1" d="m49.49,60.21h-8.13c-.73,0-1.32-.59-1.32-1.32s.59-1.32,1.32-1.32h8.13c.73,0,1.32.59,1.32,1.32s-.59,1.32-1.32,1.32Z"/><path class="cls-1" d="m49.49,76.29h-8.13c-.73,0-1.32-.59-1.32-1.32s.59-1.32,1.32-1.32h8.13c.73,0,1.32.59,1.32,1.32s-.59,1.32-1.32,1.32Z"/><path class="cls-1" d="m53.12,41.66h-15c-.73,0-1.32-.59-1.32-1.32s.59-1.32,1.32-1.32h15c.73,0,1.32.59,1.32,1.32s-.59,1.32-1.32,1.32Z"/><path class="cls-1" d="m53.12,53.52h-15c-.73,0-1.32-.59-1.32-1.32s.59-1.32,1.32-1.32h15c.73,0,1.32.59,1.32,1.32s-.59,1.32-1.32,1.32Z"/><path class="cls-1" d="m53.12,83.41h-15c-.73,0-1.32-.59-1.32-1.32s.59-1.32,1.32-1.32h15c.73,0,1.32.59,1.32,1.32s-.59,1.32-1.32,1.32Z"/></svg>