<?xml version="1.0" encoding="UTF-8"?>
<svg id="_レイヤー_1" data-name=" レイヤー 1" xmlns="http://www.w3.org/2000/svg" version="1.1" viewBox="0 0 92 92">
  <defs>
    <style>
      .cls-1 {
        fill: #8b8780;
      }

      .cls-1, .cls-2 {
        stroke-width: 0px;
      }

      .cls-2 {
        fill: #48453a;
      }
    </style>
  </defs>
  <path class="cls-1" d="M41.8,65.3c-.3,0-.5,0-.8-.2-9.5-7-10.8-13.5-10.8-19s1.8-13.8,14.7-21.6c12.9-7.8,14.2-19.4,14.2-19.5,0-.7.7-1.2,1.5-1.2.7,0,1.2.7,1.2,1.4,0,.5-1.4,12.9-15.5,21.5-11.8,7.1-13.4,13.5-13.4,19.3s1.2,10.7,9.7,16.9c.6.4.7,1.3.3,1.8-.3.3-.7.5-1.1.5h0Z"/>
  <path class="cls-1" d="M60.5,88.3c-.7,0-1.2-.5-1.3-1.2,0-.1-1.1-9.3-10.5-16.8-.6-.5-.7-1.3-.2-1.9.5-.6,1.3-.7,1.9-.2,10.3,8.3,11.4,18.2,11.5,18.7,0,.7-.5,1.4-1.2,1.4h-.1Z"/>
  <path class="cls-2" d="M41.9,23.6c-.3,0-.6,0-.8-.3-5.7-4.5-9.6-10.9-10.9-18.1-.1-.7.4-1.4,1.1-1.5s1.4.4,1.5,1.1c1.2,6.5,4.7,12.4,9.9,16.4.6.5.7,1.3.2,1.9-.3.3-.7.5-1,.5h0Z"/>
  <path class="cls-2" d="M31.5,88.3h-.1c-.7,0-1.2-.7-1.2-1.4,0-.5,1.4-12.9,15.5-21.5,11.8-7.1,13.4-13.5,13.4-19.3s-1.2-10.6-9.6-16.8c-.6-.4-.7-1.3-.3-1.9s1.3-.7,1.8-.3c9.4,6.9,10.7,13.5,10.7,19s-1.8,13.8-14.7,21.6c-12.9,7.8-14.2,19.4-14.2,19.5,0,.7-.6,1.2-1.3,1.2h0Z"/>
  <path class="cls-2" d="M54.5,10.1h-18.6c-.7,0-1.3-.6-1.3-1.3s.6-1.3,1.3-1.3h18.6c.7,0,1.3.6,1.3,1.3s-.6,1.3-1.3,1.3Z"/>
  <path class="cls-2" d="M54.5,47.3h-18.6c-.7,0-1.3-.6-1.3-1.3s.6-1.3,1.3-1.3h18.6c.7,0,1.3.6,1.3,1.3s-.6,1.3-1.3,1.3Z"/>
  <path class="cls-2" d="M49.5,18.1h-8.1c-.7,0-1.3-.6-1.3-1.3s.6-1.3,1.3-1.3h8.1c.7,0,1.3.6,1.3,1.3s-.6,1.3-1.3,1.3Z"/>
  <path class="cls-2" d="M49.5,35.4h-8.1c-.7,0-1.3-.6-1.3-1.3s.6-1.3,1.3-1.3h8.1c.7,0,1.3.6,1.3,1.3s-.6,1.3-1.3,1.3Z"/>
  <path class="cls-2" d="M49.5,60.2h-8.1c-.7,0-1.3-.6-1.3-1.3s.6-1.3,1.3-1.3h8.1c.7,0,1.3.6,1.3,1.3s-.6,1.3-1.3,1.3Z"/>
  <path class="cls-2" d="M49.5,76.3h-8.1c-.7,0-1.3-.6-1.3-1.3s.6-1.3,1.3-1.3h8.1c.7,0,1.3.6,1.3,1.3s-.6,1.3-1.3,1.3Z"/>
  <path class="cls-2" d="M53.1,41.7h-15c-.7,0-1.3-.6-1.3-1.3s.6-1.3,1.3-1.3h15c.7,0,1.3.6,1.3,1.3s-.6,1.3-1.3,1.3Z"/>
  <path class="cls-2" d="M53.1,53.5h-15c-.7,0-1.3-.6-1.3-1.3s.6-1.3,1.3-1.3h15c.7,0,1.3.6,1.3,1.3s-.6,1.3-1.3,1.3Z"/>
  <path class="cls-2" d="M53.1,83.4h-15c-.7,0-1.3-.6-1.3-1.3s.6-1.3,1.3-1.3h15c.7,0,1.3.6,1.3,1.3s-.6,1.3-1.3,1.3Z"/>
</svg>