<svg id="_レイヤー_1" xmlns="http://www.w3.org/2000/svg" viewBox="0 0 92 92"><defs><style>.cls-1{fill:#fff;stroke-width:0}</style></defs><path class="cls-1" d="M37.69 56.33a.965.965 0 01-.75-1.57l2.53-3.1c.33-.41.94-.47 1.35-.14.41.33.47.94.14 1.35l-2.53 3.1c-.19.23-.47.35-.74.35z" id="_線_3989"/><path class="cls-1" d="M54.41 56.33c-.29 0-.57-.13-.76-.37l-2.39-3.1a.968.968 0 01.17-1.35.959.959 0 011.35.17l2.39 3.1c.32.42.25 1.02-.17 1.35-.17.13-.38.2-.59.2z" id="_線_3990"/><path class="cls-1" d="M46.01 77.53a.96.96 0 01-.96-.96V63.41l-9.75-6.55c-4.03.06-7.26 1.38-9.62 3.91-5.25 5.66-4.57 15.63-4.56 15.73.04.53-.36.99-.88 1.03a.974.974 0 01-1.03-.88c-.03-.44-.76-10.89 5.06-17.17 2.79-3.01 6.6-4.54 11.32-4.54.19 0 .38.06.54.16l10.42 7c.27.18.42.48.42.8v13.67c0 .53-.43.96-.96.96z" id="_パス_1175"/><path class="cls-1" d="M46.02 77.53a.96.96 0 01-.96-.96V62.9c0-.32.16-.62.42-.8l10.42-7c.16-.11.34-.16.54-.16 15.95 0 16.39 21.41 16.4 21.62 0 .53-.42.96-.95.97-.57-.06-.97-.42-.97-.95-.01-.8-.42-19.47-14.19-19.72l-9.75 6.55v13.16c0 .53-.43.96-.96.96z" id="_パス_1176"/><path class="cls-1" d="M46.05 53.15c-8.21 0-11.58-8.34-12.45-11-.54-.05-1.06-.28-1.47-.67-.98-1.07-1.56-2.39-1.67-3.78-.3-1.27-.12-2.31.57-2.97.93-.89 2.28-.57 2.43-.53.51.13.82.66.68 1.17-.13.51-.67.82-1.17.68-.18-.04-.51-.04-.61.06-.09.09-.19.46 0 1.3.1 1.1.5 2.02 1.15 2.72.1.09.3.14.49.07.26-.09.53-.06.77.07.23.13.4.35.47.61.03.1 2.62 10.33 10.82 10.33s10.8-10.23 10.83-10.34c.06-.26.23-.48.47-.61.24-.13.52-.15.77-.07.19.06.39.02.53-.12.61-.67 1.01-1.59 1.08-2.55.21-.97.11-1.34.02-1.43-.1-.1-.44-.1-.62-.06a.97.97 0 01-1.16-.7.95.95 0 01.68-1.16c.15-.04 1.5-.36 2.43.54.68.66.86 1.7.54 3.1-.09 1.25-.66 2.58-1.6 3.6-.44.42-.97.66-1.51.71-.87 2.66-4.24 11-12.45 11z" id="_パス_1177"/><path class="cls-1" d="M60.81 32.5h-.07a.954.954 0 01-.89-1.02c0-.07.42-7.05-3.7-11.45-2.26-2.42-5.51-3.64-9.64-3.64-4.7 0-8.31 1.34-10.74 3.98-4.03 4.38-3.53 10.96-3.52 11.02a.97.97 0 01-.88 1.04c-.52.03-.99-.35-1.04-.87-.03-.3-.59-7.47 4.01-12.48 2.81-3.06 6.9-4.62 12.17-4.62 4.7 0 8.42 1.43 11.06 4.26 4.69 5.02 4.23 12.56 4.21 12.88-.03.51-.46.89-.96.89z" id="_パス_1178"/><path class="cls-1" d="M58.43 33.8h-.09c-1.91-.19-2.79-1.57-3.56-2.78-.96-1.51-1.79-2.82-4.51-2.82-2.07 0-2.73.6-3.57 1.35-1.02.91-2.17 1.95-5.32 1.95-1.52-.18-2.9-.66-4.11-1.41-.22 1.66-.76 2.75-1.64 3.32-1.08.7-2.15.26-2.27.2a.973.973 0 01-.49-1.27c.21-.48.76-.7 1.25-.49.05.02.27.08.48-.06.2-.14.85-.81.85-3.55 0-.38.23-.73.58-.88.35-.15.76-.09 1.04.18a7.929 7.929 0 004.42 2.06c2.3 0 3.05-.68 3.92-1.47.96-.86 2.05-1.84 4.85-1.84 3.78 0 5.14 2.15 6.13 3.71.75 1.18 1.19 1.81 2.12 1.9a.963.963 0 01-.09 1.92z" id="_パス_1179"/></svg>