<svg id="_レイヤー_1" xmlns="http://www.w3.org/2000/svg" viewBox="0 0 16 16"><defs><style>.cls-1{fill:#b096b2;stroke-width:0}</style></defs><path class="cls-1" d="M14.13 14H1.87C.84 14 0 13.15 0 12.11V3.89C0 2.85.84 2 1.87 2h12.26C15.16 2 16 2.85 16 3.89v8.21c0 1.04-.84 1.89-1.87 1.89zM1.87 2.53c-.74 0-1.35.61-1.35 1.37v8.21c0 .75.61 1.37 1.35 1.37h12.26c.74 0 1.35-.61 1.35-1.37V3.89c0-.75-.61-1.37-1.35-1.37H1.87z"/><path class="cls-1" d="M7.98 9.54c-.06 0-.12-.02-.17-.06L1.79 4.17a.267.267 0 01-.03-.37c.09-.11.26-.12.37-.03l5.86 5.16 5.89-5.16c.11-.09.27-.08.37.03.09.11.08.28-.03.37l-6.06 5.3s-.11.06-.17.06zm5.99 2.62c-.06 0-.12-.02-.17-.06l-3.11-2.63a.266.266 0 01-.03-.37c.09-.11.25-.13.37-.03l3.11 2.63c.11.09.12.26.03.37-.05.06-.13.09-.2.09zm-11.92 0c-.07 0-.15-.03-.2-.09a.266.266 0 01.03-.37l3.11-2.63c.11-.09.27-.08.37.03.09.11.08.28-.03.37L2.22 12.1s-.11.06-.17.06z"/></svg>