<svg version="1.1" id="_レイヤー_1" xmlns="http://www.w3.org/2000/svg" x="0" y="0" viewBox="0 0 218 40" xml:space="preserve"><style>.st0{fill:#fff}</style><path class="st0" d="M61.5 32.3l-.6-1.4h-2.2l-.7 1.4h-.9l2.7-5.7 2.7 5.7h-1zM59 30.2h1.5l-.5-1.3c0-.1-.1-.2-.1-.3 0-.1-.1-.2-.1-.3 0 .1-.1.2-.1.3 0 .1-.1.2-.1.3l-.6 1.3zm4.6 2.1v-5.5h.9v5.5h-.9zm7.3-4.2c-.3-.2-.5-.4-.8-.5-.3-.1-.6-.2-.9-.2-.6 0-1.1.2-1.5.6-.4.4-.6.9-.6 1.5s.2 1.1.6 1.5c.4.4.8.6 1.4.6.3 0 .6-.1.9-.2.3-.1.6-.3.9-.5v1c-.2.2-.5.3-.8.4-.3.1-.6.1-.9.1-.4 0-.8-.1-1.2-.2-.4-.1-.7-.3-.9-.6-.3-.3-.5-.6-.6-.9-.1-.4-.2-.7-.2-1.1 0-.4.1-.8.2-1.1.1-.4.4-.7.6-.9.3-.3.6-.5.9-.6.4-.1.7-.2 1.2-.2.3 0 .6 0 .9.1.3.1.6.2.9.4l-.1.8zm1.7 4.2v-5.5h.9v2h2.7v-2h.9v5.5h-.9v-2.7h-2.7v2.7h-.9zm6.4 0v-5.5h.9v5.5H79zm5.8 0v-5.5h.9v2h2.7v-2h.9v5.5h-.9v-2.7h-2.7v2.7h-.9zm6.4 0v-5.5h3.1v.8h-2.2V29h2.2v.8h-2.2v1.8h2.2v.8h-3.1zm8.4 0l-.6-1.4h-2.2l-.6 1.4h-.9l2.7-5.7 2.7 5.7h-1.1zm-2.5-2.1h1.5l-.6-1.3c0-.1-.1-.2-.1-.3 0-.1-.1-.2-.1-.3 0 .1-.1.2-.1.3 0 .1-.1.2-.1.3l-.5 1.3zm5.4-.3v2.5h-.8v-5.5h1.3c.4 0 .7 0 .9.1.2 0 .4.1.5.2.2.1.3.3.4.5.1.2.1.4.1.7 0 .4-.1.8-.3 1-.2.3-.5.4-.9.5l1.9 2.5h-1l-1.8-2.5h-.3zm0-.7h.2c.5 0 .8-.1.9-.2.2-.1.2-.3.2-.6s-.1-.5-.3-.6c-.2-.1-.5-.2-.9-.2h-.2v1.6zm5.9-1.6v4.8h-.9v-4.8H106v-.8h3.8v.8h-1.4zm10.1.5c-.3-.2-.5-.4-.8-.5-.3-.1-.6-.2-.9-.2-.6 0-1.1.2-1.5.6-.4.4-.6.9-.6 1.5s.2 1.1.6 1.5c.4.4.8.6 1.4.6.3 0 .6-.1.9-.2.3-.1.6-.3.9-.5v1c-.2.2-.5.3-.8.4-.3.1-.6.1-.9.1-.4 0-.8-.1-1.2-.2-.4-.1-.7-.3-.9-.6-.3-.3-.5-.6-.6-.9-.1-.4-.2-.7-.2-1.1 0-.4.1-.8.2-1.1.1-.4.4-.7.6-.9.3-.3.6-.5.9-.6.4-.1.7-.2 1.2-.2.3 0 .6 0 .9.1.3.1.6.2.9.4l-.1.8zm1.8 4.2v-5.5h.9v4.7h2v.8h-2.9zm4.2 0v-5.5h.9v5.5h-.9zm2.8 0v-5.7l3.5 3.4.3.3c.1.1.2.2.3.4v-3.8h.8v5.7l-3.6-3.4-.3-.3-.3-.3v3.8h-.7zm6.9 0v-5.5h.9v5.5h-.9zm7.2-4.2c-.3-.2-.5-.4-.8-.5-.3-.1-.6-.2-.9-.2-.6 0-1.1.2-1.5.6-.4.4-.6.9-.6 1.5s.2 1.1.6 1.5c.4.4.8.6 1.4.6.3 0 .6-.1.9-.2.3-.1.6-.3.9-.5v1c-.2.2-.5.3-.8.4-.3.1-.6.1-.9.1-.4 0-.8-.1-1.2-.2-.4-.1-.7-.3-.9-.6-.3-.3-.5-.6-.6-.9-.1-.4-.2-.7-.2-1.1 0-.4.1-.8.2-1.1.1-.4.4-.7.6-.9.3-.3.6-.5.9-.6.4-.1.7-.2 1.2-.2.3 0 .6 0 .9.1.3.1.6.2.9.4l-.1.8zm4.7 4.2v-5.7l3.5 3.4.3.3c.1.1.2.2.3.4v-3.8h.8v5.7l-3.6-3.4-.3-.3-.3-.3v3.8h-.7zm12.5-2.7c0 .4-.1.8-.2 1.1-.1.3-.4.7-.6.9-.3.3-.6.5-1 .6-.4.1-.7.2-1.1.2-.4 0-.8-.1-1.1-.2-.4-.1-.7-.4-1-.6-.3-.3-.5-.6-.6-.9-.1-.3-.2-.7-.2-1.1 0-.4.1-.8.2-1.1.1-.4.4-.7.6-.9.3-.3.6-.5 1-.6.4-.1.7-.2 1.1-.2.4 0 .8.1 1.1.2.4.1.7.4 1 .6.3.3.5.6.6.9.1.3.2.7.2 1.1zm-.9 0c0-.3-.1-.5-.2-.8-.1-.3-.2-.5-.4-.7-.2-.2-.4-.3-.6-.4-.2-.1-.5-.2-.8-.2-.3 0-.5.1-.8.2-.2.1-.5.3-.7.4-.2.2-.3.4-.4.7-.1.3-.2.5-.2.8 0 .3.1.5.2.8.1.2.2.5.4.7.2.2.4.3.7.4.2.1.5.2.8.2.3 0 .5-.1.8-.2.2-.1.5-.3.7-.4.2-.2.3-.4.4-.7 0-.3.1-.6.1-.8zm2.6 2.7v-5.7l3.5 3.4.3.3c.1.1.2.2.3.4v-3.8h.8v5.7l-3.6-3.4-.3-.3-.3-.3v3.8h-.7zm10.4 0l-.6-1.4h-2.2l-.6 1.4h-.9l2.7-5.7 2.7 5.7h-1.1zm-2.4-2.1h1.5l-.6-1.3c0-.1-.1-.2-.1-.3 0-.1-.1-.2-.1-.3 0 .1-.1.2-.1.3 0 .1-.1.2-.1.3l-.5 1.3zm9-.6v-.4c0-.2 0-.3-.1-.4 0 .1-.1.3-.1.4 0 .1-.1.3-.2.4l-1.4 2.9-1.4-3c-.1-.1-.1-.2-.2-.4 0-.1-.1-.2-.1-.3v.4c0 .1 0 .3-.1.4l-.6 2.7h-.8l1.3-5.8 1.6 3.5c0 .1.1.1.1.3.1.1.1.3.2.5.1-.2.1-.4.2-.6 0-.1.1-.1.1-.2l1.6-3.5 1.3 5.8h-.7l-.7-2.7zm2.8 2.7v-5.5h.9v5.5h-.9zM67.7 9.7c.4.6.6 1.2.7 1.9.2.8.2 1.8.1 2.9-.1.6-.1 1.1-.3 1.5-.1.4-.2.8-.4 1.1-.2.4-.4.7-.6 1-.2.3-.6.6-1 .8-.3.2-.8.4-1.5.6-.4.1-.8.2-1.2.2-.3 0-.5.1-.8.1h-.3v-.4c.2-.1.5-.2.8-.4.8-.3 1.4-.9 2-1.6.2-.3.3-.6.5-.9.4-.9.6-1.9.6-3.1 0-1.1-.1-2.1-.2-2.9-.2-.8-.4-1.4-.6-1.6-.3 1.9-.6 3.5-1 4.7-.6 2.1-1.4 3.6-2.5 4.5-.8.5-1.5.8-2.3.8-.6-.1-1-.4-1.4-.7-.4-.5-.7-1-.8-1.6-.2-.9-.3-1.9-.3-2.8 0-.4.1-.9.2-1.3.1-.3.1-.7.3-1.1.2-.7.5-1.4.8-1.9.6-.9 1.2-1.5 2-1.7V5.2h-2c-.1 0-.2.1-.4.2s-.3.2-.5.4V4.3h2.9V1.9h2v2.5H67c.4-.2.8-.4 1.2-.5v1.4h-5.7v2.5c.6 0 1-.1 1.2-.1.1-.9.1-1.5.1-1.8h2c0 .4-.1 1.1-.2 2.2.3.1.7.3 1.1.6.4.3.8.6 1 1zM61 17.8c.2-.2.4-.4.6-.8.3-.5.6-1 .7-1.4-.6-.3-1-.6-1.3-1-.3-.6-.5-1.3-.5-1.9V9.2c-.3.3-.5.7-.7 1.2-.3.6-.4 1.5-.5 2.6-.1 1.2-.1 2.2 0 3 .1.7.2 1.2.4 1.5.3.4.5.6.7.6.2 0 .4-.1.6-.3zm2.3-6.8c.1-.6.2-1.5.3-2.6h-1.1v4.8c.1.6.1 1.1.2 1.3.1-.4.2-.8.2-1.1.1-.3.1-.7.2-1.3.1-.3.1-.7.2-1.1zm10.6 5.4c.1.4.3.6.6.6.4 0 .7-.4 1-1.3.1.1.2.2.3.2-.1.8-.4 1.5-.8 2.2-.4.7-1 .9-1.7.7-.5-.1-1-.6-1.3-1.3-.1-.3-.2-.6-.3-1-.2-.8-.3-1.9-.3-3.2 0-2 0-3.6.1-5 .1-1.7.1-3.3.2-4.7h2.2c-.1 1.2-.1 2.6-.2 4.1 0 .8 0 1.7-.1 2.5v2.4c0 .9 0 1.5.1 1.8-.1.9 0 1.6.2 2zm8.1-.7l-2.5.1c.1-1.1.1-2.2.1-3.4 0-1.6-.1-2.8-.3-3.5-.3-1.6-.6-2.8-.9-3.4.1-.2.2-.3.2-.3.4.5.7 1 1.1 1.7.3.5.6 1 .8 1.4.4 1.1.7 2 .9 2.7.1.3.2.8.3 1.2.2 1.1.3 2.3.3 3.5zm12.1-4.5c.9 1.1 1.3 2.3 1.2 3.8-.1 1.4-.7 2.6-1.7 3.4-.8.7-1.7 1-2.7 1.1-1.1.1-2-.2-2.9-.8-.8-.5-1.4-1.3-1.9-2.3l.2-.3.3.3c.2.2.3.4.5.5.2.2.5.4.8.5.2.1.5.2.9.3.3.1.7.1 1.2.1.9 0 1.7-.4 2.2-1.2.7-1 1-2.1.6-3.5-.1-.7-.4-1.1-.9-1.5-.4-.3-.9-.4-1.5-.4s-1.1.2-1.5.6c-.5.4-.8.9-1 1.6-.3-.1-.7-.1-1-.1-.5 0-.9-.1-1.2-.1.2-1.1.5-2.2.7-3.4.2-1.1.4-2.3.6-3.4h-1.6c-.1 0-.2 0-.3.1-.1.1-.3.2-.6.4V5.6h2.6c.2-1.2.4-2.4.6-3.7h2.2c-.2 1.4-.5 2.7-.6 3.7H94c.1 0 .2-.1.6-.2.3-.2.5-.3.6-.3v1.4h-6c-.3 2-.6 3.7-.8 5 .7-.5 1.4-.9 2.3-1.1 1.4-.3 2.5 0 3.4.8zm7.3-3.2c0-.5 0-.8-.1-1h2v1.7c0 1-.1 1.8-.1 2.3 0 .5-.1 1-.2 1.5-.1.6-.2 1.1-.4 1.6-.1.5-.3 1-.6 1.6-.3.7-.7 1.4-1.1 2.1-.2.3-.5.6-.8 1l-.9.9-.1-.2c.3-.7.7-1.4 1-2.2.3-.7.5-1.5.7-2.3.2-1 .4-1.9.5-2.7.1-.8.2-1.6.2-2.4-.1-.6-.1-1.3-.1-1.9zm7.4 7.2c.2 1 .3 1.9.4 2.7 0 .4-.1 1.4-.1 1.7l-2.2-.3c0-1.7-.1-3.2-.1-4.4-.1-1.3-.3-2.6-.5-3.7-.3-1.8-.7-3.2-1.1-4.2l.2-.1c.3.4.7 1.2 1.2 2.2.2.4.4.9.6 1.4.2.5.4 1 .6 1.6.1.4.3.9.5 1.5s.4 1.1.5 1.6zm1.8-2.4h8.3l1-.4v1h-8c-.2 0-.6.2-1.2.5v-1.1zm18.8.4c.1.2.4.5.8 1l-1.3 1.9-.7-1.2c-.3-.5-.5-.8-.7-1.1-.1-.2-.3-.5-.6-.8-.4-.4-.8-.8-1.1-1-.2-.2-.4-.3-.5-.3v7.8h-1.6v-13h1.6v4.9h.2c.2 0 .4 0 .7.1.3.1.6.2 1 .3.4.2.9.4 1.3.6.3.3.6.5.9.8zM139.6 8c.5 0 .9.2 1.2.6.2.4.3 1 .3 1.8 0 .7-.1 1.3-.1 1.7-.1.5-.2 1-.3 1.4-.2.6-.4 1.3-.7 1.8-.2.5-.5 1-.9 1.4l-1.2 1.2c-.4.3-.8.6-1.3.8-.4.2-.9.4-1.3.6-.4.1-.8.2-1.1.3 0 0 0-.2-.1-.5.2-.1.5-.2.9-.4.5-.3 1-.6 1.4-1 .5-.5.9-1 1.2-1.5.3-.4.5-.9.7-1.5.2-.5.3-1 .5-1.6.2-.9.3-1.9.3-3.1v-.2c0-.4 0-.7-.1-.8-.1-.2-.3-.3-.6-.4h-1.3c-.2 0-.4.2-.7.4-.2.2-.4.4-.5.6-.3 1.3-.8 2.5-1.6 3.6-.4.5-.9 1-1.4 1.5l-.2-.3c.5-.7.8-1.4 1.1-2.4.1-.3.1-.6.2-1 .1-.9.2-1.7.3-2.6v-2h1.9v.8c0 .6 0 1.1-.1 1.4.1-.1.3-.3.4-.3.2-.1.3-.1.6-.2h2.5zm5.1-1.2h1.8v7.8h-1.8V6.8zm5.2-.3h1.8v6c0 1-.1 1.9-.3 2.7-.2.7-.5 1.4-.9 2-.3.4-.7.9-1.2 1.2-.3.2-.7.4-1.1.6-.3.1-.7.2-1.1.3-.4.1-.7.1-1.1.1v-.3c.2 0 .4-.1.8-.3.2-.1.4-.2.6-.4.2-.1.4-.3.7-.6.3-.3.6-.7.9-1.2.3-.5.5-1.1.7-1.8.2-.7.3-1.5.3-2.3v-6zm4.2 10.8h8.6s.1 0 .3-.1c0 0 .1 0 .3-.1.1-.1.2-.1.4-.2.1 0 .2-.1.3-.1V18h-8.7s-.1 0-.2.1c0 0-.1 0-.2.1-.1 0-.2.1-.3.1-.2.1-.3.2-.4.2v-1.2zm8.9-8.5h-7c-.2 0-.4.1-.6.2-.2.1-.4.2-.6.2v-1h6.9c.1 0 .3-.1.6-.2.2-.1.3-.1.4-.1.1 0 .2-.1.3-.1v1zm5.3 4.6c0 .2.1.3.1.4-.7.3-1.2.5-1.5.6l-.1-1c0-.4-.1-.7-.2-1 0-.2-.1-.4-.1-.6 0-.1-.1-.3-.2-.6-.1-.1-.2-.3-.3-.6l.2-.2c.2.1.3.2.5.3.2.1.3.3.5.5s.4.4.5.6l.4.8c.1.2.1.5.2.8zm3.8-3.1v-.6h1.7c-.1 1.1-.2 2.2-.4 3-.2 1.1-.5 2-.8 2.7-.2.4-.4.7-.7 1.1-.2.3-.5.6-.7.9-.3.3-.6.6-.9.8l-.9.6c-.6.3-1.2.6-1.8.8l-.1-.3c.6-.4.9-.6 1-.8.4-.3.8-.7 1.2-1.2.3-.4.6-.8.8-1.3.2-.3.3-.6.5-.9l.3-.9c.2-.6.3-1.2.4-1.8.2-.5.3-1.3.4-2.1zm-1.8 1.8c.1.2.1.4.2.6 0 .1 0 .2.1.4-.3.1-.5.2-.7.3l-.7.3-.1-1c0-.3-.1-.5-.1-.7-.1-.6-.2-1-.3-1.3-.1-.3-.2-.6-.4-.9l.2-.2c.1.1.3.2.5.3.2.1.3.3.5.5.2.3.4.5.5.6 0 .4.2.7.3 1.1zM183.4 8c.5 0 .9.2 1.2.6.2.4.3 1 .3 1.8 0 .7-.1 1.3-.1 1.7-.1.5-.2 1-.3 1.4-.2.6-.4 1.3-.7 1.8-.2.5-.5 1-.9 1.4l-1.2 1.2c-.4.3-.8.6-1.3.8-.4.2-.9.4-1.3.6-.4.1-.8.2-1.1.3 0 0 0-.2-.1-.5.2-.1.5-.2.9-.4.5-.3 1-.6 1.4-1 .5-.5.9-1 1.2-1.5.3-.4.5-.9.7-1.5.2-.5.3-1 .5-1.6.2-.9.3-1.9.3-3.1v-.2c0-.4 0-.7-.1-.8-.1-.2-.3-.3-.6-.4H181c-.2 0-.4.2-.7.4-.2.2-.4.4-.5.6-.3 1.3-.8 2.5-1.6 3.6-.4.5-.9 1-1.4 1.5l-.2-.3c.5-.7.8-1.4 1.1-2.4.1-.3.1-.6.2-1 .1-.9.2-1.7.3-2.6v-2h1.9v.8c0 .6 0 1.1-.1 1.4.1-.1.3-.3.4-.3.2-.1.3-.1.6-.2h2.4zm11.3 9s-2.6 1-6.5 2.2l-.7-2.1c1 0 2-.1 2.9-.2V15H188v-.5h2.3v-1.6h-2.4V6.7h6.4v6.2h-2.4v1.6h2.3v.5h-2.3v1.8c1.5-.1 2.8-.3 2.8-.3v.5zm-4.4-9.8h-.8v2.2h.8V7.2zm0 2.8h-.8v2.3h.8V10zm2.5-2.8h-.8v2.2h.8V7.2zm0 2.8h-.8v2.3h.8V10zm3.6 1.7h-1.9v-.5h3.2c-.8-.9-1.6-1.5-2.6-2.1l.3-.4c.6.2 1.3.3 1.9.6.5-.6.9-1.4 1-2h-3.5v-.6h5.7v.8c-.7.8-1.7 1.5-2.7 2 .6.2 1.3.5 1.9.8l-1.4.9h2.7v.8c-.4 1-.9 1.8-1.9 2.6l-.4-.3c.3-.8.5-1.6.5-2.6h-1v5.7c0 1.2-.1 2.2-1.5 2.2-.6 0-1.3-.2-2.4-.6v-.6c.6.2 1 .3 1.3.3.6 0 .7-.4.7-1.4v-5.6zm6.1 7.5v-.5h4.3V9.8h-3.7v-.5h3.6c-.3-1.1-.8-2-1.3-2.9l.3-.3c1.1.5 1.8 1 2.9 1.9L207 9.3h3.2c.4-1.1.7-2.2.8-3.3l2.6.8c-.8 1-1.7 1.8-2.6 2.5h4.5v.5h-3.8v8.8h4.4v.6h-13.6zm2.2-2.5c-.2-2-.6-3.6-1.2-5.3l.4-.3c1.2 1.5 1.9 2.6 2.7 4.4l-1.9 1.2zm5.2-6.9h-1.3v8.8h1.3V9.8zm2 6.8c.7-2 1-3.7 1.2-5.7l2.2.7c-.8 1.9-1.5 3.6-2.9 5.3l-.5-.3z"/><path d="M57.2 35.3h142.4m0 0l2.6-5.4m0 9.6v-9.6m0 9.6l5.3-13.7m-.5 9.9l.5-9.9m.9 7.5l-1.4 2.4m1.4-2.4l.4 2m0 0h9.2" fill="none" stroke="#fff" stroke-width=".337" stroke-linecap="round" stroke-linejoin="round" stroke-miterlimit="10"/><path class="st0" d="M13.8 18c3 5.4 5.9 5.4 6.3-6.2.3-7.3 6.3-9.4 6.3-9.4s-5.5-.4-8.6 4.2c-2.8 4.2-1.4 8-2.6 7-4.8-4-8.3 2.3-8.3 2.3s4.6-2.1 6.9 2.1m10.3 18s-6.1-.3-14.3-6C-1.5 22.1 6 16.2 6 16.2s-4 0-5.5 4.7C-2.3 30.1 7.1 36 7.1 36m19.1 0s12.6-4.6 14.4-18.1C43.1-.4 28 1.9 28 1.9s5.7-3.8 13.6 1C55.9 11.8 50 36 50 36H26.2z"/></svg>