<?xml version="1.0" encoding="UTF-8"?><svg id="_レイヤー_1" xmlns="http://www.w3.org/2000/svg" viewBox="0 0 92 92"><defs><style>.cls-1{stroke:#48453a;}.cls-1,.cls-2{fill:none;stroke-linecap:round;stroke-linejoin:round;stroke-width:2px;}.cls-2{stroke:#ae9373;}</style></defs><path class="cls-1" d="m61.91,74.5c-7.49-.76-14.72-3.16-21.18-7.03-1.36-.77-4.7-3.53-5.42-7.1-.76-3.8,1.89-8.08,4.47-10.64,1.88-1.72,3.66-3.54,5.34-5.45,1.69-2.08,1.93-4.92,1.1-8.36-1.53-6.32,3.02-10.04,9.38-10.84,4.38-.56,5.46.33,9.93-1.56,2.35-.99,4.66-.88,5.4.41.76,1.14.45,2.67-.68,3.43-.03.02-.06.04-.09.06-1.98,1.48-2.85,1.66-5.29,2.3-2.32.49-4.7.67-7.06.55-3.42-.12-5.53,1.14-5.85,3.02-.47,2.83,1.85,4.4,3.89,5.03,1.86.58,4.11.52,6.04.82,2.78.43,4.78,2.67,5.89,5.18,1.93,4.38,3.57,13.48,3.03,21.43-.36,5.31-2.11,8.96-8.9,8.76Z"/><path class="cls-1" d="m36.33,62.98c-9.01-1.96-10.08-12.43-6.68-19.23,1.58-3.16,4.15-6.64,3.98-13.19-.16-5.91.92-10.32,3.07-12.29,2.29-2.76,6.87-1.37,7.1,1.17"/><path class="cls-1" d="m46.42,36.84c-7.08-.96-7.26-6.89-6.02-10.09,1.82-4.72,8.12-7.59,13.67-5.8.89.23,1.75.59,2.54,1.06"/><path class="cls-1" d="m59.45,33.08c3.11,1.81,5.26,5.17,7.45,9.61"/><path class="cls-1" d="m39.35,66.49c2.04,9.54-2.36,8.9-3.29,8.65-2.52-.68-4.55-4.25-4.81-11.01"/><path class="cls-1" d="m34.11,23.22s-11.15-1.87-11.8,2.27c-.75,4.8,8.28,4.58,8.28,4.58"/><path class="cls-1" d="m22.14,30.94c-.77.38-1.31,1.1-1.46,1.95-.75,4.8,11.16,4.62,11.16,4.62"/><path class="cls-2" d="m55.08,63.08c-4.81-2.64-6.76-5.45-7.05-7.96-.32-2.76,1.01-4.39,2.89-4.72,1.75-.37,3.51.58,4.16,2.24.66-1.66,2.41-2.61,4.16-2.24,1.88.33,3.21,1.96,2.89,4.72-.29,2.51-2.24,5.32-7.05,7.96Z"/></svg>