<?xml version="1.0" encoding="UTF-8"?><svg id="_レイヤー_1" xmlns="http://www.w3.org/2000/svg" viewBox="0 0 92 92"><defs><style>.cls-1{stroke:#48453a;}.cls-1,.cls-2{fill:none;stroke-linecap:round;stroke-linejoin:round;stroke-width:2px;}.cls-2{stroke:#ae9373;}</style></defs><path class="cls-1" d="m5.83,22.16s1.86,7.59,5.78,12.12c2.46,2.81,5.13,5.43,7.99,7.83"/><path class="cls-1" d="m12.04,47.56c5.09,1.63,9.91,4.04,14.26,7.15,6.7,4.93,11.64,15.14,11.64,15.14"/><path class="cls-1" d="m.76,34.42c10.02-.39,20.05.72,29.74,3.29,15.03,4.22,17.89,4.72,23.97,1.3,6.09-3.42,9.07-5.34,15.15-4.35s17.51,2.98,20.68,7.02c1.14,1.28.14,2.56-.82,2.44-1.45-.15-3.38-1.46-5.13-2.44-1.97-.87-4.06-1.4-6.21-1.58"/><path class="cls-1" d="m62.18,39.59c2.25.12,4.51-.14,6.68-.76,4.72-1.53,6.11-.01,6.07.55s1.22,1.79-5.75,3.62c-3.67,1.18-3.12,2.26-6.99,4.19-2.47,1.23-5.72,1.39-7.82-.89"/><path class="cls-1" d="m1.46,58.57s18.55.69,30.54-.8,13.9-2.54,21.92-1.74c5.57.61,11.19-.59,16.02-3.42,2.25-1.49,3.44-2.68,5.49-2.83,4.23-.6,6.19,2.38,9.25,2.11"/><path class="cls-1" d="m73.24,41.95c.65,1.59.75,3.35.26,5"/><path class="cls-1" d="m73.77,43.46s5.68-1.02,8.45.67,6.09,3.9,9.02,2.56"/><path class="cls-1" d="m73.77,46.85s5.23-1.08,7.97.66c1.84,1.16,6.42,3.58,8.44,2.38"/><path class="cls-2" d="m1.41,41.75h15.12c4.66,0,8.06,2.54,10.12,3.48,4.32,2.19,9.1,3.32,13.94,3.28,6.2,0,5.74-2.34,9.46-2.44"/><path class="cls-2" d="m1.41,53.01h15.12c3.47.09,6.95-.22,10.35-.93,2.99-.76,5.36-1.95,8.93-2.68,1.58-.3,3.18-.45,4.79-.44,6.2,0,5.01,2.45,9.73,2.56"/><line class="cls-1" x1="36.6" y1="46.72" x2="36.6" y2="50.77"/><line class="cls-1" x1="39.11" y1="46.72" x2="39.11" y2="50.77"/><line class="cls-1" x1="41.63" y1="46.72" x2="41.63" y2="50.77"/><line class="cls-1" x1="44.12" y1="46.72" x2="44.12" y2="50.77"/><path class="cls-2" d="m1.41,47.75s10.96.11,13.2-.6c3.62-1.16,4.71-5.09,4.71-5.09"/></svg>