<svg id="_レイヤー_1" xmlns="http://www.w3.org/2000/svg" viewBox="0 0 92 92"><defs><style>.cls-1{fill:#48453a;stroke-width:0}</style></defs><path class="cls-1" d="M60.85 75.51h-.61a52.627 52.627 0 01-21.59-7.17c-1.25-.7-5.06-3.67-5.88-7.76-.85-4.21 2.03-8.85 4.75-11.54 1.87-1.71 3.64-3.52 5.29-5.4 1.38-1.71 1.68-4.16.88-7.46-.67-2.78-.29-5.32 1.11-7.35 1.73-2.52 4.97-4.19 9.11-4.72 1.53-.19 2.66-.22 3.66-.24 1.87-.04 3.22-.07 6.01-1.25 2.93-1.23 5.66-.89 6.65.83 1.03 1.54.6 3.7-.99 4.76l-.12.08c-1.98 1.48-3 1.75-5.24 2.33l-.32.08c-2.45.51-4.91.71-7.37.58-2.69-.09-4.57.76-4.81 2.19-.42 2.51 2.09 3.57 3.19 3.91 1.07.33 2.36.44 3.6.54.76.06 1.55.13 2.3.24 2.8.44 5.22 2.54 6.65 5.76 1.93 4.38 3.68 13.54 3.12 21.9-.31 4.54-1.67 9.7-9.38 9.7zm-.45-2.01c6.05.14 7.49-2.87 7.83-7.83.53-7.75-1.09-16.74-2.95-20.96-.54-1.23-2.13-4.13-5.13-4.6-.68-.11-1.39-.17-2.15-.23-1.35-.11-2.75-.23-4.03-.62-2.57-.8-5.13-2.83-4.58-6.15.42-2.52 3.06-4.02 6.87-3.86 2.3.11 4.59-.06 6.82-.53l.28-.07c2.16-.57 2.89-.75 4.62-2.05l.69.74-.56-.83c.68-.45.86-1.37.41-2.04-.42-.73-2.11-.91-4.18-.04-3.14 1.32-4.73 1.36-6.74 1.4-.95.02-2.03.04-3.45.23-3.57.45-6.31 1.83-7.72 3.87-1.08 1.57-1.36 3.51-.82 5.75.94 3.9.51 7-1.29 9.22a69.72 69.72 0 01-5.44 5.56c-2.34 2.32-4.86 6.27-4.17 9.7.62 3.11 3.59 5.67 4.93 6.43 6.31 3.77 13.47 6.16 20.76 6.9z" id="_パス_11"/><path class="cls-1" d="M34.76 63.98c-.07 0-.14 0-.21-.02-3.61-.78-6.34-2.91-7.88-6.14-2-4.18-1.8-9.88.52-14.52.25-.5.53-1.01.81-1.54 1.5-2.77 3.2-5.91 3.06-11.17-.17-6.21 1.02-10.83 3.34-13.01 1.38-1.61 3.62-2.22 5.74-1.56 1.76.55 2.94 1.82 3.08 3.33.05.55-.36 1.04-.91 1.09-.56.05-1.04-.36-1.09-.91-.06-.67-.72-1.3-1.68-1.6-1.04-.32-2.62-.26-3.65.98-.03.03-.06.07-.09.1-1.89 1.75-2.9 5.95-2.75 11.53.15 5.79-1.76 9.33-3.3 12.17-.28.51-.54 1-.78 1.49-2.02 4.04-2.22 9.17-.51 12.76 1.27 2.65 3.52 4.4 6.5 5.05a1.003 1.003 0 01-.22 1.98z" id="_パス_12"/><path class="cls-1" d="M44.86 37.84h-.14c-3.75-.51-5.56-2.33-6.41-3.76-1.51-2.54-1.2-5.63-.42-7.68 2.04-5.3 9.01-8.29 14.91-6.39.93.24 1.87.63 2.74 1.16.47.28.63.9.35 1.37-.28.47-.9.63-1.37.35-.71-.43-1.48-.75-2.28-.95-5-1.61-10.81.83-12.49 5.19-.59 1.53-.87 4.01.27 5.94.91 1.54 2.58 2.48 4.95 2.8a1 1 0 01.86 1.12c-.07.5-.5.87-.99.87z" id="_パス_13"/><path class="cls-1" d="M65.32 43.69c-.37 0-.72-.21-.9-.56-1.82-3.7-3.94-7.37-7.05-9.18a.998.998 0 01-.36-1.37c.28-.48.89-.64 1.37-.36 3.57 2.08 5.88 6.05 7.84 10.03a1.003 1.003 0 01-.9 1.44z" id="_パス_14"/><path class="cls-1" d="M35.36 76.25c-.51 0-.93-.09-1.14-.15-3.27-.88-5.29-5.23-5.55-11.93-.02-.55.41-1.02.96-1.04a.985.985 0 011.04.96c.26 6.69 2.28 9.6 4.08 10.08.25.07 1.12.25 1.73-.33.58-.55 1.39-2.2.33-7.14a1.003 1.003 0 011.96-.42c.98 4.56.68 7.51-.91 9.01-.81.76-1.75.95-2.49.95z" id="_パス_15"/><path class="cls-1" d="M28.75 31.07c-1.33 0-6.06-.17-8.1-2.5-.78-.89-1.09-2.01-.9-3.24.14-.87.62-1.62 1.39-2.18 3.12-2.25 10.71-1.05 11.56-.91.54.09.91.61.82 1.15-.09.54-.6.92-1.15.82-2.1-.35-7.99-.93-10.06.56-.46.33-.55.65-.59.87-.1.65.03 1.16.42 1.61 1.39 1.59 5.42 1.86 6.85 1.82a.984.984 0 011.02.98.997.997 0 01-.98 1.02h-.3z" id="_パス_16"/><path class="cls-1" d="M29.98 38.51c-1.72 0-8.64-.17-11.03-2.93-.7-.81-.99-1.79-.82-2.85.19-1.17.94-2.18 2-2.69a1 1 0 011.34.46c.24.5.04 1.09-.46 1.34-.48.23-.82.69-.91 1.21-.07.47.04.85.35 1.22 1.49 1.71 6.8 2.28 9.8 2.24h.02a1 1 0 011 .99c0 .55-.43 1.01-.98 1.01h-.31z" id="_パス_17"/><path d="M53.51 64.08c-.17 0-.33-.04-.48-.12-5.79-3.17-7.31-6.49-7.56-8.72-.36-3.07 1.1-5.36 3.71-5.82 1.62-.34 3.25.22 4.34 1.38a4.685 4.685 0 014.37-1.38c2.58.46 4.03 2.74 3.68 5.81-.26 2.23-1.78 5.55-7.56 8.72-.15.08-.32.12-.48.12zm-3.4-12.76c-.18 0-.37.02-.55.06-1.56.28-2.33 1.63-2.1 3.63.28 2.42 2.37 4.81 6.06 6.93 3.69-2.12 5.78-4.51 6.06-6.93.23-2-.54-3.35-2.07-3.62-1.31-.27-2.58.41-3.06 1.62a1 1 0 01-1.86 0 2.656 2.656 0 00-2.47-1.69z" fill="#bab6b0" stroke-width="0" id="_パス_18"/></svg>