<svg id="_レイヤー_1" xmlns="http://www.w3.org/2000/svg" viewBox="0 0 92 92"><defs><style>.cls-1,.cls-2{fill:#48453a;stroke-width:0}.cls-2{fill:#bab6b0}</style></defs><g id="_グループ_17903"><path class="cls-1" d="M6.85 60.57c-.43 0-.83-.29-.96-.72-.15-.53.15-1.08.68-1.24 6.62-1.91 13.44-2.4 20.26-1.46l7.07-4.31c-1.45-2.59-4.95-9.71-1.54-12.36.69-.66 1.62-1.18 2.63-1.45a1.005 1.005 0 01.52 1.94c-.69.19-1.33.54-1.85 1.04-2.09 1.63.75 7.89 2.45 10.67.29.47.14 1.09-.33 1.37l-8.21 5.01c-.2.12-.43.17-.66.14-6.66-.96-13.32-.51-19.78 1.36-.09.03-.19.04-.28.04z" id="_パス_1180"/><path class="cls-1" d="M44.63 76.97c-.16 0-.32-.04-.47-.12a.993.993 0 01-.41-1.35c3.3-6.22 8.76-6.51 12.59-6.18.69.06 1.48.17 2.39.3 3.74.53 9.4 1.33 14.76-.92 5.93-2.49 15.27-11.79 8.15-29.1-.21-.51.03-1.1.54-1.31.51-.21 1.1.03 1.31.54 7.16 17.41-1.6 28.5-9.23 31.7-5.87 2.47-11.86 1.62-15.82 1.06-.87-.12-1.63-.23-2.28-.29-3.54-.3-7.94.01-10.65 5.13-.18.34-.53.53-.88.53z" id="_パス_1181"/><path class="cls-1" d="M82.69 40.47c-.37 0-.73-.21-.9-.57-4.42-9.2-11.33-10.05-13.94-10.38l-.37-.05c-4.02-.54-7.23.97-9.8 2.19-1.15.54-2.15 1.02-3.07 1.24-2.22.54-4.3.24-6.94-.15-.98-.14-2.05-.3-3.26-.43-1.12-.12-1.38.06-1.39.07-.05.15.11.83.21 1.24.21.87.44 1.86.09 2.77-.83 2.15-3.47 2.75-3.58 2.78a.996.996 0 01-1.19-.76.996.996 0 01.76-1.19c.47-.11 1.78-.59 2.15-1.55.13-.33-.04-1.02-.17-1.58-.24-1.01-.51-2.17.25-3.03.77-.87 2.13-.83 3.1-.72 1.24.14 2.33.29 3.33.44 2.51.37 4.33.63 6.18.18.73-.18 1.63-.61 2.69-1.1 2.67-1.26 6.32-2.99 10.93-2.37l.34.04c2.62.32 10.6 1.31 15.49 11.49.24.5.03 1.09-.47 1.33-.14.07-.29.1-.43.1z" id="_パス_1182"/><path class="cls-2" d="M34.79 33.39a.96.96 0 01-.33-.06.988.988 0 01-.61-1.27l.96-2.74-2.73.22a1.007 1.007 0 01-1-1.41l1.68-3.78-3.99.57a.984.984 0 01-.93-.38.998.998 0 01-.13-1l2.62-6.33-6.62.77a.995.995 0 01-1.11-.88c-.06-.55.33-1.04.88-1.11l8.31-.97c.35-.05.7.11.91.39.21.28.26.66.13.99l-2.6 6.28 4.04-.57c.36-.05.72.1.94.39.22.29.26.68.12 1.01L33.6 27.4l2.58-.21c.33-.02.67.12.87.39.21.27.26.62.15.94l-1.46 4.19c-.14.41-.53.67-.94.67z" id="_パス_1186"/><path class="cls-2" d="M30.13 37.36h-.08c-.55-.04-.96-.53-.92-1.08l.12-1.52-1.67.68a1.002 1.002 0 01-1.36-1.1l.4-2.3-2.5 1.17c-.33.15-.72.12-1.02-.1a.975.975 0 01-.39-.95l.62-4.25-4.49 1.98c-.51.22-1.1 0-1.32-.51a1 1 0 01.51-1.32l6.14-2.71c.33-.15.72-.1 1.01.12.29.22.44.58.38.94l-.61 4.21 2.56-1.19c.34-.16.73-.11 1.03.11.3.23.44.6.38.97l-.42 2.42 1.5-.61c.32-.13.69-.08.97.12s.43.54.4.89l-.25 3.14c-.04.52-.48.92-1 .92z" id="_パス_1187"/><path class="cls-1" d="M58.33 43.46c-.15 0-.3-.03-.45-.1-3.36-1.68-2.73-5.9-2.7-6.08a1.001 1.001 0 011.98.31c-.02.12-.42 2.96 1.62 3.97.49.25.69.85.45 1.34-.18.35-.53.55-.9.55z" id="_パス_1189"/></g></svg>