<?xml version="1.0" encoding="UTF-8"?>
<svg id="_レイヤー_1" data-name=" レイヤー 1" xmlns="http://www.w3.org/2000/svg" version="1.1" viewBox="0 0 92 92">
  <defs>
    <style>
      .cls-1 {
        fill: #8b8780;
      }

      .cls-1, .cls-2 {
        stroke-width: 0px;
      }

      .cls-2 {
        fill: #48453a;
      }
    </style>
  </defs>
  <path class="cls-2" d="M28,33.5c-.6,0-1.1-.4-1.2-1-.4-1.7-.4-3.4,0-5,.1-.7.8-1.1,1.5-1,.7.1,1.1.8,1,1.5-.2,1.4-.2,2.7,0,4,.1.7-.3,1.3-1,1.5,0,0-.2,0-.3,0h0Z"/>
  <path class="cls-2" d="M63.6,33.5c0,0-.2,0-.3,0-.7-.1-1.1-.8-1-1.5.2-.7.2-1.4.2-2.2,0-.6,0-1.1-.1-1.7-.1-.7.3-1.3,1-1.5.7-.1,1.3.4,1.5,1,.1.7.2,1.4.2,2.1s0,1.8-.3,2.7c-.1.6-.7,1-1.2,1Z"/>
  <path class="cls-1" d="M63.3,27.6H28.2c-1.8-.1-3.3-1.5-3.6-3.3,0,0,0-.2,0-.3l.4-15.3c-.2-1.8.9-3.4,2.7-3.8,0,0,.2,0,.3,0l16.5-1.2c.8,0,1.7,0,2.6,0l16.5,1.2c1.9.2,3.2,1.8,3.1,3.7,0,0,0,.1,0,.2l.4,15.3c0,0,0,.2,0,.3-.3,1.8-1.8,3.1-3.6,3.2h0,0ZM28.4,25h34.8c.6,0,1.1-.5,1.3-1.1l-.4-15.3c0,0,0-.2,0-.3,0-.5-.3-1-.8-1l-16.5-1.2c-.7,0-1.5,0-2.2,0l-16.5,1.2c-.5,0-.8.5-.7,1,0,0,0,.2,0,.3l-.4,15.3c.2.6.7,1,1.3,1.1h0Z"/>
  <path class="cls-1" d="M75.8,88.3c-.6,0-1.1-.4-1.2-1.1-1.5-8.9-5.6-24.8-16.5-31.9-.6-.4-.8-1.2-.4-1.7s1.2-.8,1.7-.4c11.7,7.6,16,24.3,17.6,33.5.1.7-.3,1.3-1,1.4,0,0-.1,0-.2,0h0Z"/>
  <path class="cls-1" d="M16.2,88.3c0,0-.1,0-.2,0-.7-.1-1.1-.8-1-1.4,1.6-9.2,5.8-25.7,17.3-33.4.6-.4,1.4-.2,1.7.3.4.6.2,1.4-.3,1.7-10.7,7.2-14.8,22.9-16.2,31.7-.1.6-.6,1.1-1.2,1.1h0Z"/>
  <path class="cls-2" d="M45.9,61.6c-2.2,0-4.3-.7-6.2-1.9-1.2-.8-2.2-1.8-3-3-.4-.6-.2-1.3.3-1.8.6-.4,1.4-.2,1.8.3.6.9,1.4,1.7,2.3,2.3,1.9,1.3,4.2,1.8,6.5,1.3s4.2-1.8,5.5-3.7c.4-.6,1.2-.7,1.7-.3.6.4.7,1.2.3,1.7-1.7,2.5-4.2,4.2-7.1,4.8-.7.2-1.5.2-2.2.2h0Z"/>
  <path class="cls-2" d="M56.7,51h-21.3c-1.4,0-2.5-1.1-2.5-2.5v-12.5c0-1.4,1.1-2.5,2.5-2.5h21.3c1.4,0,2.5,1.1,2.5,2.5v12.5c0,1.4-1.1,2.5-2.5,2.5ZM35.3,36s0,0,0,0v12.5h21.3s0-12.5,0-12.5c0,0-21.3,0-21.3,0Z"/>
  <path class="cls-2" d="M57.9,40.2c-.5,0-1-.3-1.2-.8-.2-.7.1-1.4.8-1.6l6.6-2.3c.7-.2,1.4.1,1.6.8.2.7-.1,1.4-.8,1.6l-6.6,2.3c-.1,0-.3,0-.4,0h0Z"/>
  <path class="cls-2" d="M34.1,40.2c-.1,0-.3,0-.4,0l-6.6-2.3c-.6-.2-1-1-.8-1.6.2-.7,1-1,1.6-.8l6.6,2.3c.7.2,1,1,.8,1.6-.2.5-.7.8-1.2.8h0Z"/>
  <path class="cls-2" d="M57.9,48.1c-.5,0-1-.3-1.2-.8-.2-.7.1-1.4.8-1.6l6.6-2.3c.7-.2,1.4.1,1.6.8.2.7-.1,1.4-.8,1.6l-6.6,2.3c-.1,0-.3,0-.4,0h0Z"/>
  <path class="cls-2" d="M34.1,48.1c-.1,0-.3,0-.4,0l-6.6-2.3c-.6-.2-1-1-.8-1.6.2-.7,1-1,1.6-.8l6.6,2.3c.7.2,1,1,.8,1.6-.2.5-.7.8-1.2.8h0Z"/>
</svg>