<svg id="_レイヤー_1" xmlns="http://www.w3.org/2000/svg" viewBox="0 0 92 92"><defs><style>.cls-1,.cls-2{fill:#48453a;stroke-width:0}.cls-2{fill:#ae9373}</style></defs><path class="cls-1" d="M27.54 22.96h-.11c-.69-.06-1.2-.67-1.14-1.36.95-10.87 9.89-19.06 20.79-19.06h.02c10.52 0 19.42 7.88 20.71 18.32.09.69-.4 1.32-1.09 1.4-.69.08-1.32-.4-1.4-1.09-1.13-9.19-8.96-16.11-18.21-16.11h-.01c-9.59 0-17.45 7.2-18.28 16.76-.06.65-.61 1.15-1.25 1.15zm19.54 59a1.261 1.261 0 010-2.52c10.26 0 16.65-4.88 17.55-13.39a1.257 1.257 0 012.5.26c-1.03 9.79-8.52 15.64-20.05 15.64zm-3.61-21.93c-.15 0-.31-.03-.46-.09-6.79-2.71-24.63-2.59-30.06-.91-.66.21-1.37-.16-1.57-.83-.21-.66.17-1.37.83-1.57 5.9-1.83 24.15-2.04 31.73.98.64.26.96.99.7 1.63-.2.49-.67.79-1.17.79zm-21.66-8.11c-.69 0-1.26-.56-1.26-1.26V27.97c0-.66.51-1.21 1.17-1.25 3.66-.26 16.1-.84 22.34 2.47.61.32.85 1.09.52 1.7-.32.61-1.08.85-1.7.52-4.25-2.25-12.8-2.65-19.81-2.25v21.51c0 .69-.56 1.26-1.26 1.26z"/><path class="cls-2" d="M66.5 63.79c-3.89 0-7.54-1.51-10.29-4.26-2.75-2.75-4.26-6.4-4.26-10.29V28.43c0-1.81 1.48-3.29 3.29-3.29h22.52c1.81 0 3.29 1.48 3.29 3.29v20.82c0 8.02-6.54 14.54-14.55 14.55zM55.24 27.65c-.43 0-.78.35-.78.78v20.81c0 3.22 1.25 6.25 3.53 8.52a11.96 11.96 0 008.51 3.53c6.63 0 12.03-5.4 12.04-12.03V28.44c0-.43-.35-.78-.78-.78H55.24z"/><path class="cls-1" d="M72.93 45.59H60.07c-.69 0-1.26-.56-1.26-1.26V33c0-.69.56-1.26 1.26-1.26h12.86c.69 0 1.26.56 1.26 1.26v11.33c0 .69-.56 1.26-1.26 1.26zm-11.61-2.52h10.35v-8.81H61.32v8.81zm5.18 13.06c-2.03 0-3.68-1.65-3.68-3.68s1.65-3.68 3.68-3.68 3.68 1.65 3.68 3.68-1.65 3.68-3.68 3.68zm0-4.85c-.64 0-1.17.52-1.17 1.17s.52 1.17 1.17 1.17 1.17-.52 1.17-1.17-.52-1.17-1.17-1.17zM42.52 84.73c-.69 0-1.26-.56-1.26-1.26v-5.45a1.261 1.261 0 012.52 0v5.45c0 .69-.56 1.26-1.26 1.26zM27.97 62.58c-6.61 0-13.2-.89-16.23-2.67-.45-.2-.79-.64-.79-1.14V29.35c0-.55.36-1.04.89-1.2 1.36-.41 2.77-.66 4.2-.73.68-.03 1.28.5 1.32 1.19.03.69-.5 1.28-1.19 1.32-.91.05-1.81.17-2.7.38v27.66c5.26 2.51 22.98 2.91 28.97.04v-27.4a1.261 1.261 0 012.52 0v28.15c0 .44-.23.85-.6 1.07-3 1.83-9.69 2.74-16.38 2.74z"/><path class="cls-2" d="M26.19 89.47c-3.76 0-7.53-1.17-10.68-3.52a5.966 5.966 0 01-1.77-1.8c-1.87-2.89-1.05-6.77 1.84-8.65 6.21-4.64 14.97-4.64 21.25.05.97.62 1.77 1.57 2.26 2.71.07.16.1.33.1.5v3.99c0 .17-.04.34-.1.5a6.264 6.264 0 01-2.33 2.76c-3.09 2.31-6.82 3.47-10.56 3.47zm-.04-14.92c-3.23 0-6.45 1.01-9.13 3.01-1.8 1.17-2.29 3.49-1.17 5.22.29.44.66.81 1.1 1.1 5.46 4.07 12.98 4.08 18.37.05.61-.4 1.06-.89 1.36-1.47v-3.43a3.65 3.65 0 00-1.28-1.42c-2.74-2.04-6-3.06-9.24-3.06z"/></svg>