<svg id="_レイヤー_1" data-name="レイヤー 1" xmlns="http://www.w3.org/2000/svg" version="1.1" viewBox="0 0 92 92"><defs><style>.cls-1,.cls-2{fill:#8b8780;stroke-width:0}.cls-2{fill:#48453a}</style></defs><path class="cls-2" d="M8.4 60.8c-.7 0-1.3-.6-1.3-1.3V20.1c0-.7.6-1.3 1.3-1.3s1.3.6 1.3 1.3v39.5c0 .7-.6 1.3-1.3 1.3zM6.3 14.3c-.6 0-1.1-.4-1.2-.9-.2-.7.2-1.4.9-1.5L46.5 1.4h.5c.5 0 1.1.2 1.5.6s.6.9.6 1.5v9.1c0 .7-.6 1.3-1.3 1.3s-1.3-.6-1.3-1.3V4L6.6 14.2h-.3zM47.2 3.8zm-.6-.4z"/><path class="cls-2" d="M54.1 42.7c-.7 0-1.3-.6-1.3-1.3V14.5H25.9c-.7 0-1.3-.6-1.3-1.3s.6-1.3 1.3-1.3H53c1.3 0 2.3 1 2.3 2.3v27.1c0 .7-.6 1.3-1.3 1.3zm27.2 48h-36c-5.8 0-10.6-4.8-10.6-10.6V61.5c0-5.8 4.8-10.6 10.6-10.6h1v-6.5c0-.5.3-1 .8-1.2.5-.2 1 0 1.4.3l7.4 7.4h25.5c5.8 0 10.6 4.8 10.6 10.6v18.6c0 5.8-4.8 10.6-10.6 10.6zm-36-37.4c-4.5 0-8.1 3.7-8.1 8.1V80c0 4.4 3.7 8.1 8.1 8.1h36c4.5 0 8.1-3.7 8.1-8.1V61.4c0-4.5-3.7-8.1-8.1-8.1h-26c-.3 0-.7-.1-.9-.4l-5.6-5.6V52c0 .7-.6 1.3-1.3 1.3h-2.2z"/><path class="cls-1" d="M75 71.6c-.5 0-.9-.4-.9-.9s.4-.9.9-.9.9.4.9.9-.4.9-.9.9z"/><path class="cls-1" d="M75 68.4c1.2 0 2.2 1 2.2 2.2s-1 2.2-2.2 2.2-2.2-1-2.2-2.2 1-2.2 2.2-2.2zm-11.7 3.2c-.5 0-1-.4-1-.9s.4-.9 1-.9 1 .4 1 .9-.4.9-1 .9z"/><path class="cls-1" d="M63.3 68.4c1.2 0 2.2 1 2.2 2.2s-1 2.2-2.2 2.2-2.2-1-2.2-2.2 1-2.2 2.2-2.2zm-11.7 3.2c-.5 0-1-.4-1-.9s.4-.9 1-.9 1 .4 1 .9-.4.9-1 .9z"/><path class="cls-1" d="M51.6 68.4c1.2 0 2.2 1 2.2 2.2s-1 2.2-2.2 2.2-2.2-1-2.2-2.2 1-2.2 2.2-2.2zm-22 3.5h-.3L6.5 66.2H2c-1.1 0-1.9-.9-1.9-1.9V13.9C.1 12.8 1 12 2 12h4.9l41.2 10.7c.5.1.9.6.9 1.2v13.4c0 .7-.6 1.3-1.3 1.3s-1.3-.6-1.3-1.3V24.9L6.5 14.5H2.6v49.1h4.3l22.9 5.8c.7.2 1.1.8.9 1.5-.1.6-.7.9-1.2 1z"/></svg>