<svg id="_レイヤー_1" data-name="レイヤー 1" xmlns="http://www.w3.org/2000/svg" version="1.1" viewBox="0 0 92 92"><defs><style>.cls-2{stroke-width:0;fill:#48453a}</style></defs><path class="cls-2" d="M85.1 64.7H6.9c-2.8 0-5.1-2.3-5.1-5.1V9.4c0-2.8 2.3-5.1 5.1-5.1H85c2.8 0 5.1 2.3 5.1 5.1v50.2c0 2.8-2.3 5.1-5.1 5.1zM6.9 6.8C5.5 6.8 4.3 8 4.3 9.4v50.2c0 1.4 1.2 2.6 2.6 2.6H85c1.4 0 2.6-1.2 2.6-2.6V9.4c0-1.4-1.2-2.6-2.6-2.6H6.9zm63.2 80.9H21.9c-.7 0-1.3-.6-1.3-1.3s.6-1.3 1.3-1.3h48.2c.7 0 1.3.6 1.3 1.3s-.6 1.3-1.3 1.3z"/><path class="cls-2" d="M38.8 87.7c-.7 0-1.3-.6-1.3-1.3V68.5c0-.7.6-1.3 1.3-1.3s1.3.6 1.3 1.3v17.9c0 .7-.6 1.3-1.3 1.3zm14.4 0c-.7 0-1.3-.6-1.3-1.3V68.5c0-.7.6-1.3 1.3-1.3s1.3.6 1.3 1.3v17.9c0 .7-.6 1.3-1.3 1.3z"/><path d="M51.7 51.1c-.3 0-.6-.1-.9-.4-.5-.5-.5-1.3 0-1.8l22.4-22.4c.5-.5 1.3-.5 1.8 0s.5 1.3 0 1.8L52.6 50.7c-.2.2-.6.4-.9.4zM64.1 49c-.3 0-.6-.1-.9-.4-.5-.5-.5-1.3 0-1.8l9.1-9.2c.5-.5 1.3-.5 1.8 0s.5 1.3 0 1.8L65 48.6c-.2.2-.6.4-.9.4z" fill="#8b8780" stroke-width="0"/><path class="cls-2" d="M81.6 57.7H15.3c-.7 0-1.3-.6-1.3-1.3s.6-1.3 1.3-1.3h65.1V17c0-.7.6-1.3 1.3-1.3s1.3.6 1.3 1.3v39.4c0 .7-.6 1.3-1.3 1.3zm-71.2-5.5c-.7 0-1.3-.6-1.3-1.3V12.6c0-.7.6-1.3 1.3-1.3h66.4c.7 0 1.3.6 1.3 1.3s-.6 1.3-1.3 1.3H11.7v37.2c0 .7-.6 1.3-1.3 1.3z"/></svg>