<?xml version="1.0" encoding="UTF-8"?>
<svg id="_レイヤー_1" data-name=" レイヤー 1" xmlns="http://www.w3.org/2000/svg" version="1.1" viewBox="0 0 92 92">
  <defs>
    <style>
      .cls-1 {
        fill: #8b8780;
      }

      .cls-1, .cls-2 {
        stroke-width: 0px;
      }

      .cls-2 {
        fill: #48453a;
      }
    </style>
  </defs>
  <path class="cls-2" d="M59.8,67.5h-22c-.7,0-1.3-.6-1.3-1.3s.6-1.3,1.3-1.3h22c.7,0,1.3.6,1.3,1.3s-.6,1.3-1.3,1.3Z"/>
  <path class="cls-2" d="M84.5,67.9c-.4,0-.9-.2-1.1-.7-.3-.6,0-1.4.5-1.7,1.6-.8,3.1-1.8,4.5-2.8,1.1-1.4.8-12.3-.4-16.5-1.7-5.9-5.6-10.9-10.8-14.2-8.5-4.6-30.3-2.5-39.4.1-6.2,1.8-11.2,5.9-17.6,11-4,3.2-8.6,6.9-14.4,10.7-.2.2-.5.4-.7.6-2.9,2.9-2.9,7.6-.2,10.6h6.8c.7,0,1.3.6,1.3,1.3s-.6,1.3-1.3,1.3h-7.3c-.3,0-.7-.1-.9-.4-4-4-4.1-10.5-.1-14.5.3-.3.6-.6,1-.9,0,0,0,0,0,0,5.7-3.8,10.2-7.4,14.3-10.6,6.6-5.3,11.8-9.4,18.5-11.4,9-2.7,31.8-5.1,41.4.1,5.8,3.7,10,9.2,11.9,15.7.9,3.1,2.3,17-.4,19.2-1.6,1.2-3.2,2.2-4.9,3.1-.2,0-.4.2-.6.2h0Z"/>
  <path class="cls-2" d="M28.6,48.2c-.5,0-1-.2-1.4-.6-.4-.4-.6-.8-.6-1.4s.2-1.1.7-1.5c3.8-3.4,8.2-6.1,13-7.9,9.3-2.9,26.9-3.7,34.4-.6,3.4,1.7,5.8,4.9,6.4,8.6.3,1.4-.6,2.9-2.1,3.2-.2,0-.4,0-.6,0,0,0-49.8,0-49.8,0ZM29,46.7h0,0ZM30.1,45.7h48.3c.2,0,.2-.1.2-.3-.5-3-2.4-5.5-5-6.8-6.8-2.9-23.9-2-32.5.7-4,1.5-7.7,3.7-11,6.4Z"/>
  <path class="cls-2" d="M54.1,47.4c-.7,0-1.3-.6-1.3-1.3v-9.6c0-.7.6-1.3,1.3-1.3s1.3.6,1.3,1.3v9.6c0,.7-.6,1.3-1.3,1.3Z"/>
  <path class="cls-1" d="M24.4,74.6c-4.6,0-8.4-3.8-8.4-8.4s3.8-8.4,8.4-8.4,8.4,3.8,8.4,8.4-3.8,8.4-8.4,8.4ZM24.4,60.4c-3.2,0-5.8,2.6-5.8,5.8s2.6,5.8,5.8,5.8,5.8-2.6,5.8-5.8-2.6-5.8-5.8-5.8Z"/>
  <path class="cls-1" d="M72.8,74.6c-4.6,0-8.4-3.8-8.4-8.4s3.8-8.4,8.4-8.4,8.4,3.8,8.4,8.4-3.8,8.4-8.4,8.4ZM72.8,60.4c-3.2,0-5.8,2.6-5.8,5.8s2.6,5.8,5.8,5.8,5.8-2.6,5.8-5.8-2.6-5.8-5.8-5.8Z"/>
  <path class="cls-1" d="M51.2,25.4c-.7,0-1.3-.6-1.3-1.3v-5.5c0-.7.6-1.3,1.3-1.3h9.9c.7,0,1.3.6,1.3,1.3v5.1c0,.7-.6,1.3-1.3,1.3s-1.3-.6-1.3-1.3v-3.8h-7.4v4.2c0,.7-.6,1.3-1.3,1.3Z"/>
</svg>