<svg id="_レイヤー_1" data-name="レイヤー 1" xmlns="http://www.w3.org/2000/svg" version="1.1" viewBox="0 0 92 92"><defs><style>.cls-2{stroke-width:0;fill:#48453a}</style></defs><path class="cls-2" d="M28 33.5c-.6 0-1.1-.4-1.2-1-.4-1.7-.4-3.4 0-5 .1-.7.8-1.1 1.5-1 .7.1 1.1.8 1 1.5-.2 1.4-.2 2.7 0 4 .1.7-.3 1.3-1 1.5H28zm35.6 0h-.3c-.7-.1-1.1-.8-1-1.5.2-.7.2-1.4.2-2.2 0-.6 0-1.1-.1-1.7-.1-.7.3-1.3 1-1.5.7-.1 1.3.4 1.5 1 .1.7.2 1.4.2 2.1s0 1.8-.3 2.7c-.1.6-.7 1-1.2 1z"/><path d="M63.3 27.6H28.2c-1.8-.1-3.3-1.5-3.6-3.3V24L25 8.7c-.2-1.8.9-3.4 2.7-3.8h.3l16.5-1.2h2.6l16.5 1.2c1.9.2 3.2 1.8 3.1 3.7v.2l.4 15.3v.3c-.3 1.8-1.8 3.1-3.6 3.2zM28.4 25h34.8c.6 0 1.1-.5 1.3-1.1l-.4-15.3v-.3c0-.5-.3-1-.8-1L46.8 6.1h-2.2L28.1 7.3c-.5 0-.8.5-.7 1v.3L27 23.9c.2.6.7 1 1.3 1.1zm47.4 63.3c-.6 0-1.1-.4-1.2-1.1-1.5-8.9-5.6-24.8-16.5-31.9-.6-.4-.8-1.2-.4-1.7s1.2-.8 1.7-.4c11.7 7.6 16 24.3 17.6 33.5.1.7-.3 1.3-1 1.4h-.2zm-59.6 0H16c-.7-.1-1.1-.8-1-1.4 1.6-9.2 5.8-25.7 17.3-33.4.6-.4 1.4-.2 1.7.3.4.6.2 1.4-.3 1.7C23 62.7 18.9 78.4 17.5 87.2c-.1.6-.6 1.1-1.2 1.1z" fill="#8b8780" stroke-width="0"/><path class="cls-2" d="M45.9 61.6c-2.2 0-4.3-.7-6.2-1.9-1.2-.8-2.2-1.8-3-3-.4-.6-.2-1.3.3-1.8.6-.4 1.4-.2 1.8.3.6.9 1.4 1.7 2.3 2.3 1.9 1.3 4.2 1.8 6.5 1.3s4.2-1.8 5.5-3.7c.4-.6 1.2-.7 1.7-.3.6.4.7 1.2.3 1.7-1.7 2.5-4.2 4.2-7.1 4.8-.7.2-1.5.2-2.2.2zM56.7 51H35.4c-1.4 0-2.5-1.1-2.5-2.5V36c0-1.4 1.1-2.5 2.5-2.5h21.3c1.4 0 2.5 1.1 2.5 2.5v12.5c0 1.4-1.1 2.5-2.5 2.5zM35.3 36v12.5h21.3V36H35.3z"/><path class="cls-2" d="M57.9 40.2c-.5 0-1-.3-1.2-.8-.2-.7.1-1.4.8-1.6l6.6-2.3c.7-.2 1.4.1 1.6.8.2.7-.1 1.4-.8 1.6l-6.6 2.3h-.4zm-23.8 0h-.4l-6.6-2.3c-.6-.2-1-1-.8-1.6.2-.7 1-1 1.6-.8l6.6 2.3c.7.2 1 1 .8 1.6-.2.5-.7.8-1.2.8zm23.8 7.9c-.5 0-1-.3-1.2-.8-.2-.7.1-1.4.8-1.6l6.6-2.3c.7-.2 1.4.1 1.6.8.2.7-.1 1.4-.8 1.6l-6.6 2.3h-.4zm-23.8 0h-.4l-6.6-2.3c-.6-.2-1-1-.8-1.6.2-.7 1-1 1.6-.8l6.6 2.3c.7.2 1 1 .8 1.6-.2.5-.7.8-1.2.8z"/></svg>