<svg id="_レイヤー_1" xmlns="http://www.w3.org/2000/svg" viewBox="0 0 92 92"><defs><style>.cls-1{fill:#48453a;stroke-width:0}</style></defs><path class="cls-1" d="M58.24 76.64H33.75c-8.32 0-15.09-6.77-15.09-15.09V20.51c0-2.32 1.89-4.22 4.21-4.22H69.1c2.32 0 4.21 1.89 4.21 4.22v41.04c0 8.32-6.77 15.09-15.09 15.09zM22.88 18.81c-.94 0-1.7.76-1.7 1.7v41.04c0 6.94 5.64 12.58 12.57 12.58h24.49c6.93 0 12.57-5.64 12.57-12.58V20.51c0-.94-.76-1.7-1.7-1.7H22.88zm29.25 66.11H39.86c-.69 0-1.26-.56-1.26-1.26v-4.14a1.261 1.261 0 012.52 0v2.88h9.75v-2.88a1.261 1.261 0 012.52 0v4.14c0 .69-.56 1.26-1.26 1.26z"/><path class="cls-1" d="M46 91.39c-.69 0-1.26-.56-1.26-1.26v-6.07a1.261 1.261 0 012.52 0v6.07c0 .69-.56 1.26-1.26 1.26zm13.1-76.31c-.64 0-1.19-.49-1.25-1.14-.53-5.7-5.05-10.22-10.75-10.75-3.17-.29-6.25.66-8.7 2.69a11.79 11.79 0 00-4.25 8.06c-.06.69-.68 1.2-1.37 1.14-.69-.06-1.2-.68-1.14-1.37.36-3.84 2.18-7.3 5.15-9.76C39.75 1.49 43.5.33 47.33.69c6.9.64 12.38 6.12 13.02 13.02.06.69-.44 1.3-1.14 1.37h-.12z"/><path class="cls-1" d="M38.88 15.08h-.12c-.69-.07-1.2-.68-1.13-1.37a8.354 8.354 0 013.02-5.69 8.38 8.38 0 016.16-1.89c4 .38 7.19 3.57 7.57 7.58.07.69-.44 1.31-1.13 1.37a1.25 1.25 0 01-1.37-1.13 5.906 5.906 0 00-5.31-5.31c-1.57-.15-3.1.32-4.32 1.32a5.84 5.84 0 00-2.12 3.99c-.06.65-.61 1.14-1.25 1.14z"/><path d="M34.35 70.77c-4.86 0-8.98-3.88-9.23-8.84V45.82c0-.57.38-1.06.92-1.21a37.141 37.141 0 0120.22.15 34.47 34.47 0 0019 .09c.36-.1.76-.03 1.07.19.31.22.5.57.53.95l.02.32v15.56c-.25 5.16-4.61 9.11-9.69 8.89H34.76c-.14 0-.27.01-.41.01zM27.64 46.8v15.07c.18 3.65 3.34 6.54 7.06 6.38h22.54c3.77.16 6.94-2.72 7.12-6.44V47.68a37.098 37.098 0 01-18.8-.5 34.622 34.622 0 00-17.93-.38z" fill="#ae9373" stroke-width="0"/><path class="cls-1" d="M33.96 27.28h-7.58a1.261 1.261 0 010-2.52h7.58a1.261 1.261 0 010 2.52zm-2.1 5.88h-5.48a1.261 1.261 0 010-2.52h5.48a1.261 1.261 0 010 2.52zm0 5.88h-5.48a1.261 1.261 0 010-2.52h5.48a1.261 1.261 0 010 2.52z"/></svg>