<svg id="_レイヤー_1" data-name="レイヤー 1" xmlns="http://www.w3.org/2000/svg" version="1.1" viewBox="0 0 92 92"><defs><style>.cls-2{stroke-width:0;fill:#48453a}</style></defs><path class="cls-2" d="M58.2 76.6H33.7c-8.3 0-15.1-6.8-15.1-15.1v-41c0-2.3 1.9-4.2 4.2-4.2H69c2.3 0 4.2 1.9 4.2 4.2v41c0 8.3-6.8 15.1-15.1 15.1zM22.9 18.8c-.9 0-1.7.8-1.7 1.7v41c0 6.9 5.6 12.6 12.6 12.6h24.5c6.9 0 12.6-5.6 12.6-12.6v-41c0-.9-.8-1.7-1.7-1.7H22.9zm29.2 66.1H39.8c-.7 0-1.3-.6-1.3-1.3v-4.1c0-.7.6-1.3 1.3-1.3s1.3.6 1.3 1.3v2.9h9.8v-2.9c0-.7.6-1.3 1.3-1.3s1.3.6 1.3 1.3v4.1c0 .7-.6 1.3-1.3 1.3z"/><path class="cls-2" d="M46 91.4c-.7 0-1.3-.6-1.3-1.3V84c0-.7.6-1.3 1.3-1.3s1.3.6 1.3 1.3v6.1c0 .7-.6 1.3-1.3 1.3zm13.1-76.3c-.6 0-1.2-.5-1.2-1.1-.5-5.7-5-10.2-10.8-10.8-3.2-.3-6.2.7-8.7 2.7-2.5 2-4 4.9-4.2 8.1 0 .7-.7 1.2-1.4 1.1-.7 0-1.2-.7-1.1-1.4.4-3.8 2.2-7.3 5.2-9.8 3-2.5 6.7-3.6 10.5-3.3 6.9.6 12.4 6.1 13 13 0 .7-.4 1.3-1.1 1.4h-.1z"/><path class="cls-2" d="M38.9 15.1h-.1c-.7 0-1.2-.7-1.1-1.4.2-2.2 1.3-4.3 3-5.7 1.7-1.4 3.9-2.1 6.2-1.9 4 .4 7.2 3.6 7.6 7.6 0 .7-.4 1.3-1.1 1.4-.7 0-1.3-.4-1.4-1.1-.3-2.8-2.5-5-5.3-5.3-1.6-.1-3.1.3-4.3 1.3s-2 2.4-2.1 4c0 .6-.6 1.1-1.2 1.1z"/><path d="M34.3 70.8c-4.9 0-9-3.9-9.2-8.8V45.9c0-.6.4-1.1.9-1.2 6.6-1.8 13.6-1.8 20.2.2a34.1 34.1 0 0019 0c.4 0 .8 0 1.1.2.3.2.5.6.5 1V62c-.2 5.2-4.6 9.1-9.7 8.9H34.3zm-6.7-24v15.1c.2 3.7 3.3 6.5 7.1 6.4h22.5c3.8.2 6.9-2.7 7.1-6.4V47.8c-6.2 1.5-12.7 1.3-18.8-.5-5.8-1.7-12-1.8-17.9-.4z" stroke-width="0" fill="#8b8780"/><path class="cls-2" d="M34 27.3h-7.6c-.7 0-1.3-.6-1.3-1.3s.6-1.3 1.3-1.3H34c.7 0 1.3.6 1.3 1.3s-.6 1.3-1.3 1.3zm-2.1 5.9h-5.5c-.7 0-1.3-.6-1.3-1.3s.6-1.3 1.3-1.3h5.5c.7 0 1.3.6 1.3 1.3s-.6 1.3-1.3 1.3zm0 5.8h-5.5c-.7 0-1.3-.6-1.3-1.3s.6-1.3 1.3-1.3h5.5c.7 0 1.3.6 1.3 1.3s-.6 1.3-1.3 1.3z"/></svg>