<svg id="_レイヤー_1" xmlns="http://www.w3.org/2000/svg" viewBox="0 0 92 92"><defs><style>.cls-1,.cls-2{fill:#48453a;stroke-width:0}.cls-2{fill:#ae9373}</style></defs><path class="cls-1" d="M35.11 90.05c-1.4 0-2.78-.04-4.13-.11-11.51-.6-24.96-4.03-28.18-11.82-.27-.64.04-1.38.68-1.64.64-.27 1.38.04 1.64.68 2.29 5.53 12.49 9.56 25.99 10.27 13.85.73 29.92-2.32 33.85-9.56.33-.61 1.09-.84 1.71-.51.61.33.84 1.09.51 1.7-4.19 7.72-18.81 10.98-32.06 10.98zM4.58 73.63c-.19 0-.39-.04-.57-.14a1.26 1.26 0 01-.55-1.69l20.08-39.34c.21-.42.65-.69 1.12-.69h20.15c.47 0 .9.26 1.11.67l20.65 39.34c.32.62.09 1.38-.53 1.7-.61.33-1.38.09-1.7-.53l-20.3-38.67H25.42L5.7 72.95c-.22.44-.66.69-1.12.69zm37.89-43.6c-.69 0-1.26-.56-1.26-1.26v-4.21H28.25v4.21a1.261 1.261 0 01-2.52 0V23.3c0-.69.56-1.26 1.26-1.26h15.47c.69 0 1.26.56 1.26 1.26v5.47c0 .69-.56 1.26-1.26 1.26zm29.99-17.98c-.69 0-1.26-.56-1.26-1.26V6.94H46.37a1.261 1.261 0 010-2.52h26.09c.69 0 1.26.56 1.26 1.26v5.11c0 .69-.56 1.26-1.26 1.26zm-31.16-1.2H28.18c-.69 0-1.26-.56-1.26-1.26V3.2c0-.69.56-1.26 1.26-1.26H41.3c.69 0 1.26.56 1.26 1.26v6.38c0 .69-.56 1.26-1.26 1.26zM29.44 8.33h10.6V4.46h-10.6v3.87z"/><path class="cls-2" d="M72.43 45.15c-.69 0-1.25-.56-1.26-1.25v-.89c0-.69.56-1.26 1.25-1.26.67.01 1.26.56 1.26 1.25v.89c0 .69-.56 1.26-1.25 1.26zm-.02-4.43c-.69 0-1.25-.56-1.26-1.25v-.89c0-.69.56-1.26 1.25-1.26.69.04 1.26.56 1.26 1.25v.89c0 .69-.56 1.26-1.25 1.26zm-.02-4.43c-.69 0-1.25-.56-1.26-1.25v-.89c0-.69.56-1.26 1.25-1.26s1.25.56 1.26 1.25v.89c0 .69-.56 1.26-1.25 1.26zm-.02-4.43c-.69 0-1.25-.56-1.26-1.25v-.89c0-.69.56-1.26 1.25-1.26s1.25.56 1.26 1.25v.89c0 .69-.56 1.26-1.25 1.26zm-.02-4.43c-.69 0-1.26-.56-1.26-1.25v-.89c0-.69.56-1.26 1.25-1.26.69.04 1.26.56 1.26 1.25v.89c0 .69-.56 1.26-1.25 1.26zM72.33 23c-.69 0-1.25-.56-1.26-1.25v-.89c0-.69.56-1.26 1.25-1.26s1.25.56 1.26 1.25v.89c0 .69-.56 1.26-1.25 1.26zm-.02-4.43c-.69 0-1.25-.56-1.26-1.25v-.89c0-.69.56-1.26 1.25-1.26s1.25.56 1.26 1.25v.89c0 .69-.56 1.26-1.25 1.26zm15.73 19.88c-.47 0-.92-.26-1.13-.71l-.38-.8c-.3-.63-.04-1.38.59-1.68.63-.3 1.38-.04 1.68.59l.38.8c.3.63.04 1.38-.59 1.68-.18.08-.36.12-.54.12zm-1.92-3.99c-.47 0-.92-.26-1.13-.71l-.38-.8c-.3-.63-.04-1.38.59-1.68.63-.3 1.38-.04 1.68.59l.38.8c.3.63.04 1.38-.59 1.68-.18.08-.36.12-.54.12zm-1.92-3.99c-.47 0-.92-.26-1.13-.71l-.38-.8c-.3-.63-.04-1.38.59-1.68.63-.3 1.38-.04 1.68.59l.38.8c.3.63.04 1.38-.59 1.68-.18.08-.36.12-.54.12zm-1.92-3.99c-.47 0-.92-.26-1.13-.71l-.38-.8c-.3-.63-.04-1.38.59-1.68.63-.3 1.38-.04 1.68.59l.38.8c.3.63.04 1.38-.59 1.68-.18.08-.36.12-.54.12zm-1.92-3.99c-.47 0-.92-.26-1.13-.71l-.38-.8c-.3-.63-.04-1.38.59-1.68.63-.3 1.38-.04 1.68.59l.38.8c.3.63.04 1.38-.59 1.68-.18.08-.36.12-.54.12zm-1.92-3.99c-.47 0-.92-.26-1.13-.71l-.38-.8c-.3-.63-.04-1.38.59-1.68.63-.3 1.38-.04 1.68.59l.38.8c.3.63.04 1.38-.59 1.68-.18.08-.36.12-.54.12zM57.05 38.6c-.18 0-.36-.04-.53-.12a1.25 1.25 0 01-.61-1.67l.37-.8a1.25 1.25 0 011.67-.61c.63.29.91 1.04.61 1.67l-.37.8c-.21.46-.67.73-1.14.73zm1.86-4.02c-.18 0-.36-.04-.53-.12-.63-.29-.91-1.04-.62-1.67l.37-.8c.29-.63 1.04-.91 1.67-.62.63.29.91 1.04.62 1.67l-.37.8c-.21.46-.67.73-1.14.73zm1.86-4.02c-.18 0-.36-.04-.53-.12a1.25 1.25 0 01-.61-1.67l.37-.8a1.25 1.25 0 011.67-.61c.63.29.91 1.04.61 1.67l-.37.8c-.21.46-.67.73-1.14.73zm1.86-4.02c-.18 0-.36-.04-.53-.12-.63-.29-.91-1.04-.62-1.67l.37-.8c.29-.63 1.04-.91 1.67-.62.63.29.91 1.04.62 1.67l-.37.8c-.21.46-.67.73-1.14.73zm1.86-4.02c-.18 0-.36-.04-.53-.12a1.25 1.25 0 01-.61-1.67l.37-.8a1.25 1.25 0 011.67-.61c.63.29.91 1.04.61 1.67l-.37.8c-.21.46-.67.73-1.14.73zm1.86-4.02c-.18 0-.36-.04-.53-.12-.63-.29-.91-1.04-.62-1.67l.37-.8c.29-.63 1.04-.91 1.67-.62.63.29.91 1.04.62 1.67l-.37.8c-.21.46-.67.73-1.14.73z"/><path class="cls-1" d="M32.34 19.96c-.69 0-1.26-.56-1.26-1.26v-4.91a1.261 1.261 0 012.52 0v4.91c0 .69-.56 1.26-1.26 1.26zm4.79 0c-.69 0-1.26-.56-1.26-1.26v-4.91a1.261 1.261 0 012.52 0v4.91c0 .69-.56 1.26-1.26 1.26z"/><path class="cls-2" d="M12.52 75.01c-.18 0-.37-.04-.55-.13-.63-.3-.89-1.06-.58-1.68L24.3 46.61c.3-.62 1.06-.88 1.68-.58.63.3.89 1.06.58 1.68L13.65 74.3c-.22.45-.67.71-1.13.71z"/></svg>