<svg id="_レイヤー_1" xmlns="http://www.w3.org/2000/svg" viewBox="0 0 92 92"><defs><style>.cls-1{fill:#48453a;stroke-width:0}</style></defs><path class="cls-1" d="M85.07 64.72H6.93c-2.81 0-5.09-2.29-5.09-5.09V9.39c0-2.81 2.28-5.09 5.09-5.09h78.13c2.81 0 5.09 2.29 5.09 5.09v50.23c0 2.81-2.28 5.09-5.09 5.09zM6.93 6.81c-1.42 0-2.58 1.16-2.58 2.58v50.23c0 1.42 1.16 2.58 2.58 2.58h78.13c1.42 0 2.58-1.16 2.58-2.58V9.39c0-1.42-1.16-2.58-2.58-2.58H6.93zM70.11 87.7H21.89a1.261 1.261 0 010-2.52h48.22a1.261 1.261 0 010 2.52z"/><path class="cls-1" d="M38.75 87.7c-.69 0-1.26-.56-1.26-1.26V68.58a1.261 1.261 0 012.52 0v17.86c0 .69-.56 1.26-1.26 1.26zm14.5 0c-.69 0-1.26-.56-1.26-1.26V68.58a1.261 1.261 0 012.52 0v17.86c0 .69-.56 1.26-1.26 1.26z"/><path d="M51.72 51.07a1.261 1.261 0 01-.89-2.15l22.38-22.4c.49-.49 1.29-.49 1.78 0s.49 1.29 0 1.78L52.61 50.7c-.25.25-.57.37-.89.37zm12.38-2.05a1.261 1.261 0 01-.89-2.15l9.14-9.15c.49-.49 1.29-.49 1.78 0s.49 1.29 0 1.78l-9.14 9.15c-.25.25-.57.37-.89.37z" fill="#ae9373" stroke-width="0"/><path class="cls-1" d="M81.57 57.72H15.26a1.261 1.261 0 010-2.52h65.05V17.01a1.261 1.261 0 012.52 0v39.45c0 .69-.56 1.26-1.26 1.26zm-71.14-5.47c-.69 0-1.26-.56-1.26-1.26V12.56c0-.69.56-1.26 1.26-1.26h66.38a1.261 1.261 0 010 2.52H11.69V51c0 .69-.56 1.26-1.26 1.26z"/></svg>