<svg id="_レイヤー_1" data-name="レイヤー 1" xmlns="http://www.w3.org/2000/svg" version="1.1" viewBox="0 0 92 92"><defs><style>.cls-1,.cls-2{fill:#8b8780;stroke-width:0}.cls-2{fill:#48453a}</style></defs><path class="cls-2" d="M35.1 90.1c-1.4 0-2.8 0-4.1-.1-11.5-.6-25-4-28.2-11.8-.3-.6 0-1.4.7-1.6.6-.3 1.4 0 1.6.7 2.3 5.5 12.5 9.6 26 10.3C45 88.3 61 85.3 65 78c.3-.6 1.1-.8 1.7-.5.6.3.8 1.1.5 1.7-4.2 7.7-18.8 11-32.1 11zM4.6 73.6c-.2 0-.4 0-.6-.1-.6-.3-.9-1.1-.5-1.7l20.1-39.3c.2-.4.6-.7 1.1-.7h20.1c.5 0 .9.3 1.1.7l20.7 39.3c.3.6 0 1.4-.5 1.7-.6.3-1.4 0-1.7-.5L44.1 34.3H25.5L5.7 72.9c-.2.4-.7.7-1.1.7zM42.5 30c-.7 0-1.3-.6-1.3-1.3v-4.2h-13v4.2c0 .7-.6 1.3-1.3 1.3s-1.3-.6-1.3-1.3v-5.5c0-.7.6-1.3 1.3-1.3h15.5c.7 0 1.3.6 1.3 1.3v5.5c0 .7-.6 1.3-1.3 1.3zm30-17.9c-.7 0-1.3-.6-1.3-1.3V7H46.4c-.7 0-1.3-.6-1.3-1.3s.6-1.3 1.3-1.3h26.1c.7 0 1.3.6 1.3 1.3v5.1c0 .7-.6 1.3-1.3 1.3zm-31.2-1.2H28.2c-.7 0-1.3-.6-1.3-1.3V3.2c0-.7.6-1.3 1.3-1.3h13.1c.7 0 1.3.6 1.3 1.3v6.4c0 .7-.6 1.3-1.3 1.3zM29.4 8.3H40V4.4H29.4v3.9z"/><path class="cls-1" d="M72.4 45.2c-.7 0-1.2-.6-1.3-1.2v-.9c0-.7.6-1.3 1.2-1.3.7 0 1.3.6 1.3 1.2v.9c0 .7-.6 1.3-1.2 1.3zm0-4.5c-.7 0-1.2-.6-1.3-1.2v-.9c0-.7.6-1.3 1.2-1.3.7 0 1.3.6 1.3 1.2v.9c0 .7-.6 1.3-1.2 1.3zm0-4.4c-.7 0-1.2-.6-1.3-1.2v-.9c0-.7.6-1.3 1.2-1.3.7 0 1.2.6 1.3 1.2v.9c0 .7-.6 1.3-1.2 1.3zm0-4.4c-.7 0-1.2-.6-1.3-1.2v-.9c0-.7.6-1.3 1.2-1.3.7 0 1.2.6 1.3 1.2v.9c0 .7-.6 1.3-1.2 1.3zm0-4.5c-.7 0-1.3-.6-1.3-1.2v-.9c0-.7.6-1.3 1.2-1.3.7 0 1.3.6 1.3 1.2v.9c0 .7-.6 1.3-1.2 1.3zm-.1-4.4c-.7 0-1.2-.6-1.3-1.2v-.9c0-.7.6-1.3 1.2-1.3.7 0 1.2.6 1.3 1.2v.9c0 .7-.6 1.3-1.2 1.3zm0-4.4c-.7 0-1.2-.6-1.3-1.2v-.9c0-.7.6-1.3 1.2-1.3.7 0 1.2.6 1.3 1.2v.9c0 .7-.6 1.3-1.2 1.3zM88 38.5c-.5 0-.9-.3-1.1-.7l-.4-.8c-.3-.6 0-1.4.6-1.7s1.4 0 1.7.6l.4.8c.3.6 0 1.4-.6 1.7-.2 0-.4.1-.5.1zm-1.9-4c-.5 0-.9-.3-1.1-.7l-.4-.8c-.3-.6 0-1.4.6-1.7.6-.3 1.4 0 1.7.6l.4.8c.3.6 0 1.4-.6 1.7-.2 0-.4.1-.5.1zm-1.9-4c-.5 0-.9-.3-1.1-.7l-.4-.8c-.3-.6 0-1.4.6-1.7.6-.3 1.4 0 1.7.6l.4.8c.3.6 0 1.4-.6 1.7-.2 0-.4.1-.5.1zm-1.9-4c-.5 0-.9-.3-1.1-.7l-.4-.8c-.3-.6 0-1.4.6-1.7.6-.3 1.4 0 1.7.6l.4.8c.3.6 0 1.4-.6 1.7-.2 0-.4.1-.5.1zm-1.9-4c-.5 0-.9-.3-1.1-.7l-.4-.8c-.3-.6 0-1.4.6-1.7.6-.3 1.4 0 1.7.6l.4.8c.3.6 0 1.4-.6 1.7-.2 0-.4.1-.5.1zm-2-4c-.5 0-.9-.3-1.1-.7l-.4-.8c-.3-.6 0-1.4.6-1.7s1.4 0 1.7.6l.4.8c.3.6 0 1.4-.6 1.7-.2 0-.4.1-.5.1zM57 38.6c-.2 0-.4 0-.5-.1-.6-.3-.9-1-.6-1.7l.4-.8c.3-.6 1-.9 1.7-.6.6.3.9 1 .6 1.7l-.4.8c-.2.5-.7.7-1.1.7zm1.9-4c-.2 0-.4 0-.5-.1-.6-.3-.9-1-.6-1.7l.4-.8c.3-.6 1-.9 1.7-.6.6.3.9 1 .6 1.7l-.4.8c-.2.5-.7.7-1.1.7zm1.9-4c-.2 0-.4 0-.5-.1-.6-.3-.9-1-.6-1.7l.4-.8c.3-.6 1-.9 1.7-.6.6.3.9 1 .6 1.7l-.4.8c-.2.5-.7.7-1.1.7zm1.8-4.1c-.2 0-.4 0-.5-.1-.6-.3-.9-1-.6-1.7l.4-.8c.3-.6 1-.9 1.7-.6.6.3.9 1 .6 1.7l-.4.8c-.2.5-.7.7-1.1.7zm1.9-4c-.2 0-.4 0-.5-.1-.6-.3-.9-1-.6-1.7l.4-.8c.3-.6 1-.9 1.7-.6.6.3.9 1 .6 1.7l-.4.8c-.2.5-.7.7-1.1.7zm1.8-4c-.2 0-.4 0-.5-.1-.6-.3-.9-1-.6-1.7l.4-.8c.3-.6 1-.9 1.7-.6s.9 1 .6 1.7l-.4.8c-.2.5-.7.7-1.1.7z"/><path class="cls-2" d="M32.3 20c-.7 0-1.3-.6-1.3-1.3v-4.9c0-.7.6-1.3 1.3-1.3s1.3.6 1.3 1.3v4.9c0 .7-.6 1.3-1.3 1.3zm4.8 0c-.7 0-1.3-.6-1.3-1.3v-4.9c0-.7.6-1.3 1.3-1.3s1.3.6 1.3 1.3v4.9c0 .7-.6 1.3-1.3 1.3z"/><path class="cls-1" d="M12.5 75c-.2 0-.4 0-.6-.1-.6-.3-.9-1.1-.6-1.7l12.9-26.6c.3-.6 1.1-.9 1.7-.6.6.3.9 1.1.6 1.7L13.6 74.3c-.2.4-.7.7-1.1.7z"/></svg>