<svg data-name="レイヤー 1" xmlns="http://www.w3.org/2000/svg" viewBox="0 0 92 92"><path d="M46 29.2c-7.3 0-13.3-6-13.3-13.3S38.7 2.6 46 2.6s13.3 6 13.3 13.3-6 13.3-13.3 13.3zm0-24.1c-5.9 0-10.8 4.8-10.8 10.8S40 26.7 46 26.7s10.8-4.8 10.8-10.8S52 5.1 46 5.1zm10.7 84.3c-1.5 0-3-.4-4.2-1.3-2.7-1.8-3.4-5.4-1.6-8.2l3.9-6.1c.4-.6 1.2-.8 1.7-.4s.8 1.2.4 1.7L53 81.2c-1 1.6-.6 3.7 1 4.8 2.2 1.5 5.2 1 6.8-1.1l9.3-12.3c1.7-2.2 2.7-4.8 3-7.5l.8-7c.6-4.9-.6-9.8-3.6-13.7-.3-.4-.6-.8-.9-1.1l-1.5-1.5c-4.4-4.4-9.8-7-12.6-7H36.7c-2.7 0-8.2 2.6-12.6 7l-1.5 1.5c-.2.2-.5.6-.8 1-2.9 4-4.2 8.8-3.6 13.7l.9 7c.3 2.7 1.4 5.3 3 7.5l9.3 12.3c1.6 2.1 4.6 2.6 6.8 1.1 1.5-1.1 2-3.2 1-4.8l-3.7-5.7c-.4-.6-.2-1.4.4-1.7.6-.4 1.4-.2 1.7.4l3.7 5.7c1.8 2.7 1 6.3-1.6 8.2-3.3 2.3-7.8 1.6-10.2-1.6l-9.3-12.3c-1.9-2.5-3.1-5.6-3.5-8.7l-.9-7c-.7-5.5.7-11 4-15.5.3-.5.7-.9 1-1.2l1.6-1.6c4.5-4.5 10.5-7.8 14.4-7.8h18.6c3.8 0 9.9 3.3 14.4 7.8l1.6 1.6c.4.4.7.8 1.1 1.3 3.3 4.5 4.7 10 4 15.5l-.8 7c-.4 3.2-1.6 6.2-3.5 8.7l-9.3 12.3c-1.5 1.9-3.7 3-6 3z" stroke-width="0" fill="#48453a"/><path d="M46 76c-.5 0-1.1-.2-1.5-.5-3.8-2.4-7.3-5.3-10.5-8.5-5-6-4.1-11.2-2.4-14.5 1.5-3 4.9-4.9 8.5-4.7 2.4.1 4.5 1.1 5.9 2.6 1.3-1.5 3.4-2.5 5.9-2.6 3.7-.2 7 1.7 8.6 4.7 1.7 3.3 2.6 8.6-2.4 14.5-3.2 3.2-6.7 6.1-10.5 8.5-.4.3-1 .5-1.5.5zM35.9 65.4c3 3.1 6.4 5.8 10 8.1h.2c3.7-2.3 7-5.1 10-8.1 3.3-3.9 4-7.9 2-11.8-1.3-2.6-4.2-3.4-6.2-3.3-1.8 0-4 .9-4.8 3-.2.5-.7.8-1.2.8s-1-.3-1.2-.8c-.8-2.1-3-2.9-4.8-3-2-.1-4.9.7-6.2 3.3-1.9 3.9-1.2 7.8 2 11.8z" stroke-width="0" fill="#8b8780"/></svg>