<?xml version="1.0" encoding="UTF-8"?>
<svg id="_レイヤー_1" data-name=" レイヤー 1" xmlns="http://www.w3.org/2000/svg" version="1.1" viewBox="0 0 92 92">
  <defs>
    <style>
      .cls-1 {
        fill: #8b8780;
      }

      .cls-1, .cls-2 {
        stroke-width: 0px;
      }

      .cls-2 {
        fill: #48453a;
      }
    </style>
  </defs>
  <path class="cls-2" d="M35.1,90.1c-1.4,0-2.8,0-4.1-.1-11.5-.6-25-4-28.2-11.8-.3-.6,0-1.4.7-1.6.6-.3,1.4,0,1.6.7,2.3,5.5,12.5,9.6,26,10.3,13.9.7,29.9-2.3,33.9-9.6.3-.6,1.1-.8,1.7-.5.6.3.8,1.1.5,1.7-4.2,7.7-18.8,11-32.1,11h0Z"/>
  <path class="cls-2" d="M4.6,73.6c-.2,0-.4,0-.6-.1-.6-.3-.9-1.1-.5-1.7l20.1-39.3c.2-.4.6-.7,1.1-.7h20.1c.5,0,.9.3,1.1.7l20.7,39.3c.3.6,0,1.4-.5,1.7-.6.3-1.4,0-1.7-.5l-20.3-38.7h-18.6L5.7,72.9c-.2.4-.7.7-1.1.7h0Z"/>
  <path class="cls-2" d="M42.5,30c-.7,0-1.3-.6-1.3-1.3v-4.2h-13v4.2c0,.7-.6,1.3-1.3,1.3s-1.3-.6-1.3-1.3v-5.5c0-.7.6-1.3,1.3-1.3h15.5c.7,0,1.3.6,1.3,1.3v5.5c0,.7-.6,1.3-1.3,1.3h0Z"/>
  <path class="cls-2" d="M72.5,12.1c-.7,0-1.3-.6-1.3-1.3v-3.8h-24.8c-.7,0-1.3-.6-1.3-1.3s.6-1.3,1.3-1.3h26.1c.7,0,1.3.6,1.3,1.3v5.1c0,.7-.6,1.3-1.3,1.3Z"/>
  <path class="cls-2" d="M41.3,10.9h-13.1c-.7,0-1.3-.6-1.3-1.3V3.2c0-.7.6-1.3,1.3-1.3h13.1c.7,0,1.3.6,1.3,1.3v6.4c0,.7-.6,1.3-1.3,1.3h0ZM29.4,8.3h10.6v-3.9h-10.6s0,3.9,0,3.9Z"/>
  <path class="cls-1" d="M72.4,45.2c-.7,0-1.2-.6-1.3-1.2v-.9c0-.7.6-1.3,1.2-1.3.7,0,1.3.6,1.3,1.2v.9c0,.7-.6,1.3-1.2,1.3h0ZM72.4,40.7c-.7,0-1.2-.6-1.3-1.2v-.9c0-.7.6-1.3,1.2-1.3.7,0,1.3.6,1.3,1.2v.9c0,.7-.6,1.3-1.2,1.3h0ZM72.4,36.3c-.7,0-1.2-.6-1.3-1.2v-.9c0-.7.6-1.3,1.2-1.3h0c.7,0,1.2.6,1.3,1.2v.9c0,.7-.6,1.3-1.2,1.3h0ZM72.4,31.9c-.7,0-1.2-.6-1.3-1.2v-.9c0-.7.6-1.3,1.2-1.3h0c.7,0,1.2.6,1.3,1.2v.9c0,.7-.6,1.3-1.2,1.3h0ZM72.4,27.4c-.7,0-1.3-.6-1.3-1.2v-.9c0-.7.6-1.3,1.2-1.3.7,0,1.3.6,1.3,1.2v.9c0,.7-.6,1.3-1.2,1.3h0ZM72.3,23c-.7,0-1.2-.6-1.3-1.2v-.9c0-.7.6-1.3,1.2-1.3h0c.7,0,1.2.6,1.3,1.2v.9c0,.7-.6,1.3-1.2,1.3h0ZM72.3,18.6c-.7,0-1.2-.6-1.3-1.2v-.9c0-.7.6-1.3,1.2-1.3h0c.7,0,1.2.6,1.3,1.2v.9c0,.7-.6,1.3-1.2,1.3h0Z"/>
  <path class="cls-1" d="M88,38.5c-.5,0-.9-.3-1.1-.7l-.4-.8c-.3-.6,0-1.4.6-1.7s1.4,0,1.7.6l.4.8c.3.6,0,1.4-.6,1.7-.2,0-.4.1-.5.1h0ZM86.1,34.5c-.5,0-.9-.3-1.1-.7l-.4-.8c-.3-.6,0-1.4.6-1.7.6-.3,1.4,0,1.7.6l.4.8c.3.6,0,1.4-.6,1.7-.2,0-.4.1-.5.1h0ZM84.2,30.5c-.5,0-.9-.3-1.1-.7l-.4-.8c-.3-.6,0-1.4.6-1.7.6-.3,1.4,0,1.7.6l.4.8c.3.6,0,1.4-.6,1.7-.2,0-.4.1-.5.1h0ZM82.3,26.5c-.5,0-.9-.3-1.1-.7l-.4-.8c-.3-.6,0-1.4.6-1.7.6-.3,1.4,0,1.7.6l.4.8c.3.6,0,1.4-.6,1.7-.2,0-.4.1-.5.1h0ZM80.4,22.5c-.5,0-.9-.3-1.1-.7l-.4-.8c-.3-.6,0-1.4.6-1.7.6-.3,1.4,0,1.7.6l.4.8c.3.6,0,1.4-.6,1.7-.2,0-.4.1-.5.1h0ZM78.4,18.5c-.5,0-.9-.3-1.1-.7l-.4-.8c-.3-.6,0-1.4.6-1.7s1.4,0,1.7.6l.4.8c.3.6,0,1.4-.6,1.7-.2,0-.4.1-.5.1h0Z"/>
  <path class="cls-1" d="M57,38.6c-.2,0-.4,0-.5-.1-.6-.3-.9-1-.6-1.7l.4-.8c.3-.6,1-.9,1.7-.6.6.3.9,1,.6,1.7l-.4.8c-.2.5-.7.7-1.1.7ZM58.9,34.6c-.2,0-.4,0-.5-.1-.6-.3-.9-1-.6-1.7l.4-.8c.3-.6,1-.9,1.7-.6.6.3.9,1,.6,1.7l-.4.8c-.2.5-.7.7-1.1.7h0ZM60.8,30.6c-.2,0-.4,0-.5-.1-.6-.3-.9-1-.6-1.7l.4-.8c.3-.6,1-.9,1.7-.6.6.3.9,1,.6,1.7l-.4.8c-.2.5-.7.7-1.1.7ZM62.6,26.5c-.2,0-.4,0-.5-.1-.6-.3-.9-1-.6-1.7l.4-.8c.3-.6,1-.9,1.7-.6.6.3.9,1,.6,1.7l-.4.8c-.2.5-.7.7-1.1.7h0ZM64.5,22.5c-.2,0-.4,0-.5-.1-.6-.3-.9-1-.6-1.7l.4-.8c.3-.6,1-.9,1.7-.6.6.3.9,1,.6,1.7l-.4.8c-.2.5-.7.7-1.1.7ZM66.3,18.5c-.2,0-.4,0-.5-.1-.6-.3-.9-1-.6-1.7l.4-.8c.3-.6,1-.9,1.7-.6s.9,1,.6,1.7l-.4.8c-.2.5-.7.7-1.1.7h0Z"/>
  <path class="cls-2" d="M32.3,20c-.7,0-1.3-.6-1.3-1.3v-4.9c0-.7.6-1.3,1.3-1.3s1.3.6,1.3,1.3v4.9c0,.7-.6,1.3-1.3,1.3Z"/>
  <path class="cls-2" d="M37.1,20c-.7,0-1.3-.6-1.3-1.3v-4.9c0-.7.6-1.3,1.3-1.3s1.3.6,1.3,1.3v4.9c0,.7-.6,1.3-1.3,1.3Z"/>
  <path class="cls-1" d="M12.5,75c-.2,0-.4,0-.6-.1-.6-.3-.9-1.1-.6-1.7l12.9-26.6c.3-.6,1.1-.9,1.7-.6.6.3.9,1.1.6,1.7l-12.9,26.6c-.2.4-.7.7-1.1.7Z"/>
</svg>