<svg id="_レイヤー_1" xmlns="http://www.w3.org/2000/svg" viewBox="0 0 92 92"><defs><style>.cls-1{stroke:#48453a;fill:none;stroke-linecap:round;stroke-linejoin:round;stroke-width:2.59px}</style></defs><path class="cls-1" d="M73.88 68.03c.06 1.81.01 3.62-.14 5.42-.52 7.55-3 12.72-12.62 12.43a72.857 72.857 0 01-30.06-9.98 17.314 17.314 0 01-7.69-10.09c-1.09-5.4 2.68-11.47 6.35-15.11a98.88 98.88 0 007.57-7.75c2.4-2.95 2.74-6.98 1.55-11.87-2.17-8.97 4.28-14.25 13.31-15.4 6.2-.79 7.75.46 14.09-2.21 3.34-1.41 7.12-3.15 8.58-.89 1.33 2.07-.37 4.55-1.78 5.69-2.24 1.92-4.89 3.3-7.75 4.01-3.3.69-6.66.95-10.03.78-4.85-.18-7.85 1.62-8.3 4.29-.67 4.02 2.62 6.25 5.51 7.14 2.83.59 5.7.97 8.58 1.16 3.85.87 7 3.65 8.35 7.36 1.77 4.38 2.96 8.98 3.53 13.68"/><path class="cls-1" d="M24.81 69.51c-12.79-2.78-14.31-17.66-9.48-27.32 2.24-4.49 5.89-9.43 5.64-18.73-.22-8.4 1.23-13.77 4.27-16.57a5.785 5.785 0 019.09.82"/><path class="cls-1" d="M39.14 32.4c-10.04-1.36-10.3-9.78-8.55-14.33 2.58-6.71 11.52-10.78 19.4-8.24l2.4 1.06m6.77 16.85c4.19 3.41 5.95 6.67 9.03 12.97M29.1 74.5c2.9 13.54-3.36 12.64-4.68 12.28-3.58-.97-6.36-5.19-6.72-14.78m3.73-56.83s-15.6-2.62-16.52 3.25c-1.07 6.82 11.24 6.15 11.24 6.15M3.9 26.23c-1.07 6.82 15.84 6.56 15.84 6.56"/><path d="M88.14 62.69H66.56l-2.23-11.48s-5.55 20.85-5.88 19.78-3.56-13.4-3.56-13.4l-3.33 5.53-4.42-19.99-4.02 19.99H32.66" stroke="#ae9373" fill="none" stroke-linecap="round" stroke-linejoin="round" stroke-width="2.59"/></svg>