<?xml version="1.0" encoding="UTF-8"?>
<svg id="_レイヤー_1" data-name=" レイヤー 1" xmlns="http://www.w3.org/2000/svg" version="1.1" viewBox="0 0 92 92">
  <defs>
    <style>
      .cls-1 {
        stroke-width: 0px;
      }

      .cls-1, .cls-2, .cls-3 {
        fill: none;
      }

      .cls-2 {
        stroke: #48453a;
      }

      .cls-2, .cls-3 {
        stroke-linecap: round;
        stroke-linejoin: round;
        stroke-width: 2.6px;
      }

      .cls-3 {
        stroke: #8b8780;
      }
    </style>
  </defs>
  <path class="cls-1" d="M75.5,13.2l3.4,3.4c1.1,1.1,1.1,3,0,4.1h0l-3.6,3.6h0l-7.5-7.5h0l3.6-3.6c1.1-1.1,3-1.1,4.1,0h0Z"/>
  <path class="cls-2" d="M74.6,14.1l3.4,3.4c.6.6.6,1.7,0,2.3l-2.7,2.7h0l-5.7-5.7h0l2.7-2.7c.6-.6,1.7-.6,2.3,0Z"/>
  <line class="cls-3" x1="79.5" y1="12.5" x2="92"/>
  <path class="cls-2" d="M17.2,44l6.3,6.3L58.8,14.9c.8-.8,1.9-1.1,2.9-.8l7.2,2.1,6.8,6.8,2.1,7.2c.3,1,0,2.2-.8,2.9l-35.3,35.4,6.2,6.2"/>
  <path class="cls-2" d="M34.9,69.2l-15.9,15.7,1.5,1.5c1.1,1.1,1.4,2.8.5,4.1-1,1.5-3,1.9-4.4.9-.2-.1-.3-.2-.5-.4l-15.1-15.1c-1.1-1.1-1.4-2.8-.5-4.1,1-1.5,3-1.9,4.4-.9.2.1.3.2.5.4l1.6,1.6,15.9-15.7"/>
  <line class="cls-3" x1="34.1" y1="46.1" x2="40.2" y2="52.5"/>
  <line class="cls-3" x1="38.9" y1="41.5" x2="43.5" y2="46.3"/>
  <line class="cls-3" x1="43.6" y1="37" x2="48.2" y2="41.8"/>
  <line class="cls-3" x1="48.4" y1="32.4" x2="54.5" y2="38.8"/>
  <line class="cls-3" x1="53.2" y1="27.8" x2="57.8" y2="32.6"/>
  <line class="cls-3" x1="57.9" y1="23.2" x2="62.5" y2="28"/>
  <line class="cls-2" x1="7" y1="72.9" x2="13.8" y2="79.7"/>
  <line class="cls-2" x1="23.5" y1="50.3" x2="41.8" y2="68.6"/>
</svg>