<?xml version="1.0" encoding="UTF-8"?>
<svg id="_レイヤー_1" data-name=" レイヤー 1" xmlns="http://www.w3.org/2000/svg" version="1.1" viewBox="0 0 92 92">
  <defs>
    <style>
      .cls-1 {
        stroke: #48453a;
      }

      .cls-1, .cls-2 {
        fill: none;
        stroke-linecap: round;
        stroke-linejoin: round;
        stroke-width: 2.6px;
      }

      .cls-2 {
        stroke: #8b8780;
      }
    </style>
  </defs>
  <path class="cls-1" d="M16.6,75.9v12.6h-5.3v-12.6"/>
  <path class="cls-1" d="M78.5,75.9v12.6h-5.3v-12.6"/>
  <path class="cls-1" d="M23.5,24.4V7.8c0-2.4,1.9-4.3,4.3-4.3h36.3c2.4,0,4.3,1.9,4.3,4.3v16.6"/>
  <path class="cls-2" d="M39.4,11.5h13.2c3.2,0,5.7,2.6,5.7,5.7v5.2h-24.6v-5.2c0-3.2,2.6-5.7,5.7-5.7Z"/>
  <path class="cls-1" d="M86.1,52.9v13.1c0,3.1-2.5,5.7-5.7,5.7H11.6c-3.1,0-5.7-2.5-5.7-5.7v-13.1"/>
  <line class="cls-1" x1="14.7" y1="52.9" x2="76.9" y2="52.9"/>
  <path class="cls-1" d="M5.9,52.9l14.2-23.6c2.1-4.2,6.4-6.9,11.1-6.9h29.5c4.7,0,9,2.7,11.1,7l14.2,23.6"/>
</svg>