<svg id="_レイヤー_1" xmlns="http://www.w3.org/2000/svg" viewBox="0 0 92 92"><defs><style>.cls-2{fill:none;stroke-width:0}</style></defs><path class="cls-2" d="M21.54 22.89h68.72c1.62 0 2.94 1.32 2.94 2.94v54.32c0 1.62-1.32 2.94-2.94 2.94H21.54c-1.62 0-2.94-1.32-2.94-2.94V25.83c0-1.62 1.32-2.94 2.94-2.94z" transform="rotate(-89.89 55.91 52.982)"/><path d="M27.041 87.296l.132-68.72a1.652 1.652 0 011.653-1.646l54.32.104c.91.002 1.649.743 1.647 1.653l-.132 68.72a1.641 1.641 0 01-1.643 1.637l-54.34-.104a1.641 1.641 0 01-1.637-1.644z" stroke-width="2.59" stroke-linecap="round" stroke-linejoin="round" stroke="#48453a" fill="none"/><path d="M25.75 83.74l-4.5.78c-1.65.29-3.21-.82-3.5-2.46L5.98 14.52c-.29-1.65.82-3.21 2.46-3.5l53.34-9.31c1.65-.29 3.21.82 3.5 2.46l1.87 10.74" stroke-width="2.59" stroke-linecap="round" stroke-linejoin="round" stroke="#48453a" fill="none"/><path d="M72.04 40.25c-9.12-8.42-23.16-8.44-32.31-.06m32.29 8.65c-9.12-8.42-23.16-8.45-32.31-.06m32.3 8.66c-9.12-8.42-23.16-8.44-32.31-.06m16.2-29.59l-.06 39.92" stroke="#ae9373" stroke-linecap="round" stroke-linejoin="round" stroke-width="2.59" fill="none"/><path class="cls-2" d="M71.04 69.37c0 5.51-6.83 9.96-15.23 9.94-8.4-.02-15.2-4.49-15.19-10s6.83-7.4 15.23-7.38 15.21 1.93 15.2 7.44z"/><path d="M55.74 64.51c-4.13 0-7.47.49-9.68 1.43-2.53 1.07-2.86 2.37-2.86 3.37 0 2.38 2.05 4.09 3.28 4.9 2.42 1.59 5.82 2.51 9.34 2.51h.04c3.51 0 6.9-.91 9.32-2.49 1.22-.8 3.28-2.5 3.28-4.87 0-1.01-.32-2.31-2.87-3.39-2.22-.94-5.59-1.45-9.75-1.46h-.1m0-2.59h.11c8.4.02 15.21 1.93 15.2 7.44-.01 5.5-6.8 9.94-15.18 9.94h-.05c-8.4-.02-15.2-4.49-15.19-10 .01-5.48 6.77-7.38 15.12-7.38z" fill="#ae9373" stroke-width="0"/></svg>