<svg id="_レイヤー_1" xmlns="http://www.w3.org/2000/svg" viewBox="0 0 92 92"><defs><style>.cls-1{stroke:#48453a;fill:none;stroke-linecap:round;stroke-linejoin:round;stroke-width:2.59px}</style></defs><path class="cls-1" d="M16.57 75.95v12.59h-5.31V75.95m67.2 0v12.59h-5.31V75.95M23.54 24.4V7.77a4.31 4.31 0 014.31-4.31h36.3a4.31 4.31 0 014.31 4.31V24.4"/><path d="M39.39 11.47h13.22c3.15 0 5.71 2.56 5.71 5.71v5.2H33.68v-5.2c0-3.16 2.56-5.71 5.71-5.71z" stroke="#ae9373" fill="none" stroke-linecap="round" stroke-linejoin="round" stroke-width="2.59"/><path class="cls-1" d="M86.05 52.94v13.08a5.65 5.65 0 01-5.65 5.65H11.6a5.65 5.65 0 01-5.65-5.65V52.94m8.71 0h62.28m-70.99 0l14.2-23.62c2.07-4.25 6.39-6.95 11.11-6.95h29.47c4.73 0 9.04 2.7 11.11 6.95l14.2 23.62"/></svg>