<?xml version="1.0" encoding="UTF-8"?>
<svg id="_レイヤー_1" data-name=" レイヤー 1" xmlns="http://www.w3.org/2000/svg" version="1.1" viewBox="0 0 92 92">
  <defs>
    <style>
      .cls-1 {
        stroke-width: 2.6px;
      }

      .cls-1, .cls-2, .cls-3, .cls-4 {
        fill: none;
      }

      .cls-1, .cls-3 {
        stroke: #48453a;
      }

      .cls-1, .cls-3, .cls-4 {
        stroke-linecap: round;
        stroke-linejoin: round;
      }

      .cls-5 {
        fill: #8b8780;
      }

      .cls-5, .cls-2 {
        stroke-width: 0px;
      }

      .cls-3, .cls-4 {
        stroke-width: 2.6px;
      }

      .cls-4 {
        stroke: #8b8780;
      }
    </style>
  </defs>
  <path class="cls-2" d="M25.8,87.3V18.6c.1-1.6,1.5-2.9,3.1-2.9h54.3c1.6.1,2.9,1.4,2.9,3v68.7c-.1,1.6-1.5,2.9-3.1,2.9H28.7c-1.6-.1-2.9-1.4-2.9-3Z"/>
  <path class="cls-1" d="M27,87.3V18.6c.1-.9.9-1.6,1.8-1.6h54.3c.9.1,1.6.8,1.6,1.8v68.7c-.1.9-.9,1.6-1.8,1.6H28.7c-.9-.1-1.6-.8-1.6-1.7Z"/>
  <path class="cls-3" d="M25.8,83.7l-4.5.8c-1.6.3-3.2-.8-3.5-2.5L6,14.5c-.3-1.6.8-3.2,2.5-3.5L61.8,1.7c1.7-.3,3.2.8,3.5,2.5l1.9,10.7"/>
  <path class="cls-4" d="M72,40.2c-9.1-8.4-23.2-8.4-32.3,0"/>
  <path class="cls-4" d="M72,48.8c-9.1-8.4-23.2-8.5-32.3,0"/>
  <path class="cls-4" d="M72,57.4c-9.1-8.4-23.2-8.4-32.3,0"/>
  <line class="cls-4" x1="55.9" y1="27.8" x2="55.8" y2="67.7"/>
  <path class="cls-2" d="M71,69.4c0,5.5-6.8,10-15.2,9.9s-15.2-4.5-15.2-10,6.8-7.4,15.2-7.4,15.2,1.9,15.2,7.4h0Z"/>
  <path class="cls-5" d="M55.7,64.5c-4.1,0-7.5.5-9.7,1.4-2.5,1.1-2.9,2.4-2.9,3.4,0,2.4,2,4.1,3.3,4.9,2.4,1.6,5.8,2.5,9.3,2.5h0c3.5,0,6.9-.9,9.3-2.5,1.2-.8,3.3-2.5,3.3-4.9s-.3-2.3-2.9-3.4c-2.2-.9-5.6-1.4-9.8-1.5h0M55.7,61.9h.1c8.4,0,15.2,1.9,15.2,7.4,0,5.5-6.8,9.9-15.2,9.9h0c-8.4,0-15.2-4.5-15.2-10,0-5.5,6.8-7.4,15.1-7.4h0Z"/>
</svg>