<?xml version="1.0" encoding="UTF-8"?>
<svg id="_レイヤー_1" data-name=" レイヤー 1" xmlns="http://www.w3.org/2000/svg" version="1.1" viewBox="0 0 92 92">
  <defs>
    <style>
      .cls-1 {
        stroke: #48453a;
      }

      .cls-1, .cls-2 {
        fill: none;
        stroke-linecap: round;
        stroke-linejoin: round;
        stroke-width: 2.6px;
      }

      .cls-2 {
        stroke: #8b8780;
      }
    </style>
  </defs>
  <path class="cls-1" d="M73.9,68c0,1.8,0,3.6-.1,5.4-.5,7.6-3,12.7-12.6,12.4-10.6-1.1-20.9-4.5-30.1-10-3.8-2.3-6.5-5.9-7.7-10.1-1.1-5.4,2.7-11.5,6.4-15.1,2.7-2.4,5.2-5,7.6-7.8,2.4-3,2.7-7,1.5-11.9-2.2-9,4.3-14.2,13.3-15.4,6.2-.8,7.8.5,14.1-2.2,3.3-1.4,7.1-3.2,8.6-.9,1.3,2.1-.4,4.5-1.8,5.7-2.2,1.9-4.9,3.3-7.8,4-3.3.7-6.7,1-10,.8-4.8-.2-7.8,1.6-8.3,4.3-.7,4,2.6,6.2,5.5,7.1,2.8.6,5.7,1,8.6,1.2,3.8.9,7,3.7,8.3,7.4,1.8,4.4,3,9,3.5,13.7"/>
  <path class="cls-1" d="M24.8,69.5c-12.8-2.8-14.3-17.7-9.5-27.3,2.2-4.5,5.9-9.4,5.6-18.7-.2-8.4,1.2-13.8,4.3-16.6,2.2-2.3,5.8-2.5,8.2-.3.3.3.7.7.9,1.1"/>
  <path class="cls-1" d="M39.1,32.4c-10-1.4-10.3-9.8-8.5-14.3,2.6-6.7,11.5-10.8,19.4-8.2l2.4,1.1"/>
  <path class="cls-1" d="M59.2,27.7c4.2,3.4,6,6.7,9,13"/>
  <path class="cls-1" d="M29.1,74.5c2.9,13.5-3.4,12.6-4.7,12.3-3.6-1-6.4-5.2-6.7-14.8"/>
  <path class="cls-1" d="M21.4,15.2s-15.6-2.6-16.5,3.2c-1.1,6.8,11.2,6.1,11.2,6.1"/>
  <path class="cls-1" d="M3.9,26.2c-1.1,6.8,15.8,6.6,15.8,6.6"/>
  <path class="cls-2" d="M88.1,62.7h-21.6l-2.2-11.5s-5.5,20.8-5.9,19.8-3.6-13.4-3.6-13.4l-3.3,5.5-4.4-20-4,20h-10.5"/>
</svg>