<?xml version="1.0" encoding="UTF-8"?>
<svg id="_レイヤー_1" data-name=" レイヤー 1" xmlns="http://www.w3.org/2000/svg" version="1.1" viewBox="0 0 92 92">
  <defs>
    <style>
      .cls-1 {
        stroke: #48453a;
      }

      .cls-1, .cls-2 {
        fill: none;
        stroke-linecap: round;
        stroke-linejoin: round;
        stroke-width: 2.6px;
      }

      .cls-2 {
        stroke: #8b8780;
      }
    </style>
  </defs>
  <path class="cls-1" d="M85.7,43.1c2.2-7.4,1.4-15.3-2.2-22.1-7.8-15.5-32.2-14.6-37.5-.7-5.3-14-29.8-14.9-37.5.7-3.6,6.8-4.4,14.7-2.2,22.1"/>
  <path class="cls-1" d="M11.9,54.4c.9,1.3,1.9,2.5,2.9,3.8,5.9,7,16.5,14.6,28.9,23.5,1.4,1,3.2,1,4.6,0,12.5-8.8,23-16.5,28.9-23.5.8-1,1.6-2,2.3-3"/>
  <path class="cls-2" d="M.7,48.7h28l3.5-14s8.6,25.4,9.1,24.1,5.5-16.3,5.5-16.3l5.2,6.7,6.9-24.3,6.2,24.3h26.2"/>
</svg>