<svg xmlns="http://www.w3.org/2000/svg" xmlns:xlink="http://www.w3.org/1999/xlink" width="95" height="65" viewBox="0 0 95 65"><defs><clipPath id="a"><rect width="95" height="65" transform="translate(456 2308)" fill="#f0efed"/></clipPath><clipPath id="b"><rect width="55.308" height="65" fill="none" stroke="#707070" stroke-width="2"/></clipPath></defs><g transform="translate(-456 -2308)" clip-path="url(#a)"><g transform="translate(475.846 2308)"><line x1="2.606" y2="3.193" transform="translate(19.086 38.968)" fill="none" stroke="#48453a" stroke-linecap="round" stroke-linejoin="round" stroke-width="2"/><line x2="2.469" y2="3.193" transform="translate(33.859 38.968)" fill="none" stroke="#48453a" stroke-linecap="round" stroke-linejoin="round" stroke-width="2"/><g transform="translate(0 0)"><g clip-path="url(#b)"><path d="M.54,43.379S-1.094,22.056,16.452,22.056L27.2,29.281v14.1" transform="translate(0.468 20.652)" fill="none" stroke="#48453a" stroke-linecap="round" stroke-linejoin="round" stroke-width="2"/><path d="M40.96,43.379S40.7,22.056,25.04,22.056L14.289,29.281v14.1" transform="translate(13.38 20.652)" fill="none" stroke="#48453a" stroke-linecap="round" stroke-linejoin="round" stroke-width="2"/><path d="M34.916,11.021s2.591-.678,1.849,2.579c-.374,1.644-.517,2.388-1.419,3.269a1.533,1.533,0,0,1-1.547.345S31.024,28.631,21.672,28.631,9.546,17.214,9.546,17.214A1.536,1.536,0,0,1,8,16.869c-.9-.881-1.044-1.625-1.417-3.269-.742-3.257,1.847-2.579,1.847-2.579" transform="translate(6.036 10.265)" fill="none" stroke="#48453a" stroke-linecap="round" stroke-linejoin="round" stroke-width="2"/><path d="M6.459,17.054S5.034.5,22.159.5c15.89,0,14.753,16.618,14.753,16.618" transform="translate(6.021 0.468)" fill="none" stroke="#48453a" stroke-linecap="round" stroke-linejoin="round" stroke-width="2"/><path d="M7.758,12.461S10.5,13.687,10.5,7.818c0,0,2.558,2.374,5.116,2.374,5.614,0,4.024-3.406,9.169-3.406,5.863,0,4.928,5.437,8.421,5.782" transform="translate(7.264 6.354)" fill="none" stroke="#48453a" stroke-linecap="round" stroke-linejoin="round" stroke-width="2"/><path d="M11.654,19.889a6.445,6.445,0,0,0-5,4.155c-.6,1.665-.4,4.188,1.237,6.764" transform="translate(5.942 18.623)" fill="none" stroke="#ae9373" stroke-linecap="round" stroke-linejoin="round" stroke-width="2"/><path d="M19.612,20.087a6.451,6.451,0,0,1,5.048,4.1A7.981,7.981,0,0,1,23.5,30.96" transform="translate(18.364 18.808)" fill="none" stroke="#ae9373" stroke-linecap="round" stroke-linejoin="round" stroke-width="2"/><path d="M11.439,37.789,9.493,38.817s-6.739-10.2-1.34-13.059,10.065,8.212,10.065,8.212l-1.973,1.158" transform="translate(5.672 23.676)" fill="none" stroke="#ae9373" stroke-linecap="round" stroke-linejoin="round" stroke-width="2"/><path d="M24.726,28.735a2.693,2.693,0,1,1-2.01-3.236,2.695,2.695,0,0,1,2.01,3.236" transform="translate(18.176 23.81)" fill="#fff" stroke="#707070" stroke-width="2"/><path d="M24.726,28.735a2.693,2.693,0,1,1-2.01-3.236A2.695,2.695,0,0,1,24.726,28.735Z" transform="translate(18.176 23.81)" fill="none" stroke="#ae9373" stroke-linecap="round" stroke-linejoin="round" stroke-width="2"/></g></g></g></g></svg>