<svg xmlns="http://www.w3.org/2000/svg" xmlns:xlink="http://www.w3.org/1999/xlink" width="95" height="65" viewBox="0 0 95 65"><defs><clipPath id="a"><rect width="95" height="65" transform="translate(419 2037)" fill="#fff" stroke="#707070" stroke-width="1"/></clipPath></defs><g transform="translate(-419 -2037)" clip-path="url(#a)"><g transform="translate(-716.476 289.796)"><g transform="translate(1157.619 1750.453)"><path d="M158.717,511.431a51.37,51.37,0,0,1-21.182-7.03c-1.361-.767-4.7-3.532-5.416-7.1-.765-3.8,1.887-8.076,4.473-10.636a69.875,69.875,0,0,0,5.337-5.455c1.688-2.08,1.933-4.92,1.1-8.359-1.531-6.319,3.017-10.035,9.38-10.844,4.377-.557,5.455.326,9.929-1.558,2.354-.991,4.659-.879,5.4.407a2.473,2.473,0,0,1-.774,3.489c-1.981,1.479-2.855,1.661-5.289,2.3a27.66,27.66,0,0,1-7.064.55c-3.418-.125-5.533,1.138-5.848,3.021-.472,2.833,1.845,4.4,3.886,5.031,1.864.577,4.108.515,6.044.818,2.784.435,4.778,2.673,5.887,5.18,1.935,4.378,3.573,13.476,3.033,21.43C167.249,507.989,165.5,511.634,158.717,511.431Z" transform="translate(-117.46 -453.679)" fill="none" stroke="#48453a" stroke-linecap="round" stroke-linejoin="round" stroke-width="2"/><path d="M132.407,499.3c-9.012-1.958-10.082-12.433-6.681-19.235,1.581-3.16,4.151-6.641,3.977-13.187-.157-5.913.922-10.317,3.069-12.294,2.295-2.757,6.872-1.366,7.1,1.165" transform="translate(-116.732 -453.071)" fill="none" stroke="#48453a" stroke-linecap="round" stroke-linejoin="round" stroke-width="2"/><path d="M143.691,473.528c-7.076-.957-7.255-6.89-6.024-10.091,1.815-4.721,8.115-7.587,13.669-5.8a9.667,9.667,0,0,1,2.538,1.062" transform="translate(-117.922 -453.436)" fill="none" stroke="#48453a" stroke-linecap="round" stroke-linejoin="round" stroke-width="2"/><path d="M158.669,471.035c3.107,1.807,5.261,5.17,7.445,9.607" transform="translate(-119.877 -454.698)" fill="none" stroke="#48453a" stroke-linecap="round" stroke-linejoin="round" stroke-width="2"/><path d="M135.765,507.533c2.043,9.536-2.363,8.9-3.294,8.646-2.522-.68-4.552-4.254-4.814-11.008" transform="translate(-117.068 -457.79)" fill="none" stroke="#48453a" stroke-linecap="round" stroke-linejoin="round" stroke-width="2"/><path d="M129.629,460.15s-11.148-1.867-11.8,2.265c-.753,4.8,8.281,4.581,8.281,4.581" transform="translate(-116.174 -453.674)" fill="none" stroke="#48453a" stroke-linecap="round" stroke-linejoin="round" stroke-width="2"/><path d="M118.5,468.244a2.651,2.651,0,0,0-1.455,1.95c-.754,4.8,11.158,4.616,11.158,4.616" transform="translate(-117.013 -454.05)" fill="none" stroke="#48453a" stroke-linecap="round" stroke-linejoin="round" stroke-width="2"/></g><path d="M153.665,502.752c-4.813-2.639-6.763-5.455-7.052-7.958-.32-2.76,1.009-4.386,2.889-4.72a3.666,3.666,0,0,1,4.163,2.24,3.665,3.665,0,0,1,4.162-2.24c1.88.333,3.21,1.96,2.889,4.72C160.426,497.3,158.477,500.113,153.665,502.752Z" transform="translate(1038.381 1294.036)" fill="none" stroke="#ae9373" stroke-linecap="round" stroke-linejoin="round" stroke-width="2"/></g></g></svg>