<?xml version="1.0" encoding="UTF-8"?><svg id="_レイヤー_1" xmlns="http://www.w3.org/2000/svg" viewBox="0 0 92 92"><defs><style>.cls-1{fill:#48453a;}.cls-1,.cls-2,.cls-3{stroke-width:0px;}.cls-2{fill:#b096b2;}.cls-3{fill:#ae9373;}</style></defs><path class="cls-1" d="m8.35,60.81c-.69,0-1.26-.56-1.26-1.26V20.06c0-.69.56-1.26,1.26-1.26s1.26.56,1.26,1.26v39.49c0,.69-.56,1.26-1.26,1.26Z"/><path class="cls-1" d="m6.31,14.29c-.56,0-1.07-.38-1.22-.94-.17-.67.23-1.36.9-1.53L46.55,1.37c.16-.04.36-.06.54-.07.55,0,1.06.22,1.45.61s.59.91.59,1.46v9.07c0,.69-.56,1.26-1.26,1.26s-1.26-.56-1.26-1.26V3.95L6.62,14.25c-.11.03-.21.04-.31.04ZM47.19,3.8h-.01s0,0,.01,0Zm-.59-.44h0s0,0,0,0Z"/><path class="cls-1" d="m54.13,42.72c-.69,0-1.26-.56-1.26-1.26V14.51h-26.93c-.69,0-1.26-.56-1.26-1.26s.56-1.26,1.26-1.26h27.12c1.28,0,2.32,1.04,2.32,2.32v27.15c0,.69-.56,1.26-1.26,1.26Z"/><path class="cls-1" d="m81.3,90.7h-36c-5.84-.02-10.6-4.78-10.62-10.62v-18.62c.02-5.84,4.78-10.61,10.61-10.62h.97v-6.5c0-.51.31-.97.78-1.16.47-.2,1.01-.09,1.37.27l7.38,7.39h25.5c5.83.02,10.6,4.78,10.62,10.61v18.62c-.01,5.84-4.77,10.61-10.61,10.63Zm-36-37.35c-4.45.01-8.09,3.65-8.1,8.11v18.61c.01,4.45,3.65,8.09,8.11,8.11h35.99c4.46-.01,8.09-3.66,8.1-8.12v-18.61c-.02-4.45-3.65-8.09-8.11-8.1h-26.02c-.33,0-.65-.13-.89-.37l-5.6-5.61v4.72c0,.69-.56,1.26-1.26,1.26h-2.22Z"/><path class="cls-3" d="m74.99,71.59c-.53,0-.95-.43-.95-.95s.43-.95.95-.95.95.43.95.95-.43.95-.95.95Z"/><path class="cls-2" d="m74.99,68.43c1.22,0,2.21.99,2.21,2.21s-.99,2.21-2.21,2.21-2.21-.99-2.21-2.21.99-2.21,2.21-2.21Z"/><path class="cls-3" d="m63.34,71.59c-.53,0-.95-.43-.95-.95s.43-.95.95-.95.95.43.95.95-.43.95-.95.95Z"/><path class="cls-2" d="m63.34,68.43c1.22,0,2.21.99,2.21,2.21s-.99,2.21-2.21,2.21-2.21-.99-2.21-2.21.99-2.21,2.21-2.21Z"/><path class="cls-3" d="m51.59,71.59c-.53,0-.95-.43-.95-.95s.43-.95.95-.95.95.43.95.95-.43.95-.95.95Z"/><path class="cls-2" d="m51.59,68.43c1.22,0,2.21.99,2.21,2.21s-.99,2.21-2.21,2.21-2.21-.99-2.21-2.21.99-2.21,2.21-2.21Z"/><path class="cls-2" d="m29.58,71.9c-.1,0-.2-.01-.31-.04l-22.79-5.72H2.01c-1.06,0-1.92-.86-1.92-1.92V13.9c0-1.06.86-1.92,1.92-1.92h4.63c.11,0,.21.01.32.04l41.23,10.71c.55.14.94.64.94,1.22v13.35c0,.69-.56,1.26-1.26,1.26s-1.26-.56-1.26-1.26v-12.38L6.48,14.5h-3.87v49.12h4.03c.1,0,.21.01.31.04l22.94,5.76c.67.17,1.08.85.91,1.53-.14.57-.66.95-1.22.95Z"/></svg>