<?xml version="1.0" encoding="UTF-8"?><svg id="_レイヤー_1" xmlns="http://www.w3.org/2000/svg" viewBox="0 0 92 92"><defs><style>.cls-1{fill:#48453a;}.cls-1,.cls-2,.cls-3{stroke-width:0px;}.cls-2{fill:none;}.cls-3{fill:#b096b2;}</style></defs><path class="cls-2" d="m19.42,5.56h53.16c4.26,0,7.72,3.46,7.72,7.72v65.44c0,4.26-3.45,7.72-7.72,7.72H19.42c-4.26,0-7.72-3.46-7.72-7.72V13.28c0-4.26,3.45-7.72,7.72-7.72Z"/><path class="cls-1" d="m72.58,86.44H19.42c-4.26,0-7.72-3.46-7.72-7.72V13.28c0-4.26,3.46-7.72,7.72-7.72h53.16c4.26,0,7.72,3.46,7.72,7.72v65.44c0,4.26-3.46,7.72-7.72,7.72ZM19.42,8.07c-2.87,0-5.2,2.34-5.2,5.21v65.44c0,2.87,2.33,5.21,5.2,5.21h53.16c2.87,0,5.2-2.34,5.2-5.21V13.28c0-2.87-2.33-5.21-5.2-5.21H19.42Z"/><path class="cls-1" d="m65.57,51.95h-28.16c-.69,0-1.26-.56-1.26-1.26s.56-1.26,1.26-1.26h28.16c.69,0,1.26.56,1.26,1.26s-.56,1.26-1.26,1.26Z"/><path class="cls-1" d="m65.57,62.71h-28.16c-.69,0-1.26-.56-1.26-1.26s.56-1.26,1.26-1.26h28.16c.69,0,1.26.56,1.26,1.26s-.56,1.26-1.26,1.26Z"/><path class="cls-1" d="m65.57,74.01h-28.16c-.69,0-1.26-.56-1.26-1.26s.56-1.26,1.26-1.26h28.16c.69,0,1.26.56,1.26,1.26s-.56,1.26-1.26,1.26Z"/><path class="cls-1" d="m62.47,18.41H29.53c-.69,0-1.26-.56-1.26-1.26v-5.06c0-.69.56-1.26,1.26-1.26s1.26.56,1.26,1.26v3.81h30.42v-3.81c0-.69.56-1.26,1.26-1.26s1.26.56,1.26,1.26v5.06c0,.69-.56,1.26-1.26,1.26Z"/><circle class="cls-3" cx="28.41" cy="50.69" r="1.97"/><path class="cls-3" d="m28.41,52.67c-1.09,0-1.97-.89-1.97-1.97s.89-1.97,1.97-1.97,1.97.89,1.97,1.97-.89,1.97-1.97,1.97Zm0-2.52c-.3,0-.54.24-.54.54s.24.54.54.54.54-.24.54-.54-.24-.54-.54-.54Z"/><circle class="cls-3" cx="28.41" cy="61.45" r="1.97"/><path class="cls-3" d="m28.41,63.43c-1.09,0-1.97-.89-1.97-1.97s.89-1.97,1.97-1.97,1.97.89,1.97,1.97-.89,1.97-1.97,1.97Zm0-2.52c-.3,0-.54.24-.54.54s.24.54.54.54.54-.24.54-.54-.24-.54-.54-.54Z"/><path class="cls-1" d="m65.57,30.31h-28.16c-.69,0-1.26-.56-1.26-1.26s.56-1.26,1.26-1.26h28.16c.69,0,1.26.56,1.26,1.26s-.56,1.26-1.26,1.26Z"/><path class="cls-1" d="m65.57,41.07h-28.16c-.69,0-1.26-.56-1.26-1.26s.56-1.26,1.26-1.26h28.16c.69,0,1.26.56,1.26,1.26s-.56,1.26-1.26,1.26Z"/><circle class="cls-3" cx="28.41" cy="29.06" r="1.97"/><path class="cls-3" d="m28.41,31.03c-1.09,0-1.97-.89-1.97-1.97s.89-1.97,1.97-1.97,1.97.89,1.97,1.97-.89,1.97-1.97,1.97Zm0-2.52c-.3,0-.54.24-.54.54s.24.54.54.54.54-.24.54-.54-.24-.54-.54-.54Z"/><circle class="cls-3" cx="28.41" cy="39.81" r="1.97"/><path class="cls-3" d="m28.41,41.79c-1.09,0-1.97-.89-1.97-1.97s.89-1.97,1.97-1.97,1.97.89,1.97,1.97-.89,1.97-1.97,1.97Zm0-2.52c-.3,0-.54.24-.54.54s.24.54.54.54.54-.24.54-.54-.24-.54-.54-.54Z"/><circle class="cls-3" cx="28.41" cy="72.75" r="1.97"/><path class="cls-3" d="m28.41,74.73c-1.09,0-1.97-.89-1.97-1.97s.89-1.97,1.97-1.97,1.97.89,1.97,1.97-.89,1.97-1.97,1.97Zm0-2.52c-.3,0-.54.24-.54.54s.24.54.54.54.54-.24.54-.54-.24-.54-.54-.54Z"/></svg>