<svg xmlns="http://www.w3.org/2000/svg" xmlns:xlink="http://www.w3.org/1999/xlink" width="55" height="55" viewBox="0 0 55 55"><defs><clipPath id="a"><rect width="55" height="55" transform="translate(655 2593)" fill="#fff" stroke="#707070" stroke-width="1"/></clipPath></defs><g transform="translate(-655 -2593)" clip-path="url(#a)"><g transform="translate(-686.912 -598.603)"><path d="M19.729,44.422a4.909,4.909,0,1,1-4.909-4.909A4.908,4.908,0,0,1,19.729,44.422Z" transform="translate(1355.265 3154.23)" fill="none" stroke="#48453a" stroke-linecap="round" stroke-linejoin="round" stroke-width="1.5"/><path d="M3.758,60.98a17.773,17.773,0,0,1,2.631-6.322,21.947,21.947,0,0,1,6.043-5.751c2.707-1.653,6.722-1.427,7.867-1.427a7.692,7.692,0,0,1,5.487,2.65c1.406,1.774,1.925,6.486,1.925,6.486l4.907,2.47s2.795,1.59,1.856,3.14c-.9,1.49-2.448.816-4.18.081l-4.339-1.991" transform="translate(1352.174 3158.228)" fill="none" stroke="#48453a" stroke-linecap="round" stroke-linejoin="round" stroke-width="1.5"/><path d="M17.289,53.638v9.1s6.905,4.56,7.436,5.466A119.855,119.855,0,0,1,29.61,79.366c.237.741.222,2.622-1.091,2.948-1.719.427-2.871-1-3.728-2.671s-3.451-8.424-3.451-8.424l-5.864-3.3" transform="translate(1358.062 3161.328)" fill="none" stroke="#48453a" stroke-linecap="round" stroke-linejoin="round" stroke-width="1.5"/><rect width="11.013" height="7.467" rx="1.262" transform="translate(1351.036 3221.343)" fill="none" stroke="#ae9373" stroke-linecap="round" stroke-linejoin="round" stroke-width="1.5"/><path d="M7.222,59.039c.49-4.772,4.767-7.5,4.767-7.5V70.808s-5.221,8.2-6.037,9.544A2.3,2.3,0,0,0,7.013,83.9c1.591.694,2.65.164,4.039-1.753s5.221-7.547,5.954-8.77.571-8.077.571-8.077" transform="translate(1353.053 3160.271)" fill="none" stroke="#48453a" stroke-linecap="round" stroke-linejoin="round" stroke-width="1.5"/></g></g></svg>