<svg xmlns="http://www.w3.org/2000/svg" xmlns:xlink="http://www.w3.org/1999/xlink" width="55" height="55" viewBox="0 0 55 55"><defs><clipPath id="a"><rect width="55" height="55" transform="translate(841 2593)" fill="#fff" stroke="#707070" stroke-width="1"/></clipPath></defs><g transform="translate(-841 -2593)" clip-path="url(#a)"><g transform="translate(-507.987 -518.472)"><path d="M14.634,35.322c-5.262-3.845-5.816-7.333-5.816-10.2,0-3.212.7-7.213,7.963-11.619,7.773-4.714,8.447-11.619,8.447-11.619" transform="translate(1359.464 3113.846)" fill="none" stroke="#ae9373" stroke-linecap="round" stroke-linejoin="round" stroke-width="1.5"/><path d="M21.817,36.173s-.54-5.53-6.225-10.072" transform="translate(1362.876 3126.039)" fill="none" stroke="#ae9373" stroke-linecap="round" stroke-linejoin="round" stroke-width="1.5"/><path d="M14.7,11.679A16.042,16.042,0,0,1,8.818,1.888" transform="translate(1359.464 3113.846)" fill="none" stroke="#48453a" stroke-linecap="round" stroke-linejoin="round" stroke-width="1.5"/><path d="M8.818,43.983s.674-6.9,8.447-11.619c7.267-4.407,7.963-8.408,7.963-11.619,0-2.852-.549-6.325-5.759-10.153" transform="translate(1359.464 3118.229)" fill="none" stroke="#48453a" stroke-linecap="round" stroke-linejoin="round" stroke-width="1.5"/><line x2="10.532" transform="translate(1370.793 3117.876)" fill="none" stroke="#48453a" stroke-linecap="round" stroke-linejoin="round" stroke-width="1.5"/><line x2="10.532" transform="translate(1370.793 3138.972)" fill="none" stroke="#48453a" stroke-linecap="round" stroke-linejoin="round" stroke-width="1.5"/><line x2="4.613" transform="translate(1373.855 3122.407)" fill="none" stroke="#48453a" stroke-linecap="round" stroke-linejoin="round" stroke-width="1.5"/><line x2="4.613" transform="translate(1373.855 3132.204)" fill="none" stroke="#48453a" stroke-linecap="round" stroke-linejoin="round" stroke-width="1.5"/><line x2="4.613" transform="translate(1373.855 3146.287)" fill="none" stroke="#48453a" stroke-linecap="round" stroke-linejoin="round" stroke-width="1.5"/><line x2="4.613" transform="translate(1373.855 3155.411)" fill="none" stroke="#48453a" stroke-linecap="round" stroke-linejoin="round" stroke-width="1.5"/><line x2="8.512" transform="translate(1372.018 3135.756)" fill="none" stroke="#48453a" stroke-linecap="round" stroke-linejoin="round" stroke-width="1.5"/><line x2="8.512" transform="translate(1372.018 3142.491)" fill="none" stroke="#48453a" stroke-linecap="round" stroke-linejoin="round" stroke-width="1.5"/><line x2="8.512" transform="translate(1372.018 3159.452)" fill="none" stroke="#48453a" stroke-linecap="round" stroke-linejoin="round" stroke-width="1.5"/></g></g></svg>