<svg xmlns="http://www.w3.org/2000/svg" xmlns:xlink="http://www.w3.org/1999/xlink" width="38" height="38" viewBox="0 0 38 38"><defs><clipPath id="a"><rect width="38" height="38" transform="translate(-13447 -3915)" fill="#fff" stroke="#707070" stroke-width="1"/></clipPath></defs><g transform="translate(13447 3915)" clip-path="url(#a)"><g transform="translate(-13542.148 -4230.542)"><g transform="translate(96.148 316.542)"><line y2="15.695" transform="translate(2.784 6.958)" fill="none" stroke="#48453a" stroke-linecap="round" stroke-linejoin="round" stroke-width="1"/><path d="M114.382,320.468v-3.609a.316.316,0,0,0-.4-.307l-16.128,4.155" transform="translate(-95.88 -316.542)" fill="none" stroke="#48453a" stroke-linecap="round" stroke-linejoin="round" stroke-width="1"/><path d="M104.605,320.215h10.787a.424.424,0,0,1,.423.423v10.789" transform="translate(-94.82 -315.965)" fill="none" stroke="#48453a" stroke-linecap="round" stroke-linejoin="round" stroke-width="1"/><path d="M126.078,348.825H111.762a3.734,3.734,0,0,1-3.723-3.722v-7.4a3.734,3.734,0,0,1,3.723-3.723h.883v-3.082l3.082,3.082h10.35A3.734,3.734,0,0,1,129.8,337.7v7.4A3.733,3.733,0,0,1,126.078,348.825Z" transform="translate(-94.281 -314.289)" fill="none" stroke="#48453a" stroke-linecap="round" stroke-linejoin="round" stroke-width="1"/><g transform="translate(-92.293 -312.99)" fill="#ae9373" stroke-miterlimit="10"><path d="M 121.5843048095703 340.4296264648438 C 121.3751525878906 340.4296264648438 121.2050018310547 340.2594604492188 121.2050018310547 340.05029296875 C 121.2050018310547 339.8411254882812 121.3751525878906 339.6709594726562 121.5843048095703 339.6709594726562 C 121.7934646606445 339.6709594726562 121.963623046875 339.8411254882812 121.963623046875 340.05029296875 C 121.963623046875 340.2594604492188 121.7934646606445 340.4296264648438 121.5843048095703 340.4296264648438 Z" stroke="none"/><path d="M 121.5843048095703 339.1709594726562 C 122.0702514648438 339.1709594726562 122.463623046875 339.5654907226562 122.463623046875 340.05029296875 C 122.463623046875 340.5362548828125 122.0702514648438 340.9296264648438 121.5843048095703 340.9296264648438 C 121.0995254516602 340.9296264648438 120.7050018310547 340.5362548828125 120.7050018310547 340.05029296875 C 120.7050018310547 339.5654907226562 121.0995254516602 339.1709594726562 121.5843048095703 339.1709594726562 Z" stroke="none" fill="#ae9373"/></g><g transform="translate(-92.922 -312.99)" fill="#ae9373" stroke-miterlimit="10"><path d="M 117.5783004760742 340.4296264648438 C 117.369140625 340.4296264648438 117.1989822387695 340.2594604492188 117.1989822387695 340.05029296875 C 117.1989822387695 339.8411254882812 117.369140625 339.6709594726562 117.5783004760742 339.6709594726562 C 117.7874603271484 339.6709594726562 117.9576187133789 339.8411254882812 117.9576187133789 340.05029296875 C 117.9576187133789 340.2594604492188 117.7874603271484 340.4296264648438 117.5783004760742 340.4296264648438 Z" stroke="none"/><path d="M 117.5783004760742 339.1709594726562 C 118.0630874633789 339.1709594726562 118.4576187133789 339.5654907226562 118.4576187133789 340.05029296875 C 118.4576187133789 340.5362548828125 118.0630874633789 340.9296264648438 117.5783004760742 340.9296264648438 C 117.0923690795898 340.9296264648438 116.6989822387695 340.5362548828125 116.6989822387695 340.05029296875 C 116.6989822387695 339.5654907226562 117.0923690795898 339.1709594726562 117.5783004760742 339.1709594726562 Z" stroke="none" fill="#ae9373"/></g><g transform="translate(-93.556 -312.99)" fill="#ae9373" stroke-miterlimit="10"><path d="M 113.5403060913086 340.4296264648438 C 113.3311538696289 340.4296264648438 113.161003112793 340.2594604492188 113.161003112793 340.05029296875 C 113.161003112793 339.8411254882812 113.3311538696289 339.6709594726562 113.5403060913086 339.6709594726562 C 113.7494659423828 339.6709594726562 113.9196243286133 339.8411254882812 113.9196243286133 340.05029296875 C 113.9196243286133 340.2594604492188 113.7494659423828 340.4296264648438 113.5403060913086 340.4296264648438 Z" stroke="none"/><path d="M 113.5403060913086 339.1709594726562 C 114.026252746582 339.1709594726562 114.4196243286133 339.5654907226562 114.4196243286133 340.05029296875 C 114.4196243286133 340.5362548828125 114.026252746582 340.9296264648438 113.5403060913086 340.9296264648438 C 113.055534362793 340.9296264648438 112.661003112793 340.5362548828125 112.661003112793 340.05029296875 C 112.661003112793 339.5654907226562 113.055534362793 339.1709594726562 113.5403060913086 339.1709594726562 Z" stroke="none" fill="#ae9373"/></g><path d="M107.377,343.026l-9.125-2.289H96.411a.263.263,0,0,1-.263-.263v-20a.262.262,0,0,1,.263-.262h1.841l16.4,4.257v5.307" transform="translate(-96.148 -315.965)" fill="none" stroke="#ae9373" stroke-linecap="round" stroke-linejoin="round" stroke-width="1"/></g></g></g></svg>