<svg xmlns="http://www.w3.org/2000/svg" xmlns:xlink="http://www.w3.org/1999/xlink" width="38" height="38" viewBox="0 0 38 38"><defs><clipPath id="a"><rect width="38" height="38" transform="translate(254 -755)" fill="#fff" stroke="#707070" stroke-width="1"/></clipPath></defs><g transform="translate(-254 755)" clip-path="url(#a)"><g transform="translate(-292.085 -4168.719)"><path d="M8.632,38.6a1.845,1.845,0,0,1-1.314-.543A26.636,26.636,0,0,1-.5,19.068,26.951,26.951,0,0,1,7.427.049,1.866,1.866,0,0,1,9.733-.219l5.135,3.2a1.857,1.857,0,0,1,.738,2.273l-2.591,6.438a1.864,1.864,0,0,1-1.736,1.175c-.06,0-.121,0-.181-.009l-4.039-.392a20.511,20.511,0,0,0-.04,13.176l4.038-.415a1.88,1.88,0,0,1,.192-.01,1.846,1.846,0,0,1,1.724,1.169l2.554,6.424a1.869,1.869,0,0,1-.748,2.273L9.625,38.314A1.868,1.868,0,0,1,8.632,38.6ZM8.75.5a.866.866,0,0,0-.616.256A25.961,25.961,0,0,0,2.364,28.8,25.51,25.51,0,0,0,8.025,37.35a.852.852,0,0,0,.607.25.869.869,0,0,0,.462-.133l5.154-3.231a.869.869,0,0,0,.349-1.057l-2.554-6.424a.851.851,0,0,0-.795-.539.877.877,0,0,0-.089,0l-4.821.5-.132-.369A21.508,21.508,0,0,1,6.248,11.76l.132-.364,4.814.467c.028,0,.056,0,.084,0a.869.869,0,0,0,.809-.548l2.591-6.438a.858.858,0,0,0-.339-1.051L9.2.629A.857.857,0,0,0,8.75.5Z" transform="translate(545.085 3426.496) rotate(-45)" fill="#48453a"/><g transform="translate(570.92 3415.932) rotate(45)"><path d="M15.859,4.344a.5.5,0,0,1-.458-.3,5.4,5.4,0,0,0-1.522-1.77A9.465,9.465,0,0,0,7.957.5,9.583,9.583,0,0,0,2.005,2.277,5.52,5.52,0,0,0,.454,4.052.5.5,0,0,1-.208,4.3a.5.5,0,0,1-.247-.66A6.344,6.344,0,0,1,1.337,1.53,10.374,10.374,0,0,1,7.957-.5a10.571,10.571,0,0,1,6.594,2.032,6.224,6.224,0,0,1,1.765,2.111.5.5,0,0,1-.458.7Z" transform="translate(0)" fill="#ae9373"/><path d="M9.336,2.763a.5.5,0,0,1-.458-.3C8.842,2.387,7.94.5,4.684.5,1.386.5.464,2.449.455,2.469a.5.5,0,0,1-.662.249.5.5,0,0,1-.249-.662C-.408,1.952.748-.5,4.684-.5S9.747,1.957,9.793,2.062a.5.5,0,0,1-.458.7Z" transform="translate(3.262 3.808)" fill="#ae9373"/><path transform="translate(5.669 7.617)" fill="#ae9373"/></g></g></g></svg>