<svg xmlns="http://www.w3.org/2000/svg" xmlns:xlink="http://www.w3.org/1999/xlink" width="38" height="38" viewBox="0 0 38 38"><defs><clipPath id="a"><rect width="38" height="38" transform="translate(-13590 -3784)" fill="#fff" stroke="#707070" stroke-width="1"/></clipPath></defs><g transform="translate(13590 3784)" clip-path="url(#a)"><g transform="translate(-13633.662 -4182.007)"><path d="M51.612,426.9v4.867H49.559V426.9" transform="translate(0.156 2.13)" fill="none" stroke="#48453a" stroke-linecap="round" stroke-linejoin="round" stroke-width="1"/><path d="M73.738,426.9v4.867H71.684V426.9" transform="translate(1.976 2.13)" fill="none" stroke="#48453a" stroke-linecap="round" stroke-linejoin="round" stroke-width="1"/><g transform="translate(47.662 401.007)"><path d="M53.947,409.1v-6.43a1.668,1.668,0,0,1,1.669-1.668H69.66a1.668,1.668,0,0,1,1.668,1.668v6.43" transform="translate(-47.145 -401.007)" fill="none" stroke="#48453a" stroke-linecap="round" stroke-linejoin="round" stroke-width="1"/><path d="M2.209,0H7.322A2.209,2.209,0,0,1,9.531,2.209v2.01a0,0,0,0,1,0,0H0a0,0,0,0,1,0,0V2.209A2.209,2.209,0,0,1,2.209,0Z" transform="translate(10.727 3.091)" fill="none" stroke="#ae9373" stroke-linecap="round" stroke-linejoin="round" stroke-width="1"/><path d="M78.648,418.68v5.057a2.185,2.185,0,0,1-2.185,2.185H49.847a2.185,2.185,0,0,1-2.185-2.185V418.68" transform="translate(-47.662 -399.553)" fill="none" stroke="#48453a" stroke-linecap="round" stroke-linejoin="round" stroke-width="1"/><line x2="24.093" transform="translate(3.37 19.126)" fill="none" stroke="#48453a" stroke-linecap="round" stroke-linejoin="round" stroke-width="1"/><path d="M47.662,419.578l5.493-9.13a4.781,4.781,0,0,1,4.3-2.687h11.4a4.782,4.782,0,0,1,4.3,2.687l5.493,9.13" transform="translate(-47.662 -400.452)" fill="none" stroke="#48453a" stroke-linecap="round" stroke-linejoin="round" stroke-width="1"/></g></g></g></svg>