<svg xmlns="http://www.w3.org/2000/svg" xmlns:xlink="http://www.w3.org/1999/xlink" width="38" height="38" viewBox="0 0 38 38"><defs><clipPath id="a"><rect width="38" height="38" transform="translate(-13595 -4056)" fill="#fff" stroke="#707070" stroke-width="1"/></clipPath></defs><g transform="translate(13595 4056)" clip-path="url(#a)"><g transform="translate(-13637.625 -4284.566)"><path d="M54.754,237.685a7.8,7.8,0,0,1,7.773-7.119h0a7.8,7.8,0,0,1,7.744,6.844" transform="translate(-0.03 0)" fill="none" stroke="#48453a" stroke-linecap="round" stroke-linejoin="round" stroke-width="1"/><path d="M70.042,255.492c-.413,3.921-3.446,5.768-7.476,5.768h0" transform="translate(-0.069 -0.124)" fill="none" stroke="#48453a" stroke-linecap="round" stroke-linejoin="round" stroke-width="1"/><path d="M61.06,252.524c-2.9-1.154-10.11-1.051-12.287-.376" transform="translate(-0.001 -0.104)" fill="none" stroke="#48453a" stroke-linecap="round" stroke-linejoin="round" stroke-width="1"/><path d="M52.463,249.244v-9.018h0c2.985-.209,6.748-.065,8.615.924" transform="translate(-0.019 -0.047)" fill="none" stroke="#48453a" stroke-linecap="round" stroke-linejoin="round" stroke-width="1"/><path d="M70.3,253.959h0a5.287,5.287,0,0,1-5.288-5.288V240.4a.809.809,0,0,1,.809-.808h8.957a.809.809,0,0,1,.809.808v8.277A5.287,5.287,0,0,1,70.3,253.959Z" transform="translate(-0.081 -0.045)" fill="none" stroke="#ae9373" stroke-linecap="round" stroke-linejoin="round" stroke-width="1"/><rect width="5.116" height="4.503" transform="translate(67.659 242.179)" fill="none" stroke="#48453a" stroke-linecap="round" stroke-linejoin="round" stroke-width="1"/><circle cx="0.964" cy="0.964" r="0.964" transform="translate(69.254 248.941)" fill="none" stroke="#48453a" stroke-linecap="round" stroke-linejoin="round" stroke-width="1"/><line y2="2.167" transform="translate(60.68 260.073)" fill="none" stroke="#48453a" stroke-linecap="round" stroke-linejoin="round" stroke-width="1"/><path d="M50.174,240.508a6.465,6.465,0,0,0-1.549.268v11.693h.03c2.087,1.284,10.216,1.387,12.493,0v-11.19" transform="translate(0 -0.049)" fill="none" stroke="#48453a" stroke-linecap="round" stroke-linejoin="round" stroke-width="1"/><path d="M58.86,260.5a1.964,1.964,0,0,0-.74-.873,6.584,6.584,0,0,0-7.879,0,1.985,1.985,0,0,0,0,3.331,6.584,6.584,0,0,0,7.879,0,1.964,1.964,0,0,0,.74-.873Z" transform="translate(-0.004 -0.138)" fill="none" stroke="#ae9373" stroke-linecap="round" stroke-linejoin="round" stroke-width="1"/></g></g></svg>