<?xml version="1.0" encoding="UTF-8"?><svg id="_レイヤー_1" xmlns="http://www.w3.org/2000/svg" viewBox="0 0 92 92"><defs><style>.cls-1{fill:#48453a;}.cls-1,.cls-2{stroke-width:0px;}.cls-2{fill:#b096b2;}</style></defs><path class="cls-1" d="m45.99,15.88h.19c11.05,0,20.97,3.95,27.23,10.84,8.86,9.69,8.86,24.53,0,34.22-6.26,6.89-16.19,10.84-27.23,10.84h-.39c-3.44,0-6.86-.39-10.2-1.18l-11.47,7.4c-.72.46-1.67.25-2.13-.46-.26-.4-.32-.9-.16-1.35l3.48-9.74c-8.57-5.17-13.44-13.39-13.39-22.59h0c-.05-6.35,2.32-12.47,6.64-17.11,6.26-6.89,16.19-10.84,27.23-10.84h.2Zm.2,52.8c10.17,0,19.27-3.58,24.94-9.82,3.79-4.08,5.88-9.46,5.84-15.03v-.02c.04-5.57-2.05-10.94-5.84-15.01-5.68-6.25-14.77-9.83-24.96-9.83h-.38c-10.17,0-19.27,3.58-24.95,9.83-3.79,4.07-5.88,9.45-5.84,15.01h0v.03h0c-.05,8.15,4.34,15.45,12.04,20.04l.93.55c.64.38.92,1.16.66,1.85l-2.38,6.66,8.22-5.29c.36-.23.79-.3,1.21-.2l.46.11c3.16.77,6.4,1.15,9.65,1.14h.39Z"/><path class="cls-1" d="m11.25,0h69.49c6.21.01,11.24,5.04,11.25,11.25v69.5c-.01,6.21-5.04,11.24-11.25,11.25H11.25c-6.21,0-11.24-5.04-11.25-11.25V11.26C0,5.04,5.04.01,11.25,0Zm69.49,88.91c4.5,0,8.15-3.66,8.16-8.16V11.25c0-4.51-3.66-8.16-8.16-8.16H11.25c-4.51,0-8.16,3.66-8.17,8.17v69.49c0,4.51,3.66,8.16,8.17,8.17h69.49Z"/><path class="cls-2" d="m35.18,50.34h-7.44c-.13,0-.25-.09-.26-.23v-12.73c0-.13.12-.24.26-.23h1.73c.13,0,.25.09.26.23v11.27h5.45c.13,0,.25.09.26.23h0v1.24c0,.13-.12.24-.26.23,0,0,0,0,0,0"/><path class="cls-2" d="m37.94,37.15h1.22c.27-.01.5.19.51.46,0,0,0,0,0,0v12.27c-.01.27-.24.47-.51.46,0,0,0,0,0,0h-1.22c-.27.01-.5-.19-.51-.46,0,0,0,0,0,0v-12.28c.01-.27.24-.48.51-.46,0,0,0,0,0,0"/><path class="cls-2" d="m52.84,50.34h-1.45c-.18,0-.35-.08-.45-.23l-3.74-5.94c-.91-1.43-1.73-2.92-2.46-4.46l-.08.02c.12,1.67.15,3.38.15,5.69v4.48c-.01.27-.24.48-.51.46,0,0,0,0,0,0h-1.05c-.27.01-.5-.19-.51-.46,0,0,0,0,0,0v-12.28c.01-.27.24-.48.51-.46,0,0,0,0,0,0h1.64c.18,0,.35.08.45.23l3.72,5.87c.9,1.4,1.7,2.85,2.4,4.36l.06-.02c-.17-1.86-.25-3.72-.23-5.58v-4.4c.01-.27.24-.48.51-.46,0,0,0,0,0,0h1.05c.27-.01.5.19.51.46,0,0,0,0,0,0v12.27c-.01.27-.24.48-.51.46,0,0,0,0,0,0"/><path class="cls-2" d="m64,50.34h-7.04c-.27.01-.5-.19-.51-.46,0,0,0,0,0,0v-12.26c.01-.27.24-.48.51-.46,0,0,0,0,0,0h6.72c.27-.01.5.19.51.46,0,0,0,0,0,0v.76c-.02.27-.25.47-.51.46h-4.98v3.81h4.67c.27-.01.5.19.51.46,0,0,0,0,0,0v.74c-.01.27-.24.48-.51.46,0,0,0,0,0,0h-4.67v4.36h5.31c.27-.01.5.19.51.46,0,0,0,0,0,0v.76c-.01.27-.24.48-.51.46,0,0,0,0,0,0"/></svg>