<svg xmlns="http://www.w3.org/2000/svg" xmlns:xlink="http://www.w3.org/1999/xlink" width="38" height="38" viewBox="0 0 38 38"><defs><clipPath id="a"><rect width="38" height="38" transform="translate(561 12650)" fill="#fff" stroke="#707070" stroke-width="1"/></clipPath></defs><g transform="translate(-561 -12650)" clip-path="url(#a)"><g transform="translate(417.834 12339.279)"><path d="M7.9.5H0A.5.5,0,0,1-.5,0,.5.5,0,0,1,0-.5H7.9a.5.5,0,0,1,0,1Z" transform="translate(159.114 336.797)" fill="#48453a"/><path d="M175.846,337.412a.5.5,0,0,1-.233-.943,12.609,12.609,0,0,0,1.59-1,6.587,6.587,0,0,0,.219-2.618,16.521,16.521,0,0,0-.371-3.263,9.894,9.894,0,0,0-1.183-2.5,7.515,7.515,0,0,0-2.619-2.551c-1.337-.723-3.78-1.068-6.88-.972a31.721,31.721,0,0,0-7.222,1.011c-2.213.656-4.011,2.093-6.288,3.912-1.458,1.165-3.11,2.485-5.186,3.854a2.394,2.394,0,0,0-1,1.928,2.687,2.687,0,0,0,.653,1.984h2.437a.5.5,0,0,1,0,1h-2.63a.5.5,0,0,1-.316-.112,3.556,3.556,0,0,1-1.144-2.922,3.38,3.38,0,0,1,1.451-2.712c2.038-1.343,3.671-2.648,5.112-3.8,2.362-1.888,4.228-3.379,6.628-4.09a32.793,32.793,0,0,1,7.475-1.052c2.316-.072,5.478.059,7.387,1.092a10.053,10.053,0,0,1,4.288,5.653,17.727,17.727,0,0,1,.412,3.652c.064,2.751-.4,3.127-.58,3.268a13.273,13.273,0,0,1-1.768,1.117A.5.5,0,0,1,175.846,337.412Z" transform="translate(0 0.034)" fill="#48453a"/><path d="M173.581,330.324H155.723a.746.746,0,0,1-.49-1.31,14.578,14.578,0,0,1,4.7-2.851,26.4,26.4,0,0,1,7.182-.913,14.44,14.44,0,0,1,5.157.724,4.321,4.321,0,0,1,2.313,3.093,1.026,1.026,0,0,1-1,1.258Zm-17.159-1h17.159a.026.026,0,0,0,.022-.011.018.018,0,0,0,0-.018,3.36,3.36,0,0,0-1.728-2.4,13.522,13.522,0,0,0-4.768-.645,25.741,25.741,0,0,0-6.884.868A12.8,12.8,0,0,0,156.422,329.324Z" transform="translate(0.096 0.062)" fill="#48453a"/><path d="M0,3.928a.5.5,0,0,1-.5-.5V0A.5.5,0,0,1,0-.5.5.5,0,0,1,.5,0V3.428A.5.5,0,0,1,0,3.928Z" transform="translate(164.954 326.164)" fill="#48453a"/><path d="M2.544-.5A3.044,3.044,0,1,1-.5,2.544,3.048,3.048,0,0,1,2.544-.5Zm0,5.089A2.044,2.044,0,1,0,.5,2.544,2.047,2.047,0,0,0,2.544,4.589Z" transform="translate(151.763 334.254)" fill="#b096b2"/><path d="M2.544-.5A3.044,3.044,0,1,1-.5,2.544,3.048,3.048,0,0,1,2.544-.5Zm0,5.089A2.044,2.044,0,1,0,.5,2.544,2.047,2.047,0,0,0,2.544,4.589Z" transform="translate(169.116 334.254)" fill="#b096b2"/><path d="M163.719,322.182a.5.5,0,0,1-.5-.5v-1.961a.5.5,0,0,1,.5-.5h3.552a.5.5,0,0,1,.5.5v1.814a.5.5,0,0,1-1,0v-1.314h-2.552v1.461A.5.5,0,0,1,163.719,322.182Z" transform="translate(0.181 0)" fill="#b096b2"/></g></g></svg>