<svg xmlns="http://www.w3.org/2000/svg" xmlns:xlink="http://www.w3.org/1999/xlink" width="38" height="38" viewBox="0 0 38 38"><defs><clipPath id="a"><rect width="38" height="38" transform="translate(618 12733)" fill="#fff" stroke="#707070" stroke-width="1"/></clipPath></defs><g transform="translate(-618 -12733)" clip-path="url(#a)"><g transform="translate(575.871 12590.925)"><path d="M3.069,1A2.071,2.071,0,0,0,1,3.069V29.082a2.071,2.071,0,0,0,2.069,2.069H24.211a2.071,2.071,0,0,0,2.069-2.069V3.069A2.071,2.071,0,0,0,24.211,1H3.069m0-1H24.211A3.069,3.069,0,0,1,27.28,3.069V29.082a3.069,3.069,0,0,1-3.069,3.069H3.069A3.069,3.069,0,0,1,0,29.082V3.069A3.069,3.069,0,0,1,3.069,0Z" transform="translate(47.129 145.075)" fill="#48453a"/><path d="M11.2.5H0A.5.5,0,0,1-.5,0,.5.5,0,0,1,0-.5H11.2a.5.5,0,0,1,.5.5A.5.5,0,0,1,11.2.5Z" transform="translate(57.351 163.016)" fill="#48453a"/><path d="M11.2.5H0A.5.5,0,0,1-.5,0,.5.5,0,0,1,0-.5H11.2a.5.5,0,0,1,.5.5A.5.5,0,0,1,11.2.5Z" transform="translate(57.351 167.292)" fill="#48453a"/><path d="M11.2.5H0A.5.5,0,0,1-.5,0,.5.5,0,0,1,0-.5H11.2a.5.5,0,0,1,.5.5A.5.5,0,0,1,11.2.5Z" transform="translate(57.351 171.784)" fill="#48453a"/><path d="M67.946,150.41h-13.1a.5.5,0,0,1-.5-.5V147.9a.5.5,0,0,1,1,0v1.513h12.1V147.9a.5.5,0,0,1,1,0v2.013A.5.5,0,0,1,67.946,150.41Z" transform="translate(-0.628 -0.23)" fill="#48453a"/><circle cx="0.785" cy="0.785" r="0.785" transform="translate(52.987 162.231)" fill="#ae9373"/><path d="M.785,0A.785.785,0,1,1,0,.785.785.785,0,0,1,.785,0Z" transform="translate(52.987 162.231)" fill="#b096b2"/><circle cx="0.785" cy="0.785" r="0.785" transform="translate(52.988 166.507)" fill="#ae9373"/><path d="M.785,0A.785.785,0,1,1,0,.785.785.785,0,0,1,.785,0Z" transform="translate(52.988 166.507)" fill="#b096b2"/><path d="M11.2.5H0A.5.5,0,0,1-.5,0,.5.5,0,0,1,0-.5H11.2a.5.5,0,0,1,.5.5A.5.5,0,0,1,11.2.5Z" transform="translate(57.351 154.416)" fill="#48453a"/><path d="M11.2.5H0A.5.5,0,0,1-.5,0,.5.5,0,0,1,0-.5H11.2a.5.5,0,0,1,.5.5A.5.5,0,0,1,11.2.5Z" transform="translate(57.351 158.692)" fill="#48453a"/><circle cx="0.785" cy="0.785" r="0.785" transform="translate(52.987 153.631)" fill="#ae9373"/><path d="M.785,0A.785.785,0,1,1,0,.785.785.785,0,0,1,.785,0Z" transform="translate(52.987 153.631)" fill="#b096b2"/><circle cx="0.785" cy="0.785" r="0.785" transform="translate(52.988 157.907)" fill="#ae9373"/><path d="M.785,0A.785.785,0,1,1,0,.785.785.785,0,0,1,.785,0Z" transform="translate(52.988 157.907)" fill="#b096b2"/><circle cx="0.785" cy="0.785" r="0.785" transform="translate(52.987 170.999)" fill="#ae9373"/><path d="M.785,0A.785.785,0,1,1,0,.785.785.785,0,0,1,.785,0Z" transform="translate(52.987 170.999)" fill="#b096b2"/></g></g></svg>