<svg id="_レイヤー_1" xmlns="http://www.w3.org/2000/svg" viewBox="0 0 92 92"><defs><style>.cls-1{fill:#48453a;stroke-width:0}</style></defs><path class="cls-1" d="M17.37 88.64h-5.16c-.69 0-1.26-.56-1.26-1.26V75.14a1.261 1.261 0 012.52 0v10.99h2.65V75.14a1.261 1.261 0 012.52 0v12.24c0 .69-.56 1.26-1.26 1.26zm60.21 0h-5.16c-.69 0-1.26-.56-1.26-1.26V75.14a1.261 1.261 0 012.52 0v10.99h2.65V75.14a1.261 1.261 0 012.52 0v12.24c0 .69-.56 1.26-1.26 1.26zm-9.73-62.39c-.69 0-1.26-.56-1.26-1.26V8.82c0-1.62-1.32-2.94-2.94-2.94H28.34c-1.62 0-2.94 1.32-2.94 2.94V25a1.261 1.261 0 01-2.52 0V8.82c0-3.01 2.45-5.45 5.45-5.45h35.31c3.01 0 5.45 2.45 5.45 5.45V25c0 .69-.56 1.26-1.26 1.26z"/><path d="M57.98 24.28H34.02c-.69 0-1.26-.56-1.26-1.26v-5.06c0-3.76 3.06-6.82 6.81-6.82h12.86c3.76 0 6.81 3.06 6.81 6.82v5.06c0 .69-.56 1.26-1.26 1.26zm-22.71-2.52h21.45v-3.8c0-2.37-1.93-4.3-4.3-4.3H39.56c-2.37 0-4.3 1.93-4.3 4.3v3.8z" fill="#ae9373" stroke-width="0"/><path class="cls-1" d="M79.46 72.23H12.54c-3.72 0-6.75-3.03-6.75-6.75V52.76a1.261 1.261 0 012.52 0v12.72c0 2.34 1.9 4.24 4.24 4.24h66.92c2.34 0 4.24-1.9 4.24-4.24V52.76a1.261 1.261 0 012.52 0v12.72c0 3.72-3.03 6.75-6.75 6.75z"/><path class="cls-1" d="M76.1 54.01H15.52a1.261 1.261 0 010-2.52H76.1a1.261 1.261 0 010 2.52z"/><path class="cls-1" d="M84.96 54.01c-.43 0-.84-.22-1.08-.61L70.07 30.43s-.04-.06-.05-.1c-1.79-3.68-5.59-6.05-9.68-6.05H31.67c-4.09 0-7.89 2.38-9.68 6.05-.02.03-.03.07-.05.1L8.13 53.4c-.36.6-1.13.79-1.73.43-.6-.36-.79-1.13-.43-1.73l13.78-22.92c2.22-4.51 6.89-7.42 11.91-7.42h28.67c5.02 0 9.69 2.91 11.91 7.42L86.02 52.1a1.256 1.256 0 01-1.08 1.91z"/></svg>