<svg id="_レイヤー_1" xmlns="http://www.w3.org/2000/svg" viewBox="0 0 92 92"><defs><style>.cls-1,.cls-2{fill:#48453a;stroke-width:0}.cls-2{fill:#ae9373}</style></defs><path class="cls-1" d="M8.35 60.81c-.69 0-1.26-.56-1.26-1.26V20.06a1.261 1.261 0 012.52 0v39.49c0 .69-.56 1.26-1.26 1.26zM6.31 14.29c-.56 0-1.07-.38-1.22-.94-.17-.67.23-1.36.9-1.53L46.55 1.37c.16-.04.36-.06.54-.07.55 0 1.06.22 1.45.61s.59.91.59 1.46v9.07a1.261 1.261 0 01-2.52 0V3.95L6.62 14.25c-.11.03-.21.04-.31.04zM47.19 3.8h-.01.01zm-.59-.44z"/><path class="cls-1" d="M54.13 42.72c-.69 0-1.26-.56-1.26-1.26V14.51H25.94a1.261 1.261 0 010-2.52h27.12c1.28 0 2.32 1.04 2.32 2.32v27.15c0 .69-.56 1.26-1.26 1.26zM81.3 90.7h-36c-5.84-.02-10.6-4.78-10.62-10.62V61.46c.02-5.84 4.78-10.61 10.61-10.62h.97v-6.5c0-.51.31-.97.78-1.16.47-.2 1.01-.09 1.37.27l7.38 7.39h25.5c5.83.02 10.6 4.78 10.62 10.61v18.62c-.01 5.84-4.77 10.61-10.61 10.63zm-36-37.35c-4.45.01-8.09 3.65-8.1 8.11v18.61c.01 4.45 3.65 8.09 8.11 8.11H81.3c4.46-.01 8.09-3.66 8.1-8.12V61.45c-.02-4.45-3.65-8.09-8.11-8.1H55.27c-.33 0-.65-.13-.89-.37l-5.6-5.61v4.72c0 .69-.56 1.26-1.26 1.26H45.3z"/><path class="cls-2" d="M74.99 71.59a.95.95 0 110-1.9.95.95 0 010 1.9z"/><path class="cls-2" d="M74.99 68.43a2.21 2.21 0 11-.001 4.421 2.21 2.21 0 01.001-4.421zm-11.65 3.16a.95.95 0 110-1.9.95.95 0 010 1.9z"/><path class="cls-2" d="M63.34 68.43a2.21 2.21 0 11-.001 4.421 2.21 2.21 0 01.001-4.421zm-11.75 3.16a.95.95 0 110-1.9.95.95 0 010 1.9z"/><path class="cls-2" d="M51.59 68.43a2.21 2.21 0 11-.001 4.421 2.21 2.21 0 01.001-4.421zM29.58 71.9c-.1 0-.2-.01-.31-.04L6.48 66.14H2.01a1.92 1.92 0 01-1.92-1.92V13.9c0-1.06.86-1.92 1.92-1.92h4.63c.11 0 .21.01.32.04l41.23 10.71c.55.14.94.64.94 1.22V37.3a1.261 1.261 0 01-2.52 0V24.92L6.48 14.5H2.61v49.12h4.03c.1 0 .21.01.31.04l22.94 5.76a1.26 1.26 0 01-.31 2.48z"/></svg>