<svg id="_レイヤー_1" xmlns="http://www.w3.org/2000/svg" viewBox="0 0 92 92"><defs><style>.cls-1,.cls-2{stroke:#48453a;fill:none;stroke-linecap:round;stroke-linejoin:round;stroke-width:2.59px}.cls-2{stroke:#ae9373}</style></defs><path class="cls-1" d="M27.02 21.01c.91-10.42 9.64-18.42 20.09-18.41 10.18 0 18.77 7.59 20.02 17.7m-.69 46.45c-1.07 10.14-8.91 14.92-19.32 14.92M43.4 59.12c-7.5-2.98-26.13-2.72-31.76-.97m9.49-7.37V27.45c7.72-.54 17.44-.17 22.27 2.39"/><path class="cls-2" d="M67.08 62.99c-7.55 0-13.67-6.12-13.67-13.67v-21.4c0-1.15.94-2.09 2.09-2.09h23.15c1.15 0 2.09.94 2.09 2.09v21.41c0 7.55-6.12 13.66-13.67 13.66z"/><path class="cls-1" d="M60.46 32.63h13.22v11.65H60.46z"/><circle class="cls-1" cx="67.07" cy="52.62" r="2.49"/><path class="cls-1" d="M42.42 78.92v5.6M15.26 28.18c-1.36.07-2.7.3-4 .69v30.24h.08c5.39 3.32 26.41 3.59 32.29 0V30.17"/><path class="cls-2" d="M37.7 79.66a5.13 5.13 0 00-1.91-2.26 17.025 17.025 0 00-20.37 0 5.124 5.124 0 00-1.51 7.1c.39.61.91 1.12 1.51 1.51a17.025 17.025 0 0020.37 0c.85-.55 1.51-1.33 1.91-2.26v-4.1z"/></svg>