<svg xmlns="http://www.w3.org/2000/svg" viewBox="0 0 92 92"><path d="M85.72 43.1a29.556 29.556 0 00-2.2-22.07C75.77 5.51 51.29 6.41 46 20.37 40.7 6.4 16.23 5.5 8.48 21.03A29.537 29.537 0 006.3 43.15m5.55 11.22c.88 1.26 1.86 2.53 2.93 3.8 5.9 7.01 16.45 14.62 28.93 23.46 1.38.97 3.21.97 4.59 0 12.48-8.84 23.03-16.45 28.93-23.46.84-1 1.62-1.99 2.34-2.98" stroke="#48453a" fill="none" stroke-linecap="round" stroke-linejoin="round" stroke-width="2.59"/><path d="M.74 48.7h27.99l3.46-13.97s8.6 25.35 9.12 24.06 5.51-16.3 5.51-16.3l5.17 6.73 6.86-24.31 6.23 24.31h26.17" stroke="#ae9373" fill="none" stroke-linecap="round" stroke-linejoin="round" stroke-width="2.59"/></svg>