<svg id="_レイヤー_1" xmlns="http://www.w3.org/2000/svg" viewBox="0 0 92 92"><defs><style>.cls-1,.cls-4{fill:none;stroke:#48453a;stroke-linecap:round;stroke-linejoin:round;stroke-width:2.59px}.cls-4{stroke:#ae9373}</style></defs><path d="M75.47 13.17l3.37 3.37c1.14 1.14 1.14 3 0 4.14l-3.6 3.6-7.51-7.51 3.6-3.6c1.14-1.14 3-1.14 4.14 0z" stroke-width="0" fill="none"/><path d="M74.55 14.09l3.37 3.37c.64.64.64 1.67 0 2.31l-2.68 2.68h0l-5.68-5.68h0l2.68-2.68a1.63 1.63 0 012.31 0z" stroke-width="2.59" stroke-linecap="round" stroke-linejoin="round" stroke="#48453a" fill="none"/><path class="cls-4" d="M79.52 12.49L92 0"/><path class="cls-1" d="M17.19 43.97l6.29 6.3L58.83 14.9a2.97 2.97 0 012.93-.75l7.22 2.12 6.79 6.79 2.12 7.23c.31 1.04.02 2.17-.75 2.94L41.79 68.61l6.2 6.21m-13.06-5.58L19.06 84.95l1.47 1.47a3.308 3.308 0 01.52 4.14 3.219 3.219 0 01-4.45.91c-.18-.12-.34-.25-.49-.4L1.02 75.97a3.308 3.308 0 01-.52-4.14 3.219 3.219 0 014.45-.91c.18.12.34.25.49.4l1.57 1.58 15.87-15.71"/><path class="cls-4" d="M34.09 46.12l6.14 6.4m-1.37-10.97l4.59 4.79m.17-9.37l4.6 4.79m.17-9.37l6.14 6.4m-1.37-10.97l4.59 4.79m.17-9.37l4.6 4.79"/><path class="cls-1" d="M7.01 72.9l6.79 6.8m9.68-29.43L41.8 68.61"/></svg>