<svg xmlns="http://www.w3.org/2000/svg" xmlns:xlink="http://www.w3.org/1999/xlink" width="95" height="65" viewBox="0 0 95 65"><defs><clipPath id="a"><rect width="95" height="65" transform="translate(-24299 8557)" fill="#fff" stroke="#707070" stroke-width="1"/></clipPath><clipPath id="b"><rect width="65" height="65" transform="translate(988 13344)" fill="#f0efed"/></clipPath></defs><g transform="translate(24299 -8557)" clip-path="url(#a)"><g transform="translate(-25272 -4787)" clip-path="url(#b)"><g transform="translate(993.987 13348.954)"><path d="M151.01,147.339H113.683a1,1,0,0,1,0-2H150.15l3.433-22.664h-43.7a1,1,0,0,1,0-2h44.868a1,1,0,0,1,.989,1.15L152,146.489A1,1,0,0,1,151.01,147.339Z" transform="translate(-100.205 -110.961)" fill="#48453a"/><path d="M50.6,44.809H14.681a1,1,0,0,1-.989-.853L7.7,3.726-.14,1.44A1,1,0,0,1,.42-.48L8.87,1.985a1,1,0,0,1,.709.813l5.964,40.012H50.6a1,1,0,0,1,0,2Z" transform="translate(-0.127 -0.435)" fill="#48453a"/><path d="M4.49-1A5.49,5.49,0,1,1-1,4.49,5.5,5.5,0,0,1,4.49-1Zm0,8.98A3.49,3.49,0,1,0,1,4.49,3.494,3.494,0,0,0,4.49,7.98Z" transform="translate(17.456 46.943)" fill="#b096b2"/><path d="M4.49-1A5.49,5.49,0,1,1-1,4.49,5.5,5.5,0,0,1,4.49-1Zm0,8.98A3.49,3.49,0,1,0,1,4.49,3.494,3.494,0,0,0,4.49,7.98Z" transform="translate(38.731 46.943)" fill="#b096b2"/><path d="M32.233,1H0A1,1,0,0,1-1,0,1,1,0,0,1,0-1H32.233a1,1,0,0,1,1,1A1,1,0,0,1,32.233,1Z" transform="translate(16.321 23.501)" fill="#48453a"/><path d="M0,18.5a1,1,0,0,1-1-1V0A1,1,0,0,1,0-1,1,1,0,0,1,1,0V17.5A1,1,0,0,1,0,18.5Z" transform="translate(32.107 14.346)" fill="#48453a"/><path d="M0,18.5a1,1,0,0,1-1-1V0A1,1,0,0,1,0-1,1,1,0,0,1,1,0V17.5A1,1,0,0,1,0,18.5Z" transform="translate(41.327 14.346)" fill="#48453a"/><path d="M0,18.5a1,1,0,0,1-1-1V0A1,1,0,0,1,0-1,1,1,0,0,1,1,0V17.5A1,1,0,0,1,0,18.5Z" transform="translate(23.433 14.346)" fill="#48453a"/></g></g></g></svg>