<svg xmlns="http://www.w3.org/2000/svg" xmlns:xlink="http://www.w3.org/1999/xlink" width="38" height="38" viewBox="0 0 38 38"><defs><clipPath id="a"><rect width="38" height="38" transform="translate(589 12789)" fill="#fff" stroke="#707070" stroke-width="1"/></clipPath></defs><g transform="translate(-589 -12789)" clip-path="url(#a)"><g transform="translate(591 12791)"><path d="M1046.69,1552.187a5.319,5.319,0,0,1-4.9-2.619,9.715,9.715,0,0,1-1.17-4.928c-.008-.707-.012-1.155-.014-1.427,0-.137,0-.23,0-.288,0-.033,0-.056,0-.071a.5.5,0,0,1,.493-.509h.007a.5.5,0,0,1,.5.5c0,.015,0,.037,0,.064,0,.047,0,.111,0,.174,0,.125.005.249.005.249a.5.5,0,0,1-.012.118c0,.261.006.637.012,1.181a9.16,9.16,0,0,0,1.029,4.427,4.38,4.38,0,0,0,4.048,2.131h.062c4.182-.036,4.615-2.65,4.848-4.053l0-.021a31.474,31.474,0,0,0,.277-3.25c.027-.519.055-1.056.092-1.558a7.3,7.3,0,0,1,1.2-3.519,5.407,5.407,0,0,1,4.655-2.244h.093c.082,0,.163,0,.243,0a5.14,5.14,0,0,1,3.688,1.29,3.535,3.535,0,0,1,.956,1.457.5.5,0,1,1-.961.277c-.025-.081-.656-2.024-3.68-2.024-.074,0-.149,0-.226,0h-.022a4.417,4.417,0,0,0-3.928,1.818,6.267,6.267,0,0,0-1.021,3.017c-.036.492-.064,1.023-.091,1.537a32.139,32.139,0,0,1-.289,3.362l0,.021a6.343,6.343,0,0,1-1.129,2.975,5.676,5.676,0,0,1-4.7,1.915Z" transform="translate(-1032.071 -1516.878)" fill="#48453a"/><path d="M1012.347,1485.593c-3.767,0-6.455-1.35-7.992-4.011a13.748,13.748,0,0,1-1.492-6.178c-.133-2.965,0-9.677,0-9.744a.5.5,0,0,1,.5-.49h2.3a.5.5,0,0,1,0,1h-1.811c-.027,1.6-.1,6.722.008,9.189a12.842,12.842,0,0,0,1.359,5.723,6.5,6.5,0,0,0,2.479,2.468,10.869,10.869,0,0,0,9.294,0,6.5,6.5,0,0,0,2.479-2.468,12.84,12.84,0,0,0,1.359-5.723c.111-2.467.036-7.587.008-9.189h-1.583a.5.5,0,1,1,0-1h2.074a.5.5,0,0,1,.5.49c0,.068.133,6.779,0,9.744a13.746,13.746,0,0,1-1.492,6.178C1018.8,1484.243,1016.114,1485.593,1012.347,1485.593Z" transform="translate(-1003.303 -1464.87)" fill="#48453a"/><path d="M1033.36,1550.625a2.91,2.91,0,0,1-2.541-1.051,2.074,2.074,0,0,1-.4-1.137v-2.486a.5.5,0,0,1,1,0v2.481c0,.132.1,1.193,1.941,1.193s1.936-1.061,1.941-1.193v-2.481a.5.5,0,0,1,1,0v2.486a2.074,2.074,0,0,1-.4,1.137A2.911,2.911,0,0,1,1033.36,1550.625Z" transform="translate(-1024.316 -1525.956)" fill="#48453a"/><path d="M1016.712,1535.284a10.822,10.822,0,0,1-5.514-1.311,8.023,8.023,0,0,1-3.039-3.179,1,1,0,0,1,1.76-.95,6.051,6.051,0,0,0,2.287,2.4,10.294,10.294,0,0,0,9.011,0,6.05,6.05,0,0,0,2.287-2.4,1,1,0,1,1,1.76.95,8.023,8.023,0,0,1-3.039,3.179A10.822,10.822,0,0,1,1016.712,1535.284Z" transform="translate(-1007.667 -1514.062)" fill="#b096b2"/><path d="M2.59-.5A3.09,3.09,0,1,1-.5,2.59,3.093,3.093,0,0,1,2.59-.5Zm0,5.179A2.09,2.09,0,1,0,.5,2.59,2.092,2.092,0,0,0,2.59,4.679Z" transform="translate(28.175 24.169)" fill="#b096b2"/><path d="M.835-.5A1.335,1.335,0,1,1-.5.835,1.336,1.336,0,0,1,.835-.5Zm0,1.669A.335.335,0,1,0,.5.835.335.335,0,0,0,.835,1.169Z" transform="translate(29.93 25.924)" fill="#b096b2"/><rect width="2.765" height="1.597" transform="translate(3.961 0)" fill="#b096b2"/><path d="M0-.5H2.765a.5.5,0,0,1,.5.5V1.6a.5.5,0,0,1-.5.5H0a.5.5,0,0,1-.5-.5V0A.5.5,0,0,1,0-.5ZM2.265.5H.5v.6H2.265Z" transform="translate(3.961 0)" fill="#b096b2"/><rect width="2.765" height="1.597" transform="translate(11.362 0)" fill="#b096b2"/><path d="M0-.5H2.765a.5.5,0,0,1,.5.5V1.6a.5.5,0,0,1-.5.5H0a.5.5,0,0,1-.5-.5V0A.5.5,0,0,1,0-.5ZM2.265.5H.5v.6H2.265Z" transform="translate(11.362 0)" fill="#b096b2"/></g></g></svg>