<svg xmlns="http://www.w3.org/2000/svg" xmlns:xlink="http://www.w3.org/1999/xlink" width="38" height="38" viewBox="0 0 38 38"><defs><clipPath id="a"><rect width="38" height="38" transform="translate(639 12853)" fill="#fff" stroke="#707070" stroke-width="1"/></clipPath></defs><g transform="translate(-639 -12853)" clip-path="url(#a)"><g transform="translate(100.328 -1181.677)"><path d="M17448.92,14035.858h-9.807l-.148-.154c-.014-.014-1.393-1.454-2.662-3.021-2.439-3.01-2.439-3.941-2.117-4.456a1.1,1.1,0,0,1,.982-.532,5.087,5.087,0,0,1,1.988.709,7,7,0,0,0,2.848.952c.07,0,.141,0,.209-.009a2.584,2.584,0,0,0,1.967-1.143,2.215,2.215,0,0,1,1.746-1.027,2.623,2.623,0,0,1,1.865.991,3.364,3.364,0,0,0,2.242,1.179c.064.006.131.008.2.008a6.826,6.826,0,0,0,2.9-1.033,4.46,4.46,0,0,1,1.813-.7.948.948,0,0,1,.943.724c.158.518.043,1.487-2.281,4.407-1.227,1.542-2.521,2.933-2.535,2.946Zm-9.379-1h8.943c.367-.4,1.369-1.511,2.328-2.716,2.262-2.841,2.123-3.479,2.115-3.506a.042.042,0,0,1,0-.014,5.01,5.01,0,0,0-1.324.581,7.561,7.561,0,0,1-3.369,1.15c-.1,0-.189,0-.283-.012a4.3,4.3,0,0,1-2.854-1.458c-.465-.452-.748-.708-1.168-.708-.395,0-.6.219-.984.675a3.572,3.572,0,0,1-2.643,1.491c-.1.009-.2.013-.295.013a7.814,7.814,0,0,1-3.293-1.058,5.02,5.02,0,0,0-1.543-.6c-.084,0-.105.019-.127.049-.012.08-.031.781,2.154,3.451C17438.164,14033.38,17439.172,14034.467,17439.541,14034.858Z" transform="translate(-16886.807 8)" fill="#48453a"/><path d="M17436.283,14041.564h10.145l.115.065a29.6,29.6,0,0,1,5.684,4.432,21.446,21.446,0,0,1,3.865,5.09,13.333,13.333,0,0,1,1.654,6.664c-.127,4.352-2.062,7.486-5.754,9.316-2.646,1.313-6.154,1.95-10.721,1.95h-.148c-4.125-.012-7.484-.787-9.982-2.3-3.137-1.9-4.807-4.918-4.963-8.958a13.251,13.251,0,0,1,1.439-6.259,23.655,23.655,0,0,1,3.443-5.123,32.972,32.972,0,0,1,5.092-4.779Zm9.877,1h-9.549a33.207,33.207,0,0,0-4.807,4.543,22.7,22.7,0,0,0-3.293,4.9,12.287,12.287,0,0,0-1.334,5.775,9.329,9.329,0,0,0,4.482,8.143c2.34,1.421,5.525,2.146,9.467,2.158h.145c4.408,0,7.771-.6,10.277-1.847a9.213,9.213,0,0,0,3.65-3.1,10.006,10.006,0,0,0,1.547-5.351,12.322,12.322,0,0,0-1.531-6.155,20.464,20.464,0,0,0-3.676-4.844A29.618,29.618,0,0,0,17446.16,14042.564Z" transform="translate(-16883.998 2.87)" fill="#48453a"/><path d="M10.306-5.581h1.447c.5,0,1.223.017,1.378.017.293,0,.345-.086.345-.413v-.069c0-.327-.052-.413-.345-.413-.138,0-.861.017-1.378.017H10.306c-.431,0-.517-.086-.517-.517V-7.3a1.29,1.29,0,0,1,.241-.706l.086-.138c.155-.241.379-.276.81-.276h.792c.448,0,1.24.017,1.378.017.293,0,.345-.086.345-.413v-.069c0-.327-.052-.413-.345-.413-.138,0-.93.017-1.378.017H11.34c-.258,0-.379-.034-.379-.155a.673.673,0,0,1,.121-.293l.5-.827c.6-1,1.258-2.085,1.947-3.084a.5.5,0,0,0,.1-.258c0-.1-.1-.138-.31-.138h-.379a.556.556,0,0,0-.637.379c-.5.93-1.016,1.826-1.568,2.756L9.582-8.958c-.1.172-.172.276-.258.276-.069,0-.155-.1-.258-.276L7.911-10.9c-.534-.913-1.068-1.826-1.55-2.756a.556.556,0,0,0-.637-.379H5.31c-.207,0-.31.034-.31.138a.5.5,0,0,0,.1.258c.672,1,1.309,2.016,1.964,3.1l.482.81a.673.673,0,0,1,.121.293c0,.121-.121.155-.379.155H6.843c-.431,0-1.223-.017-1.378-.017-.293,0-.345.086-.345.413v.069c0,.327.052.413.345.413.155,0,.948-.017,1.378-.017h.879c.413,0,.637.034.792.276L8.6-8.01a1.29,1.29,0,0,1,.241.706v.345c0,.431-.086.517-.517.517H6.878c-.465,0-1.223-.017-1.378-.017-.293,0-.345.086-.345.413v.069c0,.327.052.413.345.413.155,0,.913-.017,1.378-.017H8.325c.431,0,.517.086.517.517,0,.6,0,1.24-.017,1.723-.017.345-.017.569-.017.655,0,.276.069.327.4.327h.224c.327,0,.4-.052.4-.327,0-.086,0-.31-.017-.655-.017-.482-.017-1.12-.017-1.723C9.789-5.5,9.875-5.581,10.306-5.581Z" transform="translate(548.291 14067.188)" fill="#b096b2"/></g></g></svg>