<svg xmlns="http://www.w3.org/2000/svg" xmlns:xlink="http://www.w3.org/1999/xlink" width="95" height="65" viewBox="0 0 95 65"><defs><clipPath id="a"><rect width="95" height="65" transform="translate(-24129 8438)" fill="#fff" stroke="#707070" stroke-width="1"/></clipPath><clipPath id="b"><rect width="65" height="65" transform="translate(795 13355)" fill="#f0efed"/></clipPath></defs><g transform="translate(24129 -8438)" clip-path="url(#a)"><g transform="translate(-24909 -4917)" clip-path="url(#b)"><g transform="translate(798.5 13358.5)"><g transform="translate(0.5 0.5)"><path d="M32.523,13.776h.125c7.155,0,13.584,2.559,17.639,7.019a16.417,16.417,0,0,1,0,22.163c-4.057,4.46-10.485,7.018-17.636,7.018H32.4a28.219,28.219,0,0,1-6.607-.767L18.363,54a1,1,0,0,1-1.483-1.177l2.252-6.307c-5.549-3.347-8.708-8.673-8.672-14.633v-.006a16.088,16.088,0,0,1,4.3-11.077c4.056-4.46,10.483-7.018,17.634-7.019Zm.129,34.2c6.589,0,12.478-2.319,16.156-6.363a14.142,14.142,0,0,0,3.784-9.736s0-.008,0-.013a14.119,14.119,0,0,0-3.784-9.723c-3.678-4.045-9.569-6.364-16.164-6.364H32.4c-6.59,0-12.48,2.32-16.158,6.364a14.121,14.121,0,0,0-3.784,9.723s0,0,0,.006v.012s0,0,0,.006c-.033,5.272,2.812,10,7.8,12.971l.6.356a1,1,0,0,1,.43,1.2l-1.54,4.312,5.322-3.428a1,1,0,0,1,.781-.13l.3.073a26.18,26.18,0,0,0,6.251.739Z" transform="translate(-3.733 -4.492)" fill="#48453a"/><path d="M6.289-1H51.3a7.3,7.3,0,0,1,7.288,7.288V51.3A7.3,7.3,0,0,1,51.3,58.586H6.289A7.3,7.3,0,0,1-1,51.3V6.289A7.3,7.3,0,0,1,6.289-1ZM51.3,56.586A5.294,5.294,0,0,0,56.586,51.3V6.288A5.294,5.294,0,0,0,51.3,1H6.289A5.3,5.3,0,0,0,1,6.289V51.3a5.3,5.3,0,0,0,5.289,5.289Z" fill="#48453a"/><g transform="translate(16.8 23.063)"><path d="M29.368,45.223h-4.82a.158.158,0,0,1-.166-.148V36.833a.158.158,0,0,1,.166-.148h1.123a.158.158,0,0,1,.166.148v7.3h3.531a.157.157,0,0,1,.166.148v.8a.157.157,0,0,1-.166.148" transform="translate(-24.382 -36.685)" fill="#b096b2"/><path d="M37.763,36.685h.79a.314.314,0,0,1,.331.3v7.947a.314.314,0,0,1-.331.3h-.79a.315.315,0,0,1-.332-.3V36.98a.315.315,0,0,1,.332-.3" transform="translate(-30.989 -36.685)" fill="#b096b2"/><path d="M50.948,45.223h-.941a.34.34,0,0,1-.289-.151l-2.424-3.845A26.352,26.352,0,0,1,45.7,38.337l-.05.011c.075,1.083.1,2.188.1,3.683v2.9a.315.315,0,0,1-.332.3h-.677a.315.315,0,0,1-.332-.3V36.98a.315.315,0,0,1,.332-.3H45.8a.34.34,0,0,1,.289.15l2.412,3.8a23.306,23.306,0,0,1,1.554,2.824l.038-.011a35.957,35.957,0,0,1-.151-3.616V36.98a.315.315,0,0,1,.331-.3h.678a.315.315,0,0,1,.332.3v7.947a.315.315,0,0,1-.332.3" transform="translate(-34.523 -36.685)" fill="#b096b2"/><path d="M67.278,45.223H62.715a.315.315,0,0,1-.332-.3V36.98a.315.315,0,0,1,.332-.3h4.35a.315.315,0,0,1,.332.3v.492a.315.315,0,0,1-.332.295H63.837v2.467h3.027a.315.315,0,0,1,.332.3v.481a.315.315,0,0,1-.332.3H63.837V44.14h3.441a.315.315,0,0,1,.332.3v.492a.315.315,0,0,1-.332.3" transform="translate(-43.623 -36.685)" fill="#b096b2"/></g></g></g></g></g></svg>