<svg xmlns="http://www.w3.org/2000/svg" xmlns:xlink="http://www.w3.org/1999/xlink" width="38" height="38" viewBox="0 0 38 38"><defs><clipPath id="a"><rect width="38" height="38" transform="translate(588 12850)" fill="#fff" stroke="#707070" stroke-width="1"/></clipPath></defs><g transform="translate(-588 -12850)" clip-path="url(#a)"><g transform="translate(442.175 12576.536)"><g transform="translate(146.825 274.463)"><path d="M0,16.67a.5.5,0,0,1-.5-.5V0A.5.5,0,0,1,0-.5.5.5,0,0,1,.5,0V16.17A.5.5,0,0,1,0,16.67Z" transform="translate(2.869 7.168)" fill="#48453a"/><path d="M148.535,279.254a.5.5,0,0,1-.124-.984l16.617-4.281a.827.827,0,0,1,1.032.8v3.718a.5.5,0,0,1-1,0v-3.495l-16.4,4.225A.5.5,0,0,1,148.535,279.254Z" transform="translate(-146.497 -274.463)" fill="#48453a"/><path d="M166.832,290.189a.5.5,0,0,1-.5-.5V278.636h-11.05a.5.5,0,1,1,0-1H166.4a.937.937,0,0,1,.936.936v11.117A.5.5,0,0,1,166.832,290.189Z" transform="translate(-145.201 -273.758)" fill="#48453a"/><path d="M177.3,307.789H162.552a4.34,4.34,0,0,1-4.336-4.335v-7.628a4.34,4.34,0,0,1,4.336-4.335h.41v-2.677a.5.5,0,0,1,.854-.353l3.029,3.03H177.3a4.34,4.34,0,0,1,4.335,4.335v7.628A4.34,4.34,0,0,1,177.3,307.789Zm-14.749-15.3a3.339,3.339,0,0,0-3.336,3.335v7.628a3.339,3.339,0,0,0,3.336,3.335H177.3a3.339,3.339,0,0,0,3.335-3.335v-7.628a3.339,3.339,0,0,0-3.335-3.335H166.637a.5.5,0,0,1-.354-.147l-2.322-2.323v1.969a.5.5,0,0,1-.5.5Z" transform="translate(-144.541 -271.707)" fill="#48453a"/><path d="M171.382,298a.906.906,0,1,1,.906.906A.906.906,0,0,1,171.382,298Z" transform="translate(-142.109 -270.118)" fill="#b096b2"/><path d="M172.288,297.093a.906.906,0,1,1-.906.906A.906.906,0,0,1,172.288,297.093Z" transform="translate(-142.109 -270.118)" fill="#b096b2"/><path d="M167.376,298a.906.906,0,1,1,.906.906A.906.906,0,0,1,167.376,298Z" transform="translate(-142.878 -270.118)" fill="#b096b2"/><path d="M168.282,297.093a.906.906,0,1,1-.906.906A.906.906,0,0,1,168.282,297.093Z" transform="translate(-142.878 -270.118)" fill="#b096b2"/><path d="M163.338,298a.906.906,0,1,1,.906.906A.906.906,0,0,1,163.338,298Z" transform="translate(-143.654 -270.118)" fill="#b096b2"/><path d="M164.244,297.093a.906.906,0,1,1-.906.906A.906.906,0,0,1,164.244,297.093Z" transform="translate(-143.654 -270.118)" fill="#b096b2"/><path d="M158.394,302.14a.5.5,0,0,1-.122-.015l-9.342-2.344H147.1a.771.771,0,0,1-.771-.769V278.405a.771.771,0,0,1,.771-.769h1.9a.5.5,0,0,1,.126.016l16.9,4.386a.5.5,0,0,1,.374.484v5.468a.5.5,0,0,1-1,0v-5.081l-16.46-4.272h-1.6V298.78h1.667a.5.5,0,0,1,.122.015l9.4,2.359a.5.5,0,0,1-.121.985Z" transform="translate(-146.825 -273.758)" fill="#b096b2"/></g></g></g></svg>