<svg xmlns="http://www.w3.org/2000/svg" xmlns:xlink="http://www.w3.org/1999/xlink" width="38" height="38" viewBox="0 0 38 38"><defs><clipPath id="a"><rect width="38" height="38" transform="translate(614 12793)" fill="#fff" stroke="#707070" stroke-width="1"/></clipPath></defs><g transform="translate(-614 -12793)" clip-path="url(#a)"><g transform="translate(469.48 12563.373)"><path d="M155.019,242.764a.5.5,0,0,1-.488-.393,5.424,5.424,0,0,1-.036-2.13.5.5,0,1,1,.983.182,4.424,4.424,0,0,0,.029,1.734.5.5,0,0,1-.489.607Z" transform="translate(0.501 0.995)" fill="#48453a"/><path d="M168.611,242.75a.5.5,0,0,1-.489-.607,4.387,4.387,0,0,0,.1-.932,4.445,4.445,0,0,0-.061-.732.5.5,0,0,1,.986-.165,5.448,5.448,0,0,1,.075.9,5.389,5.389,0,0,1-.123,1.145A.5.5,0,0,1,168.611,242.75Z" transform="translate(2.067 1.002)" fill="#48453a"/><g transform="translate(154.606 231.627)"><path d="M170.115,241.224h-14.9a1.677,1.677,0,0,1-1.518-1.358.5.5,0,0,1-.009-.107l.171-6.521a1.4,1.4,0,0,1,1.248-1.592h.014l7.018-.492a5.908,5.908,0,0,1,1.084,0l7.016.492h.014a1.4,1.4,0,0,1,1.249,1.593l.17,6.526a.5.5,0,0,1-.009.106,1.67,1.67,0,0,1-1.511,1.353Zm-14.842-1h14.82a.668.668,0,0,0,.578-.5l-.17-6.512a.5.5,0,0,1,.009-.106.4.4,0,0,0-.349-.47l-7.014-.492h-.012a4.906,4.906,0,0,0-.91,0h-.012l-7.015.492a.4.4,0,0,0-.347.469.5.5,0,0,1,.009.106l-.171,6.507A.676.676,0,0,0,155.273,240.224Z" transform="translate(-154.187 -231.627)" fill="#b096b2"/></g><path d="M174,264.92a.5.5,0,0,1-.492-.417c-1.487-8.8-5.049-12.285-7.04-13.582a.5.5,0,0,1,.546-.838c4.959,3.229,6.815,10.316,7.481,14.253a.5.5,0,0,1-.494.583Z" transform="translate(1.853 2.157)" fill="#b096b2"/><path d="M150.521,264.912a.5.5,0,0,1-.494-.583c.658-3.889,2.488-10.9,7.357-14.171a.5.5,0,0,1,.557.83c-1.957,1.314-5.459,4.815-6.928,13.508A.5.5,0,0,1,150.521,264.912Z" transform="translate(0 2.165)" fill="#b096b2"/><path d="M162.232,253.486a4.466,4.466,0,0,1-3.919-2.084.5.5,0,0,1,.873-.488,3.731,3.731,0,0,0,6.113-.04.5.5,0,0,1,.883.47A4.435,4.435,0,0,1,162.232,253.486Z" transform="translate(0.941 2.227)" fill="#48453a"/><path d="M.511-.5H9.654A1.013,1.013,0,0,1,10.665.511V5.9A1.013,1.013,0,0,1,9.654,6.909H.511A1.013,1.013,0,0,1-.5,5.9V.511A1.013,1.013,0,0,1,.511-.5ZM9.654,5.909A.011.011,0,0,0,9.665,5.9V.511A.011.011,0,0,0,9.654.5H.511A.011.011,0,0,0,.5.511V5.9a.011.011,0,0,0,.011.011Z" transform="translate(158.107 244.293)" fill="#48453a"/><path d="M0,1.5a.5.5,0,0,1-.471-.332.5.5,0,0,1,.3-.639l2.793-1a.5.5,0,0,1,.639.3.5.5,0,0,1-.3.639l-2.793,1A.5.5,0,0,1,0,1.5Z" transform="translate(168.265 245.105)" fill="#48453a"/><path d="M2.793,1.5a.5.5,0,0,1-.168-.029l-2.793-1a.5.5,0,0,1-.3-.639.5.5,0,0,1,.639-.3l2.793,1a.5.5,0,0,1-.168.971Z" transform="translate(155.314 245.099)" fill="#48453a"/><path d="M0,1.5a.5.5,0,0,1-.471-.332.5.5,0,0,1,.3-.639l2.793-1a.5.5,0,0,1,.639.3.5.5,0,0,1-.3.639l-2.793,1A.5.5,0,0,1,0,1.5Z" transform="translate(168.265 248.47)" fill="#48453a"/><path d="M2.793,1.5a.5.5,0,0,1-.168-.029l-2.793-1a.5.5,0,0,1-.3-.639.5.5,0,0,1,.639-.3l2.793,1a.5.5,0,0,1-.168.971Z" transform="translate(155.314 248.463)" fill="#48453a"/></g></g></svg>