<svg xmlns="http://www.w3.org/2000/svg" width="28" height="28" viewBox="0 0 28 28"><g transform="translate(-1100.906 -26.372)"><path d="M5.7,27.989A19.579,19.579,0,0,1,5.776.3,1.015,1.015,0,0,1,7.029.152l3.812,2.376a1.008,1.008,0,0,1,.4,1.234L9.318,8.542a1.02,1.02,0,0,1-1.043.635L4.987,8.857a15.652,15.652,0,0,0-.031,10.578l3.29-.338a1.006,1.006,0,0,1,1.039.629l1.9,4.769a1.017,1.017,0,0,1-.407,1.236l-3.826,2.4A1.011,1.011,0,0,1,5.7,27.989Z" transform="translate(1100.906 34.373) rotate(-45)" fill="#b096b2"/></g></svg>