<svg xmlns="http://www.w3.org/2000/svg" width="30.127" height="30.127" viewBox="0 0 30.127 30.127"><g transform="translate(0.5 0.5)"><path d="M22.114,14.276h.065a11.958,11.958,0,0,1,8.916,3.548,8.3,8.3,0,0,1,0,11.2,11.958,11.958,0,0,1-8.916,3.548h-.127a14.267,14.267,0,0,1-3.343-.388l-3.761,2.423a.5.5,0,0,1-.742-.588l1.141-3.195a8.521,8.521,0,0,1-4.387-7.4v0a8.13,8.13,0,0,1,2.175-5.6,11.958,11.958,0,0,1,8.917-3.548Zm.065,17.3a10.964,10.964,0,0,0,8.176-3.22,7.159,7.159,0,0,0,1.915-4.929s0,0,0-.006A7.147,7.147,0,0,0,30.355,18.5a10.966,10.966,0,0,0-8.18-3.221h-.12a10.966,10.966,0,0,0-8.18,3.221,7.148,7.148,0,0,0-1.915,4.922v.009A7.557,7.557,0,0,0,15.91,30l.3.18a.5.5,0,0,1,.215.6l-.785,2.2,2.706-1.743a.5.5,0,0,1,.39-.065l.15.037a13.248,13.248,0,0,0,3.163.374Z" transform="translate(-7.551 -9.574)" fill="#fbf9f7"/><path d="M6.289-.5h16.55a6.8,6.8,0,0,1,6.788,6.788V22.839a6.8,6.8,0,0,1-6.788,6.788H6.289A6.8,6.8,0,0,1-.5,22.838V6.289A6.8,6.8,0,0,1,6.289-.5Zm16.55,29.127a5.8,5.8,0,0,0,5.788-5.788V6.288A5.8,5.8,0,0,0,22.839.5H6.289A5.8,5.8,0,0,0,.5,6.289V22.838a5.8,5.8,0,0,0,5.789,5.789Z" fill="#fbf9f7"/><g transform="translate(8.497 11.665)"><path d="M26.9,41H24.466a.08.08,0,0,1-.084-.075V36.76a.08.08,0,0,1,.084-.075h.568a.08.08,0,0,1,.084.075V40.45H26.9a.08.08,0,0,1,.084.075v.4A.08.08,0,0,1,26.9,41" transform="translate(-24.382 -36.685)" fill="#fff"/><path d="M37.6,36.685H38a.159.159,0,0,1,.168.149v4.02A.159.159,0,0,1,38,41h-.4a.159.159,0,0,1-.168-.149v-4.02a.159.159,0,0,1,.168-.149" transform="translate(-34.173 -36.685)" fill="#fff"/><path d="M47.717,41h-.476a.172.172,0,0,1-.146-.076l-1.226-1.945a13.327,13.327,0,0,1-.805-1.462l-.025.006c.038.548.05,1.106.05,1.863v1.465a.159.159,0,0,1-.168.149h-.343a.159.159,0,0,1-.168-.149v-4.02a.159.159,0,0,1,.168-.149h.533a.172.172,0,0,1,.146.076l1.22,1.922a11.787,11.787,0,0,1,.786,1.428l.019-.006a18.187,18.187,0,0,1-.076-1.829V36.834a.159.159,0,0,1,.168-.149h.343a.159.159,0,0,1,.168.149v4.02a.159.159,0,0,1-.168.149" transform="translate(-39.41 -36.685)" fill="#fff"/><path d="M64.859,41H62.551a.159.159,0,0,1-.168-.149v-4.02a.159.159,0,0,1,.168-.149h2.2a.159.159,0,0,1,.168.149v.249a.159.159,0,0,1-.168.149H63.118V38.48H64.65a.159.159,0,0,1,.168.149v.243a.159.159,0,0,1-.168.149H63.118v1.434h1.74a.159.159,0,0,1,.168.149v.249a.159.159,0,0,1-.168.149" transform="translate(-52.894 -36.685)" fill="#fff"/></g></g></svg>