<?xml version="1.0" encoding="UTF-8"?><svg id="_レイヤー_1" xmlns="http://www.w3.org/2000/svg" viewBox="0 0 92 92"><defs><style>.cls-1{fill:#48453a;}.cls-1,.cls-2{stroke-width:0px;}.cls-2{fill:#ae9373;}</style></defs><path class="cls-1" d="m59.85,67.53h-22.04c-.69,0-1.26-.57-1.26-1.26s.56-1.26,1.26-1.26h22.04c.69,0,1.26.57,1.26,1.26s-.56,1.26-1.26,1.26Z"/><path class="cls-1" d="m84.5,67.94c-.45,0-.89-.24-1.11-.67-.32-.61-.09-1.37.53-1.7,1.56-.82,3.07-1.77,4.48-2.82,1.05-1.42.8-12.32-.4-16.54-1.74-5.87-5.56-10.92-10.75-14.21-8.51-4.6-30.34-2.53-39.37.14-6.21,1.84-11.24,5.86-17.61,10.96-4.05,3.24-8.63,6.9-14.39,10.71-.25.2-.49.41-.71.64-2.86,2.92-2.93,7.56-.24,10.56h6.8c.69,0,1.26.56,1.26,1.26s-.56,1.26-1.26,1.26h-7.34c-.33,0-.65-.13-.88-.36-4.03-3.95-4.09-10.45-.14-14.48.31-.32.65-.62,1-.89.03-.02.05-.04.08-.06,5.68-3.75,10.23-7.39,14.25-10.6,6.59-5.26,11.79-9.42,18.46-11.4,9.03-2.68,31.81-5.07,41.36.1,5.77,3.66,9.97,9.21,11.89,15.68.88,3.12,2.26,17.04-.42,19.19-1.57,1.17-3.21,2.21-4.91,3.1-.19.1-.39.15-.59.15Z"/><path class="cls-1" d="m28.61,48.24c-.51,0-1-.2-1.36-.56-.37-.36-.58-.85-.58-1.37,0-.57.24-1.12.68-1.49,3.79-3.43,8.17-6.09,12.98-7.9,9.29-2.9,26.94-3.71,34.39-.56,3.39,1.74,5.75,4.94,6.39,8.61.32,1.4-.59,2.86-2.06,3.2-.21.05-.41.07-.61.07H28.61Zm.41-1.55h-.02s.01,0,.02,0Zm1.12-.97h48.3c.16-.03.23-.14.21-.26-.52-2.96-2.37-5.49-4.99-6.83-6.79-2.86-23.87-2.03-32.51.66-3.99,1.5-7.7,3.67-11.01,6.43Z"/><path class="cls-1" d="m54.1,47.42c-.69,0-1.26-.56-1.26-1.26v-9.57c0-.69.56-1.26,1.26-1.26s1.26.56,1.26,1.26v9.57c0,.69-.56,1.26-1.26,1.26Z"/><path class="cls-2" d="m24.41,74.64c-4.61,0-8.36-3.75-8.36-8.36s3.75-8.36,8.36-8.36,8.36,3.75,8.36,8.36-3.75,8.36-8.36,8.36Zm0-14.2c-3.22,0-5.84,2.62-5.84,5.84s2.62,5.84,5.84,5.84,5.84-2.62,5.84-5.84-2.62-5.84-5.84-5.84Z"/><path class="cls-2" d="m72.81,74.64c-4.61,0-8.36-3.75-8.36-8.36s3.75-8.36,8.36-8.36,8.36,3.75,8.36,8.36-3.75,8.36-8.36,8.36Zm0-14.2c-3.22,0-5.84,2.62-5.84,5.84s2.62,5.84,5.84,5.84,5.84-2.62,5.84-5.84-2.62-5.84-5.84-5.84Z"/><path class="cls-2" d="m51.16,25.35c-.69,0-1.26-.56-1.26-1.26v-5.47c0-.69.56-1.26,1.26-1.26h9.91c.69,0,1.26.56,1.26,1.26v5.06c0,.69-.56,1.26-1.26,1.26s-1.26-.56-1.26-1.26v-3.81h-7.39v4.22c0,.69-.56,1.26-1.26,1.26Z"/></svg>