<svg id="_レイヤー_1" xmlns="http://www.w3.org/2000/svg" viewBox="0 0 92 92"><defs><style>.cls-1{fill:#48453a;stroke-width:0}</style></defs><path class="cls-1" d="M27.99 33.53c-.58 0-1.1-.4-1.23-.99-.36-1.67-.39-3.36-.08-5.03.12-.68.78-1.14 1.46-1.01.68.12 1.14.78 1.01 1.46-.25 1.35-.22 2.71.07 4.05a1.258 1.258 0 01-1.23 1.53zm35.62-.01c-.09 0-.18 0-.26-.03-.68-.14-1.11-.81-.97-1.49.15-.71.23-1.44.22-2.17 0-.58-.05-1.15-.14-1.71-.12-.68.35-1.33 1.03-1.45.69-.11 1.33.35 1.45 1.03a12.961 12.961 0 01-.1 4.82c-.13.59-.65 1-1.23 1z"/><path d="M63.26 27.57H28.24c-1.8-.14-3.3-1.48-3.64-3.26-.02-.09-.02-.18-.02-.27l.4-15.32c-.25-1.77.94-3.45 2.71-3.79.09-.02.19-.03.29-.04l16.53-1.16c.83-.08 1.7-.08 2.56 0l16.47 1.16c1.88.18 3.24 1.83 3.06 3.68 0 .05-.01.1-.02.16l.4 15.33c0 .09 0 .18-.02.27a4.017 4.017 0 01-3.62 3.25h-.1zM28.4 25.05h34.8c.61-.07 1.12-.5 1.28-1.09l-.4-15.29c0-.09 0-.18.02-.27.06-.54-.29-.96-.76-1.01L46.88 6.23c-.73-.07-1.45-.07-2.15 0L28.2 7.39c-.5.09-.81.54-.72 1 .02.09.02.18.02.27l-.4 15.28c.16.6.68 1.04 1.29 1.11zm47.35 63.27c-.6 0-1.14-.43-1.24-1.05-1.5-8.86-5.63-24.77-16.5-31.86a1.26 1.26 0 01-.37-1.74 1.26 1.26 0 011.74-.37c11.68 7.61 16.04 24.29 17.61 33.55.12.68-.35 1.33-1.03 1.45-.07.01-.14.02-.21.02zm-59.5.01c-.07 0-.14 0-.21-.02-.68-.12-1.15-.76-1.03-1.45 1.55-9.15 5.85-25.66 17.32-33.36.58-.39 1.36-.23 1.74.34.39.58.23 1.36-.34 1.74-10.68 7.17-14.76 22.94-16.24 31.69-.1.61-.64 1.05-1.24 1.05z" fill="#b096b2" stroke-width="0"/><path class="cls-1" d="M45.94 61.62c-2.19 0-4.33-.65-6.19-1.89-1.18-.79-2.19-1.78-2.99-2.95-.39-.57-.25-1.35.32-1.75.57-.39 1.36-.25 1.75.32.62.91 1.4 1.68 2.32 2.29a8.585 8.585 0 006.5 1.3 8.612 8.612 0 005.52-3.69c.39-.58 1.17-.73 1.74-.35.58.39.73 1.17.35 1.74a11.113 11.113 0 01-7.12 4.75c-.73.15-1.47.22-2.2.22zm10.72-10.6H35.35c-1.4 0-2.54-1.14-2.54-2.54V35.99c0-1.4 1.14-2.54 2.54-2.54h21.31c1.4 0 2.54 1.14 2.54 2.54v12.49c0 1.4-1.14 2.54-2.54 2.54zM35.35 35.96s-.03.01-.03.03v12.49l21.34.03.03-12.52-21.34-.03z"/><path class="cls-1" d="M57.93 40.21c-.52 0-1-.32-1.18-.83-.23-.65.11-1.37.76-1.61l6.56-2.34c.65-.23 1.37.11 1.61.76.23.65-.11 1.37-.76 1.61l-6.56 2.34c-.14.05-.28.07-.42.07zm-23.86-.02c-.14 0-.28-.02-.42-.07l-6.56-2.34c-.65-.23-.99-.95-.76-1.61.23-.65.95-1 1.61-.76l6.56 2.34c.65.23.99.95.76 1.61-.18.51-.67.83-1.18.83zm23.86 7.93c-.52 0-1-.32-1.18-.83-.23-.65.11-1.37.76-1.61l6.56-2.34c.65-.24 1.37.11 1.61.76.23.65-.11 1.37-.76 1.61l-6.56 2.34c-.14.05-.28.07-.42.07zm-23.86-.02c-.14 0-.28-.02-.42-.07l-6.56-2.34c-.65-.23-.99-.95-.76-1.61.23-.65.95-1 1.61-.76l6.56 2.34c.65.23.99.95.76 1.61-.18.51-.67.83-1.18.83z"/></svg>