<svg id="_レイヤー_1" xmlns="http://www.w3.org/2000/svg" viewBox="0 0 92 92"><defs><style>.cls-2{stroke-width:0;fill:#b096b2}</style></defs><path d="M75.63 79.06c-.79.79-1.85 1.24-2.97 1.23-16.1.01-31.54-6.42-42.86-17.86a60.97 60.97 0 01-17.74-43.09c0-1.96 1.35-3.67 3.26-4.12l13.33-3.09c1.99-.46 4.02.58 4.81 2.45l6.15 14.44c.68 1.59.33 3.43-.9 4.65-.1.1-.19.19-.3.28l-7.09 5.83a46.407 46.407 0 0021 21.13l5.79-7.12a4.19 4.19 0 014.92-1.21l14.36 6.19c1.87.81 2.9 2.84 2.44 4.83l-3.07 13.41c-.18.77-.57 1.48-1.13 2.05zM14.89 17.95c-.37.37-.58.87-.58 1.39-.04 23.53 13.98 44.81 35.62 54.07a57.761 57.761 0 0022.72 4.62c.51 0 1.01-.21 1.37-.57.26-.26.44-.59.53-.95l3.07-13.41c.22-.92-.26-1.87-1.13-2.25l-14.36-6.19c-.73-.32-1.57-.15-2.13.41-.05.04-.1.09-.14.14l-6.91 8.51-.8-.38a48.63 48.63 0 01-23.26-23.39l-.37-.79 8.44-6.95.13-.13c.57-.57.74-1.43.42-2.17l-6.15-14.44a1.94 1.94 0 00-2.22-1.14l-13.33 3.11c-.35.08-.67.26-.93.51z" stroke-width="0" fill="#48453a"/><path class="cls-2" d="M76.94 39.56c-.32-.32-.42-.79-.25-1.21.51-1.7.65-3.5.4-5.26-.77-4.73-3.11-9.06-6.63-12.31A21.681 21.681 0 0058.1 14.1c-1.78-.26-3.59-.14-5.32.36a1.14 1.14 0 01-1.46-.66c-.22-.58.08-1.23.66-1.45 2.02-.63 4.15-.8 6.24-.51 5.32.79 10.2 3.38 13.83 7.34a23.87 23.87 0 017.29 13.79c.28 2.08.09 4.2-.55 6.2-.23.58-.88.87-1.47.64-.14-.06-.28-.14-.39-.25z"/><path class="cls-2" d="M68.16 37.91c-.32-.32-.42-.79-.25-1.21.06-.18 1.64-4.64-3.57-9.85s-9.86-3.63-9.91-3.61a1.14 1.14 0 01-1.46-.66c-.22-.58.08-1.24.66-1.46.24-.09 6.01-2.16 12.31 4.13 6.29 6.29 4.17 12.02 4.07 12.27-.23.58-.88.87-1.47.64-.14-.06-.28-.14-.39-.25z"/></svg>