<svg id="_レイヤー_1" xmlns="http://www.w3.org/2000/svg" viewBox="0 0 92 92"><defs><style>.cls-1,.cls-3{stroke:#48453a;stroke-width:2px;stroke-linecap:round;stroke-linejoin:round;fill:none}.cls-3{stroke:#b096b2}</style></defs><path class="cls-1" d="M32.5 62.03s-.06-3.07 0 2.29 1.8 12.55 9.99 12.48 9.04-5.47 9.45-7.95.46-5.77.66-8.59 1.82-9.48 9.65-9.38c6.52-.2 7.79 4.21 7.79 4.21M44.72 16.62h3.67s.24 11.91 0 17.19C48.16 38.98 47.2 51 32.49 51s-15.66-12.02-15.9-17.19c-.24-5.28 0-17.19 0-17.19h4.07"/><path class="cls-1" d="M36.81 50.59v4.4s0 2.99-4.32 2.99-4.32-2.99-4.32-2.99v-4.4"/><path d="M46.07 43.97c-2.06 3.81-5.98 7.02-13.58 7.02s-11.52-3.2-13.58-7.02" stroke-width="4" stroke="#b096b2" fill="none" stroke-linecap="round" stroke-linejoin="round"/><circle class="cls-3" cx="70.93" cy="62.55" r="4.58"/><circle class="cls-3" cx="70.93" cy="62.55" r="1.48"/><path d="M23.5 15.2h4.89v2.83H23.5zm13.1 0h4.89v2.83H36.6z" stroke="#b096b2" fill="#b096b2" stroke-width="2" stroke-linecap="round" stroke-linejoin="round"/></svg>