<svg xmlns="http://www.w3.org/2000/svg" viewBox="0 0 92 92"><path d="M56.38 21.72H31.85l-.37-.39s-3.48-3.64-6.66-7.56c-6.1-7.53-6.1-9.86-5.3-11.15.52-.86 1.46-1.37 2.46-1.33 1.76.24 3.46.84 4.97 1.77 2.17 1.3 4.6 2.11 7.12 2.38.18 0 .35 0 .52-.02 1.99-.14 3.81-1.2 4.92-2.86a5.543 5.543 0 014.37-2.57c1.83.14 3.53 1.04 4.67 2.48a8.423 8.423 0 005.61 2.95c.16.01.33.02.5.02 2.58-.3 5.07-1.18 7.26-2.58 1.36-.91 2.91-1.51 4.53-1.75 1.11-.03 2.1.73 2.36 1.81.4 1.29.11 3.72-5.71 11.03-3.07 3.86-6.31 7.34-6.34 7.37l-.38.4zm-23.46-2.5h22.37c.92-1 3.43-3.78 5.82-6.79 5.66-7.11 5.31-8.7 5.29-8.77v-.03c-1.17.32-2.29.81-3.31 1.45-2.54 1.62-5.43 2.6-8.43 2.88-.25 0-.47 0-.71-.03-2.76-.25-5.32-1.56-7.14-3.65-1.16-1.13-1.87-1.77-2.92-1.77-.99 0-1.5.55-2.46 1.69a8.947 8.947 0 01-6.61 3.73c-.25.02-.5.03-.74.03a19.55 19.55 0 01-8.24-2.65c-1.2-.71-2.5-1.22-3.86-1.5-.21 0-.26.05-.32.12-.03.2-.08 1.95 5.39 8.63 2.41 2.96 4.93 5.68 5.86 6.65zm-1.13 3.94h25.38l.29.16c5.17 3.1 9.95 6.83 14.22 11.09 3.84 3.74 7.1 8.03 9.67 12.73 2.81 5.1 4.24 10.85 4.14 16.67-.32 10.89-5.16 18.73-14.39 23.31C64.48 90.41 55.7 92 44.28 92h-.37c-10.32-.03-18.72-1.97-24.97-5.75-7.85-4.75-12.02-12.3-12.42-22.41-.1-5.44 1.13-10.81 3.6-15.66 2.3-4.63 5.19-8.94 8.61-12.82 3.81-4.42 8.08-8.43 12.74-11.96l.33-.25zm24.71 2.5H32.61c-4.38 3.38-8.4 7.19-12.02 11.37a56.64 56.64 0 00-8.24 12.26 30.711 30.711 0 00-3.34 14.45c-.15 8.3 4.12 16.06 11.21 20.37 5.85 3.55 13.82 5.37 23.68 5.4h.36c11.03 0 19.44-1.5 25.71-4.62a23.01 23.01 0 009.13-7.75c2.53-4.01 3.87-8.65 3.87-13.39a30.8 30.8 0 00-3.83-15.4 51.059 51.059 0 00-9.2-12.12 73.967 73.967 0 00-13.46-10.57z" fill="#48453a" stroke-width="0"/><path d="M47.58 66.12h3.62c1.25 0 3.06.04 3.45.04.73 0 .86-.22.86-1.03v-.17c0-.82-.13-1.03-.86-1.03-.35 0-2.15.04-3.45.04h-3.62c-1.08 0-1.29-.22-1.29-1.29v-.85c.02-.64.23-1.25.6-1.77l.22-.35c.39-.6.95-.69 2.03-.69h1.98c1.12 0 3.1.04 3.45.04.73 0 .86-.22.86-1.03v-.17c0-.82-.13-1.03-.86-1.03-.35 0-2.33.04-3.45.04h-.95c-.65 0-.95-.09-.95-.39.04-.26.14-.52.3-.73l1.25-2.07c1.5-2.5 3.15-5.22 4.87-7.72.14-.19.23-.41.25-.65 0-.25-.25-.35-.78-.35h-.95c-.7-.14-1.38.27-1.59.95-1.25 2.33-2.54 4.57-3.92 6.89l-2.88 4.86c-.25.43-.43.69-.65.69-.17 0-.39-.25-.65-.69l-2.89-4.86c-1.34-2.28-2.67-4.57-3.88-6.89-.21-.68-.9-1.08-1.59-.95h-1.04c-.52 0-.78.09-.78.35.02.23.11.46.25.65 1.68 2.5 3.27 5.04 4.91 7.76l1.21 2.03c.16.22.26.47.3.73 0 .3-.3.39-.95.39H38.9c-1.08 0-3.06-.04-3.45-.04-.73 0-.86.22-.86 1.03v.17c0 .82.13 1.03.86 1.03.39 0 2.37-.04 3.45-.04h2.2c1.03 0 1.59.09 1.98.69l.22.34c.37.52.58 1.13.6 1.77v.86c0 1.08-.22 1.29-1.29 1.29h-3.62c-1.16 0-3.06-.04-3.45-.04-.73 0-.86.22-.86 1.03v.17c0 .82.13 1.03.86 1.03.39 0 2.28-.04 3.45-.04h3.62c1.08 0 1.29.22 1.29 1.29 0 1.5 0 3.1-.04 4.31-.04.86-.04 1.42-.04 1.64 0 .69.17.82 1 .82h.56c.82 0 1-.13 1-.82 0-.22 0-.78-.04-1.64-.04-1.21-.04-2.8-.04-4.31-.02-1.09.19-1.29 1.27-1.29z" fill="#b096b2" stroke-width="0"/></svg>