<?xml version="1.0" encoding="UTF-8"?><svg id="_レイヤー_1" xmlns="http://www.w3.org/2000/svg" viewBox="0 0 92 92"><defs><style>.cls-1{stroke:#48453a;}.cls-1,.cls-2,.cls-3{fill:none;stroke-linecap:round;stroke-linejoin:round;}.cls-1,.cls-3{stroke-width:2px;}.cls-2{stroke-width:2px;}.cls-2,.cls-3{stroke:#ae9373;}</style></defs><path class="cls-1" d="m35.49,15.04s2.03,18.02,5.93,20.94c1.4,1.05,6.14,23.13,3.73,28.43s-5.28,6.63-8.32,7.06-5.47.41-6.48,2.64c-.36.79-.13,4.22,13.08,2.27,8.42-1.24,10.06.86,13.57,0s2.82-5.17.99-10.93,2.58-10.79,3.54-18.55c.69-5.54-.48-13.7-3.1-17.39-1.56-2.19,1.75-14.47,1.75-14.47"/><path class="cls-3" d="m48.82,15.04s-.27,13.6,2.39,21c3.68,10.26,1.11,33.12,1.11,33.12"/><path class="cls-3" d="m42.86,15.04s-.8,7.85,3.95,23.8c2.19,7.3,3.05,14.94,2.52,22.54"/><path class="cls-3" d="m49.68,26.31c6.27,5.25,9.19,13.49,7.63,21.51-.47,2.5-.78,5.01-1.12,6.97"/><path class="cls-2" d="m48.66,19.99c-2,2.41-3.47,5.22-4.3,8.24"/><path class="cls-3" d="m52.49,41.5c2.29.66,4.16,2.32,5.09,4.52"/></svg>