<?xml version="1.0" encoding="UTF-8"?><svg id="_レイヤー_1" xmlns="http://www.w3.org/2000/svg" viewBox="0 0 92 92"><defs><style>.cls-1{stroke:#48453a;}.cls-1,.cls-2{fill:none;stroke-linecap:round;stroke-linejoin:round;stroke-width:2px;}.cls-2{stroke:#ae9373;}</style></defs><path class="cls-1" d="m63.58,24.11c-2.35-5.33-8.33-7.67-11.51-8.35s-14.16-2.88-23.17,5.76-7.78,21.33-5.82,26.35,8.15,9.07,7.11,13.91c-.51,2.57-1.23,5.09-2.15,7.54"/><path class="cls-1" d="m66.87,44.25c-1.01-.83-1.65-2.04-1.77-3.35"/><path class="cls-1" d="m49.13,76.99s-.43-7.39,4.36-10.06"/><path class="cls-2" d="m38.27,54.1s11.02,7.72,17.03,10.55,7.08,2.36,7.74,2.01c4.53-2.39,5.9-8.9,6.8-12.1.97-3.43.56-8.15-2.04-7.85-2.65.31-11.34,5.39-14.9,4.74s-11.69-6.35-11.69-6.35"/><path class="cls-2" d="m54.95,54.52c.69,2.06.45,4.33-.66,6.2"/><path class="cls-1" d="m67.49,36.69c-.18,1.23-9.94,3.19-14.16,1.51l-.94-10.19c4.56,0,9.11-.58,13.52-1.74,0,0,2.56,3.7,1.57,10.42Z"/></svg>