<?xml version="1.0" encoding="UTF-8"?><svg id="_レイヤー_1" xmlns="http://www.w3.org/2000/svg" viewBox="0 0 92 92"><defs><style>.cls-1{stroke:#48453a;}.cls-1,.cls-2,.cls-3,.cls-4{stroke-linecap:round;stroke-linejoin:round;}.cls-1,.cls-2,.cls-4{stroke-width:2px;}.cls-1,.cls-3,.cls-4{fill:none;}.cls-2{fill:#ae9373;}.cls-2,.cls-3,.cls-4{stroke:#ae9373;}.cls-3{stroke-width:4px;}</style></defs><path class="cls-1" d="m32.5,62.03s-.06-3.07,0,2.29,1.8,12.55,9.99,12.48,9.04-5.47,9.45-7.95.46-5.77.66-8.59,1.82-9.48,9.65-9.38c6.52-.2,7.79,4.21,7.79,4.21"/><path class="cls-1" d="m44.72,16.62h3.67s.24,11.91,0,17.19c-.23,5.17-1.19,17.19-15.9,17.19s-15.66-12.02-15.9-17.19c-.24-5.28,0-17.19,0-17.19h4.07"/><path class="cls-1" d="m36.81,50.59v4.4s0,2.99-4.32,2.99-4.32-2.99-4.32-2.99v-4.4"/><path class="cls-3" d="m46.07,43.97c-2.06,3.81-5.98,7.02-13.58,7.02s-11.52-3.2-13.58-7.02"/><circle class="cls-4" cx="70.93" cy="62.55" r="4.58"/><circle class="cls-4" cx="70.93" cy="62.55" r="1.48"/><rect class="cls-2" x="23.5" y="15.2" width="4.89" height="2.83"/><rect class="cls-2" x="36.6" y="15.2" width="4.89" height="2.83"/></svg>