<?xml version="1.0" encoding="UTF-8"?><svg id="_レイヤー_1" xmlns="http://www.w3.org/2000/svg" viewBox="0 0 92 92"><defs><style>.cls-1,.cls-2{stroke-linejoin:round;}.cls-1,.cls-2,.cls-3{stroke-linecap:round;stroke-width:2px;}.cls-1,.cls-3{fill:none;stroke:#48453a;}.cls-2{fill:#ae9373;stroke:#ae9373;}</style></defs><line class="cls-1" x1="78.5" y1="40.77" x2="59.38" y2="40.77"/><path class="cls-3" d="m80.1,74.44v-30.66"/><path class="cls-3" d="m11.9,43.78v30.66"/><line class="cls-1" x1="32.78" y1="40.77" x2="13.45" y2="40.77"/><path class="cls-1" d="m59.13,37.45v-19.89h-26.34v19.48"/><rect class="cls-1" x="20.39" y="47.95" width="6.94" height="6.94"/><rect class="cls-1" x="34.97" y="47.95" width="6.94" height="6.94"/><rect class="cls-1" x="34.97" y="60.95" width="6.94" height="6.94"/><rect class="cls-1" x="49.7" y="47.95" width="6.94" height="6.94"/><rect class="cls-1" x="49.7" y="60.95" width="6.94" height="6.94"/><rect class="cls-1" x="64.27" y="47.95" width="6.94" height="6.94"/><rect class="cls-1" x="20.39" y="60.74" width="6.94" height="6.94"/><rect class="cls-1" x="64.27" y="60.74" width="6.94" height="6.94"/><path class="cls-2" d="m52.82,28.86h-5.08v-5.15h-3.44v5.15h-5.21v3.44h5.21v5.15h3.44v-5.15h5.08v-3.44Z"/></svg>