<?xml version="1.0" encoding="UTF-8"?><svg id="_レイヤー_1" xmlns="http://www.w3.org/2000/svg" viewBox="0 0 92 92"><defs><style>.cls-1{stroke:#48453a;}.cls-1,.cls-2,.cls-3{stroke-width:2px;}.cls-1,.cls-3{fill:none;stroke-linecap:round;stroke-linejoin:round;}.cls-2{fill:#fff;stroke:#707070;}.cls-3{stroke:#ae9373;}</style></defs><line class="cls-1" x1="40.04" y1="52.47" x2="37.43" y2="55.66"/><line class="cls-1" x1="52.21" y1="52.47" x2="54.67" y2="55.66"/><path class="cls-1" d="m19.35,77.53s-1.63-21.32,15.91-21.32l10.75,7.23v14.1"/><path class="cls-1" d="m72.69,77.53s-.26-21.32-15.92-21.32l-10.75,7.23v14.1"/><path class="cls-1" d="m59.3,34.79s2.59-.68,1.85,2.58c-.37,1.64-.52,2.39-1.42,3.27-.41.39-1.01.53-1.55.34,0,0-2.77,11.42-12.13,11.42s-12.13-11.42-12.13-11.42c-.54.18-1.13.05-1.55-.35-.9-.88-1.04-1.62-1.42-3.27-.74-3.26,1.85-2.58,1.85-2.58"/><path class="cls-1" d="m30.83,31.02s-1.43-16.55,15.7-16.55c15.89,0,14.75,16.62,14.75,16.62"/><path class="cls-1" d="m33.37,32.31s2.74,1.23,2.74-4.64c0,0,2.56,2.37,5.12,2.37,5.61,0,4.02-3.41,9.17-3.41,5.86,0,4.93,5.44,8.42,5.78"/><path class="cls-3" d="m35.94,52.01c-2.29.38-4.21,1.97-5,4.16-.6,1.66-.4,4.19,1.24,6.76"/><path class="cls-3" d="m56.32,52.39c2.3.36,4.23,1.92,5.05,4.1.65,2.32.23,4.81-1.16,6.77"/><path class="cls-3" d="m35.46,74.96l-1.95,1.03s-6.74-10.2-1.34-13.06c5.4-2.86,10.06,8.21,10.06,8.21l-1.97,1.16"/><path class="cls-2" d="m61.25,66.04c-.34,1.45-1.79,2.35-3.24,2.01-1.45-.34-2.35-1.79-2.01-3.24.34-1.45,1.79-2.35,3.23-2.01,1.45.34,2.35,1.79,2.01,3.24"/><path class="cls-3" d="m61.25,66.04c-.34,1.45-1.79,2.35-3.24,2.01-1.45-.34-2.35-1.79-2.01-3.24.34-1.45,1.79-2.35,3.23-2.01,1.45.34,2.35,1.79,2.01,3.24Z"/></svg>