<?xml version="1.0" encoding="UTF-8"?><svg id="_レイヤー_1" xmlns="http://www.w3.org/2000/svg" viewBox="0 0 218 34"><defs><style>.cls-1{fill:#48453a;stroke-width:0px;}</style></defs><path class="cls-1" d="m67.03,20.58c.48.75.8,1.59.95,2.47.21,1.24.24,2.51.09,3.76-.06.66-.18,1.31-.36,1.94-.12.5-.3.98-.54,1.44-.21.46-.48.88-.8,1.26-.35.44-.77.81-1.26,1.09-.59.35-1.23.61-1.89.78-.49.13-1,.23-1.5.3-.34.05-.68.09-1.02.13-.07,0-.18,0-.34.03-.03-.17-.05-.33-.05-.5.26-.12.6-.27,1.02-.45,1.44-.62,2.58-1.78,3.17-3.23.51-1.25.77-2.59.78-3.93.04-1.24-.06-2.47-.31-3.68-.09-.76-.36-1.48-.78-2.12-.28,2.04-.71,4.05-1.28,6.03-.48,2.21-1.6,4.22-3.22,5.8-.84.64-1.85,1.02-2.9,1.08-.68-.12-1.31-.45-1.8-.93-.54-.56-.92-1.26-1.09-2.02-.27-1.17-.38-2.38-.34-3.58.03-.55.1-1.1.2-1.64.07-.4.17-.87.32-1.41.21-.86.55-1.68,1.02-2.42.59-1.03,1.51-1.82,2.62-2.25v-3.76h-2.57c-.2.06-.4.14-.58.25-.22.14-.43.3-.63.48v-1.84h3.79v-3.18h2.6v3.18h5.89c.51-.2,1.02-.44,1.5-.71v1.82h-7.39v3.23c.79-.05,1.31-.08,1.53-.08.09-1.11.15-1.89.19-2.35h2.64c-.03.5-.13,1.45-.29,2.82.5.22.98.5,1.41.83.5.37.91.83,1.23,1.36m-8.61,10.41c.29-.3.54-.64.75-1.01.37-.58.67-1.2.9-1.84-.68-.26-1.27-.7-1.7-1.29-.42-.76-.65-1.62-.65-2.5v-4.41c-.38.44-.68.94-.89,1.49-.38,1.07-.58,2.19-.61,3.33-.09,1.29-.1,2.59-.03,3.88.02.68.19,1.34.49,1.94.37.5.68.77.92.78.31,0,.61-.14.82-.38m2.93-8.73c.11-.81.26-1.94.43-3.4h-1.45v6.13c.03.56.11,1.12.24,1.66.1-.5.2-.99.31-1.46.07-.4.16-.96.27-1.66.07-.3.13-.72.2-1.26m13.72,6.99c.18.47.43.72.75.76.48,0,.9-.56,1.28-1.69.12.11.25.21.39.3-.17,1-.54,1.95-1.09,2.8-.4.79-1.31,1.18-2.16.93-.78-.26-1.4-.88-1.65-1.67-.19-.42-.33-.86-.43-1.31-.3-1.37-.44-2.78-.43-4.19,0-2.55.02-4.69.07-6.41.07-2.24.13-4.27.2-6.11.35,0,1.29,0,2.83.03-.07,1.56-.15,3.3-.24,5.22-.02,1.08-.05,2.17-.07,3.28v3.15c.01,1.18.03,1.94.07,2.29,0,.89.15,1.77.48,2.6m10.41-.96l-3.17.18c.11-1.46.15-2.93.1-4.39,0-1.53-.11-3.05-.32-4.56-.18-1.53-.58-3.03-1.19-4.44.1-.13.2-.26.31-.38.53.68,1,1.4,1.43,2.14.36.6.68,1.23.97,1.87.48,1.14.88,2.31,1.21,3.5.12.44.24.97.36,1.59.24,1.48.34,2.99.31,4.49m15.56-5.82c1.18,1.33,1.74,3.1,1.55,4.87-.08,1.7-.89,3.28-2.21,4.34-.95.84-2.17,1.34-3.44,1.41-1.34.07-2.66-.31-3.74-1.08-1.03-.76-1.86-1.76-2.4-2.93l.29-.35c.14.15.24.28.32.38.21.24.44.47.68.68.3.25.62.46.97.63.38.17.77.31,1.17.4.51.11,1.03.17,1.55.18,1.13-.02,2.19-.57,2.86-1.49.96-1.29,1.26-2.95.82-4.49-.09-.76-.49-1.46-1.1-1.92-.55-.4-1.23-.57-1.9-.5-.72.05-1.41.34-1.96.81-.65.51-1.11,1.22-1.31,2.02-.43-.08-.86-.13-1.29-.15-.51,0-1.01-.05-1.5-.18.32-1.41.61-2.88.87-4.39.27-1.43.52-2.9.75-4.41h-2.04c-.14.03-.28.09-.39.18-.17.1-.44.28-.82.53v-1.77h3.4c.26-1.56.5-3.15.73-4.77h2.84c-.32,1.83-.58,3.42-.8,4.77h6.06c.25-.06.49-.16.71-.28.41-.2.66-.33.77-.4v1.74h-7.69c-.39,2.62-.75,4.78-1.09,6.48.86-.71,1.89-1.2,2.99-1.41,1.55-.37,3.18.04,4.36,1.11m9.47-4.11c0-.42-.04-.84-.1-1.25h2.58v2.17c-.05,1.3-.11,2.3-.19,3.02-.05.64-.15,1.28-.3,1.91-.15.75-.31,1.42-.48,2.02-.19.7-.44,1.38-.73,2.04-.39.95-.88,1.86-1.47,2.7-.3.44-.63.85-.98,1.26-.35.41-.74.8-1.16,1.14l-.15-.26c.45-.85.88-1.78,1.3-2.79.35-.95.64-1.92.87-2.9.27-1.14.47-2.29.61-3.45.13-1.01.21-2.02.23-3.03,0-.93,0-1.79-.01-2.57m9.49,9.33c.22,1.29.4,2.46.54,3.52.06.5-.12,1.86-.08,2.23l-2.78-.34c-.02-2.2-.06-4.1-.14-5.71-.11-1.6-.32-3.2-.63-4.78-.29-1.86-.77-3.68-1.42-5.45l.25-.17c.61.89,1.14,1.83,1.6,2.81.23.5.51,1.12.83,1.85.26.65.51,1.35.77,2.1.17.57.38,1.22.61,1.93.15.64.3,1.3.45,2m2.41-3.2h10.64l1.31-.49v1.31h-10.36c-.57.1-1.11.33-1.58.66v-1.48Zm24.13.64c.19.24.54.68,1.03,1.33l-1.65,2.51-.87-1.55c-.26-.47-.55-.93-.85-1.37-.18-.25-.45-.58-.79-.99-.43-.47-.9-.92-1.39-1.33-.17-.19-.4-.33-.65-.39v10.08h-2.05v-16.91h2.05v6.26h.25c.29.01.59.06.87.15.43.12.86.26,1.28.43.58.21,1.13.49,1.65.82.41.28.78.61,1.12.97m13.13-6.71c.62-.03,1.2.29,1.51.82.3.75.43,1.57.36,2.38,0,.75-.07,1.49-.18,2.23-.08.63-.2,1.24-.36,1.85-.2.81-.48,1.59-.84,2.34-.3.64-.67,1.24-1.1,1.8-.45.57-.97,1.08-1.54,1.52-.52.38-1.07.73-1.64,1.03-.55.26-1.11.5-1.67.71-.49.15-.98.29-1.47.43,0-.06-.03-.27-.08-.62.38-.14.75-.31,1.1-.51.66-.35,1.27-.8,1.8-1.33.62-.57,1.16-1.22,1.58-1.95.38-.6.7-1.23.95-1.89.25-.69.46-1.39.62-2.1.25-1.32.37-2.65.37-3.99v-.47c.02-.36-.01-.72-.11-1.07-.15-.27-.43-.45-.74-.49h-1.65c-.33.08-.63.24-.87.47-.31.3-.55.54-.7.71-.36,1.67-1.08,3.25-2.1,4.63-.53.69-1.15,1.32-1.83,1.87l-.23-.34c.64-.92,1.11-1.95,1.39-3.03.09-.36.19-.78.29-1.26.18-1.11.3-2.23.34-3.35.04-.86.04-1.72.01-2.59h2.48v1.09c0,.6-.05,1.19-.14,1.78.18-.16.37-.31.58-.45.24-.11.49-.19.74-.23h2.33c.12,0,.25,0,.4-.02h.4Zm6.59-1.65h2.32v10.02h-2.32v-10.02Zm6.72-.34h2.36v7.79c.02,1.17-.13,2.34-.44,3.47-.24.9-.62,1.76-1.12,2.55-.44.61-.97,1.14-1.57,1.59-.46.31-.94.59-1.43.83-.48.18-.97.33-1.46.45-.45.09-.91.15-1.36.17v-.38c.37-.09.72-.24,1.03-.45.3-.14.57-.32.83-.52.32-.21.61-.47.84-.77.44-.48.81-1.01,1.1-1.59.37-.73.66-1.49.85-2.29.23-.97.36-1.96.37-2.96v-7.88Zm5.41,13.94h11.11c.12-.01.24-.05.35-.09.15-.05.3-.11.44-.19.17-.08.32-.15.45-.23.12-.04.23-.1.33-.17v1.5h-11.19c-.1.01-.2.05-.29.09-.11.04-.22.09-.32.15-.11.05-.22.11-.33.17-.17.11-.36.21-.55.28v-1.52Zm11.53-11h-8.97c-.25.06-.49.15-.72.26-.25.09-.5.2-.74.32v-1.37h8.87c.26-.03.52-.11.76-.23.29-.11.44-.17.45-.19.12-.04.24-.1.35-.17v1.36Zm6.79,6.01c.04.16.07.32.08.49-.88.37-1.51.62-1.89.73l-.14-1.29c-.07-.47-.14-.92-.22-1.35-.05-.21-.1-.46-.17-.75-.07-.26-.15-.52-.25-.77-.08-.19-.2-.45-.36-.79l.22-.24c.19.13.4.27.62.43.24.19.46.41.66.64.24.25.45.52.63.8.39.64.67,1.36.8,2.1m4.82-4.08c0-.49.02-.73.03-.73h2.22c-.06,1.31-.22,2.62-.45,3.92-.22,1.22-.59,2.41-1.09,3.54-.23.5-.51.98-.84,1.42-.29.4-.61.77-.95,1.12-.35.37-.73.71-1.14,1.01-.39.29-.79.54-1.21.77-.73.46-1.52.8-2.36,1.03l-.12-.41c.47-.3.92-.62,1.35-.97.55-.45,1.05-.95,1.5-1.5.38-.52.74-1.06,1.09-1.61.2-.36.4-.75.59-1.18.16-.4.31-.77.44-1.1.25-.76.44-1.54.58-2.32.19-.98.31-1.98.37-2.98m-2.27,2.32c.07.23.14.5.22.82.03.13.06.29.08.49-.38.15-.7.28-.96.39l-.92.34-.15-1.29c-.02-.3-.06-.6-.12-.9-.08-.56-.21-1.11-.39-1.65-.14-.38-.3-.74-.48-1.1l.23-.24c.19.12.4.27.62.43.23.2.45.41.66.64.23.25.45.52.63.8.23.41.43.83.58,1.27m16.85-5.2c.62-.03,1.2.29,1.51.82.3.75.43,1.57.36,2.38,0,.75-.07,1.49-.18,2.23-.08.63-.2,1.24-.36,1.85-.2.81-.48,1.59-.84,2.34-.3.64-.67,1.24-1.1,1.8-.45.57-.97,1.08-1.54,1.52-.52.38-1.07.73-1.64,1.03-.55.26-1.11.5-1.67.71-.49.15-.98.29-1.47.43,0-.06-.03-.27-.08-.62.38-.14.75-.31,1.1-.51.66-.35,1.27-.8,1.8-1.33.62-.57,1.16-1.22,1.58-1.95.38-.6.7-1.23.95-1.89.25-.69.46-1.39.62-2.1.25-1.32.37-2.65.37-3.99v-.47c.02-.36-.01-.72-.11-1.07-.15-.27-.43-.45-.74-.49h-1.65c-.33.08-.63.24-.87.47-.31.3-.55.54-.7.71-.36,1.67-1.08,3.25-2.1,4.63-.53.69-1.15,1.32-1.83,1.87l-.23-.34c.64-.92,1.11-1.95,1.39-3.03.09-.36.19-.78.29-1.26.18-1.11.3-2.23.34-3.35.04-.86.04-1.72.01-2.59h2.48v1.09c0,.6-.05,1.19-.14,1.78.18-.16.37-.31.58-.45.24-.11.49-.19.74-.23h2.33c.12,0,.25,0,.4-.02h.39Zm-202.99-1.7c2.81,5.08,5.57,5.08,5.95-5.91,0-3.92,2.35-7.45,5.96-8.96,0,0-5.24-.34-8.18,3.95-2.7,3.95-1.32,7.58-2.49,6.6-4.54-3.84-7.89,2.22-7.89,2.22,0,0,4.47-1.83,6.65,2.11m9.79,17.14s-5.77-.24-13.57-5.73c-10.71-7.53-3.57-13.06-3.57-13.06,0,0-3.84-.01-5.24,4.46-2.74,8.72,6.22,14.33,6.22,14.33m18.11,0s11.93-4.38,13.66-17.18C40.86-.74,26.54,1.48,26.54,1.48c0,0,5.41-3.59,12.87.99,13.62,8.36,8.05,31.39,8.05,31.39h-22.6Z"/></svg>