<?xml version="1.0" encoding="UTF-8"?><svg id="_レイヤー_1" xmlns="http://www.w3.org/2000/svg" viewBox="0 0 92 92"><defs><style>.cls-1{fill:#48453a;}.cls-1,.cls-2{stroke-width:0px;}.cls-2{fill:#bab6b0;}</style></defs><g id="_パス_5"><path class="cls-1" d="m28.05,70.32c-.12,0-.23-.02-.35-.06-.52-.19-.78-.77-.59-1.29.89-2.39,1.6-4.88,2.1-7.38.54-2.52-1.37-4.98-3.39-7.58-1.4-1.81-2.86-3.68-3.67-5.77-2.37-6.08-2.83-18.91,6.06-27.44,4.33-4.15,12.02-8.57,24.07-6.02,1.53.32,9.29,2.27,12.22,8.92.22.5,0,1.1-.51,1.32-.5.22-1.09,0-1.32-.51-1.97-4.46-7.05-6.98-10.81-7.77-8.98-1.91-16.48-.05-22.27,5.5-9.17,8.8-7.05,21.51-5.58,25.27.71,1.82,2.07,3.57,3.39,5.27,2.21,2.85,4.5,5.8,3.77,9.22-.52,2.6-1.26,5.18-2.19,7.68-.15.4-.53.65-.94.65Z"/></g><g id="_パス_6"><path class="cls-1" d="m66.87,45.24c-.22,0-.45-.07-.64-.23-1.21-1-1.99-2.47-2.13-4.03-.05-.55.35-1.04.9-1.09.56-.05,1.04.36,1.09.91.09,1.03.61,2.01,1.41,2.67.43.35.49.98.14,1.41-.2.24-.48.36-.77.36Z"/></g><g id="_パス_7"><path class="cls-1" d="m49.13,77.97c-.53,0-.97-.41-1-.94-.02-.33-.41-8.05,4.87-10.99.48-.27,1.09-.09,1.36.39.27.48.09,1.09-.39,1.36-4.18,2.32-3.85,9.06-3.84,9.12.03.55-.39,1.02-.94,1.06-.02,0-.04,0-.06,0Z"/></g><g id="_パス_8"><path class="cls-2" d="m61.97,67.92c-1.23,0-3.23-.54-7.1-2.37-6.01-2.83-16.72-10.32-17.17-10.64-.45-.32-.56-.94-.25-1.39.32-.45.94-.56,1.39-.25.11.08,11.02,7.7,16.88,10.47,5.65,2.66,6.52,2.2,6.84,2.03,3.74-1.97,5.18-7.34,6.05-10.55.09-.34.18-.65.26-.94.69-2.43.56-5.32-.28-6.31-.2-.23-.39-.31-.68-.28-.87.1-2.76.92-4.77,1.78-3.71,1.6-7.92,3.41-10.42,2.95-3.73-.67-11.74-6.28-12.08-6.51-.45-.32-.56-.94-.24-1.39.32-.45.94-.56,1.39-.24,2.21,1.55,8.55,5.69,11.29,6.18,1.9.35,6.16-1.49,9.27-2.82,2.33-1,4.18-1.79,5.33-1.93.94-.12,1.81.23,2.44.97,1.47,1.73,1.46,5.41.68,8.15-.08.28-.16.59-.25.92-.95,3.52-2.54,9.41-7.04,11.79-.39.21-.84.38-1.53.38Z"/></g><g id="_パス_9"><path class="cls-2" d="m54.29,61.71c-.17,0-.35-.04-.51-.14-.48-.28-.63-.89-.35-1.37.96-1.63,1.17-3.58.57-5.38-.17-.52.11-1.09.63-1.26.52-.17,1.09.11,1.26.63.78,2.34.51,4.9-.75,7.02-.19.32-.52.49-.86.49Z"/></g><g id="_パス_10"><path class="cls-1" d="m57.85,39.85c-1.84,0-3.58-.21-4.89-.73-.35-.14-.59-.46-.62-.84l-.94-10.19c-.03-.28.07-.56.26-.77.19-.21.46-.33.74-.33.03-.02.05,0,.08,0,4.45,0,8.88-.57,13.19-1.7.41-.11.84.05,1.08.4.11.16,2.77,4.1,1.74,11.13h0c-.1.71-.76,1.09-.98,1.21-1.57.9-5.82,1.81-9.65,1.81Zm-3.58-2.39c3.83,1.11,11.01-.33,12.27-1.16.62-4.63-.52-7.67-1.11-8.87-3.91.97-7.91,1.49-11.93,1.57l.78,8.46Zm13.22-.77h0,0Zm-.99-.15s0,0,0,0c0,0,0,0,0,0Z"/></g></svg>