<?xml version="1.0" encoding="UTF-8"?><svg id="_レイヤー_1" xmlns="http://www.w3.org/2000/svg" viewBox="0 0 92 92"><defs><style>.cls-1{fill:#48453a;}.cls-1,.cls-2{stroke-width:0px;}.cls-2{fill:#bab6b0;}</style></defs><g id="_パス_47"><path class="cls-1" d="m74.46,62.09h-14.32c-.55,0-1-.45-1-1s.45-1,1-1h13.32v-5.52h-20.87c-.55,0-1-.45-1-1s.45-1,1-1h21.87c.55,0,1,.45,1,1v7.52c0,.55-.45,1-1,1Z"/></g><g id="_パス_48"><path class="cls-1" d="m52.35,62.09H14.42c-.55,0-1-.45-1-1v-7.52c0-.55.45-1,1-1h30.8c.55,0,1,.45,1,1s-.45,1-1,1H15.42v5.52h36.94c.55,0,1,.45,1,1s-.45,1-1,1Z"/></g><g id="_線_38"><path class="cls-1" d="m21.47,62.09c-.55,0-1-.45-1-1v-7.52c0-.55.45-1,1-1s1,.45,1,1v7.52c0,.55-.45,1-1,1Z"/></g><g id="_パス_49"><path class="cls-2" d="m15.42,50.37c-.55,0-.99-.44-1-.99,0-.18,0-4.44,3.38-7.87,2.71-2.74,6.75-4.13,12.02-4.13.55,0,1,.45,1,1s-.45,1-1,1c-4.71,0-8.27,1.19-10.59,3.54-2.81,2.84-2.81,6.41-2.81,6.44,0,.55-.44,1-.99,1.01h-.01Z"/></g><g id="_パス_50"><path class="cls-2" d="m31.11,33.21c-.06,0-.12,0-.17-.02-.54-.1-.91-.61-.81-1.16,1.78-10.09,13.58-9.78,13.7-9.76.55.02.98.48.96,1.04-.02.55-.46.99-1.03.96-.41-.01-10.18-.25-11.66,8.11-.09.48-.51.83-.98.83Z"/></g><g id="_パス_51"><path class="cls-2" d="m39.89,41.9c-.43,0-.83-.28-.96-.71-.16-.53.14-1.09.67-1.25,2.67-.81,2.69-6.25,2.47-8.28-.03-.29.07-.58.27-.79.2-.21.49-.33.78-.31,3.59.2,6.19-.58,7.73-2.3,2.12-2.37,1.58-5.85,1.57-5.88-.09-.54.28-1.06.82-1.15.54-.09,1.06.27,1.15.82.03.18.72,4.44-2.04,7.53-1.78,2-4.54,3.01-8.2,3.01h-.02c.09,2.46-.15,8.11-3.95,9.27-.1.03-.19.04-.29.04Z"/></g><g id="_パス_52"><path class="cls-2" d="m21.47,50.37c-.48,0-.91-.35-.99-.84-.01-.09-.32-2.23,1.11-3.9,1.05-1.22,2.69-1.84,4.88-1.84,5.63,0,9.7-.08,9.74-.08h.02c.54,0,.99.44,1,.98.01.55-.43,1.01-.98,1.02-.04,0-4.13.08-9.78.08-1.57,0-2.7.38-3.35,1.13-.84.96-.66,2.3-.66,2.31.08.54-.3,1.05-.85,1.13-.05,0-.1.01-.15.01Z"/></g><g id="_線_39"><path class="cls-1" d="m72.42,74.31c-.26,0-.51-.1-.71-.29L16.85,19.39c-.39-.39-.39-1.02,0-1.42.39-.39,1.02-.39,1.41,0l54.86,54.63c.39.39.39,1.02,0,1.42-.2.2-.45.29-.71.29Z"/></g><g id="_線_40"><path class="cls-1" d="m58.74,60.65c-.55,0-1-.45-1-1v-6.08c0-.55.45-1,1-1s1,.45,1,1v6.08c0,.55-.45,1-1,1Z"/></g></svg>