<?xml version="1.0" encoding="UTF-8"?><svg id="_レイヤー_1" xmlns="http://www.w3.org/2000/svg" viewBox="0 0 92 92"><defs><style>.cls-1{fill:#48453a;}.cls-1,.cls-2{stroke-width:0px;}.cls-2{fill:#ae9373;}</style></defs><path class="cls-1" d="m35.11,90.05c-1.4,0-2.78-.04-4.13-.11-11.51-.6-24.96-4.03-28.18-11.82-.27-.64.04-1.38.68-1.64.64-.27,1.38.04,1.64.68,2.29,5.53,12.49,9.56,25.99,10.27,13.85.73,29.92-2.32,33.85-9.56.33-.61,1.09-.84,1.71-.51.61.33.84,1.09.51,1.7-4.19,7.72-18.81,10.98-32.06,10.98Z"/><path class="cls-1" d="m4.58,73.63c-.19,0-.39-.04-.57-.14-.62-.32-.86-1.07-.55-1.69l20.08-39.34c.21-.42.65-.69,1.12-.69h20.15c.47,0,.9.26,1.11.67l20.65,39.34c.32.62.09,1.38-.53,1.7-.61.33-1.38.09-1.7-.53l-20.3-38.67h-18.62L5.7,72.95c-.22.44-.66.69-1.12.69Z"/><path class="cls-1" d="m42.47,30.03c-.69,0-1.26-.56-1.26-1.26v-4.21h-12.96v4.21c0,.69-.56,1.26-1.26,1.26s-1.26-.56-1.26-1.26v-5.47c0-.69.56-1.26,1.26-1.26h15.47c.69,0,1.26.56,1.26,1.26v5.47c0,.69-.56,1.26-1.26,1.26Z"/><path class="cls-1" d="m72.46,12.05c-.69,0-1.26-.56-1.26-1.26v-3.85h-24.83c-.69,0-1.26-.56-1.26-1.26s.56-1.26,1.26-1.26h26.09c.69,0,1.26.56,1.26,1.26v5.11c0,.69-.56,1.26-1.26,1.26Z"/><path class="cls-1" d="m41.3,10.85h-13.12c-.69,0-1.26-.56-1.26-1.26V3.2c0-.69.56-1.26,1.26-1.26h13.12c.69,0,1.26.56,1.26,1.26v6.38c0,.69-.56,1.26-1.26,1.26Zm-11.86-2.52h10.6v-3.87h-10.6v3.87Z"/><path class="cls-2" d="m72.43,45.15c-.69,0-1.25-.56-1.26-1.25v-.89c0-.69.56-1.26,1.25-1.26.67.01,1.26.56,1.26,1.25v.89c0,.69-.56,1.26-1.25,1.26h0Zm-.02-4.43c-.69,0-1.25-.56-1.26-1.25v-.89c0-.69.56-1.26,1.25-1.26.69.04,1.26.56,1.26,1.25v.89c0,.69-.56,1.26-1.25,1.26h0Zm-.02-4.43c-.69,0-1.25-.56-1.26-1.25v-.89c0-.69.56-1.26,1.25-1.26h0c.69,0,1.25.56,1.26,1.25v.89c0,.69-.56,1.26-1.25,1.26h0Zm-.02-4.43c-.69,0-1.25-.56-1.26-1.25v-.89c0-.69.56-1.26,1.25-1.26h0c.69,0,1.25.56,1.26,1.25v.89c0,.69-.56,1.26-1.25,1.26h0Zm-.02-4.43c-.69,0-1.26-.56-1.26-1.25v-.89c0-.69.56-1.26,1.25-1.26.69.04,1.26.56,1.26,1.25v.89c0,.69-.56,1.26-1.25,1.26h0Zm-.02-4.43c-.69,0-1.25-.56-1.26-1.25v-.89c0-.69.56-1.26,1.25-1.26h0c.69,0,1.25.56,1.26,1.25v.89c0,.69-.56,1.26-1.25,1.26h0Zm-.02-4.43c-.69,0-1.25-.56-1.26-1.25v-.89c0-.69.56-1.26,1.25-1.26h0c.69,0,1.25.56,1.26,1.25v.89c0,.69-.56,1.26-1.25,1.26h0Z"/><path class="cls-2" d="m88.04,38.45c-.47,0-.92-.26-1.13-.71l-.38-.8c-.3-.63-.04-1.38.59-1.68.63-.3,1.38-.04,1.68.59l.38.8c.3.63.04,1.38-.59,1.68-.18.08-.36.12-.54.12Zm-1.92-3.99c-.47,0-.92-.26-1.13-.71l-.38-.8c-.3-.63-.04-1.38.59-1.68.63-.3,1.38-.04,1.68.59l.38.8c.3.63.04,1.38-.59,1.68-.18.08-.36.12-.54.12Zm-1.92-3.99c-.47,0-.92-.26-1.13-.71l-.38-.8c-.3-.63-.04-1.38.59-1.68.63-.3,1.38-.04,1.68.59l.38.8c.3.63.04,1.38-.59,1.68-.18.08-.36.12-.54.12Zm-1.92-3.99c-.47,0-.92-.26-1.13-.71l-.38-.8c-.3-.63-.04-1.38.59-1.68.63-.3,1.38-.04,1.68.59l.38.8c.3.63.04,1.38-.59,1.68-.18.08-.36.12-.54.12Zm-1.92-3.99c-.47,0-.92-.26-1.13-.71l-.38-.8c-.3-.63-.04-1.38.59-1.68.63-.3,1.38-.04,1.68.59l.38.8c.3.63.04,1.38-.59,1.68-.18.08-.36.12-.54.12Zm-1.92-3.99c-.47,0-.92-.26-1.13-.71l-.38-.8c-.3-.63-.04-1.38.59-1.68.63-.3,1.38-.04,1.68.59l.38.8c.3.63.04,1.38-.59,1.68-.18.08-.36.12-.54.12Z"/><path class="cls-2" d="m57.05,38.6c-.18,0-.36-.04-.53-.12-.63-.29-.91-1.04-.61-1.67l.37-.8c.29-.63,1.04-.91,1.67-.61.63.29.91,1.04.61,1.67l-.37.8c-.21.46-.67.73-1.14.73Zm1.86-4.02c-.18,0-.36-.04-.53-.12-.63-.29-.91-1.04-.62-1.67l.37-.8c.29-.63,1.04-.91,1.67-.62.63.29.91,1.04.62,1.67l-.37.8c-.21.46-.67.73-1.14.73Zm1.86-4.02c-.18,0-.36-.04-.53-.12-.63-.29-.91-1.04-.61-1.67l.37-.8c.29-.63,1.04-.91,1.67-.61.63.29.91,1.04.61,1.67l-.37.8c-.21.46-.67.73-1.14.73Zm1.86-4.02c-.18,0-.36-.04-.53-.12-.63-.29-.91-1.04-.62-1.67l.37-.8c.29-.63,1.04-.91,1.67-.62.63.29.91,1.04.62,1.67l-.37.8c-.21.46-.67.73-1.14.73Zm1.86-4.02c-.18,0-.36-.04-.53-.12-.63-.29-.91-1.04-.61-1.67l.37-.8c.29-.63,1.04-.91,1.67-.61.63.29.91,1.04.61,1.67l-.37.8c-.21.46-.67.73-1.14.73Zm1.86-4.02c-.18,0-.36-.04-.53-.12-.63-.29-.91-1.04-.62-1.67l.37-.8c.29-.63,1.04-.91,1.67-.62.63.29.91,1.04.62,1.67l-.37.8c-.21.46-.67.73-1.14.73Z"/><path class="cls-1" d="m32.34,19.96c-.69,0-1.26-.56-1.26-1.26v-4.91c0-.69.56-1.26,1.26-1.26s1.26.56,1.26,1.26v4.91c0,.69-.56,1.26-1.26,1.26Z"/><path class="cls-1" d="m37.13,19.96c-.69,0-1.26-.56-1.26-1.26v-4.91c0-.69.56-1.26,1.26-1.26s1.26.56,1.26,1.26v4.91c0,.69-.56,1.26-1.26,1.26Z"/><path class="cls-2" d="m12.52,75.01c-.18,0-.37-.04-.55-.13-.63-.3-.89-1.06-.58-1.68l12.91-26.59c.3-.62,1.06-.88,1.68-.58.63.3.89,1.06.58,1.68l-12.91,26.59c-.22.45-.67.71-1.13.71Z"/></svg>