<?xml version="1.0" encoding="UTF-8"?><svg id="_レイヤー_1" xmlns="http://www.w3.org/2000/svg" viewBox="0 0 92 92"><defs><style>.cls-1{fill:#48453a;}.cls-1,.cls-2{stroke-width:0px;}.cls-2{fill:#ae9373;}</style></defs><path class="cls-1" d="m17.37,88.64h-5.16c-.69,0-1.26-.56-1.26-1.26v-12.24c0-.69.56-1.26,1.26-1.26s1.26.56,1.26,1.26v10.99h2.65v-10.99c0-.69.56-1.26,1.26-1.26s1.26.56,1.26,1.26v12.24c0,.69-.56,1.26-1.26,1.26Z"/><path class="cls-1" d="m77.58,88.64h-5.16c-.69,0-1.26-.56-1.26-1.26v-12.24c0-.69.56-1.26,1.26-1.26s1.26.56,1.26,1.26v10.99h2.65v-10.99c0-.69.56-1.26,1.26-1.26s1.26.56,1.26,1.26v12.24c0,.69-.56,1.26-1.26,1.26Z"/><path class="cls-1" d="m67.85,26.25c-.69,0-1.26-.56-1.26-1.26V8.82c0-1.62-1.32-2.94-2.94-2.94H28.34c-1.62,0-2.94,1.32-2.94,2.94v16.18c0,.69-.56,1.26-1.26,1.26s-1.26-.56-1.26-1.26V8.82c0-3.01,2.45-5.45,5.45-5.45h35.31c3.01,0,5.45,2.45,5.45,5.45v16.18c0,.69-.56,1.26-1.26,1.26Z"/><path class="cls-2" d="m57.98,24.28h-23.96c-.69,0-1.26-.56-1.26-1.26v-5.06c0-3.76,3.06-6.82,6.81-6.82h12.86c3.76,0,6.81,3.06,6.81,6.82v5.06c0,.69-.56,1.26-1.26,1.26Zm-22.71-2.52h21.45v-3.8c0-2.37-1.93-4.3-4.3-4.3h-12.86c-2.37,0-4.3,1.93-4.3,4.3v3.8Z"/><path class="cls-1" d="m79.46,72.23H12.54c-3.72,0-6.75-3.03-6.75-6.75v-12.72c0-.69.56-1.26,1.26-1.26s1.26.56,1.26,1.26v12.72c0,2.34,1.9,4.24,4.24,4.24h66.92c2.34,0,4.24-1.9,4.24-4.24v-12.72c0-.69.56-1.26,1.26-1.26s1.26.56,1.26,1.26v12.72c0,3.72-3.03,6.75-6.75,6.75Z"/><path class="cls-1" d="m76.1,54.01H15.52c-.69,0-1.26-.56-1.26-1.26s.56-1.26,1.26-1.26h60.58c.69,0,1.26.56,1.26,1.26s-.56,1.26-1.26,1.26Z"/><path class="cls-1" d="m84.96,54.01c-.43,0-.84-.22-1.08-.61l-13.81-22.97s-.04-.06-.05-.1c-1.79-3.68-5.59-6.05-9.68-6.05h-28.67c-4.09,0-7.89,2.38-9.68,6.05-.02.03-.03.07-.05.1l-13.81,22.97c-.36.6-1.13.79-1.73.43-.6-.36-.79-1.13-.43-1.73l13.78-22.92c2.22-4.51,6.89-7.42,11.91-7.42h28.67c5.02,0,9.69,2.91,11.91,7.42l13.78,22.92c.36.6.17,1.37-.43,1.73-.2.12-.43.18-.65.18Z"/></svg>