<?xml version="1.0" encoding="UTF-8"?><svg id="_レイヤー_1" xmlns="http://www.w3.org/2000/svg" viewBox="0 0 92 92"><defs><style>.cls-1{stroke:#48453a;}.cls-1,.cls-2{fill:none;stroke-linecap:round;stroke-linejoin:round;stroke-width:2.59px;}.cls-2{stroke:#ae9373;}</style></defs><path class="cls-1" d="m85.72,43.1c2.16-7.36,1.37-15.28-2.2-22.07-7.75-15.52-32.23-14.62-37.52-.66-5.3-13.97-29.77-14.87-37.52.66-3.58,6.81-4.36,14.74-2.18,22.12"/><path class="cls-1" d="m11.85,54.37c.88,1.26,1.86,2.53,2.93,3.8,5.9,7.01,16.45,14.62,28.93,23.46,1.38.97,3.21.97,4.59,0,12.48-8.84,23.03-16.45,28.93-23.46.84-1,1.62-1.99,2.34-2.98"/><path class="cls-2" d="m.74,48.7h27.99l3.46-13.97s8.6,25.35,9.12,24.06,5.51-16.3,5.51-16.3l5.17,6.73,6.86-24.31,6.23,24.31h26.17"/></svg>