<?xml version="1.0" encoding="UTF-8"?><svg id="_レイヤー_1" xmlns="http://www.w3.org/2000/svg" viewBox="0 0 92 92"><defs><style>.cls-1{stroke:#48453a;}.cls-1,.cls-2,.cls-3{fill:none;}.cls-1,.cls-3{stroke-linecap:round;stroke-linejoin:round;stroke-width:2.59px;}.cls-2,.cls-4{stroke-width:0px;}.cls-4{fill:#ae9373;}.cls-3{stroke:#ae9373;}</style></defs><path class="cls-2" d="m18.68,4.42h54.65c4.38,0,7.93,3.55,7.93,7.94v67.28c0,4.38-3.55,7.94-7.93,7.94H18.68c-4.38,0-7.93-3.55-7.93-7.94V12.36c0-4.38,3.55-7.94,7.93-7.94Z"/><path class="cls-1" d="m18.68,5.71h54.65c3.67,0,6.64,2.98,6.64,6.64v67.28c0,3.67-2.97,6.64-6.64,6.64H18.68c-3.67,0-6.64-2.98-6.64-6.64V12.36c0-3.67,2.97-6.64,6.64-6.64Z"/><line class="cls-1" x1="37.17" y1="50.83" x2="66.12" y2="50.83"/><line class="cls-1" x1="37.17" y1="61.89" x2="66.12" y2="61.89"/><line class="cls-1" x1="37.17" y1="73.5" x2="66.12" y2="73.5"/><path class="cls-1" d="m62.93,11.13v5.21H29.07v-5.21"/><circle class="cls-4" cx="27.91" cy="50.83" r="2.03"/><circle class="cls-3" cx="27.91" cy="50.83" r=".74"/><circle class="cls-4" cx="27.92" cy="61.89" r="2.03"/><circle class="cls-3" cx="27.92" cy="61.89" r=".74"/><line class="cls-1" x1="37.17" y1="28.58" x2="66.12" y2="28.58"/><line class="cls-1" x1="37.17" y1="39.64" x2="66.12" y2="39.64"/><circle class="cls-4" cx="27.91" cy="28.58" r="2.03"/><circle class="cls-3" cx="27.91" cy="28.58" r=".74"/><circle class="cls-4" cx="27.92" cy="39.64" r="2.03"/><circle class="cls-3" cx="27.92" cy="39.64" r=".74"/><circle class="cls-4" cx="27.91" cy="73.5" r="2.03"/><circle class="cls-3" cx="27.91" cy="73.5" r=".74"/></svg>