<svg id="_レイヤー_1" xmlns="http://www.w3.org/2000/svg" viewBox="0 0 92 92"><defs><style>.cls-1,.cls-3{fill:#48453a;stroke-width:0}.cls-3{fill:#b096b2}</style></defs><path d="M19.42 5.56h53.16c4.26 0 7.72 3.46 7.72 7.72v65.44c0 4.26-3.45 7.72-7.72 7.72H19.42c-4.26 0-7.72-3.46-7.72-7.72V13.28c0-4.26 3.45-7.72 7.72-7.72z" fill="none" stroke-width="0"/><path class="cls-1" d="M72.58 86.44H19.42c-4.26 0-7.72-3.46-7.72-7.72V13.28c0-4.26 3.46-7.72 7.72-7.72h53.16c4.26 0 7.72 3.46 7.72 7.72v65.44c0 4.26-3.46 7.72-7.72 7.72zM19.42 8.07c-2.87 0-5.2 2.34-5.2 5.21v65.44c0 2.87 2.33 5.21 5.2 5.21h53.16c2.87 0 5.2-2.34 5.2-5.21V13.28c0-2.87-2.33-5.21-5.2-5.21H19.42z"/><path class="cls-1" d="M65.57 51.95H37.41a1.261 1.261 0 010-2.52h28.16a1.261 1.261 0 010 2.52zm0 10.76H37.41a1.261 1.261 0 010-2.52h28.16a1.261 1.261 0 010 2.52zm0 11.3H37.41a1.261 1.261 0 010-2.52h28.16a1.261 1.261 0 010 2.52zm-3.1-55.6H29.53c-.69 0-1.26-.56-1.26-1.26v-5.06a1.261 1.261 0 012.52 0v3.81h30.42v-3.81a1.261 1.261 0 012.52 0v5.06c0 .69-.56 1.26-1.26 1.26z"/><circle class="cls-3" cx="28.41" cy="50.69" r="1.97"/><path class="cls-3" d="M28.41 52.67c-1.09 0-1.97-.89-1.97-1.97s.89-1.97 1.97-1.97 1.97.89 1.97 1.97-.89 1.97-1.97 1.97zm0-2.52c-.3 0-.54.24-.54.54s.24.54.54.54.54-.24.54-.54-.24-.54-.54-.54z"/><circle class="cls-3" cx="28.41" cy="61.45" r="1.97"/><path class="cls-3" d="M28.41 63.43c-1.09 0-1.97-.89-1.97-1.97s.89-1.97 1.97-1.97 1.97.89 1.97 1.97-.89 1.97-1.97 1.97zm0-2.52c-.3 0-.54.24-.54.54s.24.54.54.54.54-.24.54-.54-.24-.54-.54-.54z"/><path class="cls-1" d="M65.57 30.31H37.41a1.261 1.261 0 010-2.52h28.16a1.261 1.261 0 010 2.52zm0 10.76H37.41a1.261 1.261 0 010-2.52h28.16a1.261 1.261 0 010 2.52z"/><circle class="cls-3" cx="28.41" cy="29.06" r="1.97"/><path class="cls-3" d="M28.41 31.03c-1.09 0-1.97-.89-1.97-1.97s.89-1.97 1.97-1.97 1.97.89 1.97 1.97-.89 1.97-1.97 1.97zm0-2.52c-.3 0-.54.24-.54.54s.24.54.54.54.54-.24.54-.54-.24-.54-.54-.54z"/><circle class="cls-3" cx="28.41" cy="39.81" r="1.97"/><path class="cls-3" d="M28.41 41.79c-1.09 0-1.97-.89-1.97-1.97s.89-1.97 1.97-1.97 1.97.89 1.97 1.97-.89 1.97-1.97 1.97zm0-2.52c-.3 0-.54.24-.54.54s.24.54.54.54.54-.24.54-.54-.24-.54-.54-.54z"/><circle class="cls-3" cx="28.41" cy="72.75" r="1.97"/><path class="cls-3" d="M28.41 74.73c-1.09 0-1.97-.89-1.97-1.97s.89-1.97 1.97-1.97 1.97.89 1.97 1.97-.89 1.97-1.97 1.97zm0-2.52c-.3 0-.54.24-.54.54s.24.54.54.54.54-.24.54-.54-.24-.54-.54-.54z"/></svg>