<?xml version="1.0" encoding="UTF-8"?><svg id="_レイヤー_1" xmlns="http://www.w3.org/2000/svg" viewBox="0 0 92 92"><defs><style>.cls-1{fill:#48453a;}.cls-1,.cls-2{stroke-width:0px;}.cls-2{fill:#b096b2;}</style></defs><path class="cls-1" d="m75.63,79.06c-.79.79-1.85,1.24-2.97,1.23-16.1.01-31.54-6.42-42.86-17.86-11.39-11.45-17.76-26.94-17.74-43.09,0-1.96,1.35-3.67,3.26-4.12l13.33-3.09c1.99-.46,4.02.58,4.81,2.45l6.15,14.44c.68,1.59.33,3.43-.9,4.65-.1.1-.19.19-.3.28l-7.09,5.83c4.49,9.16,11.87,16.59,21,21.13l5.79-7.12c.09-.11.19-.22.29-.32,1.21-1.22,3.05-1.57,4.63-.89l14.36,6.19c1.87.81,2.9,2.84,2.44,4.83l-3.07,13.41c-.18.77-.57,1.48-1.13,2.05ZM14.89,17.95c-.37.37-.58.87-.58,1.39-.04,23.53,13.98,44.81,35.62,54.07,7.18,3.06,14.91,4.63,22.72,4.62.51,0,1.01-.21,1.37-.57.26-.26.44-.59.53-.95l3.07-13.41c.22-.92-.26-1.87-1.13-2.25l-14.36-6.19c-.73-.32-1.57-.15-2.13.41-.05.04-.1.09-.14.14l-6.91,8.51-.8-.38c-10.24-4.85-18.47-13.12-23.26-23.39l-.37-.79,8.44-6.95.13-.13c.57-.57.74-1.43.42-2.17l-6.15-14.44c-.37-.87-1.3-1.35-2.22-1.14l-13.33,3.11c-.35.08-.67.26-.93.51Z"/><path class="cls-2" d="m76.94,39.56c-.32-.32-.42-.79-.25-1.21.51-1.7.65-3.5.4-5.26-.77-4.73-3.11-9.06-6.63-12.31-3.26-3.54-7.61-5.88-12.36-6.68-1.78-.26-3.59-.14-5.32.36-.58.22-1.24-.08-1.46-.66-.22-.58.08-1.23.66-1.45,2.02-.63,4.15-.8,6.24-.51,5.32.79,10.2,3.38,13.83,7.34,3.91,3.65,6.47,8.51,7.29,13.79.28,2.08.09,4.2-.55,6.2-.23.58-.88.87-1.47.64-.14-.06-.28-.14-.39-.25h0Z"/><path class="cls-2" d="m68.16,37.91c-.32-.32-.42-.79-.25-1.21.06-.18,1.64-4.64-3.57-9.85s-9.86-3.63-9.91-3.61c-.58.22-1.24-.08-1.46-.66,0,0,0,0,0,0-.22-.58.08-1.24.66-1.46,0,0,0,0,0,0,.24-.09,6.01-2.16,12.31,4.13,6.29,6.29,4.17,12.02,4.07,12.27-.23.58-.88.87-1.47.64-.14-.06-.28-.14-.39-.25h0Z"/></svg>