<svg xmlns="http://www.w3.org/2000/svg" xmlns:xlink="http://www.w3.org/1999/xlink" width="55" height="55" viewBox="0 0 55 55"><defs><clipPath id="a"><rect width="55" height="55" transform="translate(765 2593)" fill="#fff" stroke="#707070" stroke-width="1"/></clipPath></defs><g transform="translate(-765 -2593)" clip-path="url(#a)"><g transform="translate(-683.365 -515.515)"><path d="M71.384,7.823c-4.549.073-6.308-4.252-6.308-4.252s-1.466,6.158-8.065,4.252" transform="translate(1409.491 3113.433)" fill="none" stroke="#48453a" stroke-linecap="round" stroke-linejoin="round" stroke-width="1.5"/><path d="M70.9,8.4a6.8,6.8,0,0,1-13.6,0" transform="translate(1409.591 3115.123)" fill="none" stroke="#48453a" stroke-linecap="round" stroke-linejoin="round" stroke-width="1.5"/><path d="M73.885,21.288V9.673a9.173,9.173,0,1,0-18.345,0V21.288" transform="translate(1408.976 3112.357)" fill="none" stroke="#48453a" stroke-linecap="round" stroke-linejoin="round" stroke-width="1.5"/><path d="M61.5,14.635a1.949,1.949,0,0,0-2.178,1.173c-.632,1.5-4.286,9.97-4.286,9.97a2.94,2.94,0,0,0,0,2.787c.844,1.21,1.967,1.612,4.11,1.43s12.418-1.1,12.418-1.1a3.016,3.016,0,0,0,1.843-2.86c-.18-2.059-2.564-2.2-4.953-2.016s-6.323.66-6.323.66l2.529-5.425" transform="translate(1408.667 3117.296)" fill="none" stroke="#48453a" stroke-linecap="round" stroke-linejoin="round" stroke-width="1.5"/><path d="M64.668,14.817s6.5,3.654,2.2,8.529" transform="translate(1412.172 3117.371)" fill="none" stroke="#48453a" stroke-linecap="round" stroke-linejoin="round" stroke-width="1.5"/><line y2="8.578" transform="translate(1466.98 3149.875)" fill="none" stroke="#48453a" stroke-linecap="round" stroke-linejoin="round" stroke-width="1.5"/><path d="M68.949,23.07c3.97,1.125,7.178,4.456,6.133,9.788-1.264,6.451-7.7,6.049-7.7,6.049" transform="translate(1413.124 3120.261)" fill="none" stroke="#48453a" stroke-linecap="round" stroke-linejoin="round" stroke-width="1.5"/><path d="M67.532,33.631a.353.353,0,0,0,.408,0,14.812,14.812,0,0,0,2.565-2.079,2.846,2.846,0,0,0,.559-3.293c-.687-1.377-2.858-1.3-3.328-.059-.47-1.237-2.641-1.318-3.33.059a2.848,2.848,0,0,0,.559,3.293A14.883,14.883,0,0,0,67.532,33.631Z" transform="translate(1411.975 3121.725)" fill="none" stroke="#ae9373" stroke-linecap="round" stroke-linejoin="round" stroke-width="1.5"/></g></g></svg>