<svg xmlns="http://www.w3.org/2000/svg" xmlns:xlink="http://www.w3.org/1999/xlink" width="38" height="38" viewBox="0 0 38 38"><defs><clipPath id="a"><rect width="38" height="38" transform="translate(-13449 -4131)" fill="#fff" stroke="#707070" stroke-width="1"/></clipPath></defs><g transform="translate(13449 4131)" clip-path="url(#a)"><g transform="translate(-13544.435 -4362.122)"><path d="M97.435,257.8c2.4,5.8,21.672,5.905,24.7.327" transform="translate(0 4.913)" fill="none" stroke="#48453a" stroke-linecap="round" stroke-linejoin="round" stroke-width="1"/><path d="M121.855,258.648l-8.214-15.638h-8.014l-7.988,15.638" transform="translate(0.041 1.968)" fill="none" stroke="#48453a" stroke-linecap="round" stroke-linejoin="round" stroke-width="1"/><path d="M105.076,241.959v-2.175h6.154v2.175" transform="translate(1.521 1.326)" fill="none" stroke="#48453a" stroke-linecap="round" stroke-linejoin="round" stroke-width="1"/><path d="M111.5,233.946h10.377v2.03" transform="translate(2.8 0.164)" fill="none" stroke="#48453a" stroke-linecap="round" stroke-linejoin="round" stroke-width="1"/><rect width="5.218" height="2.538" transform="translate(107.065 233.122)" fill="none" stroke="#48453a" stroke-linecap="round" stroke-linejoin="round" stroke-width="1"/><g transform="translate(118.182 238.379)"><line x2="0.042" y2="11.559" transform="translate(6.443)" fill="#fff" stroke="#ae9373" stroke-linecap="round" stroke-linejoin="round" stroke-width="1" stroke-dasharray="0.352 1.409 0.352 1.409 0.352 1.409"/><line x2="4.253" y2="8.846" transform="translate(8.724)" fill="#fff" stroke="#ae9373" stroke-linecap="round" stroke-linejoin="round" stroke-width="1" stroke-dasharray="0.352 1.409 0.352 1.409 0.352 1.409"/><line x1="4.204" y2="9.105" fill="#fff" stroke="#ae9373" stroke-linecap="round" stroke-linejoin="round" stroke-width="1" stroke-dasharray="0.352 1.409 0.352 1.409 0.352 1.409"/></g><line y2="1.953" transform="translate(108.722 237.328)" fill="#fff" stroke="#48453a" stroke-linecap="round" stroke-linejoin="round" stroke-width="1"/><line y2="1.953" transform="translate(110.626 237.328)" fill="#fff" stroke="#48453a" stroke-linecap="round" stroke-linejoin="round" stroke-width="1"/><line x1="5.136" y2="10.571" transform="translate(100.837 250.594)" fill="#fff" stroke="#ae9373" stroke-linecap="round" stroke-linejoin="round" stroke-width="1"/></g></g></svg>