<svg xmlns="http://www.w3.org/2000/svg" xmlns:xlink="http://www.w3.org/1999/xlink" width="38" height="38" viewBox="0 0 38 38"><defs><clipPath id="a"><rect width="38" height="38" transform="translate(-13591 -4217)" fill="#fff" stroke="#707070" stroke-width="1"/></clipPath></defs><g transform="translate(13591 4217)" clip-path="url(#a)"><g transform="translate(-13633.129 -4359.075)"><g transform="translate(47.129 145.075)" fill="none" stroke="#48453a" stroke-linecap="round" stroke-linejoin="round" stroke-width="1"><rect width="27.28" height="32.151" rx="3.069" stroke="none"/><rect x="0.5" y="0.5" width="26.28" height="31.151" rx="2.569" fill="none"/></g><line x2="11.2" transform="translate(57.351 163.016)" fill="none" stroke="#48453a" stroke-linecap="round" stroke-linejoin="round" stroke-width="1"/><line x2="11.2" transform="translate(57.351 167.292)" fill="none" stroke="#48453a" stroke-linecap="round" stroke-linejoin="round" stroke-width="1"/><line x2="11.2" transform="translate(57.351 171.784)" fill="none" stroke="#48453a" stroke-linecap="round" stroke-linejoin="round" stroke-width="1"/><path d="M67.946,147.9v2.013h-13.1V147.9" transform="translate(-0.628 -0.23)" fill="none" stroke="#48453a" stroke-linecap="round" stroke-linejoin="round" stroke-width="1"/><g transform="translate(52.987 162.231)" fill="#ae9373" stroke="#ae9373" stroke-linecap="round" stroke-linejoin="round" stroke-width="1"><circle cx="0.785" cy="0.785" r="0.785" stroke="none"/><circle cx="0.785" cy="0.785" r="0.285" fill="none"/></g><g transform="translate(52.988 166.507)" fill="#ae9373" stroke="#ae9373" stroke-linecap="round" stroke-linejoin="round" stroke-width="1"><circle cx="0.785" cy="0.785" r="0.785" stroke="none"/><circle cx="0.785" cy="0.785" r="0.285" fill="none"/></g><line x2="11.2" transform="translate(57.351 154.416)" fill="none" stroke="#48453a" stroke-linecap="round" stroke-linejoin="round" stroke-width="1"/><line x2="11.2" transform="translate(57.351 158.692)" fill="none" stroke="#48453a" stroke-linecap="round" stroke-linejoin="round" stroke-width="1"/><g transform="translate(52.987 153.631)" fill="#ae9373" stroke="#ae9373" stroke-linecap="round" stroke-linejoin="round" stroke-width="1"><circle cx="0.785" cy="0.785" r="0.785" stroke="none"/><circle cx="0.785" cy="0.785" r="0.285" fill="none"/></g><g transform="translate(52.988 157.907)" fill="#ae9373" stroke="#ae9373" stroke-linecap="round" stroke-linejoin="round" stroke-width="1"><circle cx="0.785" cy="0.785" r="0.785" stroke="none"/><circle cx="0.785" cy="0.785" r="0.285" fill="none"/></g><g transform="translate(52.987 170.999)" fill="#ae9373" stroke="#ae9373" stroke-linecap="round" stroke-linejoin="round" stroke-width="1"><circle cx="0.785" cy="0.785" r="0.785" stroke="none"/><circle cx="0.785" cy="0.785" r="0.285" fill="none"/></g></g></g></svg>