<svg xmlns="http://www.w3.org/2000/svg" xmlns:xlink="http://www.w3.org/1999/xlink" width="38" height="38" viewBox="0 0 38 38"><defs><clipPath id="a"><rect width="38" height="38" transform="translate(-13589 -4150)" fill="#fff" stroke="#707070" stroke-width="1"/></clipPath></defs><g transform="translate(13589 4150)" clip-path="url(#a)"><g transform="translate(-13633.276 -4337.291)"><g transform="translate(73.674 192.583) rotate(45)" fill="none" stroke="#48453a" stroke-linecap="round" stroke-linejoin="round" stroke-width="1"><path d="M1.132,0H2.975A1.132,1.132,0,0,1,4.107,1.132V3.1a0,0,0,0,1,0,0H0a0,0,0,0,1,0,0V1.132A1.132,1.132,0,0,1,1.132,0Z" stroke="none"/><path d="M1.132.5H2.975a.632.632,0,0,1,.632.632V2.6a0,0,0,0,1,0,0H.5a0,0,0,0,1,0,0V1.132A.632.632,0,0,1,1.132.5Z" fill="none"/></g><line y1="4.829" x2="4.829" transform="translate(76.042 188.291)" fill="none" stroke="#ae9373" stroke-linecap="round" stroke-linejoin="round" stroke-width="1"/><path d="M51.505,204.947l2.434,2.434,13.677-13.676a1.148,1.148,0,0,1,1.135-.289l2.794.821,2.628,2.627.821,2.795a1.148,1.148,0,0,1-.289,1.135L61.029,214.471l2.4,2.4" transform="translate(0.423 0.345)" fill="none" stroke="#48453a" stroke-linecap="round" stroke-linejoin="round" stroke-width="1"/><path d="M58.791,213.653l-6.138,6.075.57.569a1.278,1.278,0,0,1,.2,1.6,1.241,1.241,0,0,1-1.911.194l-5.839-5.838a1.278,1.278,0,0,1-.2-1.6,1.241,1.241,0,0,1,1.911-.194l.609.609,6.14-6.075" transform="translate(0 1.406)" fill="none" stroke="#48453a" stroke-linecap="round" stroke-linejoin="round" stroke-width="1"/><g transform="translate(58.468 197.276)"><line x2="2.374" y2="2.474" transform="translate(0 8.847)" fill="none" stroke="#ae9373" stroke-linecap="round" stroke-linejoin="round" stroke-width="1"/><line x2="1.778" y2="1.853" transform="translate(1.844 7.078)" fill="none" stroke="#ae9373" stroke-linecap="round" stroke-linejoin="round" stroke-width="1"/><line x2="1.778" y2="1.853" transform="translate(3.688 5.308)" fill="none" stroke="#ae9373" stroke-linecap="round" stroke-linejoin="round" stroke-width="1"/><line x2="2.374" y2="2.474" transform="translate(5.532 3.539)" fill="none" stroke="#ae9373" stroke-linecap="round" stroke-linejoin="round" stroke-width="1"/><line x2="1.778" y2="1.853" transform="translate(7.376 1.769)" fill="none" stroke="#ae9373" stroke-linecap="round" stroke-linejoin="round" stroke-width="1"/><line x2="1.778" y2="1.853" transform="translate(9.22)" fill="none" stroke="#ae9373" stroke-linecap="round" stroke-linejoin="round" stroke-width="1"/></g><line x2="2.627" y2="2.627" transform="translate(47.992 216.475)" fill="none" stroke="#48453a" stroke-linecap="round" stroke-linejoin="round" stroke-width="1"/><line x2="7.089" y2="7.089" transform="translate(54.362 207.727)" fill="none" stroke="#48453a" stroke-linecap="round" stroke-linejoin="round" stroke-width="1"/></g></g></svg>