<svg xmlns="http://www.w3.org/2000/svg" xmlns:xlink="http://www.w3.org/1999/xlink" width="38" height="38" viewBox="0 0 38 38"><defs><clipPath id="a"><rect width="38" height="38" transform="translate(-13595 -3898)" fill="#fff" stroke="#707070" stroke-width="1"/></clipPath></defs><g transform="translate(13595 3898)" clip-path="url(#a)"><g transform="translate(-13637.804 -4210.768)"><path d="M72.835,340.086a17.574,17.574,0,0,1-.054,2.094c-.2,2.917-1.161,4.918-4.883,4.807a28.214,28.214,0,0,1-11.63-3.86,6.686,6.686,0,0,1-2.974-3.9c-.42-2.087,1.036-4.434,2.457-5.84a38.541,38.541,0,0,0,2.93-2.995c.927-1.142,1.061-2.7.6-4.591-.841-3.469,1.656-5.509,5.15-5.953,2.4-.306,3,.178,5.452-.856,1.292-.544,2.755-1.219,3.319-.345.516.8-.142,1.76-.69,2.2a7.32,7.32,0,0,1-3,1.551,15.167,15.167,0,0,1-3.879.3c-1.876-.069-3.038.625-3.211,1.659-.259,1.555,1.013,2.415,2.133,2.762a24.138,24.138,0,0,0,3.319.449,4.5,4.5,0,0,1,3.232,2.845,20.739,20.739,0,0,1,1.364,5.289" transform="translate(0.059 0.02)" fill="none" stroke="#48453a" stroke-linecap="round" stroke-linejoin="round" stroke-width="1"/><path d="M53.883,340.678c-4.948-1.076-5.535-6.826-3.667-10.561.867-1.736,2.279-3.646,2.183-7.241-.087-3.247.475-5.323,1.653-6.408a2.238,2.238,0,0,1,3.516.318" transform="translate(0.028)" fill="none" stroke="#48453a" stroke-linecap="round" stroke-linejoin="round" stroke-width="1"/><path d="M59.374,326.316c-3.886-.525-3.984-3.783-3.308-5.54,1-2.593,4.455-4.166,7.506-3.184L64.5,318" transform="translate(0.08 0.012)" fill="none" stroke="#48453a" stroke-linecap="round" stroke-linejoin="round" stroke-width="1"/><path d="M67.027,324.457c1.62,1.317,2.3,2.578,3.495,5.015" transform="translate(0.17 0.07)" fill="none" stroke="#48453a" stroke-linecap="round" stroke-linejoin="round" stroke-width="1"/><path d="M55.528,342.4c1.122,5.236-1.3,4.886-1.809,4.748-1.384-.374-2.461-2.007-2.6-5.715" transform="translate(0.043 0.206)" fill="none" stroke="#48453a" stroke-linecap="round" stroke-linejoin="round" stroke-width="1"/><path d="M52.6,319.641s-6.036-1.012-6.393,1.257c-.413,2.637,4.35,2.378,4.35,2.378" transform="translate(0.003 0.029)" fill="none" stroke="#48453a" stroke-linecap="round" stroke-linejoin="round" stroke-width="1"/><path d="M45.822,323.878c-.413,2.637,6.127,2.535,6.127,2.535" transform="translate(0 0.065)" fill="none" stroke="#48453a" stroke-linecap="round" stroke-linejoin="round" stroke-width="1"/><path d="M78.323,337.923h-8.35l-.862-4.439s-2.146,8.06-2.275,7.648-1.376-5.181-1.376-5.181l-1.288,2.137-1.711-7.728-1.555,7.728H56.86" transform="translate(0.089 0.117)" fill="none" stroke="#ae9373" stroke-linecap="round" stroke-linejoin="round" stroke-width="1"/></g></g></svg>