<svg xmlns="http://www.w3.org/2000/svg" xmlns:xlink="http://www.w3.org/1999/xlink" width="38" height="38" viewBox="0 0 38 38"><defs><clipPath id="a"><rect width="38" height="38" transform="translate(-13595 -3957)" fill="#fff" stroke="#707070" stroke-width="1"/></clipPath></defs><g transform="translate(13595 3957)" clip-path="url(#a)"><g transform="translate(-13637.071 -4228.207)"><g transform="translate(53.785 278.6) rotate(0.106)" fill="none" stroke="#48453a" stroke-linecap="round" stroke-linejoin="round" stroke-width="1"><rect width="23.286" height="28.84" rx="1.136" stroke="none"/><rect x="0.5" y="0.5" width="22.286" height="27.84" rx="0.636" fill="none"/></g><path d="M53.735,304.932l-1.739.3a1.17,1.17,0,0,1-1.353-.952l-4.554-26.107a1.17,1.17,0,0,1,.952-1.353l20.635-3.6a1.17,1.17,0,0,1,1.353.952l.725,4.153" transform="translate(0 0)" fill="none" stroke="#48453a" stroke-linecap="round" stroke-linejoin="round" stroke-width="1"/><g transform="translate(59.131 283.302)"><path d="M71.264,287.755a9.238,9.238,0,0,0-12.5-.023" transform="translate(-58.752 -282.94)" fill="none" stroke="#ae9373" stroke-linecap="round" stroke-linejoin="round" stroke-width="1"/><path d="M71.258,290.983a9.236,9.236,0,0,0-12.5-.024" transform="translate(-58.752 -282.844)" fill="none" stroke="#ae9373" stroke-linecap="round" stroke-linejoin="round" stroke-width="1"/><path d="M71.252,294.21a9.237,9.237,0,0,0-12.5-.023" transform="translate(-58.752 -282.748)" fill="none" stroke="#ae9373" stroke-linecap="round" stroke-linejoin="round" stroke-width="1"/><line x1="0.024" y2="15.433" transform="translate(6.247)" fill="none" stroke="#ae9373" stroke-linecap="round" stroke-linejoin="round" stroke-width="1"/><g transform="translate(-58.742 -282.626)" fill="none" stroke-linecap="round" stroke-linejoin="round"><path d="M70.868,298.7c0,2.13-2.642,3.851-5.892,3.844s-5.882-1.736-5.878-3.866,2.641-2.861,5.891-2.855S70.872,296.57,70.868,298.7Z" stroke="none"/><path d="M 64.94818878173828 296.8219604492188 C 63.35152435302734 296.8219604492188 62.05656433105469 297.0132141113281 61.20330047607422 297.3750915527344 C 60.22505950927734 297.7899475097656 60.09874725341797 298.2896728515625 60.09799957275391 298.6781921386719 C 60.09665679931641 299.5979614257812 60.89229583740234 300.2586975097656 61.36669158935547 300.5706787109375 C 62.30229949951172 301.1859436035156 63.61869812011719 301.5403137207031 64.97905731201172 301.5428771972656 L 64.99396514892578 301.5429077148438 C 66.35005187988281 301.5429077148438 67.66360473632812 301.1923217773438 68.59784698486328 300.5810546875 C 69.07155609130859 300.2711181640625 69.86653137207031 299.6141357421875 69.86830139160156 298.6964416503906 C 69.86905670166016 298.3057250976562 69.74351501464844 297.8034973144531 68.7578125 297.3845825195312 C 67.89900970458984 297.0195922851562 66.59504699707031 296.8250427246094 64.98662567138672 296.8219909667969 L 64.94818878173828 296.8219604492188 M 64.94818878173828 295.8219604492188 C 64.96185302734375 295.8219604492188 64.97512817382812 295.8219604492188 64.98881530761719 295.8219909667969 C 68.23905944824219 295.8281860351562 70.87242126464844 296.5696716308594 70.86830139160156 298.6983947753906 C 70.86418151855469 300.8242797851562 68.23600769042969 302.5428771972656 64.99396514892578 302.5428771972656 C 64.98802185058594 302.5428771972656 64.98240661621094 302.5428771972656 64.97645568847656 302.5428771972656 C 61.72621154785156 302.5367431640625 59.09490966796875 300.8065185546875 59.09799957275391 298.6767578125 C 59.10210418701172 296.5570373535156 61.71681213378906 295.8219604492188 64.94818878173828 295.8219604492188 Z" stroke="none" fill="#ae9373"/></g></g></g></g></svg>