<svg xmlns="http://www.w3.org/2000/svg" xmlns:xlink="http://www.w3.org/1999/xlink" width="38" height="38" viewBox="0 0 38 38"><defs><clipPath id="a"><rect width="38" height="38" transform="translate(-13592 -3836)" fill="#fff" stroke="#707070" stroke-width="1"/></clipPath></defs><g transform="translate(13592 3836)" clip-path="url(#a)"><g transform="translate(-13635.261 -4191.798)"><circle cx="6.885" cy="6.885" r="6.885" transform="translate(45.26 371.127)" fill="none" stroke="#ae9373" stroke-linecap="round" stroke-linejoin="round" stroke-width="1"/><circle cx="6.885" cy="6.885" r="6.885" transform="translate(66.061 371.127)" fill="none" stroke="#ae9373" stroke-linecap="round" stroke-linejoin="round" stroke-width="1"/><path d="M52.394,377.807l5-8.582h9.689l-4.608,8.582Z" transform="translate(0.268 0.204)" fill="none" stroke="#48453a" stroke-linecap="round" stroke-linejoin="round" stroke-width="1"/><path d="M53.131,365a6.9,6.9,0,0,0,2.142,1.123,28.751,28.751,0,0,0,5.2,0" transform="translate(0.296 0.045)" fill="none" stroke="#48453a" stroke-linecap="round" stroke-linejoin="round" stroke-width="1"/><path d="M64.31,363.928s1.813-.564,2.731.66-.408,4.841-.408,4.841" transform="translate(0.716 0)" fill="none" stroke="#48453a" stroke-linecap="round" stroke-linejoin="round" stroke-width="1"/><line x2="4.859" y2="8.356" transform="translate(56.825 367.836)" fill="none" stroke="#48453a" stroke-linecap="round" stroke-linejoin="round" stroke-width="1"/><line x1="5.596" y1="8.582" transform="translate(67.349 369.429)" fill="none" stroke="#48453a" stroke-linecap="round" stroke-linejoin="round" stroke-width="1"/></g></g></svg>