<svg xmlns="http://www.w3.org/2000/svg" xmlns:xlink="http://www.w3.org/1999/xlink" width="38" height="38" viewBox="0 0 38 38"><defs><clipPath id="a"><rect width="38" height="38" transform="translate(-13347 -4130)" fill="#fff" stroke="#707070" stroke-width="1"/></clipPath></defs><g transform="translate(13347 4130)" clip-path="url(#a)"><g transform="translate(-13490.353 -4358.953)"><path d="M155.012,242.137a4.6,4.6,0,0,1-.03-1.805" transform="translate(0.18 0.357)" fill="none" stroke="#48453a" stroke-linecap="round" stroke-linejoin="round" stroke-width="1"/><path d="M168.652,240.4a4.6,4.6,0,0,1,.064.761,4.547,4.547,0,0,1-.1.97" transform="translate(0.741 0.359)" fill="none" stroke="#48453a" stroke-linecap="round" stroke-linejoin="round" stroke-width="1"/><g transform="translate(154.337 231.627)"><path d="M169.067,240.126H155.181a1.1,1.1,0,0,1-.994-.89l.161-6.137a.839.839,0,0,1,.743-.99l6.561-.46a5.028,5.028,0,0,1,.937,0l6.56.46a.839.839,0,0,1,.744.991l.16,6.141A1.091,1.091,0,0,1,169.067,240.126Z" transform="translate(-154.187 -231.627)" fill="none" stroke="#ae9373" stroke-linecap="round" stroke-linejoin="round" stroke-width="1"/></g><path d="M173.521,263.5c-.814-4.817-2.793-10.4-6.783-13" transform="translate(0.665 0.773)" fill="none" stroke="#ae9373" stroke-linecap="round" stroke-linejoin="round" stroke-width="1"/><path d="M157.193,250.573c-3.915,2.628-5.866,8.157-6.673,12.929" transform="translate(0 0.776)" fill="none" stroke="#ae9373" stroke-linecap="round" stroke-linejoin="round" stroke-width="1"/><path d="M165.281,251.11a3.947,3.947,0,0,1-6.531.046" transform="translate(0.337 0.798)" fill="none" stroke="#48453a" stroke-linecap="round" stroke-linejoin="round" stroke-width="1"/><rect width="9.497" height="5.988" rx="0.511" transform="translate(157.608 243.459)" fill="none" stroke="#48453a" stroke-linecap="round" stroke-linejoin="round" stroke-width="1"/><line x1="2.609" y2="0.932" transform="translate(167.098 244.219)" fill="#fff" stroke="#48453a" stroke-linecap="round" stroke-linejoin="round" stroke-width="1"/><line x1="2.609" y1="0.932" transform="translate(154.998 244.212)" fill="#fff" stroke="#48453a" stroke-linecap="round" stroke-linejoin="round" stroke-width="1"/><line x1="2.609" y2="0.932" transform="translate(167.098 247.362)" fill="#fff" stroke="#48453a" stroke-linecap="round" stroke-linejoin="round" stroke-width="1"/><line x1="2.609" y1="0.932" transform="translate(154.998 247.355)" fill="#fff" stroke="#48453a" stroke-linecap="round" stroke-linejoin="round" stroke-width="1"/></g></g></svg>