<svg xmlns="http://www.w3.org/2000/svg" xmlns:xlink="http://www.w3.org/1999/xlink" width="38" height="38" viewBox="0 0 38 38"><defs><clipPath id="a"><rect width="38" height="38" transform="translate(-13316 -4218)" fill="#fff" stroke="#707070" stroke-width="1"/></clipPath></defs><g transform="translate(13316 4218)" clip-path="url(#a)"><g transform="translate(-13459.252 -4405.096)"><path d="M1.176,0H19.564A1.176,1.176,0,0,1,20.74,1.176V17.487a5.5,5.5,0,0,1-5.5,5.5H5.5a5.5,5.5,0,0,1-5.5-5.5V1.176A1.176,1.176,0,0,1,1.176,0Z" transform="translate(152.252 194.325)" fill="none" stroke="#48453a" stroke-linecap="round" stroke-linejoin="round" stroke-width="1"/><path d="M164.748,217.739v1.646h-4.879v-1.646" transform="translate(0.313 1.217)" fill="none" stroke="#48453a" stroke-linecap="round" stroke-linejoin="round" stroke-width="1"/><line y2="2.413" transform="translate(162.622 220.759)" fill="none" stroke="#48453a" stroke-linecap="round" stroke-linejoin="round" stroke-width="1"/><path d="M157.208,192.84a5.233,5.233,0,0,1,10.421,0" transform="translate(0.203 0)" fill="none" stroke="#48453a" stroke-linecap="round" stroke-linejoin="round" stroke-width="1"/><path d="M159.491,192.755a2.846,2.846,0,0,1,5.666,0" transform="translate(0.297 0.085)" fill="none" stroke="#48453a" stroke-linecap="round" stroke-linejoin="round" stroke-width="1"/><g transform="translate(154.817 205.052)"><path d="M154.716,204.894a14.264,14.264,0,0,1,7.77.057,14.234,14.234,0,0,0,7.83.038l.008.129v6.153a3.194,3.194,0,0,1-3.332,3.034h-8.944a3.194,3.194,0,0,1-3.332-3.034Z" transform="translate(-154.716 -204.383)" fill="none" stroke="#ae9373" stroke-linecap="round" stroke-linejoin="round" stroke-width="1"/></g><line x2="3.015" transform="translate(154.818 197.692)" fill="none" stroke="#48453a" stroke-linecap="round" stroke-linejoin="round" stroke-width="1"/><line x2="2.18" transform="translate(154.818 200.028)" fill="none" stroke="#48453a" stroke-linecap="round" stroke-linejoin="round" stroke-width="1"/><line x2="2.18" transform="translate(154.818 202.364)" fill="none" stroke="#48453a" stroke-linecap="round" stroke-linejoin="round" stroke-width="1"/></g></g></svg>