<svg xmlns="http://www.w3.org/2000/svg" xmlns:xlink="http://www.w3.org/1999/xlink" width="38" height="38" viewBox="0 0 38 38"><defs><clipPath id="a"><rect width="38" height="38" transform="translate(-13591 -3730)" fill="#fff" stroke="#707070" stroke-width="1"/></clipPath></defs><g transform="translate(13591 3730)" clip-path="url(#a)"><g transform="translate(-13635.396 -4170.834)"><path d="M78.628,458.588a11.421,11.421,0,0,0-.85-8.534c-3-6-12.467-5.652-14.516-.255-2.049-5.4-11.518-5.748-14.517.255a11.416,11.416,0,0,0-.843,8.552" transform="translate(0.136)" fill="none" stroke="#48453a" stroke-linecap="round" stroke-linejoin="round" stroke-width="1"/><path d="M49.837,461.543q.513.733,1.132,1.468c2.283,2.71,6.363,5.653,11.192,9.07a1.539,1.539,0,0,0,1.775,0c4.83-3.417,8.909-6.361,11.192-9.07q.486-.578.907-1.154" transform="translate(0.348 1.402)" fill="none" stroke="#48453a" stroke-linecap="round" stroke-linejoin="round" stroke-width="1"/><path d="M45.889,460.272H56.717l1.337-5.4s3.328,9.8,3.528,9.3,2.133-6.3,2.133-6.3l2,2.6,2.653-9.4,2.412,9.4H80.905" transform="translate(0 0.479)" fill="none" stroke="#ae9373" stroke-linecap="round" stroke-linejoin="round" stroke-width="1"/></g></g></svg>