<svg xmlns="http://www.w3.org/2000/svg" xmlns:xlink="http://www.w3.org/1999/xlink" width="38" height="38" viewBox="0 0 38 38"><defs><clipPath id="a"><rect width="38" height="38" transform="translate(-13327 -4015)" fill="#fff" stroke="#707070" stroke-width="1"/></clipPath></defs><g transform="translate(13327 4015)" clip-path="url(#a)"><g transform="translate(-13472.166 -4326.721)"><line x1="8.764" y1="0.001" transform="translate(160.531 338.666)" fill="none" stroke="#48453a" stroke-linecap="round" stroke-linejoin="round" stroke-width="1"/><path d="M150.154,338.262h-2.918a3.569,3.569,0,0,1,.3-5.358c5.912-3.9,8.709-7.449,12.878-8.685,3.851-1.141,12.535-1.911,16.068,0a10.6,10.6,0,0,1,4.488,5.935c.441,1.558.723,6.515,0,7.094a14.319,14.319,0,0,1-1.872,1.18" transform="translate(0 0.403)" fill="none" stroke="#48453a" stroke-linecap="round" stroke-linejoin="round" stroke-width="1"/><path d="M155.75,330.27a.273.273,0,0,1-.18-.48,15.751,15.751,0,0,1,5.014-3.053c3.558-1.108,10.486-1.42,13.308-.229a4.243,4.243,0,0,1,2.242,3.048.583.583,0,0,1-.569.714Z" transform="translate(1.125 0.729)" fill="none" stroke="#48453a" stroke-linecap="round" stroke-linejoin="round" stroke-width="1"/><line y2="3.804" transform="translate(167.01 326.87)" fill="none" stroke="#48453a" stroke-linecap="round" stroke-linejoin="round" stroke-width="1"/><circle cx="2.823" cy="2.823" r="2.823" transform="translate(152.376 335.846)" fill="none" stroke="#ae9373" stroke-linecap="round" stroke-linejoin="round" stroke-width="1"/><circle cx="2.823" cy="2.823" r="2.823" transform="translate(171.629 335.846)" fill="none" stroke="#ae9373" stroke-linecap="round" stroke-linejoin="round" stroke-width="1"/><path d="M163.719,321.9v-2.176h3.941v2.013" transform="translate(2.122 0)" fill="none" stroke="#ae9373" stroke-linecap="round" stroke-linejoin="round" stroke-width="1"/></g></g></svg>