<?xml version="1.0" encoding="UTF-8"?><svg id="_レイヤー_1" xmlns="http://www.w3.org/2000/svg" viewBox="0 0 16 16"><defs><style>.cls-1{fill:#ae9373;stroke-width:0px;}</style></defs><path class="cls-1" d="m13.67,9.02v6.53c0,.25-.2.44-.44.44H.44c-.25,0-.44-.2-.44-.44V2.77c0-.25.2-.44.44-.44h6.39c.25,0,.44.2.44.44s-.2.44-.44.44H.89v11.9h11.9v-6.09c0-.25.2-.44.44-.44s.44.2.44.44ZM15.56,0h-5.81c-.25,0-.44.2-.44.44s.2.44.44.44h4.74L5.94,9.43c-.17.17-.17.45,0,.63.08.08.2.13.31.13s.23-.05.31-.13L15.11,1.52v4.74c0,.25.2.44.44.44s.44-.2.44-.44V.44c0-.25-.2-.44-.44-.44Z"/></svg>