<?xml version="1.0" encoding="UTF-8"?><svg id="_レイヤー_1" xmlns="http://www.w3.org/2000/svg" viewBox="0 0 16 16"><defs><style>.cls-1{fill:#b096b2;stroke-width:0px;}</style></defs><path class="cls-1" d="m3.87,8.19c-.24-.24-.23-.63.01-.87.24-.23.62-.23.86,0l2.64,2.64V1.35c0-.34.28-.62.62-.62s.62.28.62.62v8.61l2.64-2.64c.24-.24.63-.23.87.01.23.24.23.62,0,.86l-3.69,3.69c-.12.11-.27.18-.43.18-.16,0-.32-.06-.44-.18l-3.69-3.69Zm11.51.92c-.34,0-.62.28-.62.62v4.31H1.23v-4.31c0-.34-.28-.62-.62-.62s-.62.28-.62.62v4.92c0,.34.28.62.62.62h14.77c.34,0,.62-.28.62-.62v-4.92c0-.34-.28-.62-.62-.62Z"/></svg>