<?xml version="1.0" encoding="UTF-8"?><svg id="_レイヤー_1" xmlns="http://www.w3.org/2000/svg" viewBox="0 0 16 16"><defs><style>.cls-1{fill:#b096b2;stroke-width:0px;}</style></defs><path class="cls-1" d="m14.13,14H1.87c-1.03,0-1.87-.85-1.87-1.89V3.89c0-1.04.84-1.89,1.87-1.89h12.26c1.03,0,1.87.85,1.87,1.89v8.21c0,1.04-.84,1.89-1.87,1.89ZM1.87,2.53c-.74,0-1.35.61-1.35,1.37v8.21c0,.75.61,1.37,1.35,1.37h12.26c.74,0,1.35-.61,1.35-1.37V3.89c0-.75-.61-1.37-1.35-1.37H1.87Z"/><path class="cls-1" d="m7.98,9.54c-.06,0-.12-.02-.17-.06L1.79,4.17c-.11-.1-.12-.26-.03-.37.09-.11.26-.12.37-.03l5.86,5.16,5.89-5.16c.11-.09.27-.08.37.03.09.11.08.28-.03.37l-6.06,5.3s-.11.06-.17.06Z"/><path class="cls-1" d="m13.97,12.16c-.06,0-.12-.02-.17-.06l-3.11-2.63c-.11-.09-.12-.26-.03-.37.09-.11.25-.13.37-.03l3.11,2.63c.11.09.12.26.03.37-.05.06-.13.09-.2.09Z"/><path class="cls-1" d="m2.05,12.16c-.07,0-.15-.03-.2-.09-.09-.11-.08-.28.03-.37l3.11-2.63c.11-.09.27-.08.37.03.09.11.08.28-.03.37l-3.11,2.63s-.11.06-.17.06Z"/></svg>