<?xml version="1.0" encoding="UTF-8"?><svg id="_レイヤー_1" xmlns="http://www.w3.org/2000/svg" viewBox="0 0 16 16"><defs><style>.cls-1{fill:none;}.cls-1,.cls-2{stroke-width:0px;}.cls-2{fill:#fff;}</style></defs><rect class="cls-1" width="16" height="16" rx="3.56" ry="3.56"/><path class="cls-2" d="m12.44,16H3.56c-1.96,0-3.56-1.6-3.56-3.56V3.56C0,1.6,1.6,0,3.56,0h8.89c1.96,0,3.56,1.6,3.56,3.56v8.89c0,1.96-1.6,3.56-3.56,3.56ZM3.56.89C2.08.89.89,2.08.89,3.56v8.89c0,1.47,1.2,2.67,2.67,2.67h8.89c1.47,0,2.67-1.2,2.67-2.67V3.56c0-1.47-1.2-2.67-2.67-2.67H3.56Z"/><circle class="cls-2" cx="12.63" cy="3.66" r=".84"/><circle class="cls-1" cx="8" cy="8" r="3.56"/><path class="cls-2" d="m8,11.56c-1.96,0-3.56-1.6-3.56-3.56s1.6-3.56,3.56-3.56,3.56,1.6,3.56,3.56-1.6,3.56-3.56,3.56Zm0-6.22c-1.47,0-2.67,1.2-2.67,2.67s1.2,2.67,2.67,2.67,2.67-1.2,2.67-2.67-1.2-2.67-2.67-2.67Z"/></svg>