<?xml version="1.0" encoding="UTF-8"?><svg id="_レイヤー_1" xmlns="http://www.w3.org/2000/svg" viewBox="0 0 16 16"><defs><style>.cls-1{fill:#ae9373;stroke-width:0px;}</style></defs><path class="cls-1" d="m8,2.76h.03c1.77-.06,3.49.62,4.74,1.88,1.54,1.68,1.54,4.26,0,5.95-1.25,1.26-2.96,1.94-4.74,1.88h-.07c-.6,0-1.19-.07-1.78-.21l-2,1.29c-.12.08-.29.04-.37-.08-.04-.07-.05-.16-.03-.23l.61-1.7c-1.43-.79-2.32-2.3-2.33-3.93h0c0-1.1.4-2.17,1.16-2.97,1.25-1.26,2.96-1.94,4.74-1.88h.03Zm.03,9.19c1.62.06,3.2-.56,4.34-1.71.66-.71,1.02-1.65,1.02-2.62h0c0-.97-.36-1.91-1.02-2.62-1.15-1.15-2.72-1.77-4.34-1.71h-.06c-1.62-.06-3.2.56-4.34,1.71-.66.71-1.02,1.64-1.02,2.61h0c.01,1.46.82,2.8,2.1,3.49l.16.1c.11.07.16.2.11.32l-.42,1.17,1.44-.93c.06-.04.14-.05.21-.03l.08.02c.55.13,1.11.2,1.68.2h.07Z"/><path class="cls-1" d="m3.61,0h8.79c1.99,0,3.6,1.62,3.61,3.61v8.79c0,1.99-1.62,3.6-3.61,3.61H3.61c-1.99,0-3.6-1.62-3.61-3.61V3.61C0,1.62,1.62,0,3.61,0Zm8.79,15.47c1.7,0,3.07-1.38,3.07-3.07V3.61c0-1.7-1.38-3.07-3.07-3.07H3.61c-1.7,0-3.07,1.38-3.07,3.07v8.79c0,1.7,1.38,3.07,3.07,3.07h8.79Z"/><path class="cls-1" d="m6.12,8.75h-1.29s-.04-.02-.04-.04v-2.21s.02-.04.04-.04h.3s.04.02.04.04v1.96h.95s.04.02.04.04v.21s-.02.04-.04.04"/><path class="cls-1" d="m6.6,6.46h.21s.09.03.09.08v2.13s-.04.08-.09.08h-.21s-.09-.03-.09-.08v-2.13s.04-.08.09-.08"/><path class="cls-1" d="m9.19,8.75h-.25s-.06-.01-.08-.04l-.65-1.03c-.16-.25-.3-.51-.43-.78h-.01c.02.29.03.59.03.99v.78s-.04.08-.09.08h-.18s-.09-.03-.09-.08v-2.13s.04-.08.09-.08h.28s.06.01.08.04l.65,1.02c.16.24.3.5.42.76h.01c-.03-.33-.04-.65-.04-.97v-.76s.04-.08.09-.08h.18s.09.03.09.08v2.13s-.04.08-.09.08"/><path class="cls-1" d="m11.13,8.75h-1.23s-.09-.03-.09-.08v-2.13s.04-.08.09-.08h1.17s.09.03.09.08v.13s-.04.08-.09.08h-.87v.66h.81s.09.03.09.08v.13s-.04.08-.09.08h-.81v.76h.92s.09.03.09.08v.13s-.04.08-.09.08"/></svg>