<?xml version="1.0" encoding="utf-8"?>
<!-- Generator: Adobe Illustrator 28.1.0, SVG Export Plug-In . SVG Version: 6.00 Build 0)  -->
<svg version="1.1" id="_レイヤー_1" xmlns="http://www.w3.org/2000/svg" xmlns:xlink="http://www.w3.org/1999/xlink" x="0px"
	 y="0px" viewBox="0 0 218 30" style="enable-background:new 0 0 218 30;" xml:space="preserve">
<style type="text/css">
	.st0{fill:#FFFFFF;}
</style>
<path class="st0" d="M58.1,17.2c0.4,0.6,0.7,1.3,0.8,2.1c0.2,0.9,0.2,1.9,0.1,3.1c-0.1,0.6-0.2,1.1-0.3,1.6s-0.3,0.9-0.5,1.2
	c-0.2,0.4-0.4,0.8-0.7,1.1c-0.3,0.3-0.6,0.6-1.1,0.9c-0.4,0.2-0.9,0.5-1.6,0.7c-0.5,0.1-0.9,0.2-1.3,0.3c-0.3,0-0.6,0.1-0.9,0.1
	c-0.1,0-0.2,0-0.3,0c0-0.1,0-0.2,0-0.4c0.2-0.1,0.5-0.2,0.9-0.4c0.9-0.4,1.6-0.9,2.1-1.7c0.2-0.3,0.4-0.6,0.5-1
	c0.4-1,0.6-2.1,0.7-3.3c0-1.2-0.1-2.2-0.3-3.1s-0.4-1.5-0.7-1.8c-0.3,2.1-0.7,3.7-1.1,5c-0.7,2.3-1.6,3.9-2.7,4.8
	c-0.9,0.6-1.7,0.9-2.4,0.9c-0.6-0.1-1.1-0.4-1.5-0.8c-0.5-0.5-0.8-1.1-0.9-1.7c-0.2-1-0.3-2-0.3-3c0-0.5,0.1-0.9,0.2-1.4
	c0.1-0.3,0.1-0.7,0.3-1.2c0.2-0.8,0.5-1.5,0.9-2c0.6-1,1.3-1.6,2.2-1.9v-3.1h-2.1c-0.1,0-0.2,0.1-0.5,0.2c-0.2,0.1-0.4,0.3-0.5,0.4
	v-1.5h3.2V8.8h2.2v2.7h4.9c0.5-0.2,0.9-0.4,1.3-0.6v1.5h-6.2V15c0.7,0,1.1-0.1,1.3-0.1c0.1-0.9,0.1-1.6,0.2-2h2.2
	c0,0.4-0.1,1.2-0.2,2.4c0.3,0.1,0.7,0.4,1.2,0.7C57.5,16.4,57.9,16.8,58.1,17.2z M50.9,25.9c0.2-0.2,0.4-0.5,0.6-0.8
	c0.4-0.6,0.6-1.1,0.8-1.5c-0.7-0.3-1.1-0.6-1.4-1.1c-0.4-0.7-0.5-1.4-0.5-2.1v-3.7c-0.3,0.3-0.6,0.8-0.7,1.2
	c-0.3,0.7-0.4,1.6-0.5,2.8C49,22,49,23.1,49,24c0.1,0.7,0.2,1.3,0.4,1.6c0.3,0.4,0.6,0.6,0.8,0.7C50.5,26.2,50.7,26.1,50.9,25.9z
	 M53.3,18.6c0.1-0.7,0.2-1.6,0.4-2.8h-1.2v5.1c0.1,0.7,0.1,1.2,0.2,1.4c0.1-0.4,0.2-0.8,0.3-1.2c0.1-0.3,0.1-0.8,0.2-1.4
	C53.2,19.4,53.3,19.1,53.3,18.6z M64.8,24.5c0.2,0.4,0.4,0.6,0.6,0.6c0.4,0,0.8-0.5,1.1-1.4c0.1,0.1,0.2,0.2,0.3,0.3
	c-0.2,0.9-0.5,1.7-0.9,2.3c-0.5,0.7-1.1,1-1.8,0.8c-0.6-0.2-1-0.6-1.4-1.4c-0.1-0.3-0.3-0.6-0.4-1.1c-0.2-0.8-0.3-2-0.4-3.5
	c0-2.1,0-3.9,0.1-5.4c0.1-1.9,0.1-3.6,0.2-5.1c0.3,0,1.1,0,2.4,0c-0.1,1.3-0.1,2.8-0.2,4.4c0,0.9,0,1.8-0.1,2.7v2.6
	c0,1,0,1.6,0.1,1.9C64.4,23.3,64.6,24,64.8,24.5z M73.5,23.7l-2.6,0.1c0.1-1.2,0.1-2.4,0.1-3.7c0-1.7-0.1-3-0.3-3.8
	c-0.3-1.7-0.6-3-1-3.7c0.2-0.2,0.2-0.3,0.3-0.3c0.4,0.5,0.8,1.1,1.2,1.8c0.3,0.5,0.6,1.1,0.8,1.6c0.5,1.1,0.8,2.1,1,2.9
	c0.1,0.4,0.2,0.8,0.3,1.3C73.5,21.1,73.5,22.4,73.5,23.7z M86.5,18.8c1,1.1,1.4,2.5,1.3,4.1S87,25.7,86,26.5
	c-0.8,0.7-1.8,1.1-2.9,1.2s-2.2-0.2-3.1-0.9c-0.8-0.6-1.5-1.4-2-2.4l0.2-0.3c0.1,0.1,0.2,0.2,0.3,0.3c0.2,0.2,0.4,0.4,0.6,0.6
	c0.3,0.2,0.5,0.4,0.8,0.5s0.6,0.2,1,0.3c0.4,0.1,0.8,0.1,1.3,0.1c1,0,1.8-0.5,2.4-1.2c0.8-1.1,1-2.3,0.7-3.8
	c-0.1-0.7-0.4-1.2-0.9-1.6c-0.4-0.3-1-0.5-1.6-0.4c-0.6,0-1.1,0.3-1.6,0.7c-0.5,0.4-0.9,1-1.1,1.7c-0.4-0.1-0.7-0.1-1.1-0.1
	c-0.6,0-1-0.1-1.3-0.1c0.3-1.2,0.5-2.4,0.7-3.7c0.2-1.2,0.4-2.4,0.6-3.7h-1.7c-0.1,0-0.2,0-0.3,0.1c-0.1,0.1-0.4,0.2-0.7,0.4v-1.5
	h2.8c0.2-1.3,0.4-2.6,0.6-4h2.4c-0.3,1.5-0.5,2.9-0.7,4h5.1c0.1,0,0.3-0.1,0.6-0.2c0.3-0.2,0.6-0.3,0.6-0.3v1.5h-6.4
	c-0.3,2.2-0.6,4-0.9,5.4c0.7-0.6,1.5-1,2.5-1.2C84.4,17.6,85.6,17.9,86.5,18.8z M94.4,15.4c0-0.5,0-0.9-0.1-1h2.2v1.8
	c0,1.1-0.1,1.9-0.2,2.5c0,0.5-0.1,1.1-0.3,1.6c-0.1,0.6-0.3,1.2-0.4,1.7s-0.3,1.1-0.6,1.7c-0.3,0.8-0.7,1.5-1.2,2.3
	c-0.2,0.3-0.5,0.7-0.8,1s-0.6,0.7-1,1l-0.1-0.2c0.4-0.7,0.7-1.5,1.1-2.3c0.3-0.8,0.5-1.6,0.7-2.4c0.2-1,0.4-2,0.5-2.9
	s0.2-1.7,0.2-2.5C94.5,16.7,94.5,16,94.4,15.4z M102.4,23.2c0.2,1.1,0.3,2.1,0.4,2.9c0,0.4-0.1,1.6-0.1,1.9l-2.3-0.3
	c0-1.8-0.1-3.4-0.1-4.8c-0.1-1.4-0.3-2.8-0.5-4c-0.3-1.9-0.7-3.4-1.2-4.6l0.2-0.1c0.4,0.5,0.8,1.3,1.3,2.3c0.2,0.4,0.4,0.9,0.7,1.6
	c0.2,0.5,0.4,1.1,0.6,1.8c0.1,0.5,0.3,1,0.5,1.6C102.1,22,102.2,22.6,102.4,23.2z M104.4,20.5h8.9l1.1-0.4v1.1c-4.1,0-7,0-8.7,0
	c-0.3,0-0.7,0.2-1.3,0.5V20.5z M124.6,21c0.2,0.2,0.4,0.6,0.9,1.1l-1.4,2.1l-0.7-1.3c-0.3-0.5-0.5-0.9-0.7-1.1s-0.4-0.5-0.7-0.8
	c-0.4-0.5-0.8-0.8-1.2-1.1c-0.3-0.2-0.4-0.3-0.5-0.3V28h-1.7V13.8h1.7V19h0.2c0.2,0,0.4,0,0.7,0.1c0.3,0.1,0.6,0.2,1.1,0.4
	c0.5,0.2,0.9,0.4,1.4,0.7C123.9,20.4,124.3,20.7,124.6,21z M135.5,15.4c0.6,0,1,0.2,1.3,0.7c0.2,0.4,0.3,1.1,0.3,2
	c0,0.7-0.1,1.4-0.1,1.9c-0.1,0.5-0.2,1.1-0.3,1.5c-0.2,0.7-0.4,1.4-0.7,2c-0.3,0.5-0.6,1-0.9,1.5c-0.4,0.5-0.8,0.9-1.3,1.3
	c-0.4,0.3-0.9,0.6-1.4,0.9c-0.5,0.2-0.9,0.4-1.4,0.6c-0.4,0.1-0.8,0.2-1.2,0.4c0-0.1,0-0.2-0.1-0.5c0.3-0.1,0.6-0.2,0.9-0.4
	c0.6-0.3,1.1-0.7,1.5-1.1c0.6-0.5,1-1.1,1.3-1.6s0.6-1,0.8-1.6c0.2-0.5,0.4-1.1,0.5-1.8c0.2-1,0.3-2.1,0.3-3.3v-0.4
	c0-0.5,0-0.8-0.1-0.9c-0.1-0.2-0.3-0.4-0.6-0.4H133c-0.2,0-0.5,0.2-0.7,0.4c-0.3,0.3-0.5,0.4-0.6,0.6c-0.3,1.4-0.9,2.7-1.8,3.9
	c-0.4,0.6-0.9,1.1-1.5,1.6l-0.2-0.3c0.5-0.7,0.9-1.6,1.2-2.5c0.1-0.3,0.2-0.7,0.2-1c0.2-0.9,0.2-1.9,0.3-2.8c0-0.7,0-1.4,0-2.2h2.1
	v0.9c0,0.7-0.1,1.2-0.1,1.5c0.2-0.1,0.3-0.3,0.5-0.4s0.4-0.1,0.6-0.2c0.4,0,0.9,0,1.3,0c0.2,0,0.4,0,0.7,0c0.1,0,0.2,0,0.3,0h0.2
	V15.4z M141,14h1.9v8.4H141V14z M146.7,13.8h2v6.5c0,1.1-0.1,2-0.4,2.9c-0.2,0.8-0.5,1.5-0.9,2.1c-0.3,0.5-0.8,0.9-1.3,1.3
	c-0.4,0.3-0.8,0.5-1.2,0.7c-0.4,0.1-0.8,0.3-1.2,0.4s-0.8,0.1-1.1,0.1v-0.3c0.2,0,0.5-0.1,0.9-0.4c0.2-0.1,0.4-0.2,0.7-0.4
	c0.2-0.1,0.4-0.3,0.7-0.6c0.3-0.3,0.6-0.8,0.9-1.3c0.3-0.5,0.5-1.2,0.7-1.9c0.2-0.8,0.3-1.6,0.3-2.5L146.7,13.8L146.7,13.8z
	 M151.2,25.4h9.3c0.1,0,0.1,0,0.3-0.1c0,0,0.1-0.1,0.4-0.2c0.1-0.1,0.3-0.1,0.4-0.2c0.1-0.1,0.2-0.1,0.3-0.1v1.3h-9.4
	c0,0-0.1,0-0.2,0.1c0,0-0.1,0.1-0.3,0.1c-0.1,0-0.2,0.1-0.3,0.1c-0.2,0.1-0.4,0.2-0.5,0.2V25.4z M160.8,16.2h-7.5
	c-0.2,0-0.4,0.1-0.6,0.2c-0.3,0.1-0.5,0.2-0.6,0.3v-1.1h7.4c0.1,0,0.3-0.1,0.6-0.2c0.2-0.1,0.4-0.1,0.4-0.2c0.1-0.1,0.2-0.1,0.3-0.1
	L160.8,16.2L160.8,16.2z M166.5,21.2c0,0.2,0.1,0.3,0.1,0.4c-0.7,0.3-1.3,0.5-1.6,0.6l-0.1-1.1c-0.1-0.4-0.1-0.8-0.2-1.1
	c0-0.2-0.1-0.4-0.1-0.6s-0.1-0.4-0.2-0.6c-0.1-0.2-0.2-0.4-0.3-0.7l0.2-0.2c0.2,0.1,0.3,0.2,0.5,0.4c0.2,0.1,0.4,0.3,0.6,0.5
	c0.2,0.3,0.4,0.5,0.5,0.7s0.2,0.5,0.4,0.9C166.3,20.6,166.4,20.9,166.5,21.2z M170.5,17.8c0-0.4,0-0.6,0-0.6h1.9
	c-0.1,1.2-0.2,2.3-0.4,3.3c-0.2,1.2-0.5,2.1-0.9,3c-0.2,0.4-0.4,0.8-0.7,1.2c-0.2,0.3-0.5,0.6-0.8,0.9s-0.6,0.6-1,0.8
	c-0.3,0.2-0.6,0.4-1,0.6c-0.6,0.4-1.3,0.7-2,0.9l-0.1-0.3c0.6-0.4,1-0.7,1.1-0.8c0.4-0.4,0.9-0.8,1.3-1.3c0.3-0.4,0.6-0.9,0.9-1.3
	c0.2-0.3,0.3-0.6,0.5-1c0.1-0.3,0.3-0.6,0.4-0.9c0.2-0.7,0.4-1.3,0.5-1.9C170.4,19.5,170.5,18.7,170.5,17.8z M168.6,19.8
	c0.1,0.2,0.1,0.4,0.2,0.7c0,0.1,0,0.2,0.1,0.4c-0.3,0.1-0.6,0.2-0.8,0.3l-0.8,0.3l-0.1-1.1c0-0.3-0.1-0.5-0.1-0.8
	c-0.1-0.6-0.2-1.1-0.3-1.4s-0.2-0.6-0.4-0.9l0.2-0.2c0.2,0.1,0.3,0.2,0.5,0.4c0.2,0.2,0.4,0.3,0.6,0.5c0.3,0.3,0.4,0.5,0.5,0.7
	C168.3,19,168.5,19.3,168.6,19.8z M182.7,15.4c0.6,0,1,0.2,1.3,0.7c0.2,0.4,0.3,1.1,0.3,2c0,0.7-0.1,1.4-0.1,1.9
	c-0.1,0.5-0.2,1.1-0.3,1.5c-0.2,0.7-0.4,1.4-0.7,2c-0.3,0.5-0.6,1-0.9,1.5c-0.4,0.5-0.8,0.9-1.3,1.3c-0.4,0.3-0.9,0.6-1.4,0.9
	c-0.5,0.2-0.9,0.4-1.4,0.6c-0.4,0.1-0.8,0.2-1.2,0.4c0-0.1,0-0.2-0.1-0.5c0.3-0.1,0.6-0.2,0.9-0.4c0.6-0.3,1.1-0.7,1.5-1.1
	c0.6-0.5,1-1.1,1.3-1.6s0.6-1,0.8-1.6c0.2-0.5,0.4-1.1,0.5-1.8c0.2-1,0.3-2.1,0.3-3.3v-0.4c0-0.5,0-0.8-0.1-0.9
	c-0.1-0.2-0.3-0.4-0.6-0.4h-1.4c-0.2,0-0.5,0.2-0.7,0.4c-0.3,0.3-0.5,0.4-0.6,0.6c-0.3,1.4-0.9,2.7-1.8,3.9
	c-0.4,0.6-0.9,1.1-1.5,1.6l-0.2-0.3c0.5-0.7,0.9-1.6,1.2-2.5c0.1-0.3,0.2-0.7,0.2-1c0.2-0.9,0.2-1.9,0.3-2.8c0-0.7,0-1.4,0-2.2h2.1
	v0.9c0,0.7-0.1,1.2-0.1,1.5c0.2-0.1,0.3-0.3,0.5-0.4s0.4-0.1,0.6-0.2c0.4,0,0.9,0,1.3,0c0.2,0,0.4,0,0.7,0c0.1,0,0.2,0,0.3,0h0.3
	V15.4z M194.9,25c0,0-2.8,1.1-7,2.4l-0.8-2.2c1.1,0,2.2-0.1,3.1-0.2v-2.1h-2.5v-0.6h2.5v-1.7h-2.6V14h6.9v6.6H192v1.7h2.5v0.6H192
	v1.9c1.7-0.1,3-0.4,3-0.4V25H194.9z M190.2,14.5h-0.9v2.4h0.9V14.5z M190.2,17.5h-0.9V20h0.9V17.5z M192.9,14.5H192v2.4h0.9V14.5z
	 M192.9,17.5H192V20h0.9V17.5z M196.8,19.4h-2v-0.6h3.4c-0.8-0.9-1.7-1.6-2.8-2.3l0.3-0.4c0.7,0.2,1.4,0.4,2.1,0.6
	c0.5-0.6,1-1.5,1.1-2.1h-3.7V14h6.2v0.8c-0.7,0.8-1.8,1.6-2.9,2.1c0.7,0.3,1.4,0.6,2,0.8l-1.6,1h2.9v0.8c-0.4,1-1,1.9-2,2.8
	l-0.4-0.3c0.3-0.8,0.5-1.7,0.5-2.8h-1v6.1c0,1.3-0.1,2.4-1.6,2.4c-0.6,0-1.4-0.2-2.6-0.7v-0.6c0.7,0.2,1.1,0.3,1.5,0.3
	c0.7,0,0.7-0.4,0.7-1.5L196.8,19.4L196.8,19.4z M203.3,27.4v-0.6h4.6v-9.5h-4v-0.6h3.9c-0.4-1.2-0.9-2.2-1.4-3.1l0.3-0.4
	c1.2,0.6,2,1.1,3.1,2l-1.7,1.4h3.4c0.5-1.2,0.7-2.3,0.8-3.5l2.8,0.9c-0.9,1.1-1.8,2-2.8,2.7h4.9v0.6h-4.1v9.5h4.7v0.6H203.3z
	 M205.7,24.8c-0.2-2.2-0.7-3.9-1.3-5.7l0.5-0.3c1.3,1.6,2,2.8,2.9,4.8L205.7,24.8z M211.3,17.3h-1.4v9.5h1.4V17.3z M213.5,24.6
	c0.7-2.1,1.1-4,1.2-6.2l2.3,0.8c-0.8,2.1-1.6,3.9-3.1,5.7L213.5,24.6z M11.2,14.8c2.4,4.3,4.8,4.3,5.1-5c0.2-5.9,5.1-7.7,5.1-7.7
	s-4.5-0.3-7,3.4c-2.3,3.4-1.1,6.5-2.1,5.6C8.4,7.8,5.5,13,5.5,13S9.3,11.4,11.2,14.8 M19.6,29.4c0,0-4.9-0.2-11.6-4.9
	c-9.1-6.4-3-11.1-3-11.1s-3.3,0-4.5,3.8c-2.3,7.4,5.3,12.2,5.3,12.2 M40.5,29.4c0,0,4.8-19.7-6.9-26.8c-6.4-3.9-11-0.8-11-0.8
	s12.2-1.9,10.2,13c-1.5,10.9-11.7,14.7-11.7,14.7h19.4V29.4z"/>
</svg>
