<?xml version="1.0" encoding="utf-8"?>
<!-- Generator: Adobe Illustrator 28.1.0, SVG Export Plug-In . SVG Version: 6.00 Build 0)  -->
<svg version="1.1" id="_レイヤー_1" xmlns="http://www.w3.org/2000/svg" xmlns:xlink="http://www.w3.org/1999/xlink" x="0px"
	 y="0px" viewBox="0 0 218 40" style="enable-background:new 0 0 218 40;" xml:space="preserve">
<style type="text/css">
	.st0{fill:#FFFFFF;}
	.st1{fill:none;stroke:#FFFFFF;stroke-width:0.3369;stroke-linecap:round;stroke-linejoin:round;stroke-miterlimit:10;}
</style>
<g>
	<g>
		<path class="st0" d="M61.5,32.3l-0.6-1.4h-2.2L58,32.3h-0.9l2.7-5.7l2.7,5.7H61.5z M59,30.2h1.5L60,28.9c0-0.1-0.1-0.2-0.1-0.3
			c0-0.1-0.1-0.2-0.1-0.3c0,0.1-0.1,0.2-0.1,0.3c0,0.1-0.1,0.2-0.1,0.3L59,30.2z"/>
		<path class="st0" d="M63.6,32.3v-5.5h0.9v5.5H63.6z"/>
		<path class="st0" d="M70.9,28.1c-0.3-0.2-0.5-0.4-0.8-0.5c-0.3-0.1-0.6-0.2-0.9-0.2c-0.6,0-1.1,0.2-1.5,0.6
			c-0.4,0.4-0.6,0.9-0.6,1.5c0,0.6,0.2,1.1,0.6,1.5c0.4,0.4,0.8,0.6,1.4,0.6c0.3,0,0.6-0.1,0.9-0.2c0.3-0.1,0.6-0.3,0.9-0.5v1
			c-0.2,0.2-0.5,0.3-0.8,0.4c-0.3,0.1-0.6,0.1-0.9,0.1c-0.4,0-0.8-0.1-1.2-0.2c-0.4-0.1-0.7-0.3-0.9-0.6c-0.3-0.3-0.5-0.6-0.6-0.9
			c-0.1-0.4-0.2-0.7-0.2-1.1c0-0.4,0.1-0.8,0.2-1.1c0.1-0.4,0.4-0.7,0.6-0.9c0.3-0.3,0.6-0.5,0.9-0.6c0.4-0.1,0.7-0.2,1.2-0.2
			c0.3,0,0.6,0,0.9,0.1c0.3,0.1,0.6,0.2,0.9,0.4L70.9,28.1z"/>
		<path class="st0" d="M72.6,32.3v-5.5h0.9v2h2.7v-2h0.9v5.5h-0.9v-2.7h-2.7v2.7H72.6z"/>
		<path class="st0" d="M79,32.3v-5.5h0.9v5.5H79z"/>
		<path class="st0" d="M84.8,32.3v-5.5h0.9v2h2.7v-2h0.9v5.5h-0.9v-2.7h-2.7v2.7H84.8z"/>
		<path class="st0" d="M91.2,32.3v-5.5h3.1v0.8h-2.2v1.4h2.2v0.8h-2.2v1.8h2.2v0.8H91.2z"/>
		<path class="st0" d="M99.6,32.3l-0.6-1.4h-2.2l-0.6,1.4h-0.9l2.7-5.7l2.7,5.7H99.6z M97.1,30.2h1.5L98,28.9c0-0.1-0.1-0.2-0.1-0.3
			c0-0.1-0.1-0.2-0.1-0.3c0,0.1-0.1,0.2-0.1,0.3c0,0.1-0.1,0.2-0.1,0.3L97.1,30.2z"/>
		<path class="st0" d="M102.5,29.9v2.5h-0.8v-5.5h1.3c0.4,0,0.7,0,0.9,0.1c0.2,0,0.4,0.1,0.5,0.2c0.2,0.1,0.3,0.3,0.4,0.5
			c0.1,0.2,0.1,0.4,0.1,0.7c0,0.4-0.1,0.8-0.3,1c-0.2,0.3-0.5,0.4-0.9,0.5l1.9,2.5h-1l-1.8-2.5H102.5z M102.5,29.2h0.2
			c0.5,0,0.8-0.1,0.9-0.2c0.2-0.1,0.2-0.3,0.2-0.6c0-0.3-0.1-0.5-0.3-0.6c-0.2-0.1-0.5-0.2-0.9-0.2h-0.2V29.2z"/>
		<path class="st0" d="M108.4,27.6v4.8h-0.9v-4.8H106v-0.8h3.8v0.8H108.4z"/>
		<path class="st0" d="M118.5,28.1c-0.3-0.2-0.5-0.4-0.8-0.5c-0.3-0.1-0.6-0.2-0.9-0.2c-0.6,0-1.1,0.2-1.5,0.6
			c-0.4,0.4-0.6,0.9-0.6,1.5c0,0.6,0.2,1.1,0.6,1.5c0.4,0.4,0.8,0.6,1.4,0.6c0.3,0,0.6-0.1,0.9-0.2c0.3-0.1,0.6-0.3,0.9-0.5v1
			c-0.2,0.2-0.5,0.3-0.8,0.4c-0.3,0.1-0.6,0.1-0.9,0.1c-0.4,0-0.8-0.1-1.2-0.2c-0.4-0.1-0.7-0.3-0.9-0.6c-0.3-0.3-0.5-0.6-0.6-0.9
			c-0.1-0.4-0.2-0.7-0.2-1.1c0-0.4,0.1-0.8,0.2-1.1c0.1-0.4,0.4-0.7,0.6-0.9c0.3-0.3,0.6-0.5,0.9-0.6c0.4-0.1,0.7-0.2,1.2-0.2
			c0.3,0,0.6,0,0.9,0.1c0.3,0.1,0.6,0.2,0.9,0.4L118.5,28.1z"/>
		<path class="st0" d="M120.3,32.3v-5.5h0.9v4.7h2v0.8H120.3z"/>
		<path class="st0" d="M124.5,32.3v-5.5h0.9v5.5H124.5z"/>
		<path class="st0" d="M127.3,32.3v-5.7l3.5,3.4c0.1,0.1,0.2,0.2,0.3,0.3c0.1,0.1,0.2,0.2,0.3,0.4v-3.8h0.8v5.7l-3.6-3.4
			c-0.1-0.1-0.2-0.2-0.3-0.3c-0.1-0.1-0.2-0.2-0.3-0.3v3.8H127.3z"/>
		<path class="st0" d="M134.2,32.3v-5.5h0.9v5.5H134.2z"/>
		<path class="st0" d="M141.4,28.1c-0.3-0.2-0.5-0.4-0.8-0.5c-0.3-0.1-0.6-0.2-0.9-0.2c-0.6,0-1.1,0.2-1.5,0.6
			c-0.4,0.4-0.6,0.9-0.6,1.5c0,0.6,0.2,1.1,0.6,1.5c0.4,0.4,0.8,0.6,1.4,0.6c0.3,0,0.6-0.1,0.9-0.2c0.3-0.1,0.6-0.3,0.9-0.5v1
			c-0.2,0.2-0.5,0.3-0.8,0.4c-0.3,0.1-0.6,0.1-0.9,0.1c-0.4,0-0.8-0.1-1.2-0.2c-0.4-0.1-0.7-0.3-0.9-0.6c-0.3-0.3-0.5-0.6-0.6-0.9
			c-0.1-0.4-0.2-0.7-0.2-1.1c0-0.4,0.1-0.8,0.2-1.1c0.1-0.4,0.4-0.7,0.6-0.9c0.3-0.3,0.6-0.5,0.9-0.6c0.4-0.1,0.7-0.2,1.2-0.2
			c0.3,0,0.6,0,0.9,0.1c0.3,0.1,0.6,0.2,0.9,0.4L141.4,28.1z"/>
		<path class="st0" d="M146.1,32.3v-5.7l3.5,3.4c0.1,0.1,0.2,0.2,0.3,0.3c0.1,0.1,0.2,0.2,0.3,0.4v-3.8h0.8v5.7l-3.6-3.4
			c-0.1-0.1-0.2-0.2-0.3-0.3c-0.1-0.1-0.2-0.2-0.3-0.3v3.8H146.1z"/>
		<path class="st0" d="M158.6,29.6c0,0.4-0.1,0.8-0.2,1.1c-0.1,0.3-0.4,0.7-0.6,0.9c-0.3,0.3-0.6,0.5-1,0.6
			c-0.4,0.1-0.7,0.2-1.1,0.2c-0.4,0-0.8-0.1-1.1-0.2c-0.4-0.1-0.7-0.4-1-0.6c-0.3-0.3-0.5-0.6-0.6-0.9c-0.1-0.3-0.2-0.7-0.2-1.1
			c0-0.4,0.1-0.8,0.2-1.1c0.1-0.4,0.4-0.7,0.6-0.9c0.3-0.3,0.6-0.5,1-0.6c0.4-0.1,0.7-0.2,1.1-0.2c0.4,0,0.8,0.1,1.1,0.2
			c0.4,0.1,0.7,0.4,1,0.6c0.3,0.3,0.5,0.6,0.6,0.9C158.5,28.8,158.6,29.2,158.6,29.6z M157.7,29.6c0-0.3-0.1-0.5-0.2-0.8
			c-0.1-0.3-0.2-0.5-0.4-0.7c-0.2-0.2-0.4-0.3-0.6-0.4c-0.2-0.1-0.5-0.2-0.8-0.2c-0.3,0-0.5,0.1-0.8,0.2c-0.2,0.1-0.5,0.3-0.7,0.4
			c-0.2,0.2-0.3,0.4-0.4,0.7c-0.1,0.3-0.2,0.5-0.2,0.8c0,0.3,0.1,0.5,0.2,0.8c0.1,0.2,0.2,0.5,0.4,0.7c0.2,0.2,0.4,0.3,0.7,0.4
			c0.2,0.1,0.5,0.2,0.8,0.2c0.3,0,0.5-0.1,0.8-0.2c0.2-0.1,0.5-0.3,0.7-0.4c0.2-0.2,0.3-0.4,0.4-0.7
			C157.6,30.1,157.7,29.8,157.7,29.6z"/>
		<path class="st0" d="M160.3,32.3v-5.7l3.5,3.4c0.1,0.1,0.2,0.2,0.3,0.3c0.1,0.1,0.2,0.2,0.3,0.4v-3.8h0.8v5.7l-3.6-3.4
			c-0.1-0.1-0.2-0.2-0.3-0.3c-0.1-0.1-0.2-0.2-0.3-0.3v3.8H160.3z"/>
		<path class="st0" d="M170.7,32.3l-0.6-1.4h-2.2l-0.6,1.4h-0.9l2.7-5.7l2.7,5.7H170.7z M168.3,30.2h1.5l-0.6-1.3
			c0-0.1-0.1-0.2-0.1-0.3c0-0.1-0.1-0.2-0.1-0.3c0,0.1-0.1,0.2-0.1,0.3c0,0.1-0.1,0.2-0.1,0.3L168.3,30.2z"/>
		<path class="st0" d="M177.3,29.6c0,0,0-0.2,0-0.4c0-0.2,0-0.3-0.1-0.4c0,0.1-0.1,0.3-0.1,0.4c0,0.1-0.1,0.3-0.2,0.4l-1.4,2.9
			l-1.4-3c-0.1-0.1-0.1-0.2-0.2-0.4c0-0.1-0.1-0.2-0.1-0.3c0,0.1,0,0.2,0,0.4c0,0.1,0,0.3-0.1,0.4l-0.6,2.7h-0.8l1.3-5.8l1.6,3.5
			c0,0.1,0.1,0.1,0.1,0.3c0.1,0.1,0.1,0.3,0.2,0.5c0.1-0.2,0.1-0.4,0.2-0.6c0-0.1,0.1-0.1,0.1-0.2l1.6-3.5l1.3,5.8H178L177.3,29.6z"
			/>
		<path class="st0" d="M180.1,32.3v-5.5h0.9v5.5H180.1z"/>
	</g>
	<path class="st0" d="M67.7,9.7c0.4,0.6,0.6,1.2,0.7,1.9c0.2,0.8,0.2,1.8,0.1,2.9c-0.1,0.6-0.1,1.1-0.3,1.5
		c-0.1,0.4-0.2,0.8-0.4,1.1c-0.2,0.4-0.4,0.7-0.6,1c-0.2,0.3-0.6,0.6-1,0.8c-0.3,0.2-0.8,0.4-1.5,0.6c-0.4,0.1-0.8,0.2-1.2,0.2
		c-0.3,0-0.5,0.1-0.8,0.1c-0.1,0-0.1,0-0.3,0c0-0.1,0-0.2,0-0.4c0.2-0.1,0.5-0.2,0.8-0.4c0.8-0.3,1.4-0.9,2-1.6
		c0.2-0.3,0.3-0.6,0.5-0.9c0.4-0.9,0.6-1.9,0.6-3.1c0-1.1-0.1-2.1-0.2-2.9c-0.2-0.8-0.4-1.4-0.6-1.6c-0.3,1.9-0.6,3.5-1,4.7
		c-0.6,2.1-1.4,3.6-2.5,4.5c-0.8,0.5-1.5,0.8-2.3,0.8c-0.6-0.1-1-0.4-1.4-0.7c-0.4-0.5-0.7-1-0.8-1.6c-0.2-0.9-0.3-1.9-0.3-2.8
		c0-0.4,0.1-0.9,0.2-1.3c0.1-0.3,0.1-0.7,0.3-1.1c0.2-0.7,0.5-1.4,0.8-1.9c0.6-0.9,1.2-1.5,2-1.7V5.2h-2c-0.1,0-0.2,0.1-0.4,0.2
		c-0.2,0.1-0.3,0.2-0.5,0.4V4.3h2.9V1.9h2v2.5H67c0.4-0.2,0.8-0.4,1.2-0.5v1.4h-5.7v2.5c0.6,0,1-0.1,1.2-0.1
		c0.1-0.9,0.1-1.5,0.1-1.8h2c0,0.4-0.1,1.1-0.2,2.2c0.3,0.1,0.7,0.3,1.1,0.6C67.1,9,67.5,9.3,67.7,9.7z M61,17.8
		c0.2-0.2,0.4-0.4,0.6-0.8c0.3-0.5,0.6-1,0.7-1.4c-0.6-0.3-1-0.6-1.3-1c-0.3-0.6-0.5-1.3-0.5-1.9V9.2c-0.3,0.3-0.5,0.7-0.7,1.2
		c-0.3,0.6-0.4,1.5-0.5,2.6c-0.1,1.2-0.1,2.2,0,3c0.1,0.7,0.2,1.2,0.4,1.5c0.3,0.4,0.5,0.6,0.7,0.6C60.6,18.1,60.8,18,61,17.8z
		 M63.3,11c0.1-0.6,0.2-1.5,0.3-2.6h-1.1v4.8c0.1,0.6,0.1,1.1,0.2,1.3c0.1-0.4,0.2-0.8,0.2-1.1c0.1-0.3,0.1-0.7,0.2-1.3
		C63.2,11.8,63.2,11.4,63.3,11z"/>
	<path class="st0" d="M73.9,16.4c0.1,0.4,0.3,0.6,0.6,0.6c0.4,0,0.7-0.4,1-1.3c0.1,0.1,0.2,0.2,0.3,0.2c-0.1,0.8-0.4,1.5-0.8,2.2
		c-0.4,0.7-1,0.9-1.7,0.7c-0.5-0.1-1-0.6-1.3-1.3c-0.1-0.3-0.2-0.6-0.3-1c-0.2-0.8-0.3-1.9-0.3-3.2c0-2,0-3.6,0.1-5
		c0.1-1.7,0.1-3.3,0.2-4.7c0.3,0,1,0,2.2,0c-0.1,1.2-0.1,2.6-0.2,4.1c0,0.8,0,1.7-0.1,2.5v2.4c0,0.9,0,1.5,0.1,1.8
		C73.6,15.3,73.7,16,73.9,16.4z M82,15.7l-2.5,0.1c0.1-1.1,0.1-2.2,0.1-3.4c0-1.6-0.1-2.8-0.3-3.5c-0.3-1.6-0.6-2.8-0.9-3.4
		c0.1-0.2,0.2-0.3,0.2-0.3c0.4,0.5,0.7,1,1.1,1.7c0.3,0.5,0.6,1,0.8,1.4c0.4,1.1,0.7,2,0.9,2.7c0.1,0.3,0.2,0.8,0.3,1.2
		C81.9,13.3,82,14.5,82,15.7z"/>
	<path class="st0" d="M94.1,11.2c0.9,1.1,1.3,2.3,1.2,3.8c-0.1,1.4-0.7,2.6-1.7,3.4c-0.8,0.7-1.7,1-2.7,1.1c-1.1,0.1-2-0.2-2.9-0.8
		c-0.8-0.5-1.4-1.3-1.9-2.3l0.2-0.3c0.1,0.1,0.2,0.2,0.3,0.3c0.2,0.2,0.3,0.4,0.5,0.5c0.2,0.2,0.5,0.4,0.8,0.5
		c0.2,0.1,0.5,0.2,0.9,0.3c0.3,0.1,0.7,0.1,1.2,0.1c0.9,0,1.7-0.4,2.2-1.2c0.7-1,1-2.1,0.6-3.5c-0.1-0.7-0.4-1.1-0.9-1.5
		c-0.4-0.3-0.9-0.4-1.5-0.4c-0.6,0-1.1,0.2-1.5,0.6c-0.5,0.4-0.8,0.9-1,1.6c-0.3-0.1-0.7-0.1-1-0.1c-0.5,0-0.9-0.1-1.2-0.1
		c0.2-1.1,0.5-2.2,0.7-3.4c0.2-1.1,0.4-2.3,0.6-3.4h-1.6c-0.1,0-0.2,0-0.3,0.1c-0.1,0.1-0.3,0.2-0.6,0.4V5.6h2.6
		c0.2-1.2,0.4-2.4,0.6-3.7h2.2c-0.2,1.4-0.5,2.7-0.6,3.7H94c0.1,0,0.2-0.1,0.6-0.2c0.3-0.2,0.5-0.3,0.6-0.3v1.4h-6
		c-0.3,2-0.6,3.7-0.8,5c0.7-0.5,1.4-0.9,2.3-1.1C92.1,10.1,93.2,10.4,94.1,11.2z"/>
	<path class="st0" d="M101.4,8c0-0.5,0-0.8-0.1-1h2v1.7c0,1-0.1,1.8-0.1,2.3c0,0.5-0.1,1-0.2,1.5c-0.1,0.6-0.2,1.1-0.4,1.6
		c-0.1,0.5-0.3,1-0.6,1.6c-0.3,0.7-0.7,1.4-1.1,2.1c-0.2,0.3-0.5,0.6-0.8,1c-0.3,0.3-0.6,0.6-0.9,0.9l-0.1-0.2
		c0.3-0.7,0.7-1.4,1-2.2c0.3-0.7,0.5-1.5,0.7-2.3c0.2-1,0.4-1.9,0.5-2.7c0.1-0.8,0.2-1.6,0.2-2.4C101.4,9.3,101.4,8.6,101.4,8z
		 M108.8,15.2c0.2,1,0.3,1.9,0.4,2.7c0,0.4-0.1,1.4-0.1,1.7l-2.2-0.3c0-1.7-0.1-3.2-0.1-4.4c-0.1-1.3-0.3-2.6-0.5-3.7
		c-0.3-1.8-0.7-3.2-1.1-4.2l0.2-0.1c0.3,0.4,0.7,1.2,1.2,2.2c0.2,0.4,0.4,0.9,0.6,1.4c0.2,0.5,0.4,1,0.6,1.6
		c0.1,0.4,0.3,0.9,0.5,1.5C108.5,14.2,108.7,14.7,108.8,15.2z"/>
	<path class="st0" d="M110.6,12.8h8.3l1-0.4v1c-3.8,0-6.5,0-8,0c-0.2,0-0.6,0.2-1.2,0.5V12.8z"/>
	<path class="st0" d="M129.4,13.2c0.1,0.2,0.4,0.5,0.8,1l-1.3,1.9l-0.7-1.2c-0.3-0.5-0.5-0.8-0.7-1.1c-0.1-0.2-0.3-0.5-0.6-0.8
		c-0.4-0.4-0.8-0.8-1.1-1c-0.2-0.2-0.4-0.3-0.5-0.3v7.8h-1.6V6.5h1.6v4.9h0.2c0.2,0,0.4,0,0.7,0.1c0.3,0.1,0.6,0.2,1,0.3
		c0.4,0.2,0.9,0.4,1.3,0.6C128.8,12.7,129.1,12.9,129.4,13.2z"/>
	<path class="st0" d="M139.6,8c0.5,0,0.9,0.2,1.2,0.6c0.2,0.4,0.3,1,0.3,1.8c0,0.7-0.1,1.3-0.1,1.7c-0.1,0.5-0.2,1-0.3,1.4
		c-0.2,0.6-0.4,1.3-0.7,1.8c-0.2,0.5-0.5,1-0.9,1.4c-0.4,0.4-0.8,0.8-1.2,1.2c-0.4,0.3-0.8,0.6-1.3,0.8c-0.4,0.2-0.9,0.4-1.3,0.6
		c-0.4,0.1-0.8,0.2-1.1,0.3c0,0,0-0.2-0.1-0.5c0.2-0.1,0.5-0.2,0.9-0.4c0.5-0.3,1-0.6,1.4-1c0.5-0.5,0.9-1,1.2-1.5
		c0.3-0.4,0.5-0.9,0.7-1.5c0.2-0.5,0.3-1,0.5-1.6c0.2-0.9,0.3-1.9,0.3-3.1V9.8c0-0.4,0-0.7-0.1-0.8c-0.1-0.2-0.3-0.3-0.6-0.4h-1.3
		c-0.2,0-0.4,0.2-0.7,0.4c-0.2,0.2-0.4,0.4-0.5,0.6c-0.3,1.3-0.8,2.5-1.6,3.6c-0.4,0.5-0.9,1-1.4,1.5l-0.2-0.3
		c0.5-0.7,0.8-1.4,1.1-2.4c0.1-0.3,0.1-0.6,0.2-1c0.1-0.9,0.2-1.7,0.3-2.6c0-0.7,0-1.3,0-2h1.9v0.8c0,0.6,0,1.1-0.1,1.4
		c0.1-0.1,0.3-0.3,0.4-0.3c0.2-0.1,0.3-0.1,0.6-0.2c0.4,0,0.8,0,1.2,0c0.2,0,0.4,0,0.6,0c0.1,0,0.2,0,0.3,0H139.6z"/>
	<path class="st0" d="M144.7,6.8h1.8v7.8h-1.8V6.8z M149.9,6.5h1.8v6c0,1-0.1,1.9-0.3,2.7c-0.2,0.7-0.5,1.4-0.9,2
		c-0.3,0.4-0.7,0.9-1.2,1.2c-0.3,0.2-0.7,0.4-1.1,0.6c-0.3,0.1-0.7,0.2-1.1,0.3c-0.4,0.1-0.7,0.1-1.1,0.1v-0.3
		c0.2,0,0.4-0.1,0.8-0.3c0.2-0.1,0.4-0.2,0.6-0.4c0.2-0.1,0.4-0.3,0.7-0.6c0.3-0.3,0.6-0.7,0.9-1.2c0.3-0.5,0.5-1.1,0.7-1.8
		c0.2-0.7,0.3-1.5,0.3-2.3V6.5z"/>
	<path class="st0" d="M154.1,17.3h8.6c0,0,0.1,0,0.3-0.1c0,0,0.1,0,0.3-0.1c0.1-0.1,0.2-0.1,0.4-0.2c0.1,0,0.2-0.1,0.3-0.1V18h-8.7
		c0,0-0.1,0-0.2,0.1c0,0-0.1,0-0.2,0.1c-0.1,0-0.2,0.1-0.3,0.1c-0.2,0.1-0.3,0.2-0.4,0.2V17.3z M163,8.8h-7c-0.2,0-0.4,0.1-0.6,0.2
		c-0.2,0.1-0.4,0.2-0.6,0.2V8.2h6.9c0.1,0,0.3-0.1,0.6-0.2c0.2-0.1,0.3-0.1,0.4-0.1c0.1,0,0.2-0.1,0.3-0.1V8.8z"/>
	<path class="st0" d="M168.3,13.4c0,0.2,0.1,0.3,0.1,0.4c-0.7,0.3-1.2,0.5-1.5,0.6l-0.1-1c0-0.4-0.1-0.7-0.2-1
		c0-0.2-0.1-0.4-0.1-0.6c0-0.1-0.1-0.3-0.2-0.6c-0.1-0.1-0.2-0.3-0.3-0.6l0.2-0.2c0.2,0.1,0.3,0.2,0.5,0.3c0.2,0.1,0.3,0.3,0.5,0.5
		c0.2,0.2,0.4,0.4,0.5,0.6c0.1,0.2,0.2,0.4,0.4,0.8C168.2,12.8,168.2,13.1,168.3,13.4z M172.1,10.3c0-0.4,0-0.6,0-0.6h1.7
		c-0.1,1.1-0.2,2.2-0.4,3c-0.2,1.1-0.5,2-0.8,2.7c-0.2,0.4-0.4,0.7-0.7,1.1c-0.2,0.3-0.5,0.6-0.7,0.9c-0.3,0.3-0.6,0.6-0.9,0.8
		c-0.3,0.2-0.6,0.4-0.9,0.6c-0.6,0.3-1.2,0.6-1.8,0.8l-0.1-0.3c0.6-0.4,0.9-0.6,1-0.8c0.4-0.3,0.8-0.7,1.2-1.2
		c0.3-0.4,0.6-0.8,0.8-1.3c0.2-0.3,0.3-0.6,0.5-0.9c0.1-0.3,0.2-0.6,0.3-0.9c0.2-0.6,0.3-1.2,0.4-1.8
		C171.9,11.9,172,11.1,172.1,10.3z M170.3,12.1c0.1,0.2,0.1,0.4,0.2,0.6c0,0.1,0,0.2,0.1,0.4c-0.3,0.1-0.5,0.2-0.7,0.3l-0.7,0.3
		l-0.1-1c0-0.3-0.1-0.5-0.1-0.7c-0.1-0.6-0.2-1-0.3-1.3c-0.1-0.3-0.2-0.6-0.4-0.9l0.2-0.2c0.1,0.1,0.3,0.2,0.5,0.3
		c0.2,0.1,0.3,0.3,0.5,0.5c0.2,0.3,0.4,0.5,0.5,0.6C170,11.4,170.2,11.7,170.3,12.1z"/>
	<path class="st0" d="M183.4,8c0.5,0,0.9,0.2,1.2,0.6c0.2,0.4,0.3,1,0.3,1.8c0,0.7-0.1,1.3-0.1,1.7c-0.1,0.5-0.2,1-0.3,1.4
		c-0.2,0.6-0.4,1.3-0.7,1.8c-0.2,0.5-0.5,1-0.9,1.4c-0.4,0.4-0.8,0.8-1.2,1.2c-0.4,0.3-0.8,0.6-1.3,0.8c-0.4,0.2-0.9,0.4-1.3,0.6
		c-0.4,0.1-0.8,0.2-1.1,0.3c0,0,0-0.2-0.1-0.5c0.2-0.1,0.5-0.2,0.9-0.4c0.5-0.3,1-0.6,1.4-1c0.5-0.5,0.9-1,1.2-1.5
		c0.3-0.4,0.5-0.9,0.7-1.5c0.2-0.5,0.3-1,0.5-1.6c0.2-0.9,0.3-1.9,0.3-3.1V9.8c0-0.4,0-0.7-0.1-0.8c-0.1-0.2-0.3-0.3-0.6-0.4H181
		c-0.2,0-0.4,0.2-0.7,0.4c-0.2,0.2-0.4,0.4-0.5,0.6c-0.3,1.3-0.8,2.5-1.6,3.6c-0.4,0.5-0.9,1-1.4,1.5l-0.2-0.3
		c0.5-0.7,0.8-1.4,1.1-2.4c0.1-0.3,0.1-0.6,0.2-1c0.1-0.9,0.2-1.7,0.3-2.6c0-0.7,0-1.3,0-2h1.9v0.8c0,0.6,0,1.1-0.1,1.4
		c0.1-0.1,0.3-0.3,0.4-0.3c0.2-0.1,0.3-0.1,0.6-0.2c0.4,0,0.8,0,1.2,0c0.2,0,0.4,0,0.6,0c0.1,0,0.2,0,0.3,0H183.4z"/>
	<path class="st0" d="M194.7,17c0,0-2.6,1-6.5,2.2l-0.7-2.1c1,0,2-0.1,2.9-0.2V15H188v-0.5h2.3v-1.6h-2.4V6.7h6.4v6.2h-2.4v1.6h2.3
		V15h-2.3v1.8c1.5-0.1,2.8-0.3,2.8-0.3V17z M190.3,7.2h-0.8v2.2h0.8V7.2z M190.3,10h-0.8v2.3h0.8V10z M192.8,7.2h-0.8v2.2h0.8V7.2z
		 M192.8,10h-0.8v2.3h0.8V10z M196.4,11.7h-1.9v-0.5h3.2c-0.8-0.9-1.6-1.5-2.6-2.1l0.3-0.4c0.6,0.2,1.3,0.3,1.9,0.6
		c0.5-0.6,0.9-1.4,1-2h-3.5V6.7h5.7v0.8c-0.7,0.8-1.7,1.5-2.7,2c0.6,0.2,1.3,0.5,1.9,0.8l-1.4,0.9h2.7v0.8c-0.4,1-0.9,1.8-1.9,2.6
		l-0.4-0.3c0.3-0.8,0.5-1.6,0.5-2.6h-1v5.7c0,1.2-0.1,2.2-1.5,2.2c-0.6,0-1.3-0.2-2.4-0.6v-0.6c0.6,0.2,1,0.3,1.3,0.3
		c0.6,0,0.7-0.4,0.7-1.4V11.7z"/>
	<path class="st0" d="M202.5,19.2v-0.5h4.3V9.8h-3.7V9.3h3.6c-0.3-1.1-0.8-2-1.3-2.9l0.3-0.3c1.1,0.5,1.8,1,2.9,1.9L207,9.3h3.2
		c0.4-1.1,0.7-2.2,0.8-3.3l2.6,0.8c-0.8,1-1.7,1.8-2.6,2.5h4.5v0.5h-3.8v8.8h4.4v0.6L202.5,19.2z M204.7,16.7
		c-0.2-2-0.6-3.6-1.2-5.3l0.4-0.3c1.2,1.5,1.9,2.6,2.7,4.4L204.7,16.7z M209.9,9.8h-1.3v8.8l1.3,0V9.8z M211.9,16.6
		c0.7-2,1-3.7,1.2-5.7l2.2,0.7c-0.8,1.9-1.5,3.6-2.9,5.3L211.9,16.6z"/>
	<g>
		<line class="st1" x1="57.2" y1="35.3" x2="199.6" y2="35.3"/>
		<line class="st1" x1="199.6" y1="35.3" x2="202.2" y2="29.9"/>
		<line class="st1" x1="202.2" y1="39.5" x2="202.2" y2="29.9"/>
		<line class="st1" x1="202.2" y1="39.5" x2="207.5" y2="25.8"/>
		<line class="st1" x1="207" y1="35.7" x2="207.5" y2="25.8"/>
		<line class="st1" x1="208.4" y1="33.3" x2="207" y2="35.7"/>
		<line class="st1" x1="208.4" y1="33.3" x2="208.8" y2="35.3"/>
		<line class="st1" x1="208.8" y1="35.3" x2="218" y2="35.3"/>
	</g>
	<g>
		<path class="st0" d="M13.8,18c3,5.4,5.9,5.4,6.3-6.2c0.3-7.3,6.3-9.4,6.3-9.4s-5.5-0.4-8.6,4.2c-2.8,4.2-1.4,8-2.6,7
			c-4.8-4-8.3,2.3-8.3,2.3S11.5,13.8,13.8,18"/>
		<path class="st0" d="M24.1,36c0,0-6.1-0.3-14.3-6c-11.3-7.9-3.8-13.8-3.8-13.8s-4,0-5.5,4.7C-2.3,30.1,7.1,36,7.1,36"/>
		<path class="st0" d="M26.2,36c0,0,12.6-4.6,14.4-18.1C43.1-0.4,28,1.9,28,1.9s5.7-3.8,13.6,1C55.9,11.8,50,36,50,36H26.2z"/>
	</g>
</g>
</svg>
