<svg xmlns="http://www.w3.org/2000/svg" xmlns:xlink="http://www.w3.org/1999/xlink" width="95" height="65" viewBox="0 0 95 65">
  <defs>
    <clipPath id="clip-path">
      <rect id="長方形_179" data-name="長方形 179" width="95" height="65" transform="translate(456 2308)" fill="#f0efed"/>
    </clipPath>
  </defs>
  <g id="マスクグループ_6" data-name="マスクグループ 6" transform="translate(-456 -2308)" clip-path="url(#clip-path)">
    <g id="グループ_190" data-name="グループ 190" transform="translate(-526.618 835.373)">
      <path id="パス_31" data-name="パス 31" d="M1041.127,1548.189s-.059-3.07,0,2.291,1.8,12.549,9.986,12.478,9.039-5.473,9.45-7.95.456-5.77.662-8.588,1.816-9.479,9.651-9.376c6.515-.2,7.788,4.214,7.788,4.214" transform="translate(-25.21 -27.035)" fill="none" stroke="#48453a" stroke-linecap="round" stroke-linejoin="round" stroke-width="2"/>
      <path id="パス_32" data-name="パス 32" d="M1031.535,1465.669h3.67s.238,11.906,0,17.185c-.233,5.166-1.195,17.185-15.9,17.185s-15.665-12.019-15.9-17.185c-.238-5.279,0-17.185,0-17.185h4.074" transform="translate(-3.39 10.074)" fill="none" stroke="#48453a" stroke-linecap="round" stroke-linejoin="round" stroke-width="2"/>
      <path id="パス_33" data-name="パス 33" d="M1039.557,1545.952v4.4s0,2.986-4.319,2.986-4.319-2.986-4.319-2.986v-4.4" transform="translate(-19.321 -36.24)" fill="none" stroke="#48453a" stroke-linecap="round" stroke-linejoin="round" stroke-width="2"/>
      <path id="パス_34" data-name="パス 34" d="M1036.193,1530.32c-2.056,3.811-5.984,7.015-13.577,7.015s-11.52-3.2-13.577-7.015" transform="translate(-6.698 -27.222)" fill="none" stroke="#bab6b0" stroke-linecap="round" stroke-linejoin="round" stroke-width="4"/>
      <circle id="楕円形_19" data-name="楕円形 19" cx="4.582" cy="4.582" r="4.582" transform="translate(1049.769 1517.097)" fill="none" stroke="#bab6b0" stroke-linecap="round" stroke-linejoin="round" stroke-width="2"/>
      <circle id="楕円形_20" data-name="楕円形 20" cx="1.477" cy="1.477" r="1.477" transform="translate(1052.875 1520.202)" fill="none" stroke="#bab6b0" stroke-linecap="round" stroke-linejoin="round" stroke-width="2"/>
      <rect id="長方形_180" data-name="長方形 180" width="4.894" height="2.826" transform="translate(1006.923 1474.33)" fill="#bab6b0" stroke="#bab6b0" stroke-linecap="round" stroke-linejoin="round" stroke-width="2"/>
      <rect id="長方形_181" data-name="長方形 181" width="4.894" height="2.826" transform="translate(1020.018 1474.33)" fill="#bab6b0" stroke="#bab6b0" stroke-linecap="round" stroke-linejoin="round" stroke-width="2"/>
    </g>
  </g>
</svg>
