<svg xmlns="http://www.w3.org/2000/svg" xmlns:xlink="http://www.w3.org/1999/xlink" width="95" height="65" viewBox="0 0 95 65"><defs><clipPath id="a"><rect width="95" height="65" transform="translate(793 2360)" fill="#f0efed"/></clipPath></defs><g transform="translate(-793 -2360)" clip-path="url(#a)"><g transform="translate(114.086 669.508)"><path d="M804.15,1792.329h21.874v7.524H811.707" transform="translate(-69.591 -61.774)" fill="none" stroke="#48453a" stroke-linecap="round" stroke-linejoin="round" stroke-width="2"/><path d="M736.33,1799.853H698.395v-7.524h30.8" transform="translate(-2 -61.774)" fill="none" stroke="#48453a" stroke-linecap="round" stroke-linejoin="round" stroke-width="2"/><line y2="7.524" transform="translate(703.449 1730.556)" fill="none" stroke="#48453a" stroke-linecap="round" stroke-linejoin="round" stroke-width="2"/><path d="M701.164,1761.24s-.118-10.992,14.4-10.992" transform="translate(-3.77 -34.878)" fill="none" stroke="#ae9373" stroke-linecap="round" stroke-linejoin="round" stroke-width="2"/><path d="M757.32,1708.379s-11.032-.412-12.678,8.935" transform="translate(-31.558 -8.116)" fill="none" stroke="#ae9373" stroke-linecap="round" stroke-linejoin="round" stroke-width="2"/><path d="M782.506,1705.451s1.7,9.993-10.346,9.347c0,0,.882,8.112-3.174,9.346" transform="translate(-47.117 -6.247)" fill="none" stroke="#ae9373" stroke-linecap="round" stroke-linejoin="round" stroke-width="2"/><path d="M717.893,1772.449s-.705-4.585,5-4.585,9.758-.078,9.758-.078" transform="translate(-14.444 -46.087)" fill="none" stroke="#ae9373" stroke-linecap="round" stroke-linejoin="round" stroke-width="2"/><line x2="54.865" y2="54.629" transform="translate(699.53 1695.678)" fill="none" stroke="#48453a" stroke-linecap="round" stroke-linejoin="round" stroke-width="2"/><line y2="6.084" transform="translate(740.718 1730.556)" fill="none" stroke="#48453a" stroke-linecap="round" stroke-linejoin="round" stroke-width="2"/></g></g></svg>