<?xml version="1.0" encoding="utf-8"?>
<!-- Generator: Adobe Illustrator 28.0.0, SVG Export Plug-In . SVG Version: 6.00 Build 0)  -->
<svg version="1.1" id="レイヤー_1" xmlns="http://www.w3.org/2000/svg" xmlns:xlink="http://www.w3.org/1999/xlink" x="0px"
	 y="0px" viewBox="0 0 30 34" style="enable-background:new 0 0 30 34;" xml:space="preserve">
<style type="text/css">
	.st0{fill:none;stroke:#FFFFFF;stroke-linecap:round;stroke-linejoin:round;}
</style>
<g>
	<g>
		<g id="マスクグループ_305" transform="translate(-399.957 -2012.792)">
			<g id="グループ_17893" transform="translate(406.988 2013.375)">
				<line id="線_3989" class="st0" x1="5" y1="19.7" x2="3.6" y2="21.3"/>
				<line id="線_3990" class="st0" x1="11.1" y1="19.7" x2="12.3" y2="21.3"/>
				<g id="グループ_17892" transform="translate(0 0)">
					<g>
						<g id="グループ_17891">
							<path id="パス_1175" class="st0" d="M-5.5,32.3c0,0-0.8-10.8,8-10.8L8,25.2v7.1"/>
							<path id="パス_1176" class="st0" d="M21.4,32.3c0,0-0.1-10.8-8-10.8L8,25.2v7.1"/>
							<path id="パス_1177" class="st0" d="M14.7,10.8c0,0,1.3-0.3,0.9,1.3c0,0.6-0.3,1.2-0.7,1.7c-0.2,0.2-0.5,0.3-0.8,0.2
								c0,0-1.4,5.8-6.1,5.8s-6.1-5.8-6.1-5.8c-0.3,0.1-0.6,0-0.8-0.2c-0.4-0.5-0.7-1-0.7-1.6c-0.4-1.6,0.9-1.3,0.9-1.3"/>
							<path id="パス_1178" class="st0" d="M0.3,8.9c0,0-0.7-8.4,7.9-8.4c8,0,7.5,8.4,7.5,8.4"/>
							<path id="パス_1179" class="st0" d="M1.6,9.5c0,0,1.4,0.6,1.4-2.3c0.7,0.7,1.6,1.1,2.6,1.2c2.8,0,2-1.7,4.6-1.7
								c3,0,2.5,2.7,4.3,2.9"/>
						</g>
					</g>
				</g>
			</g>
		</g>
	</g>
</g>
</svg>
