<svg xmlns="http://www.w3.org/2000/svg" xmlns:xlink="http://www.w3.org/1999/xlink" width="95" height="65" viewBox="0 0 95 65"><defs><clipPath id="a"><rect width="95" height="65" transform="translate(456 2308)" fill="#f0efed"/></clipPath></defs><g transform="translate(-456 -2308)" clip-path="url(#a)"><line x1="19.127" transform="translate(516.875 2333.964)" fill="none" stroke="#48453a" stroke-linecap="round" stroke-linejoin="round" stroke-width="2"/><path d="M0,31.659V1" transform="translate(537.6 2335.974)" fill="none" stroke="#48453a" stroke-linecap="round" stroke-width="2"/><path d="M0,1V31.659" transform="translate(469.4 2335.974)" fill="none" stroke="#48453a" stroke-linecap="round" stroke-width="2"/><line x1="19.33" transform="translate(470.952 2333.964)" fill="none" stroke="#48453a" stroke-linecap="round" stroke-linejoin="round" stroke-width="2"/><path d="M38.819,20.369V.478H12.475V19.96" transform="translate(477.807 2310.282)" fill="none" stroke="#48453a" stroke-linecap="round" stroke-linejoin="round" stroke-width="2"/><rect width="6.943" height="6.943" transform="translate(477.893 2341.143)" fill="none" stroke="#48453a" stroke-linecap="round" stroke-linejoin="round" stroke-width="2"/><rect width="6.943" height="6.943" transform="translate(492.472 2341.143)" fill="none" stroke="#48453a" stroke-linecap="round" stroke-linejoin="round" stroke-width="2"/><rect width="6.943" height="6.943" transform="translate(492.472 2354.143)" fill="none" stroke="#48453a" stroke-linecap="round" stroke-linejoin="round" stroke-width="2"/><rect width="6.943" height="6.943" transform="translate(507.197 2341.143)" fill="none" stroke="#48453a" stroke-linecap="round" stroke-linejoin="round" stroke-width="2"/><rect width="6.943" height="6.943" transform="translate(507.197 2354.143)" fill="none" stroke="#48453a" stroke-linecap="round" stroke-linejoin="round" stroke-width="2"/><rect width="6.943" height="6.943" transform="translate(521.774 2341.143)" fill="none" stroke="#48453a" stroke-linecap="round" stroke-linejoin="round" stroke-width="2"/><rect width="6.943" height="6.943" transform="translate(477.893 2353.939)" fill="none" stroke="#48453a" stroke-linecap="round" stroke-linejoin="round" stroke-width="2"/><rect width="6.943" height="6.943" transform="translate(521.774 2353.939)" fill="none" stroke="#48453a" stroke-linecap="round" stroke-linejoin="round" stroke-width="2"/><path d="M29.134,9.076H24.051V3.93H20.607V9.076H15.4V12.52h5.211v5.146h3.443V12.52h5.083Z" transform="translate(481.189 2312.985)" fill="#ae9373" stroke="#ae9373" stroke-linecap="round" stroke-linejoin="round" stroke-width="2"/></g></svg>