<svg xmlns="http://www.w3.org/2000/svg" xmlns:xlink="http://www.w3.org/1999/xlink" width="95" height="65" viewBox="0 0 95 65"><defs><clipPath id="a"><rect width="95" height="65" transform="translate(1182 2042)" fill="#f0efed"/></clipPath></defs><g transform="translate(-1182 -2042)" clip-path="url(#a)"><g transform="translate(986.573 1622.808)"><path d="M193.017,437.32s1.857,7.593,5.779,12.117a72.288,72.288,0,0,0,7.991,7.833" transform="translate(10 -10)" fill="none" stroke="#48453a" stroke-linecap="round" stroke-linejoin="round" stroke-width="2"/><path d="M187.229,439.444a51.928,51.928,0,0,1,14.263,7.148c6.7,4.926,11.64,15.135,11.64,15.135" transform="translate(22 13.275)" fill="none" stroke="#48453a" stroke-linecap="round" stroke-linejoin="round" stroke-width="2"/><path d="M197.953,439.58a100.424,100.424,0,0,1,29.742,3.292c15.029,4.223,17.886,4.72,23.973,1.3s9.067-5.341,15.154-4.348,17.514,2.982,20.681,7.018c1.138,1.28.14,2.558-.817,2.439-1.449-.154-3.384-1.459-5.134-2.439a19.181,19.181,0,0,0-6.207-1.58" fill="none" stroke="#48453a" stroke-linecap="round" stroke-linejoin="round" stroke-width="2"/><path d="M259.369,444.964a20.383,20.383,0,0,0,6.681-.755c4.722-1.533,6.11-.012,6.066.545s1.216,1.788-5.753,3.616c-3.674,1.18-3.123,2.255-6.994,4.19-2.469,1.235-5.721,1.388-7.816-.888" transform="translate(0 -0.217)" fill="none" stroke="#48453a" stroke-linecap="round" stroke-linejoin="round" stroke-width="2"/><path d="M198.649,463.729s18.55.694,30.536-.8,13.9-2.538,21.924-1.739a26.1,26.1,0,0,0,16.023-3.416c2.252-1.49,3.44-2.677,5.486-2.826,4.229-.6,6.188,2.381,9.248,2.114" fill="none" stroke="#48453a" stroke-linecap="round" stroke-linejoin="round" stroke-width="2"/><path d="M270.427,447.115a7.526,7.526,0,0,1,.258,5" fill="none" stroke="#48453a" stroke-linecap="round" stroke-linejoin="round" stroke-width="2"/><path d="M270.961,448.624s5.678-1.025,8.45.665,6.094,3.9,9.016,2.563" fill="none" stroke="#48453a" stroke-linecap="round" stroke-linejoin="round" stroke-width="2"/><path d="M270.961,452.016s5.229-1.075,7.971.661c1.84,1.164,6.422,3.576,8.443,2.377" fill="none" stroke="#48453a" stroke-linecap="round" stroke-linejoin="round" stroke-width="2"/><path d="M192.6,445.915h15.123c4.657,0,8.06,2.536,10.122,3.48a30.286,30.286,0,0,0,13.944,3.282c6.195,0,5.737-2.344,9.462-2.436" transform="translate(6 1)" fill="none" stroke="#ae9373" stroke-linecap="round" stroke-linejoin="round" stroke-width="2"/><path d="M192.6,457.172h15.123a45.257,45.257,0,0,0,10.35-.932c2.989-.756,5.359-1.954,8.926-2.684a24.288,24.288,0,0,1,4.79-.437c6.195,0,5.006,2.451,9.726,2.558" transform="translate(6 1)" fill="none" stroke="#ae9373" stroke-linecap="round" stroke-linejoin="round" stroke-width="2"/><line y2="4.052" transform="translate(233.788 451.883)" fill="none" stroke="#48453a" stroke-linecap="round" stroke-linejoin="round" stroke-width="2"/><line y2="4.052" transform="translate(236.303 451.883)" fill="none" stroke="#48453a" stroke-linecap="round" stroke-linejoin="round" stroke-width="2"/><line y2="4.052" transform="translate(238.818 451.883)" fill="none" stroke="#48453a" stroke-linecap="round" stroke-linejoin="round" stroke-width="2"/><line y2="4.052" transform="translate(241.307 451.883)" fill="none" stroke="#48453a" stroke-linecap="round" stroke-linejoin="round" stroke-width="2"/><path d="M192.6,451.908s10.961.113,13.2-.6c3.615-1.162,4.705-5.088,4.705-5.088" transform="translate(6 1)" fill="none" stroke="#ae9373" stroke-linecap="round" stroke-linejoin="round" stroke-width="2"/></g></g></svg>