<svg xmlns="http://www.w3.org/2000/svg" xmlns:xlink="http://www.w3.org/1999/xlink" width="95" height="65" viewBox="0 0 95 65">
  <defs>
    <clipPath id="clip-path">
      <rect id="長方形_177" data-name="長方形 177" width="95" height="65" fill="#f0efed"/>
    </clipPath>
  </defs>
  <g id="マスクグループ_5" data-name="マスクグループ 5" clip-path="url(#clip-path)">
    <g id="グループ_184" data-name="グループ 184" transform="translate(23.186 1.514)">
      <path id="パス_5" data-name="パス 5" d="M99.294,447.717c-2.35-5.329-8.327-7.671-11.513-8.345s-14.157-2.88-23.166,5.761-7.783,21.327-5.822,26.352,8.151,9.07,7.109,13.911a49.378,49.378,0,0,1-2.145,7.538" transform="translate(-57.397 -438.618)" fill="none" stroke="#48453a" stroke-linecap="round" stroke-linejoin="round" stroke-width="2"/>
      <path id="パス_6" data-name="パス 6" d="M54.34,471.018a4.918,4.918,0,0,1-1.772-3.349" transform="translate(-9.156 -441.786)" fill="none" stroke="#48453a" stroke-linecap="round" stroke-linejoin="round" stroke-width="2"/>
      <path id="パス_7" data-name="パス 7" d="M69.412,509.812s-.435-7.392,4.356-10.056" transform="translate(-41.97 -447.841)" fill="none" stroke="#48453a" stroke-linecap="round" stroke-linejoin="round" stroke-width="2"/>
      <path id="パス_8" data-name="パス 8" d="M48.395,481.911s11.023,7.72,17.027,10.551,7.077,2.359,7.738,2.01c4.525-2.389,5.9-8.9,6.8-12.1.972-3.431.563-8.15-2.039-7.846-2.647.309-11.344,5.387-14.9,4.744s-11.688-6.348-11.688-6.348" transform="translate(-31.816 -442.821)" fill="none" stroke="#bab6b0" stroke-linecap="round" stroke-linejoin="round" stroke-width="2"/>
      <path id="パス_9" data-name="パス 9" d="M69.165,483.236a7.537,7.537,0,0,1-.658,6.2" transform="translate(-35.903 -443.729)" fill="none" stroke="#bab6b0" stroke-linecap="round" stroke-linejoin="round" stroke-width="2"/>
      <path id="パス_10" data-name="パス 10" d="M67.585,461.418c-.182,1.235-9.938,3.194-14.16,1.509l-.936-10.191A52.97,52.97,0,0,0,66.012,451S68.569,454.7,67.585,461.418Z" transform="translate(-21.784 -439.743)" fill="none" stroke="#48453a" stroke-linecap="round" stroke-linejoin="round" stroke-width="2"/>
    </g>
  </g>
</svg>
