<svg xmlns="http://www.w3.org/2000/svg" xmlns:xlink="http://www.w3.org/1999/xlink" width="95" height="65" viewBox="0 0 95 65">
  <defs>
    <clipPath id="clip-path">
      <rect id="長方形_7544" data-name="長方形 7544" width="95" height="65" transform="translate(2.218 -2.254)" fill="none" stroke="#48453a" stroke-linecap="round" stroke-linejoin="round" stroke-width="2"/>
    </clipPath>
  </defs>
  <g id="グループ_17902" data-name="グループ 17902" transform="translate(-13.218 7.253)">
    <g id="グループ_17903" data-name="グループ 17903" transform="translate(11 -5)" clip-path="url(#clip-path)">
      <path id="パス_1180" data-name="パス 1180" d="M5.978,48.113a48.123,48.123,0,0,1,20.2-1.386l8.213-5.008S28.731,32.43,32.112,29.8a5.343,5.343,0,0,1,2.279-1.274" transform="translate(4.581 -4.886)" fill="none" stroke="#48453a" stroke-linecap="round" stroke-linejoin="round" stroke-miterlimit="10" stroke-width="2"/>
      <path id="パス_1181" data-name="パス 1181" d="M98.974,27.467c7.094,17.248-1.789,27.5-8.689,30.4s-14.071,1-17.627.7-8.563-.1-11.618,5.658" transform="translate(-12.705 -4.605)" fill="none" stroke="#48453a" stroke-linecap="round" stroke-linejoin="round" stroke-miterlimit="10" stroke-width="2"/>
      <path id="パス_1182" data-name="パス 1182" d="M53.637,22s2.213-.484,2.863-2.162c.706-1.818-2.316-5.191,2.134-4.7s7.046,1.28,9.85.6,7.137-4.278,13.246-3.452c2.119.287,10.171.783,15.07,10.979" transform="translate(-10.41 -0.139)" fill="none" stroke="#48453a" stroke-linecap="round" stroke-linejoin="round" stroke-miterlimit="10" stroke-width="2"/>
      <path id="パス_1186" data-name="パス 1186" d="M34.33,1.086,42.681.549,39,8.268l5.811-.515-2.7,5.294,4.271-.123L44.7,17.033" transform="translate(-7.039 1.373) rotate(-3)" fill="none" stroke="#bab6b0" stroke-linecap="round" stroke-linejoin="round" stroke-miterlimit="10" stroke-width="2"/>
      <path id="パス_1187" data-name="パス 1187" d="M27.41,11.888,33.9,10.172,32.084,16l4.493-1.29-1.383,4.029,3.337-.774-.742,3.06" transform="translate(-6.775 5.157) rotate(-9)" fill="none" stroke="#bab6b0" stroke-linecap="round" stroke-linejoin="round" stroke-miterlimit="10" stroke-width="2"/>
      <path id="パス_1189" data-name="パス 1189" d="M56.708,22.457s-1.21,3.5,1.25,5.322" transform="matrix(0.985, -0.174, 0.174, 0.985, 0.117, 8.834)" fill="none" stroke="#48453a" stroke-linecap="round" stroke-width="2"/>
    </g>
  </g>
</svg>
