<svg xmlns="http://www.w3.org/2000/svg" xmlns:xlink="http://www.w3.org/1999/xlink" width="95" height="65" viewBox="0 0 95 65">
  <defs>
    <clipPath id="clip-path">
      <rect id="長方形_154" data-name="長方形 154" width="95" height="65" transform="translate(777 2037)" fill="#f0efed"/>
    </clipPath>
  </defs>
  <g id="マスクグループ_7" data-name="マスクグループ 7" transform="translate(-777 -2037)" clip-path="url(#clip-path)">
    <g id="グループ_191" data-name="グループ 191" transform="translate(-87.523 1074.398)">
      <path id="パス_41" data-name="パス 41" d="M900.741,964.6s2.035,18.018,5.927,20.939c1.4,1.053,6.135,23.13,3.732,28.435s-5.276,6.629-8.316,7.058-5.473.41-6.479,2.637c-.357.79-.127,4.22,13.077,2.267,8.417-1.245,10.062.862,13.57,0s2.818-5.172.994-10.927,2.576-10.793,3.543-18.55c.691-5.544-.484-13.7-3.1-17.391-1.556-2.193,1.746-14.469,1.746-14.469" transform="translate(0 0)" fill="none" stroke="#48453a" stroke-linecap="round" stroke-linejoin="round" stroke-width="2"/>
      <path id="パス_42" data-name="パス 42" d="M972.853,964.6s-.267,13.6,2.389,21c3.684,10.262,1.111,33.118,1.111,33.118" transform="translate(-58.778 0)" fill="none" stroke="#bab6b0" stroke-linecap="round" stroke-linejoin="round" stroke-width="2"/>
      <path id="パス_43" data-name="パス 43" d="M948.005,964.6s-.8,7.849,3.945,23.8a63.189,63.189,0,0,1,2.524,22.543" transform="translate(-39.892 0)" fill="none" stroke="#bab6b0" stroke-linecap="round" stroke-linejoin="round" stroke-width="2"/>
      <path id="パス_44" data-name="パス 44" d="M977.1,1019.463a22.449,22.449,0,0,1,7.63,21.512c-.47,2.5-.777,5.006-1.12,6.968" transform="translate(-62.167 -43.587)" fill="none" stroke="#bab6b0" stroke-linecap="round" stroke-linejoin="round" stroke-width="2"/>
      <path id="パス_45" data-name="パス 45" d="M959.622,997.082a22.205,22.205,0,0,0-3.115,8.756" transform="translate(102.393 -151.377) rotate(8)" fill="none" stroke="#bab6b0" stroke-linecap="round" stroke-linejoin="round" stroke-width="2"/>
      <path id="パス_46" data-name="パス 46" d="M988.19,1074.96a7.918,7.918,0,0,1,5.094,4.515" transform="translate(-70.443 -83.891)" fill="none" stroke="#bab6b0" stroke-linecap="round" stroke-linejoin="round" stroke-width="2"/>
    </g>
  </g>
</svg>
