<svg xmlns="http://www.w3.org/2000/svg" xmlns:xlink="http://www.w3.org/1999/xlink" width="218" height="34" viewBox="0 0 218 34"><defs><clipPath id="a"><rect width="218" height="34" transform="translate(80 47)" fill="#fff" stroke="#707070" stroke-width="1"/></clipPath><clipPath id="b"><rect width="217.701" height="33.677" fill="#fff"/></clipPath></defs><g transform="translate(-80 -47)" clip-path="url(#a)"><g transform="translate(80 47.755)"><g transform="translate(0 0)"><g clip-path="url(#b)"><path d="M145.395,35.54a6.838,6.838,0,0,1,.952,2.468,13.058,13.058,0,0,1,.085,3.753,10.148,10.148,0,0,1-.357,1.94,5.69,5.69,0,0,1-.544,1.434,5.405,5.405,0,0,1-.8,1.26,4.373,4.373,0,0,1-1.258,1.084,7.333,7.333,0,0,1-1.886.78,11.516,11.516,0,0,1-1.5.3c-.34.05-.68.092-1.02.126-.068,0-.182.008-.34.026a3.227,3.227,0,0,1-.051-.5q.39-.177,1.02-.453a5.951,5.951,0,0,0,3.162-3.225,10.71,10.71,0,0,0,.781-3.929,16.076,16.076,0,0,0-.306-3.678,4.875,4.875,0,0,0-.782-2.115,42.921,42.921,0,0,1-1.275,6.02,11.556,11.556,0,0,1-3.216,5.793,5.378,5.378,0,0,1-2.9,1.083,3.43,3.43,0,0,1-1.8-.932,4.213,4.213,0,0,1-1.088-2.015,13.816,13.816,0,0,1-.34-3.577,12.944,12.944,0,0,1,.2-1.636q.1-.6.323-1.411a8.069,8.069,0,0,1,1.02-2.418,5.131,5.131,0,0,1,2.618-2.243V29.72h-2.567a2.179,2.179,0,0,0-.578.252,4.455,4.455,0,0,0-.629.478V28.612H136.1V25.438h2.6v3.174h5.881a13.442,13.442,0,0,0,1.5-.705V29.72H138.7v3.224q1.19-.075,1.53-.076.136-1.662.187-2.342h2.635q-.051.756-.289,2.821a7.088,7.088,0,0,1,1.411.831,4.54,4.54,0,0,1,1.224,1.361m-8.6,10.4a5.111,5.111,0,0,0,.748-1.007,9.492,9.492,0,0,0,.9-1.838,3.777,3.777,0,0,1-1.7-1.285,5.128,5.128,0,0,1-.646-2.494V34.909a4.733,4.733,0,0,0-.884,1.486,10.862,10.862,0,0,0-.612,3.325,32.227,32.227,0,0,0-.034,3.879,4.566,4.566,0,0,0,.493,1.939q.561.756.918.781a1.094,1.094,0,0,0,.816-.378m2.923-8.715q.17-1.208.425-3.4H138.7v6.122a8.96,8.96,0,0,0,.238,1.661q.153-.756.306-1.461.1-.6.272-1.662.1-.454.2-1.26" transform="translate(-78.451 -15.127)" fill="#fff"/><path d="M180.064,47.455q.271.706.748.756.714,0,1.275-1.687a2.323,2.323,0,0,0,.391.3,7.431,7.431,0,0,1-1.088,2.8,1.848,1.848,0,0,1-2.158.933,2.6,2.6,0,0,1-1.649-1.663,6.6,6.6,0,0,1-.425-1.309,18.389,18.389,0,0,1-.425-4.182q0-3.827.068-6.4.1-3.349.2-6.1.527,0,2.822.026-.1,2.342-.238,5.214-.035,1.612-.068,3.275v3.149q.016,1.763.068,2.291a6.933,6.933,0,0,0,.476,2.595m10.4-.957-3.161.177a39.995,39.995,0,0,0,.1-4.383,33.03,33.03,0,0,0-.323-4.559,15.689,15.689,0,0,0-1.19-4.433,4.728,4.728,0,0,1,.306-.378,18.258,18.258,0,0,1,1.428,2.141,18.641,18.641,0,0,1,.969,1.864,27.768,27.768,0,0,1,1.207,3.5q.187.657.357,1.587a24.264,24.264,0,0,1,.306,4.484" transform="translate(-105.098 -18.379)" fill="#fff"/><path d="M230.936,37.428a6.286,6.286,0,0,1,1.547,4.862,5.925,5.925,0,0,1-2.21,4.333,5.655,5.655,0,0,1-3.433,1.41,5.878,5.878,0,0,1-3.74-1.083,7.626,7.626,0,0,1-2.4-2.922l.289-.353c.136.151.244.278.323.378a6.051,6.051,0,0,0,.68.68,5.016,5.016,0,0,0,.968.629,5.855,5.855,0,0,0,1.173.4,7.58,7.58,0,0,0,1.546.176,3.612,3.612,0,0,0,2.856-1.486,5.128,5.128,0,0,0,.816-4.483,2.809,2.809,0,0,0-1.1-1.915,2.748,2.748,0,0,0-1.9-.5,3.39,3.39,0,0,0-1.955.806,3.7,3.7,0,0,0-1.309,2.015,8.547,8.547,0,0,0-1.291-.151,5.7,5.7,0,0,1-1.5-.176q.475-2.116.867-4.382.407-2.141.747-4.408h-2.039a1.017,1.017,0,0,0-.391.177q-.254.151-.816.529V30.2h3.4q.391-2.342.731-4.761h2.838q-.475,2.746-.8,4.761h6.05a2.967,2.967,0,0,0,.714-.278q.612-.3.765-.4v1.738h-7.682q-.578,3.929-1.088,6.473a6.708,6.708,0,0,1,2.991-1.41,4.821,4.821,0,0,1,4.351,1.108" transform="translate(-130.033 -15.127)" fill="#fff"/><path d="M267.888,42.909a8.4,8.4,0,0,0-.1-1.253h2.574v2.17q-.07,1.947-.193,3.012a13.125,13.125,0,0,1-.3,1.908q-.22,1.122-.482,2.021a14.31,14.31,0,0,1-.73,2.039,13.49,13.49,0,0,1-1.473,2.694,15.068,15.068,0,0,1-.977,1.254,9.178,9.178,0,0,1-1.156,1.14l-.152-.261q.674-1.273,1.294-2.788a25.359,25.359,0,0,0,.867-2.9,30.675,30.675,0,0,0,.606-3.443,28.168,28.168,0,0,0,.234-3.03q.014-1.4-.013-2.564m9.481,9.317q.33,1.927.537,3.517c.055.5-.121,1.862-.075,2.224l-2.774-.335q-.028-3.293-.138-5.706a38.974,38.974,0,0,0-.633-4.771,28.8,28.8,0,0,0-1.418-5.444l.248-.168a20.332,20.332,0,0,1,1.6,2.806q.344.748.826,1.852.385.973.771,2.1.261.861.605,1.927.22.954.454,2" transform="translate(-157.528 -24.705)" fill="#fff"/><path d="M301.6,59.293h10.624l1.308-.486v1.308H303.185a4.006,4.006,0,0,0-1.582.655Z" transform="translate(-179.354 -34.971)" fill="#fff"/><path d="M350.474,48.921q.289.357,1.032,1.329l-1.651,2.507-.868-1.552a15.935,15.935,0,0,0-.853-1.366q-.275-.374-.784-.992a14.785,14.785,0,0,0-1.39-1.327,1.345,1.345,0,0,0-.646-.393V57.191h-2.051V40.3h2.051v6.249h.248a3.544,3.544,0,0,1,.867.15,11.913,11.913,0,0,1,1.279.43,8.5,8.5,0,0,1,1.652.823,6.614,6.614,0,0,1,1.115.973" transform="translate(-204.128 -23.964)" fill="#fff"/><path d="M380.467,41.866a1.656,1.656,0,0,1,1.513.823,5.216,5.216,0,0,1,.358,2.377,15.736,15.736,0,0,1-.179,2.226,14.212,14.212,0,0,1-.358,1.852,12.311,12.311,0,0,1-.84,2.338,9.992,9.992,0,0,1-1.1,1.8,8.988,8.988,0,0,1-1.541,1.515,12.812,12.812,0,0,1-1.638,1.029q-.825.393-1.665.711c-.487.15-.977.293-1.473.43,0-.062-.028-.268-.083-.617a6.936,6.936,0,0,0,1.1-.505,7.58,7.58,0,0,0,1.8-1.329,8.39,8.39,0,0,0,1.582-1.945,10.109,10.109,0,0,0,.95-1.89,15.869,15.869,0,0,0,.619-2.1,21.812,21.812,0,0,0,.371-3.985V44.13a3.226,3.226,0,0,0-.109-1.067.967.967,0,0,0-.743-.486h-1.651a1.89,1.89,0,0,0-.868.468q-.467.45-.7.711a12.04,12.04,0,0,1-2.1,4.621,11.067,11.067,0,0,1-1.831,1.871l-.234-.337a9.485,9.485,0,0,0,1.39-3.031q.138-.542.289-1.254a27.538,27.538,0,0,0,.344-3.349q.054-1.29.014-2.582h2.477v1.085a11.618,11.618,0,0,1-.138,1.777,4.566,4.566,0,0,1,.578-.448,2.7,2.7,0,0,1,.743-.225h2.326c.119,0,.252-.006.4-.019Z" transform="translate(-221.006 -23.606)" fill="#fff"/><path d="M409.638,40.495h2.312V50.5h-2.312Zm6.716-.337h2.353v7.783a12.544,12.544,0,0,1-.44,3.461,9.149,9.149,0,0,1-1.115,2.545,7.264,7.264,0,0,1-1.569,1.589,11.373,11.373,0,0,1-1.431.824,14.182,14.182,0,0,1-1.459.449,8.407,8.407,0,0,1-1.363.169V56.6a3.124,3.124,0,0,0,1.032-.449,4.062,4.062,0,0,0,.826-.524,3.4,3.4,0,0,0,.84-.767,6.921,6.921,0,0,0,1.1-1.59,10.432,10.432,0,0,0,.853-2.283,13.408,13.408,0,0,0,.372-2.956Z" transform="translate(-243.599 -23.881)" fill="#fff"/><path d="M439.548,56.384H450.64a1.174,1.174,0,0,0,.345-.094,2.951,2.951,0,0,0,.44-.186c.165-.075.316-.15.454-.225a1.147,1.147,0,0,0,.331-.169v1.5H441.034a.868.868,0,0,0-.289.094,1.579,1.579,0,0,0-.316.15c-.11.05-.22.105-.331.168a2.932,2.932,0,0,1-.55.281ZM451.067,45.4h-8.959a3.371,3.371,0,0,0-.715.263,6.636,6.636,0,0,0-.743.318V44.617h8.862a2.369,2.369,0,0,0,.758-.225c.285-.112.435-.174.454-.187a1.457,1.457,0,0,0,.345-.168Z" transform="translate(-261.386 -26.188)" fill="#fff"/><path d="M480.4,55.029a2.688,2.688,0,0,1,.082.487q-1.322.561-1.886.73l-.138-1.291q-.1-.71-.219-1.347c-.047-.212-.1-.461-.166-.748a7.772,7.772,0,0,0-.248-.767q-.123-.281-.358-.786l.22-.243c.193.125.4.268.619.43a5.248,5.248,0,0,1,.661.636,5.544,5.544,0,0,1,.632.8,6.126,6.126,0,0,1,.8,2.095m4.817-4.078c.008-.486.018-.73.027-.73h2.216a29.3,29.3,0,0,1-.454,3.91,15.851,15.851,0,0,1-1.088,3.536,8.553,8.553,0,0,1-.839,1.422,9.3,9.3,0,0,1-.95,1.122,8.938,8.938,0,0,1-1.141,1.01,9.889,9.889,0,0,1-1.212.767,8.848,8.848,0,0,1-2.353,1.029l-.124-.411a13.74,13.74,0,0,0,1.348-.973,10.826,10.826,0,0,0,1.5-1.5q.564-.786,1.088-1.609.3-.542.591-1.178.247-.6.44-1.1a16.076,16.076,0,0,0,.578-2.32,23.306,23.306,0,0,0,.372-2.974m-2.272,2.32c.065.225.138.5.221.823.027.125.055.287.082.486q-.564.225-.963.393l-.921.337-.152-1.29a7.283,7.283,0,0,0-.124-.9,10.217,10.217,0,0,0-.385-1.647,11.034,11.034,0,0,0-.482-1.1l.233-.243q.289.187.619.431a7.512,7.512,0,0,1,.661.636,5.8,5.8,0,0,1,.633.8,7.315,7.315,0,0,1,.577,1.272" transform="translate(-283.937 -29.81)" fill="#fff"/><path d="M519.532,41.866a1.656,1.656,0,0,1,1.513.823,5.217,5.217,0,0,1,.358,2.377,15.746,15.746,0,0,1-.179,2.226,14.232,14.232,0,0,1-.358,1.852,12.315,12.315,0,0,1-.84,2.338,9.992,9.992,0,0,1-1.1,1.8,8.988,8.988,0,0,1-1.541,1.515,12.816,12.816,0,0,1-1.638,1.029q-.825.393-1.665.711-.731.224-1.473.43c0-.062-.028-.268-.082-.617a6.952,6.952,0,0,0,1.1-.505,7.575,7.575,0,0,0,1.8-1.329,8.387,8.387,0,0,0,1.582-1.945,10.105,10.105,0,0,0,.95-1.89,15.9,15.9,0,0,0,.619-2.1,21.829,21.829,0,0,0,.371-3.985V44.13a3.222,3.222,0,0,0-.109-1.067.966.966,0,0,0-.743-.486h-1.652a1.891,1.891,0,0,0-.867.468q-.467.45-.7.711a12.039,12.039,0,0,1-2.1,4.621,11.069,11.069,0,0,1-1.83,1.871l-.234-.337a9.486,9.486,0,0,0,1.39-3.031q.137-.542.289-1.254a27.55,27.55,0,0,0,.344-3.349q.054-1.29.014-2.582h2.477v1.085a11.61,11.61,0,0,1-.138,1.777,4.575,4.575,0,0,1,.578-.448,2.72,2.72,0,0,1,.744-.225h2.326c.119,0,.252-.006.4-.019Z" transform="translate(-303.703 -23.606)" fill="#fff"/></g></g><g transform="translate(0 0)"><g clip-path="url(#b)"><path d="M22.582,19.052c2.808,5.076,5.562,5.076,5.941-5.9A9.691,9.691,0,0,1,34.475,4.2s-5.233-.34-8.167,3.944c-2.7,3.942-1.32,7.572-2.484,6.588-4.536-3.834-7.884,2.214-7.884,2.214s4.468-1.825,6.642,2.106" transform="translate(-9.479 -2.494)" fill="#fff"/><path d="M22.878,55.554s-5.764-.243-13.555-5.724C-1.369,42.307,5.759,36.788,5.759,36.788S1.925,36.777.521,41.243c-2.737,8.707,6.21,14.311,6.21,14.311" transform="translate(0 -21.877)" fill="#fff"/><path d="M61.238,33.677S73.156,29.3,74.878,16.52c2.345-17.4-11.96-15.187-11.96-15.187s5.4-3.582,12.853.992c13.6,8.348,8.04,31.351,8.04,31.351Z" transform="translate(-36.416 0)" fill="#fff"/></g></g></g></g></svg>