<?xml version="1.0" encoding="UTF-8"?>
<svg id="_レイヤー_1" data-name=" レイヤー 1" xmlns="http://www.w3.org/2000/svg" version="1.1" viewBox="0 0 92 92">
  <defs>
    <style>
      .cls-1 {
        fill: #8b8780;
      }

      .cls-1, .cls-2 {
        stroke-width: 0px;
      }

      .cls-2 {
        fill: #48453a;
      }
    </style>
  </defs>
  <path class="cls-2" d="M47.2,19.9c-5.5,0-10-4.5-10-10S41.7,0,47.2,0h0c5.5,0,10,4.5,10,10h0c0,5.5-4.5,10-10,10h0ZM47.2,2.6h0c-4,0-7.3,3.3-7.3,7.3s3.3,7.3,7.3,7.3,7.3-3.3,7.3-7.3h0c0-2-.8-3.8-2.2-5.2-1.4-1.4-3.2-2.1-5.2-2.1h0Z"/>
  <path class="cls-2" d="M73.8,51.3c-1.7,0-3.6-.8-5.2-1.5,0,0-.1,0-.1,0l-7.7-3.5c-.7-.3-1-1.1-.7-1.8s1.1-1,1.8-.7l7.7,3.5c3.6,1.5,4.8,1.8,5.7.4.2-.2.2-.5.1-.8-.3-1.1-1.9-2.4-2.9-2.9l-8.6-4.3c-.4-.2-.7-.6-.7-1-.2-2.2-1.3-8.4-3.1-10.8-2.2-2.5-5.3-4-8.7-4.2h-.6c-2.5,0-8.5-.1-12.5,2.3-4,2.6-7.5,5.9-10.3,9.8-2.1,3.2-3.6,6.8-4.4,10.6-.1.7-.8,1.2-1.6,1s-1.2-.8-1-1.6c.9-4.2,2.5-8.1,4.8-11.6,3-4.2,6.7-7.7,11-10.5,4.7-2.9,11.2-2.8,13.9-2.7h.6c4.1.2,8,2,10.7,5.1,2.3,2.9,3.3,9.2,3.6,11.4l8,4c.4.2,3.6,2.1,4.2,4.6.2,1,.1,1.9-.4,2.8-1,1.6-2.3,2.2-3.7,2.2h0Z"/>
  <path class="cls-2" d="M75.2,90.7c-3.8,0-5.9-4.1-6.7-5.6-1.4-2.7-5.1-12.3-6-14.5l-9.9-5.6c-.6-.4-.9-1.2-.5-1.8.4-.6,1.2-.9,1.8-.5l10.3,5.8c.3.2.5.4.6.7,0,.1,4.6,11.9,6,14.7,2.1,4.2,3.8,4.3,5.1,4,.2,0,.5-.2.8-.6.5-.8.4-2.2.2-2.9-2.5-6.5-5.3-13.1-8.5-19.4-.8-1-7-5.5-12.7-9.2-.4-.2-.6-.7-.6-1.1v-16c0-.7.6-1.3,1.3-1.3s1.3.6,1.3,1.3v15.3c4,2.7,12,8.1,12.9,9.7,3.2,6.5,6.2,13.2,8.7,19.9.4,1.1.5,3.3-.4,5.1-.6,1-1.4,1.6-2.4,1.9-.5.1-1,.2-1.4.2h0Z"/>
  <path class="cls-1" d="M30.8,64.4h-15c-1.9,0-3.5-1.6-3.5-3.5v-8.7c0-2,1.6-3.5,3.5-3.5h15c2,0,3.5,1.6,3.5,3.5v8.7c0,2-1.6,3.5-3.5,3.5ZM15.8,51.3c-.5,0-.9.4-.9.9v8.7c0,.5.4.9.9.9h15c.5,0,.9-.4.9-.9v-8.7c0-.5-.4-.9-.9-.9h-15Z"/>
  <path class="cls-2" d="M31.7,92c-.8,0-1.7-.2-2.7-.6-.4-.2-.9-.4-1.3-.7-2.4-1.8-2.8-5.1-1.1-7.5,1.4-2.3,9-14.3,10.4-16.5v-30.8c-2.1,2-5.2,5.6-5.8,10.6,0,.7-.7,1.3-1.5,1.2-.7,0-1.2-.7-1.2-1.5.9-8.9,8.7-14,9-14.2.4-.3.9-.3,1.3,0,.4.2.7.7.7,1.2v34c0,.2,0,.5-.2.7,0,.1-9.2,14.5-10.6,16.8,0,0,0,0,0,.1-.4.6-.6,1.3-.5,2s.5,1.4,1.1,1.8c.2.2.5.3.7.4,1.9.8,3.2.7,5.6-2.6,2.4-3.3,9.1-13.2,10.4-15.4.7-1.1,1-7.9.8-13.5,0-.7.6-1.3,1.3-1.3.8,0,1.3.6,1.3,1.3,0,2.9.2,12.6-1.2,14.9-1.3,2.2-8.2,12.2-10.5,15.6-1.6,2.2-3.4,4.1-6,4.1h0Z"/>
</svg>