<?xml version="1.0" encoding="UTF-8"?><svg id="_レイヤー_1" xmlns="http://www.w3.org/2000/svg" viewBox="0 0 92 92"><defs><style>.cls-1{fill:#48453a;}.cls-1,.cls-2{stroke-width:0px;}.cls-2{fill:#ae9373;}</style></defs><path class="cls-1" d="m47.19,19.94c-5.5,0-9.97-4.47-9.97-9.97S41.69,0,47.19,0h0c5.5,0,9.97,4.47,9.97,9.97h0c0,5.5-4.47,9.98-9.97,9.98Zm0-17.3h0c-4.04,0-7.33,3.29-7.33,7.33s3.29,7.33,7.33,7.33,7.33-3.29,7.33-7.33h0c0-1.96-.76-3.8-2.15-5.18-1.38-1.38-3.22-2.14-5.18-2.14Z"/><path class="cls-1" d="m73.76,51.26c-1.7,0-3.55-.79-5.19-1.48-.01,0-.11-.05-.12-.05l-7.65-3.51c-.66-.3-.95-1.09-.65-1.75.3-.66,1.09-.95,1.75-.65l7.65,3.51c3.6,1.53,4.84,1.77,5.68.38.15-.25.19-.48.11-.76-.28-1.09-1.93-2.38-2.91-2.94l-8.58-4.32c-.4-.2-.67-.59-.72-1.04-.24-2.21-1.28-8.44-3.11-10.75-2.16-2.49-5.34-4.03-8.69-4.17-.13,0-.36,0-.63,0-2.54-.04-8.48-.12-12.49,2.33-4.02,2.57-7.48,5.86-10.26,9.77-2.15,3.22-3.64,6.81-4.42,10.64-.14.72-.84,1.18-1.56,1.03-.72-.15-1.18-.84-1.03-1.56.85-4.17,2.47-8.07,4.83-11.61,3-4.22,6.71-7.74,11.03-10.51,4.69-2.86,11.16-2.77,13.93-2.73h.64c4.13.18,8,2.05,10.67,5.13,2.31,2.92,3.32,9.21,3.62,11.43l8.01,4.03c.42.23,3.56,2.09,4.21,4.6.25.97.11,1.94-.41,2.8-.99,1.63-2.31,2.19-3.74,2.19Z"/><path class="cls-1" d="m75.17,90.7c-3.81,0-5.92-4.11-6.66-5.56-1.38-2.68-5.11-12.3-5.97-14.53l-9.92-5.58c-.64-.36-.86-1.16-.5-1.8.36-.63,1.16-.86,1.8-.5l10.33,5.81c.27.15.48.39.59.68.05.12,4.56,11.87,6.02,14.71,2.13,4.16,3.83,4.33,5.07,4.03.22-.06.51-.17.75-.61.47-.85.44-2.25.23-2.9-2.48-6.54-5.34-13.09-8.49-19.41-.77-1.02-7.02-5.45-12.68-9.19-.37-.24-.59-.66-.59-1.1v-16.03c0-.73.59-1.32,1.32-1.32s1.32.59,1.32,1.32v15.32c4,2.65,11.99,8.08,12.92,9.67,3.25,6.5,6.16,13.16,8.7,19.87.37,1.14.53,3.35-.42,5.06-.55.98-1.38,1.63-2.42,1.89-.49.12-.96.18-1.4.18Z"/><path class="cls-2" d="m30.8,64.43h-14.96c-1.95,0-3.54-1.59-3.54-3.54v-8.71c0-1.95,1.59-3.54,3.54-3.54h14.96c1.96,0,3.55,1.59,3.55,3.54v8.71c0,1.95-1.59,3.54-3.55,3.54Zm-14.96-13.16c-.5,0-.9.4-.9.9v8.71c0,.5.4.9.9.9h14.96c.5,0,.9-.4.9-.9v-8.71c0-.5-.41-.9-.9-.9h-14.96Z"/><path class="cls-1" d="m31.68,92c-.81,0-1.7-.19-2.68-.61-.43-.15-.9-.41-1.34-.73-2.35-1.77-2.84-5.1-1.1-7.47,1.41-2.32,9.02-14.27,10.41-16.46v-30.82c-2.13,1.96-5.25,5.63-5.76,10.6-.07.73-.72,1.26-1.45,1.18-.73-.07-1.25-.72-1.18-1.45.92-8.94,8.67-13.98,9-14.19.41-.26.92-.28,1.35-.04s.69.68.69,1.16v33.95c0,.25-.07.5-.21.71-.09.14-9.21,14.46-10.62,16.79-.02.04-.05.07-.07.11-.44.58-.62,1.3-.52,2.02s.48,1.36,1.06,1.8c.22.17.46.3.72.39,1.93.84,3.23.65,5.6-2.62,2.38-3.28,9.11-13.16,10.43-15.36.68-1.13.95-7.9.82-13.52-.02-.73.56-1.34,1.29-1.35.76-.03,1.34.56,1.35,1.29.07,2.92.19,12.64-1.19,14.94-1.34,2.23-8.16,12.24-10.55,15.55-1.6,2.2-3.43,4.14-6.04,4.14Z"/></svg>