<?xml version="1.0" encoding="UTF-8"?><svg id="_レイヤー_1" xmlns="http://www.w3.org/2000/svg" viewBox="0 0 92 92"><defs><style>.cls-1{fill:#48453a;}.cls-1,.cls-2{stroke-width:0px;}.cls-2{fill:#ae9373;}</style></defs><path class="cls-1" d="m33.69,22.05c-1.44,0-2.96-.23-4.58-.7-.7-.2-1.11-.94-.9-1.64s.94-1.1,1.64-.9c3.22.93,5.96.76,8.14-.5,3.39-1.96,4.41-5.99,4.42-6.03.14-.56.62-.96,1.19-1.01.57-.04,1.11.29,1.32.82.11.27,2.88,6.81,9.87,6.67h.02c.72,0,1.31.58,1.32,1.3.01.73-.57,1.33-1.3,1.34-5.71.09-9.17-3.3-10.92-5.78-.84,1.62-2.27,3.62-4.57,4.96-1.68.98-3.56,1.47-5.65,1.47Z"/><path class="cls-1" d="m42.15,37.37h0c-7.33,0-13.29-5.97-13.3-13.3,0-.73.59-1.32,1.32-1.32h0c.73,0,1.32.59,1.32,1.32,0,5.87,4.78,10.65,10.65,10.65h0c2.84,0,5.52-1.11,7.53-3.12,2.01-2.01,3.12-4.69,3.13-7.54,0-.73.59-1.32,1.32-1.32h0c.73,0,1.32.59,1.32,1.32,0,3.55-1.39,6.89-3.9,9.4-2.51,2.51-5.85,3.89-9.4,3.89Z"/><path class="cls-1" d="m58.3,43.23c-.73,0-1.32-.59-1.32-1.32v-20.47c.09-8.2-6.5-14.92-14.69-15.01-.05,0-.11,0-.16,0-8.11,0-14.75,6.56-14.84,14.69v20.79c0,.73-.59,1.32-1.32,1.32s-1.32-.59-1.32-1.32v-20.81c.1-9.64,8.04-17.39,17.67-17.3,9.64.1,17.4,8.03,17.3,17.67v20.45c0,.73-.59,1.32-1.32,1.32Z"/><path class="cls-1" d="m30.23,67.35c-3.22,0-5.24-.97-6.77-3.16-.03-.04-.06-.08-.08-.13-1.03-1.91-1.04-4.19-.03-6.11.41-.95,6.46-14.98,7.53-17.51.85-2.08,3.08-3.29,5.31-2.85.72.14,1.18.83,1.04,1.55-.14.72-.84,1.18-1.55,1.04-.99-.2-1.98.34-2.36,1.27-1.11,2.63-7.5,17.44-7.56,17.59-.02.03-.03.07-.05.1-.6,1.12-.62,2.46-.03,3.59,1.02,1.44,2.36,2.2,6,1.89,3.53-.3,19.58-1.73,21.65-1.92,1.42-.68,2.31-2.11,2.26-3.71-.12-1.35-1.09-2.75-7.3-2.27-4.13.32-11.01,1.15-11.08,1.16-.48.06-.95-.15-1.23-.54-.28-.39-.33-.9-.13-1.33l4.46-9.56c.31-.66,1.09-.95,1.76-.64.66.31.95,1.09.64,1.76l-3.46,7.41c2.42-.28,6.18-.69,8.84-.89,2.64-.21,9.66-.75,10.15,4.75.08,2.83-1.51,5.3-4.05,6.37-.13.05-.26.09-.4.1,0,0-18.11,1.62-21.89,1.94-.59.05-1.15.08-1.67.08Z"/><path class="cls-1" d="m51.57,55.69c-.31,0-.62-.11-.87-.33-.55-.48-.6-1.32-.12-1.86,1.78-2.02,2.51-4.04,2.18-6.01-.7-4.13-5.66-6.96-5.71-6.99-.64-.36-.86-1.16-.5-1.8.36-.64,1.16-.86,1.8-.5.25.14,6.12,3.49,7.02,8.85.47,2.8-.47,5.56-2.8,8.2-.26.3-.63.45-.99.45Z"/><path class="cls-1" d="m30.32,86.94c-.73,0-1.32-.59-1.32-1.32v-15.11c0-.73.59-1.32,1.32-1.32s1.32.59,1.32,1.32v15.11c0,.73-.59,1.32-1.32,1.32Z"/><path class="cls-1" d="m54.43,88.21c-.22,0-.35,0-.36,0-.73-.05-1.28-.67-1.24-1.4.05-.73.68-1.26,1.4-1.24.41.02,10.22.47,12.19-9.59,1.77-9.03-3.94-14.04-9.87-15.72-.7-.2-1.11-.93-.91-1.63.2-.7.93-1.11,1.63-.91,6.74,1.91,13.86,7.97,11.74,18.77-2.19,11.16-12.5,11.73-14.58,11.73Z"/><path class="cls-2" d="m52.77,81.6c-.38,0-.77-.11-1.11-.34-1.71-1.1-3.3-2.39-4.73-3.84-1.94-1.91-2.44-4.85-1.23-7.32.81-1.62,2.59-2.61,4.51-2.51.98.05,1.86.37,2.54.88.69-.52,1.57-.84,2.55-.89,1.92-.09,3.69.89,4.5,2.51,1.22,2.47.72,5.41-1.24,7.34-1.41,1.44-3.01,2.73-4.73,3.83-.3.22-.68.33-1.06.33Zm.39-2.52h0,0Zm-.76-.03s-.03.02-.05.03c.02-.01.03-.02.05-.03Zm-2.45-8.81c-.68,0-1.49.27-1.88,1.05-.71,1.43-.41,3.15.73,4.27,1.21,1.23,2.54,2.32,3.96,3.26,1.44-.96,2.75-2.05,3.94-3.25,1.16-1.14,1.45-2.85.74-4.29-.41-.82-1.34-1.08-2-1.04-.53.03-1.23.26-1.44.82-.19.51-.69.85-1.24.85h0c-.55,0-1.04-.34-1.24-.85-.21-.56-.91-.79-1.44-.82-.04,0-.08,0-.13,0Z"/></svg>