<svg xmlns="http://www.w3.org/2000/svg" xmlns:xlink="http://www.w3.org/1999/xlink" width="14" height="14" viewBox="0 0 14 14"><defs><clipPath id="a"><rect width="14" height="14" transform="translate(0 -815)" fill="none"/></clipPath></defs><g transform="translate(0 815)" clip-path="url(#a)"><g transform="translate(-810 -3882.4)"><path d="M46.523,3077.753a.5.5,0,0,1-.5-.5v-8a.5.5,0,0,1,1,0v8A.5.5,0,0,1,46.523,3077.753Z" transform="translate(770.477 -0.253)" fill="#48453a"/><path d="M56.674,3084.823a.5.5,0,0,1-.354-.146l-3-3a.5.5,0,0,1,.707-.707l2.646,2.646,2.646-2.646a.5.5,0,0,1,.707.707l-3,3A.5.5,0,0,1,56.674,3084.823Z" transform="translate(760.326 -7.122)" fill="#48453a"/><path d="M53.57,3080.162h-12a.5.5,0,0,1-.5-.5v-4a.5.5,0,0,1,1,0v3.5h11v-3.5a.5.5,0,0,1,1,0v4A.5.5,0,0,1,53.57,3080.162Z" transform="translate(769.43 0.138)" fill="#48453a"/></g></g></svg>