<svg id="icon-target" xmlns="http://www.w3.org/2000/svg" width="13.816" height="13.825" viewBox="0 0 13.816 13.825">
  <g id="グループ_271" data-name="グループ 271" transform="translate(0 0)">
    <path id="パス_134" data-name="パス 134" d="M580.654-42.741v1.7H577.22v9.555h9.522V-34.9h1.71c0,1.251.062,2.5-.021,3.737a1.641,1.641,0,0,1-1.821,1.418c-2.406.007-4.812,0-7.217,0-.709,0-1.419.011-2.128,0a1.679,1.679,0,0,1-1.785-1.808q-.014-4.7,0-9.392a1.7,1.7,0,0,1,1.806-1.791C578.393-42.745,579.5-42.741,580.654-42.741Z" transform="translate(-575.471 43.566)" fill="#fff"/>
    <path id="パス_135" data-name="パス 135" d="M636.143-43.265,634.9-44.542l5.445-5.415h-3.116v-1.688h5.986v5.992H641.56v-3.1Z" transform="translate(-629.399 51.644)" fill="#fff"/>
  </g>
</svg>
