<svg id="_レイヤー_1" xmlns="http://www.w3.org/2000/svg" viewBox="0 0 92 92"><defs><style>.cls-1,.cls-2{fill:#48453a;stroke-width:0}.cls-2{fill:#bab6b0}</style></defs><path class="cls-1" d="M40.8 77.8c-6.82 0-10.78-4.9-10.87-13.47-.01-1.25-.02-2.04-.02-2.52v-.58c.04-.56.23-1.07.97-1.08.7-.05.93.42 1 1.05h.01v.11c.02.21.02.45.03.69 0 .08 0 .15-.02.23 0 .48.01 1.15.02 2.07.06 5.28 1.64 11.55 8.98 11.49 7.3-.06 8.06-4.62 8.47-7.07.28-1.69.39-3.76.49-5.77.05-.94.1-1.88.16-2.76.13-1.73 1.23-10.3 10.46-10.3h.2c7.18-.24 8.68 4.73 8.74 4.94.15.53-.15 1.08-.68 1.24-.53.15-1.08-.15-1.24-.68-.04-.14-1.2-3.71-6.8-3.49h-.17c-7.33 0-8.37 6.46-8.52 8.45-.06.87-.11 1.79-.16 2.72-.11 2.06-.22 4.2-.51 5.96-.44 2.63-1.44 8.71-10.43 8.79h-.12z" id="_パス_31"/><path class="cls-1" d="M30.93 51.99c-16.07 0-16.69-13.65-16.9-18.14-.24-5.25 0-17.13 0-17.25.01-.54.46-.98 1-.98h4.07c.55 0 1 .45 1 1s-.45 1-1 1h-3.09c-.05 2.96-.18 11.83.02 16.14.32 6.97 2.21 16.23 14.9 16.23s14.59-9.26 14.9-16.23c.19-4.31.07-13.18.02-16.14h-2.69c-.55 0-1-.45-1-1s.45-1 1-1h3.67c.54 0 .99.44 1 .98 0 .12.24 12 0 17.25-.2 4.49-.82 18.14-16.9 18.14z" id="_パス_32"/><path class="cls-1" d="M30.93 58.97c-4.21 0-5.32-2.61-5.32-3.99v-4.4c0-.55.45-1 1-1s1 .45 1 1v4.4c0 .19.16 1.99 3.32 1.99s3.31-1.8 3.32-2v-4.38c0-.55.45-1 1-1s1 .45 1 1v4.4c0 1.38-1.11 3.99-5.32 3.99z" id="_パス_33"/><path class="cls-2" d="M30.93 52.99c-7.29 0-12.45-2.71-15.34-8.07-.52-.97-.16-2.19.81-2.71.97-.52 2.19-.16 2.71.81 2.16 4.01 6.03 5.96 11.82 5.96s9.65-1.95 11.82-5.96c.52-.97 1.74-1.34 2.71-.81.97.52 1.33 1.74.81 2.71-2.89 5.35-8.05 8.06-15.34 8.06z" id="_パス_34"/><path class="cls-2" d="M69.37 68.13c-3.08 0-5.58-2.5-5.58-5.58s2.5-5.58 5.58-5.58 5.58 2.5 5.58 5.58-2.5 5.58-5.58 5.58zm0-9.16c-1.98 0-3.58 1.61-3.58 3.58s1.61 3.58 3.58 3.58 3.58-1.61 3.58-3.58-1.61-3.58-3.58-3.58z" id="_楕円形_19"/><path class="cls-2" d="M69.37 65.03a2.48 2.48 0 110-4.96 2.48 2.48 0 010 4.96zm0-2.95c-.26 0-.48.21-.48.48s.21.48.48.48.48-.21.48-.48-.21-.48-.48-.48z" id="_楕円形_20"/><g id="_長方形_180"><path class="cls-2" d="M21.94 15.2h4.89v2.83h-4.89z"/><path class="cls-2" d="M26.83 19.03h-4.89c-.55 0-1-.45-1-1V15.2c0-.55.45-1 1-1h4.89c.55 0 1 .45 1 1v2.83c0 .55-.45 1-1 1zm-3.89-2h2.89v-.83h-2.89v.83z"/></g><g id="_長方形_181"><path class="cls-2" d="M35.03 15.2h4.89v2.83h-4.89z"/><path class="cls-2" d="M39.93 19.03h-4.89c-.55 0-1-.45-1-1V15.2c0-.55.45-1 1-1h4.89c.55 0 1 .45 1 1v2.83c0 .55-.45 1-1 1zm-3.89-2h2.89v-.83h-2.89v.83z"/></g></svg>