<?xml version="1.0" encoding="UTF-8"?>
<svg id="_レイヤー_1" data-name=" レイヤー 1" xmlns="http://www.w3.org/2000/svg" version="1.1" viewBox="0 0 92 92">
  <defs>
    <style>
      .cls-1 {
        fill: #8b8780;
      }

      .cls-1, .cls-2 {
        stroke-width: 0px;
      }

      .cls-2 {
        fill: #48453a;
      }
    </style>
  </defs>
  <path class="cls-2" d="M75.6,79.1c-.8.8-1.8,1.2-3,1.2-16.1,0-31.5-6.4-42.9-17.9-11.4-11.5-17.8-26.9-17.7-43.1,0-2,1.4-3.7,3.3-4.1l13.3-3.1c2-.5,4,.6,4.8,2.4l6.2,14.4c.7,1.6.3,3.4-.9,4.7,0,0-.2.2-.3.3l-7.1,5.8c4.5,9.2,11.9,16.6,21,21.1l5.8-7.1c0-.1.2-.2.3-.3,1.2-1.2,3-1.6,4.6-.9l14.4,6.2c1.9.8,2.9,2.8,2.4,4.8l-3.1,13.4c-.2.8-.6,1.5-1.1,2.1ZM14.9,18c-.4.4-.6.9-.6,1.4,0,23.5,14,44.8,35.6,54.1,7.2,3.1,14.9,4.6,22.7,4.6.5,0,1-.2,1.4-.6s.4-.6.5-.9l3.1-13.4c.2-.9-.3-1.9-1.1-2.2l-14.4-6.2c-.7-.3-1.6-.2-2.1.4,0,0,0,0-.1.1l-6.9,8.5-.8-.4c-10.2-4.8-18.5-13.1-23.3-23.4l-.4-.8,8.4-7h.1c.6-.7.7-1.6.4-2.3l-6.1-14.4c-.4-.9-1.3-1.4-2.2-1.1l-13.3,3.1c-.4,0-.7.3-.9.5h0Z"/>
  <path class="cls-1" d="M76.9,39.6c-.3-.3-.4-.8-.2-1.2.5-1.7.7-3.5.4-5.3-.8-4.7-3.1-9.1-6.6-12.3-3.3-3.5-7.6-5.9-12.4-6.7-1.8-.3-3.6-.1-5.3.4-.6.2-1.2,0-1.5-.7-.2-.6,0-1.2.7-1.4,2-.6,4.2-.8,6.2-.5,5.3.8,10.2,3.4,13.8,7.3,3.9,3.6,6.5,8.5,7.3,13.8.3,2.1,0,4.2-.6,6.2-.2.6-.9.9-1.5.6-.1,0-.3-.1-.4-.2h0Z"/>
  <path class="cls-1" d="M68.2,37.9c-.3-.3-.4-.8-.2-1.2,0-.2,1.6-4.6-3.6-9.9s-9.9-3.6-9.9-3.6c-.6.2-1.2,0-1.5-.7h0c-.2-.6,0-1.2.7-1.5h0c.2,0,6-2.2,12.3,4.1,6.3,6.3,4.2,12,4.1,12.3-.2.6-.9.9-1.5.6-.1,0-.3-.1-.4-.2h0Z"/>
</svg>